<!-- Generated by IcoMoon.io -->
<svg version="1.1" xmlns="http://www.w3.org/2000/svg" width="32" height="32" viewBox="0 0 32 32">
<title>af</title>
<path d="M23.312 13.84c0.219-0.352 0.482 0.488 1.384 1.114 0.42 0.286 0.713 1.047 0.715 1.547 0.014 0.344-0.038 0.687 0 1.020 0.024 0.21 0.244 0.678 0.094 0.797-0.397 0.295-0.911 0.964-1.15 1.195-0.206 0.181-0.385-0.932-0.54-1.43-0.166-0.534-0.092-1.171-0.552-1.664-0.326-0.333-1.148-0.66-1.056-0.809l1.103-1.77z"></path>
<path d="M23.816 18.083c-0.166-0.534-0.092-1.171-0.552-1.664-0.326-0.333-1.148-0.66-1.056-0.809l1.103-1.77c0.219-0.352 0.482 0.488 1.384 1.114 0.42 0.286 0.713 1.047 0.715 1.547z"></path>
<path d="M23.371 16.549c0.068-0.157 0.157-0.303 0.281-0.443s0.271-0.259 0.433-0.316c0.157-0.058 0.316-0.133 0.428-0.272 0.056-0.069 0.104-0.157 0.128-0.261 0.022-0.097 0.017-0.207 0-0.342 0.020 0.014 0.035 0.023 0.055 0.037 0.42 0.286 0.714 1.048 0.717 1.548 0.006 0.138-0.002 0.282-0.008 0.42-0.031 0.086-0.053 0.161-0.098 0.213-0.058 0.068-0.127 0.113-0.2 0.144-0.146 0.063-0.315 0.076-0.472 0.133-0.162 0.058-0.329 0.188-0.472 0.344-0.136 0.149-0.241 0.32-0.311 0.472-0.012-0.043-0.027-0.107-0.039-0.144-0.209-0.565-0.177-1.138-0.443-1.532zM31.056 16.494c-0.012 0.061 0.154 0.151 0.193 0.105 0.178-0.213 0.411-0.631 0.459-0.884 0.014-0.074-0.223-0.157-0.274-0.096-0.167 0.199-0.328 0.61-0.378 0.876zM8.8 29.46c-0.177 0.625-2.791-0.59-3.083-1.219 1.496 0.792 3.119 0.626 3.083 1.219zM0.535 16.684c0.131 0.155 0.351 0.051 0.15-0.159-0.164-0.17-0.11-0.224-0.21-0.43-0.099-0.231-0.094-0.359-0.213-0.524-0.106-0.157-0.265 0.003-0.158 0.135 0.134 0.156 0.097 0.271 0.178 0.422 0.151 0.258 0.114 0.394 0.253 0.556zM11.726 24.82c0.445 0.364 0.734 0.78 0.869 1.318 0.14 0.501 0.338 0.9 0.628 1.35-0.472-0.322-0.769-0.759-0.917-1.286-0.13-0.518-0.284-0.905-0.579-1.382zM20.060 24.82c-0.455 0.366-0.75 0.785-0.888 1.326-0.144 0.504-0.345 0.905-0.642 1.358 0.483-0.323 0.786-0.763 0.938-1.294 0.133-0.521 0.291-0.911 0.592-1.39zM19.501 24.82c-0.488 0.383-0.948 0.817-1.086 1.358-0.144 0.504-0.23 0.889-0.559 1.39 0.515-0.323 0.72-0.812 0.872-1.342 0.133-0.521 0.439-0.91 0.773-1.406zM13.987 26.901c0.163 0.308 0.351 0.777 0.692 0.691 0.005-0.236-0.367-0.399-0.692-0.691zM14.493 27.005c0.661 0.271 1.232 0.204 1.303 0.619-0.62 0.067-0.847-0.188-1.303-0.619zM17.735 26.941c-0.166 0.29-0.356 0.732-0.701 0.651-0.005-0.222 0.372-0.376 0.701-0.651zM17.272 27.030c-0.671 0.257-1.25 0.193-1.322 0.587 0.629 0.063 0.859-0.178 1.322-0.587zM17.885 26.089c0.013-0.094-0.051-0.176-0.128-0.201-0.15-0.056-0.299-0.102-0.448-0.145-0.169-0.040-0.264 0.081-0.264 0.161-0.001 0.133-0.007 0.245 0 0.345 0.009 0.125 0.033 0.134 0.112 0.153 0.127 0.021 0.289 0.043 0.416 0.129 0.101 0.062 0.198 0.013 0.248-0.096 0.033-0.084 0.050-0.247 0.064-0.346zM16.062 26.089c-0.012-0.094 0.038-0.184 0.107-0.209 0.134-0.056 0.268-0.070 0.408-0.064 0.156-0.003 0.196 0.033 0.196 0.113 0.001 0.133 0.006 0.261 0 0.361-0.008 0.125-0.005 0.134-0.076 0.153-0.113 0.021-0.306 0.027-0.42 0.113-0.090 0.062-0.193 0.013-0.198-0.104 0.002-0.088-0.005-0.263-0.017-0.362zM13.85 26.065c-0.013-0.094 0.051-0.176 0.129-0.201 0.151-0.056 0.301-0.102 0.45-0.145 0.17-0.040 0.265 0.081 0.266 0.161 0.001 0.133 0.007 0.245 0 0.345-0.009 0.125-0.033 0.134-0.113 0.153-0.127 0.021-0.29 0.043-0.418 0.129-0.101 0.062-0.199 0.013-0.249-0.096-0.033-0.084-0.051-0.247-0.064-0.346zM15.681 26.065c0.012-0.094-0.038-0.184-0.107-0.209-0.135-0.056-0.269-0.070-0.41-0.064-0.157-0.003-0.197 0.033-0.197 0.113-0.001 0.133-0.006 0.261 0 0.361 0.008 0.125 0.006 0.134 0.077 0.153 0.114 0.021 0.308 0.027 0.422 0.113 0.091 0.062 0.194 0.013 0.199-0.104-0.002-0.089 0.005-0.263 0.018-0.362zM8.503 13.667c-0.219-0.352-0.482 0.488-1.384 1.114-0.42 0.286-0.713 1.047-0.716 1.547-0.014 0.344 0.038 0.687-0 1.020-0.024 0.21-0.244 0.678-0.094 0.797 0.397 0.295 0.911 0.964 1.15 1.195 0.206 0.181 0.385-0.932 0.54-1.43 0.166-0.534 0.092-1.171 0.552-1.664 0.326-0.333 1.148-0.66 1.056-0.809l-1.103-1.77z"></path>
<path d="M7.999 17.91c0.166-0.534 0.092-1.171 0.552-1.664 0.326-0.333 1.148-0.66 1.056-0.809l-1.103-1.77c-0.219-0.352-0.482 0.488-1.384 1.114-0.42 0.286-0.713 1.047-0.715 1.547z"></path>
<path d="M8.444 16.377c-0.068-0.157-0.157-0.303-0.281-0.443s-0.271-0.259-0.433-0.316c-0.157-0.058-0.316-0.133-0.428-0.272-0.056-0.069-0.104-0.157-0.128-0.261-0.022-0.097-0.017-0.207-0-0.342-0.019 0.014-0.035 0.023-0.055 0.037-0.42 0.286-0.714 1.048-0.717 1.548-0.006 0.138 0.002 0.282 0.008 0.42 0.031 0.086 0.053 0.161 0.098 0.213 0.058 0.068 0.127 0.113 0.2 0.144 0.146 0.063 0.315 0.076 0.472 0.133 0.162 0.058 0.329 0.188 0.472 0.344 0.136 0.149 0.241 0.32 0.311 0.472 0.012-0.043 0.027-0.107 0.039-0.144 0.209-0.565 0.177-1.138 0.443-1.532zM8.235 13.323l0.159-0.102 3.060 5.149-0.159 0.102-3.060-5.149z"></path>
<path d="M8.565 13.119v0c0 0.195-0.158 0.352-0.353 0.352s-0.353-0.158-0.353-0.352v-0.001c0-0.195 0.158-0.352 0.353-0.352s0.353 0.158 0.353 0.352v0zM23.583 13.415l-0.159-0.106-3.059 5.329 0.159 0.106 3.059-5.329z"></path>
<path d="M23.253 13.203v0c0 0.201 0.158 0.365 0.352 0.365s0.353-0.163 0.353-0.365v-0.001c0-0.201-0.158-0.365-0.352-0.365s-0.353 0.163-0.353 0.365v0zM11.182 8.982h1.24v0.284h-1.24v-0.284zM11.182 9.521h1.24v2.374h-1.24v-2.374zM11.107 8.657l1.376 0.008c0.054-0.466-0.412-0.969-0.684-0.964-0.269 0.013-0.703 0.509-0.692 0.956zM19.328 8.99h1.24v0.284h-1.24v-0.284zM19.328 9.529h1.24v2.374h-1.24v-2.374zM19.253 8.665l1.376 0.008c0.054-0.466-0.412-0.969-0.684-0.964-0.269 0.013-0.703 0.509-0.692 0.956z"></path>
<path d="M10.15 12.298l0.789 0.868 9.815 0.016 0.805-0.868-2.51-0.032-1.223-0.852-3.942-0.016-1.142 0.884h-2.59zM14.167 10.958l3.389-0.004c0.459-0.242 0.602-1.016 0.6-1.449-0.006-1.279-0.902-1.893-1.801-1.925-0.135-0.007-0.291-0.111-0.327-0.234-0.089-0.278-0.066-1.001-0.163-0.991-0.086-0.001-0.061 0.708-0.138 0.968-0.042 0.13-0.188 0.257-0.333 0.265-1.119 0.056-1.84 0.872-1.812 1.917 0.019 0.691 0.099 1.104 0.585 1.453z"></path>
<path d="M14.167 10.958l3.389-0.004c0.459-0.242 0.602-1.016 0.6-1.449-0.006-1.279-0.902-1.893-1.801-1.925-0.135-0.007-0.291-0.111-0.327-0.234-0.089-0.278-0.066-0.985-0.163-0.991-0.070 0.007-0.061 0.708-0.138 0.968-0.042 0.13-0.188 0.257-0.333 0.265-1.119 0.056-1.84 0.872-1.812 1.917 0.019 0.691 0.099 1.104 0.585 1.453z"></path>
<path d="M13.955 9.831c0.085 0.422 0.289 0.357 0.274 0.153-0.050-0.651 0.003-1.293 0.579-1.72 0.183-0.134-0.021-0.257-0.177-0.193-0.49 0.206-0.788 1.15-0.676 1.76z"></path>
<path d="M14.526 10.096c0.085 0.422 0.434 0.403 0.37 0.129-0.131-0.526-0.11-1.292 0.354-1.623 0.183-0.133-0.021-0.257-0.177-0.193-0.49 0.206-0.659 1.078-0.547 1.688zM17.793 9.847c-0.086 0.422-0.289 0.357-0.274 0.153 0.050-0.651-0.003-1.292-0.58-1.72-0.183-0.134 0.021-0.257 0.177-0.193 0.491 0.206 0.789 1.15 0.677 1.76z"></path>
<path d="M17.221 10.112c-0.086 0.422-0.435 0.403-0.371 0.129 0.131-0.526 0.11-1.292-0.354-1.623-0.183-0.133 0.021-0.257 0.177-0.193 0.491 0.206 0.66 1.078 0.548 1.687zM8.589 23.373h14.561l-1.303-1.061h-11.955l-1.303 1.061zM11.115 13.825h1.384v1.913h-1.384v-1.913zM11.196 16.831h1.335v0.402h-1.335v-0.402zM11.067 19.338h1.496v0.836h-1.496v-0.836zM11.25 16.472h1.206l0.239-0.398h-1.661l0.216 0.398zM20.568 16.831h-1.313v0.402h1.313v-0.402zM20.592 17.538h-1.337v1.495h1.337v-1.495zM20.678 19.338h-1.471v0.836h1.471v-0.836zM12.877 15.006l0.011-1.046h0.831c-0.326 0.269-0.63 0.595-0.842 1.046zM18.859 15.006l-0.011-1.046h-0.817c0.321 0.269 0.619 0.595 0.828 1.046zM11.332 17.715h0.981v1.222h-0.981v-1.222z"></path>
<path d="M11.96 18.221h0.346v0.201h-0.346v-0.201zM11.357 18.221h0.338v0.201h-0.338v-0.201zM11.694 17.731h0.265v0.498h-0.265v-0.498zM11.694 18.414h0.265v0.53h-0.265v-0.53zM19.442 17.707h0.981v1.222h-0.981v-1.222z"></path>
<path d="M20.069 18.213h0.346v0.201h-0.346v-0.201zM19.466 18.213h0.338v0.201h-0.338v-0.201z"></path>
<path d="M19.804 17.723h0.265v0.498h-0.266v-0.498zM19.804 18.406h0.265v0.53h-0.266v-0.53zM11.33 15.435c0.008 0.224 0.262 0.124 0.262 0.011 0-0.345 0.005-0.718-0.009-0.962-0.002-0.18 0.429-0.135 0.427-0.024 0.002 0.291 0.005 0.691 0.007 1.032-0.003 0.166 0.278 0.152 0.275 0-0.002-0.381-0.002-0.934 0-1.214 0.002-0.361-0.948-0.353-0.956-0.008 0 0.283-0.005 0.79-0.005 1.166zM19.471 15.475c0.008 0.224 0.262 0.124 0.262 0.011 0-0.345 0.005-0.718-0.009-0.962-0.002-0.18 0.429-0.135 0.427-0.024 0.002 0.291 0.005 0.691 0.007 1.032-0.003 0.166 0.27 0.152 0.266 0-0.002-0.389 0.006-0.934 0.008-1.214 0.003-0.361-0.948-0.353-0.956-0.008 0 0.283-0.005 0.79-0.005 1.166z"></path>
<path d="M15.267 19.386l0.265 0.796h0.603l-0.482-0.796-0.386 0zM14.929 20.182l0.153 0.788 0.708 0.008-0.257-0.796-0.603 0zM16.127 20.19l0.491 0.78h1.006l-0.788-0.788-0.708 0.008zM10.19 21.974c0.534-0.496 0.874-0.919 0.877-1.527h1.303c0.003 0.34 0.126 0.544 0.314 0.53l1.319-0.008-0.008-0.78h-0.957l-0-4.252c-0.035-1.503 1.829-2.379 2.591-2.371l-4.529-0.008v-0.137h9.525l0.008 0.137-4.594 0.008c1.362 0.003 2.676 1.291 2.687 2.379v1.205h-0.177l-0.008-1.189c0-1.19-1.5-2.301-2.703-2.267-1.041 0.030-2.655 1.021-2.639 2.259v0.37l2.47 0.016-0.024 0.426 0.388 0.247 0.773 0.246-0.011 0.639 0.554 0.163 0.005 0.638 0.665 0.285v0.661l0.422 0.259-0.019 0.671 0.571 0.402h-1.352l0.845 0.94h-1.247l-0.62-0.94h-0.821l0.37 0.932-0.877-0.008-0.209-0.924h-1.070l0.008 0.996-3.829 0zM14.012 19.394v0.788h0.917l-0.185-0.788h-0.732z"></path>
<path d="M14.060 18.004h0.571v1.31h-0.571v-1.31z"></path>
<path d="M13.253 19.406h0.557l-0.004-0.964c-0.007-0.419 0.369-0.841 0.549-0.855 0.2-0.008 0.494 0.395 0.504 0.822l0.008 1 0.591-0.001v-2.482l-2.207 0.012v2.468zM15.557 19.41l0.708 0.024 1.263 1.117v-0.659l-0.426-0.305v-0.523l-0.619-0.353v-0.563l-0.603-0.201v-0.764l-0.306-0.249-0.016 2.475zM18.549 17.779h0.169v1.214h-0.169v-1.214zM6.233 5.486c0.061 0.959-0.236 1.485-0.745 1.405-0.14-0.532 0.179-0.889 0.745-1.405zM5.117 7.611c-0.452-0.23-0.126-1.983 0.048-2.718 0.128 0.947 0.343 2.292-0.048 2.717z"></path>
<path d="M5.279 7.693c0.759 0.264 1.361-0.553 1.564-1.5-0.627 0.864-1.647 0.865-1.564 1.5zM4.702 8.578c-0.594-0.157-0.236-2.017-0.128-2.761 0.13 0.768 0.54 2.506 0.128 2.761zM4.905 8.521c0.033-0.641 0.673-0.456 1.115-0.798-0.072 0.321-0.344 0.889-1.115 0.798zM4.177 9.379c-0.589-0.159-0.235-2.16-0.268-2.984 0.173 0.712 0.719 2.791 0.268 2.984zM4.453 9.293c0.482 0.157 1.121-0.156 1.171-0.73-0.415 0.281-1.078 0.066-1.171 0.73z"></path>
<path d="M3.738 10.263c-0.563 0.045-0.311-1.66-0.311-3.248 0.207 1.484 0.77 2.842 0.311 3.248z"></path>
<path d="M3.933 10.186c0.38 0.191 1.061-0.114 1.256-0.755-0.687 0.298-1.146 0.007-1.256 0.755zM8.352 6.374c-0.1 0.832-0.44 1.315-0.949 1.235-0.14-0.532 0.272-0.872 0.949-1.235zM7.008 8.509c0.844 0.12 1.148-0.528 1.717-1.355-0.797 0.576-1.749 0.696-1.717 1.355z"></path>
<path d="M6.767 8.413c-0.46-0.552-0.015-1.245 0.336-1.835-0.076 0.879 0.224 1.367-0.336 1.835zM6.563 9.324c-0.052-0.54 0.868-0.66 1.285-0.96-0.14 0.312-0.352 1.152-1.285 0.96z"></path>
<path d="M6.371 9.336c-0.636-0.072-0.372-1.152 0.084-1.751-0.192 0.828 0.336 1.403-0.084 1.751z"></path>
<path d="M5.891 10.236c-0.724-0.32-0.26-1.227 0.012-1.763-0.116 0.704 0.464 1.239-0.012 1.763z"></path>
<path d="M6.035 10.152c0.38 0.496 1.121-0.148 1.273-0.9-0.644 0.536-1.12 0.448-1.273 0.9zM24.777 8.497c-0.028-0.816-0.908-0.636-1.669-1.308 0.208 0.708 0.944 1.571 1.669 1.308z"></path>
<path d="M25.185 9.324c-0.832 0.064-0.98-0.352-1.309-0.887 0.568 0.368 1.329 0.136 1.309 0.887z"></path>
<path d="M25.738 10.212c-0.832 0.196-1.101-0.244-1.309-0.983 0.676 0.62 1.053 0.328 1.309 0.983zM23.468 6.457c0.096 0.432 0.12 1.284 0.889 1.116 0.112-0.792-0.532-0.828-0.889-1.116zM24.957 8.401c0.516-0.356 0.12-1.132-0.36-1.811 0.18 0.74-0.216 1.419 0.36 1.811zM25.39 9.348c-0.396-0.324 0.096-1.020-0.072-1.715 0.312 0.44 0.793 1.491 0.072 1.715z"></path>
<path d="M25.858 10.2c0.58-0.008 0.32-1.155 0.024-1.679 0.080 0.632-0.428 1.359-0.024 1.679zM25.503 5.493c0.104 0.48-0.097 1.428 0.671 1.421 0.321-0.543-0.363-1.053-0.671-1.421z"></path>
<path d="M26.657 7.634c0.484-0.332 0.048-1.421-0.103-2.647-0.117 1.093-0.377 2.287 0.103 2.647z"></path>
<path d="M26.396 7.719c0.061-0.599-0.884-0.732-1.532-1.524 0.168 0.635 0.647 1.563 1.532 1.524zM27.043 8.651c-0.509-0.461 0.096-1.783 0.121-2.808 0.079 0.946 0.495 2.641-0.121 2.808zM26.754 8.518c-0.744 0.048-0.94-0.497-1.027-0.807 0.399 0.288 1.031 0.152 1.027 0.807zM27.5 9.339c0.572-0.024 0.36-2.192 0.281-2.877-0.057 0.728-0.653 2.613-0.281 2.877zM27.25 9.3c-0.494 0.075-0.996-0.212-1.132-0.702 0.427 0.186 1.133 0.039 1.132 0.702z"></path>
<path d="M27.96 10.239c0.612 0.249 0.393-2.578 0.313-3.23-0.057 0.833-0.782 2.878-0.313 3.23z"></path>
<path d="M27.817 10.239c-0.615 0.091-1.068-0.284-1.244-0.798 0.628 0.234 1.117 0.151 1.244 0.798zM27.373 13.592c0.076-0.738-0.49-2.081-0.089-2.797 0.055-0.098-0.12-0.359-0.233-0.201-0.177 0.253-0.358 0.973-0.434 0.707-0.081-0.289-0.093-0.801-0.354-0.9-0.167-0.058-0.402-0.096-0.338 0.161 0.064 0.247 0.207 0.589 0.048 0.611-0.092 0.013-0.357-0.337-0.579-0.498-0.18-0.144-0.448 0.081-0.185 0.297 0.853 0.695 1.68 1.008 2.164 2.62z"></path>
<path d="M29.516 13.099c0.208-0.218 0.148-0.302-0.16-0.306-0.245-0.015-0.729 0.15-0.913 0.016-0.168-0.123-0.101-0.644-0.176-0.884-0.032-0.134-0.126-0.344-0.336-0.016-0.621 1-1.398 2.2-1.729 3.375-0.181 0.659-0.091 1.72 0.608 2.282l0.496-1.447c0.236-0.688 1.506-2.338 2.21-3.022zM30.212 11.302c-0.28 0.9-0.448 1.637-0.044 1.724 0.432-0.075 0.244-0.944 0.044-1.724zM30.183 13.826c0.461 0.244 0.957-0.929 0.854-1.853-0.232 0.792-1.013 1.281-0.854 1.853z"></path>
<path d="M30.013 13.803c0.071-0.64-0.192-0.623-0.536-1.234 0.036 0.69 0.209 1.269 0.536 1.234zM30.165 14.74c0.538 0.152 1.154-1.126 1.131-2.072-0.224 1.046-1.391 1.464-1.131 2.072z"></path>
<path d="M29.989 14.717c0.216-0.496-0.224-0.435-0.516-1.323-0.097 0.919 0.044 1.339 0.516 1.323zM30.145 15.681c0.698 0.12 1.058-1.419 1.404-2.156-0.686 0.966-1.508 1.504-1.404 2.156z"></path>
<path d="M29.983 15.628c0.204-0.567-0.373-0.536-0.676-1.384 0.048 1.076 0.188 1.464 0.676 1.384zM30.183 16.605c0.441 0.032 1.234-1.199 1.251-1.959-0.377 0.837-1.56 1.392-1.252 1.959z"></path>
<path d="M29.857 16.463c0.183-0.592-0.329-0.596-0.556-1.259-0.016 1 0.14 1.339 0.556 1.259zM29.873 17.531c0.778 0.136 0.977-0.889 1.436-1.931-0.453 0.83-1.476 1.295-1.436 1.931z"></path>
<path d="M29.817 17.389c0.252-0.535-0.332-0.536-0.644-1.336-0.016 1.132 0.18 1.464 0.644 1.336zM26.991 18.374c-0.683 0.003-0.817-0.964-0.817-1.221 0.336 0.064 0.945 0.675 0.817 1.221zM28.355 13.978c-0.28 0.9-0.392 1.332-0.012 1.619 0.496-0.276 0.212-0.84 0.012-1.619zM28.199 16.329c0.208-0.664-0.304-0.824-0.576-1.571-0.028 0.988 0.112 1.711 0.576 1.571z"></path>
<path d="M28.403 16.473c0.364 0.14 0.812-0.704 0.564-1.547-0.256 0.76-0.885 0.943-0.564 1.547zM28.019 17.229c0.352-0.544-0.208-0.572-0.492-1.331-0.016 1 0.076 1.411 0.492 1.331z"></path>
<path d="M28.019 18.164c0.268-0.616-0.316-0.536-0.66-1.295-0.016 1.132 0.172 1.375 0.66 1.295zM28.283 17.265c0.304 0.008 0.896-0.524 0.721-1.188-0.256 0.556-0.981 0.5-0.721 1.188z"></path>
<path d="M28.199 18.068c0.497 0.104 0.873-0.655 0.817-1.175-0.388 0.484-0.921 0.524-0.817 1.175z"></path>
<path d="M31.309 16.796c0.061-0.079 0.236 0.002 0.192 0.193-0.041 0.258-0.42 1.585-1.073 2.041-0.465 0.337-2.911 0.879-4.019 1.109-0.61 0.123-1.121 0.429-1.521 0.916 0.166-0.638 0.299-1.11 0.512-1.688 0.208-0.508 0.759-1.063 1.329-1.093 1.059-0.038 2.431-0.129 3.427-0.563 0.514-0.216 0.822-0.507 1.153-0.916z"></path>
<path d="M29.812 19.927c0.112-0.447-0.031-0.591 0.091-1.29-0.671 0.899-0.419 1.326-0.091 1.29z"></path>
<path d="M29.885 20.038c0.445 0.124 1.601-0.888 1.635-1.644-0.313 0.543-1.874 1.128-1.635 1.644zM29.16 20.705c0.304-0.166 0.218-0.869-0.057-1.106-0.056 0.686-0.471 1.090 0.057 1.106z"></path>
<path d="M29.473 20.895c0.538 0.169 1.146-0.805 1.589-1.228-0.506 0.435-2.034 0.644-1.589 1.228zM28.734 21.38c0.377-0.247 0.025-0.733-0.001-1.693-0.378 0.694-0.455 1.644 0.001 1.693z"></path>
<path d="M28.805 21.627c0.192 0.257 1.613-0.628 1.968-1.284-1.213 0.902-2.284 0.781-1.968 1.284zM28.663 22.427c0.349-0.254-0.3-0.921-0.435-1.818 0.008 1.092-0.142 1.922 0.435 1.818z"></path>
<path d="M29.043 22.127c0.175 0.281 1.259-0.462 1.726-1.272-0.718 0.628-1.927 0.797-1.726 1.272zM27.934 23.35c0.393-0.070 0.339-1.062 0.039-1.87-0.338 0.976-0.488 1.966-0.039 1.87z"></path>
<path d="M28.92 22.81c0.136 0.16 1.733-0.958 1.71-1.413-0.506 0.725-2.195 0.869-1.71 1.413zM27.065 24.276c0.542-0.222 0.287-1.098 0.394-2.043-0.427 0.923-0.93 1.849-0.394 2.043z"></path>
<path d="M28.079 23.518c0.086 0.297 1.387-0.254 2.015-1.159-0.759 0.588-2.232 0.668-2.015 1.159z"></path>
<path d="M27.239 24.417c0.28 0.466 1.894-0.387 2.128-1.188-0.522 0.692-2.324 0.588-2.128 1.188z"></path>
<path d="M27.979 24.779c0.296 0.032 0.985-0.532 1.179-0.826-0.554 0.275-1.302 0.652-1.179 0.826zM25.548 21.315c0.352 0.051 0.814-0.596 0.506-1.251-0.153 0.654-1.179 1.13-0.506 1.251zM26.303 20.928c0.272 0.152 0.961-0.58 0.873-1.059-0.385 0.612-1.158 0.789-0.873 1.059z"></path>
<path d="M25.499 22.005c0.264 0.257 1.564-1.062 1.951-1.662-1.125 0.958-2.276 1.199-1.951 1.662zM25.189 22.794c0.207 0.313 1.074-0.631 1.621-1.416-0.694 0.685-1.87 0.998-1.621 1.416z"></path>
<path d="M25.276 22.041c0.212-0.559-0.139-0.648-0.298-1.343-0.314 0.384-0.278 1.447 0.298 1.343zM24.93 22.813c0.421-0.117-0.26-0.833-0.403-1.343-0.064 0.939-0.053 1.407 0.403 1.343zM24.52 23.488c0.389-0.141-0.22-0.496-0.282-1.279-0.193 0.288-0.294 1.383 0.282 1.279z"></path>
<path d="M23.939 23.654c0.248-0.134 0.146-0.773-0.235-0.857-0.089 0.501-0.077 0.864 0.235 0.857z"></path>
<path d="M28.846 24.798c0.098-0.019 0.232-0.052 0.11 0.101-0.974 1.205-1.256 1.537-2.677 1.367-1.435-0.19-1.777-0.579-2.782-1.145-0.537-0.316-1.322-0.386-1.916-0.19-0.277 0.091-0.444 0.096-0.246-0.103s0.433-0.47 0.677-0.657c0.535-0.412 1.442-0.591 2.183-0.458 1.047 0.165 1.913 0.834 2.947 1.087 0.543 0.125 1.139 0.106 1.704-0.001zM20.64 26.918c-0.18 0.023-0.294 0.375-0.382 0.136-0.15-0.386-0.045-0.693 0.124-0.659 0.199 0.054 0.536 0.505 0.259 0.523z"></path>
<path d="M22.61 25.347c0.509 0.132 0.642-0.454 0.691-0.88-0.459 0.099-0.94 0.365-0.691 0.88zM22.407 25.867c0.090 0.406 1.086-0.012 1.28-0.581-0.708 0.413-1.407-0.037-1.28 0.581z"></path>
<path d="M22.050 25.847c0.455 0.075 0.202-0.637 0.175-1.34-0.255 0.573-0.619 1.279-0.175 1.34zM21.475 26.521c0.496 0.062 0.181-0.893 0.046-1.534-0.163 0.595-0.521 1.482-0.046 1.534z"></path>
<path d="M21.768 26.543c0.060 0.54 1.085-0.065 1.681-0.397-0.788 0.122-1.769-0.133-1.681 0.397zM21.205 27.298c0.060 0.54 1.085-0.065 1.681-0.397-0.788 0.122-1.769-0.133-1.681 0.397z"></path>
<path d="M20.944 27.276c0.471 0.014 0.125-1.013-0.010-1.655-0.163 0.595-0.473 1.635 0.010 1.655zM20.538 27.933c0.060 0.54 0.996 0.008 1.576-0.364-0.796 0.17-1.665-0.166-1.576 0.364zM25.805 27.027c0.28 0.466 1.315-0.339 1.879-0.754-0.811 0.25-2.075 0.154-1.879 0.754z"></path>
<path d="M24.75 27.511c0.101 0.534 1.846 0.093 2.095-0.302-0.802 0.34-2.191-0.159-2.095 0.302z"></path>
<path d="M23.928 27.919c0.053 0.293 1.388 0.182 2.063-0.045-0.73 0.091-2.199-0.424-2.063 0.045z"></path>
<path d="M23.23 28.268c0.004 0.269 1.557 0.423 2.079-0.013-1.044 0.155-2.183-0.633-2.079 0.013z"></path>
<path d="M22.003 28.519c-0.060 0.373 1.629 0.294 2.159 0.107-0.907-0.070-2.078-0.657-2.159-0.107z"></path>
<path d="M21.977 28.18c0.381 0.349 1.36-1.21 1.678-1.896-0.753 0.785-2.113 1.591-1.678 1.896z"></path>
<path d="M23.088 27.916c0.453 0.301 0.869-0.8 1.099-1.607-0.431 0.696-1.533 1.149-1.099 1.607z"></path>
<path d="M23.965 27.614c0.453 0.301 0.708-0.695 0.818-1.318-0.311 0.536-1.252 0.86-0.818 1.318z"></path>
<path d="M24.813 27.084c0.453 0.301 1.022-0.534 0.89-1.358-0.174 0.849-1.324 0.9-0.89 1.358zM23.093 29.428c0.223 0.568 2.571-0.496 2.964-1.206-0.754 0.637-3.183 0.55-2.964 1.206zM4.38 13.641c-0.074-0.738 0.481-2.081 0.087-2.797-0.054-0.098 0.118-0.359 0.229-0.201 0.173 0.253 0.352 0.973 0.426 0.707 0.079-0.289 0.091-0.801 0.348-0.9 0.164-0.058 0.395-0.096 0.332 0.161-0.063 0.247-0.203 0.589-0.048 0.611 0.090 0.013 0.35-0.337 0.569-0.498 0.176-0.144 0.439 0.081 0.182 0.297-0.838 0.695-1.65 1.008-2.125 2.62zM2.874 24.753c-0.098-0.019-0.233-0.052-0.11 0.101 0.979 1.205 1.262 1.537 2.69 1.367 1.442-0.19 1.785-0.579 2.795-1.145 0.539-0.316 1.328-0.386 1.925-0.19 0.278 0.091 0.447 0.096 0.247-0.103s-0.435-0.47-0.681-0.657c-0.537-0.412-1.449-0.591-2.193-0.458-1.052 0.165-1.922 0.834-2.961 1.087-0.546 0.125-1.145 0.106-1.712-0.001zM11.113 26.906c0.182 0.023 0.297 0.375 0.387 0.136 0.152-0.386 0.045-0.693-0.125-0.659-0.202 0.054-0.543 0.505-0.262 0.523z"></path>
<path d="M10.707 27.235c0.488 0.111 0.482-1.064-0.017-1.562 0.22 0.755-0.367 1.445 0.017 1.562zM10.518 27.224c0.032 0.558-1.372-0.073-1.733-0.507 0.83 0.352 1.692 0.061 1.733 0.507zM9.902 26.427c0.050 0.541-1.218 0.065-1.592-0.357 0.833 0.269 1.537-0.088 1.592 0.357zM10.136 26.503c0.488 0.111 0.409-1.104-0.065-1.522 0.228 0.811-0.319 1.404 0.065 1.522zM9.621 25.764c0.488 0.111 0.208-0.935-0.154-1.353 0.059 0.763-0.182 1.292 0.154 1.353zM9.363 25.76c0.050 0.557-0.936 0.129-1.319-0.398 0.825 0.269 1.264-0.048 1.319 0.398zM9.095 25.337c0.32-0.23-0.019-0.837-0.628-0.8 0.060 0.367 0.27 1.013 0.628 0.8zM11.5 27.856c0.032 0.558-1.372 0.281-1.813-0.314 0.886 0.167 1.772-0.132 1.813 0.314zM4.775 18.31c0.687 0.003 0.805-0.916 0.805-1.173-0.338 0.064-0.933 0.627-0.805 1.173zM5.921 26.858c0.050 0.557-1.483-0.056-1.866-0.583 0.825 0.269 1.81 0.137 1.866 0.583zM6.861 27.096c0.32-0.23-0.333-0.822-0.853-0.961 0.060 0.367 0.495 1.173 0.853 0.961zM6.959 27.481c0.034 0.501-1.644 0.226-2.083-0.237 1.444 0.261 2.036-0.192 2.083 0.237z"></path>
<path d="M7.744 27.815c0.186 0.465-1.425 0.352-1.99 0.081 0.914-0.008 1.862-0.405 1.99-0.081z"></path>
<path d="M8.498 28.155c0.178 0.417-1.312 0.408-2.038 0.177 0.962-0.008 1.862-0.59 2.038-0.177zM9.581 28.379c0.264 0.493-1.308 0.541-1.818 0.298 0.909-0.125 1.593-0.687 1.818-0.298zM7.741 27.534c-0.5 0.315-0.473-0.614-0.871-1.257 0.625 0.569 1.21 0.957 0.871 1.257z"></path>
<path d="M8.627 27.868c-0.419 0.371-0.755-0.903-1.137-1.619 0.617 0.681 1.524 1.31 1.137 1.619zM9.799 28.223c-0.355 0.411-1.383-1.209-1.756-2.053 0.569 0.657 2.039 1.704 1.756 2.053zM0.399 16.751c-0.061-0.079-0.237 0.002-0.193 0.193 0.041 0.258 0.422 1.585 1.078 2.041 0.468 0.337 2.925 0.879 4.038 1.109 0.613 0.123 1.126 0.429 1.529 0.916-0.166-0.637-0.3-1.11-0.515-1.688-0.209-0.508-0.762-1.063-1.335-1.093-1.064-0.038-2.442-0.129-3.443-0.563-0.517-0.216-0.826-0.507-1.158-0.916z"></path>
<path d="M6.5 22.001c0.336 0.247 0.706-0.638 0.28-1.479-0.013 0.81-0.657 1.081-0.28 1.479z"></path>
<path d="M6.822 22.813c0.464 0.142 0.61-0.678 0.304-1.334 0.051 0.705-0.73 1.13-0.304 1.334z"></path>
<path d="M7.176 23.463c0.448 0.223 0.618-0.606 0.296-1.221 0.035 0.785-0.641 1.017-0.296 1.221z"></path>
<path d="M6.991 23.514c-0.178 0.53-1.208-0.457-1.381-0.994 0.639 0.635 1.51 0.565 1.381 0.995z"></path>
<path d="M6.525 22.702c-0.202 0.53-1.497-0.835-1.784-1.493 0.639 0.635 1.928 1.119 1.784 1.493z"></path>
<path d="M6.267 21.907c-0.202 0.603-1.61-1.004-2.009-1.573 0.672 0.627 2.161 1.135 2.009 1.573zM6.222 21.311c0.496-0.096-0.028-0.509-0.636-1.18-0.028 0.706 0.088 1.2 0.636 1.18z"></path>
<path d="M5.386 20.909c0.214-0.233-0.205-0.332-0.725-0.914-0.077 0.393 0.482 1.111 0.725 0.914zM7.787 23.527c0.271 0.159 0.457-0.397 0.119-0.9-0.077 0.544-0.368 0.695-0.119 0.9zM1.892 20.022c-0.576 0.345-1.491-1.032-1.736-1.598 0.506 0.65 1.844 1.244 1.736 1.598z"></path>
<path d="M2.382 20.826c-0.319 0.353-1.322-0.606-1.671-1.092 0.538 0.465 1.812 0.521 1.671 1.092z"></path>
<path d="M2.929 21.545c-0.105 0.482-1.57-0.602-1.912-1.115 0.631 0.594 2.008 0.541 1.912 1.115z"></path>
<path d="M2.703 22.067c-0.226 0.434-1.417-0.642-1.703-1.203 0.728 0.634 1.887 0.774 1.703 1.203zM2.091 19.951c0.376-0.396 0.216-0.581-0.058-1.205-0.15 0.641-0.376 0.896 0.058 1.205zM2.59 20.699c0.682 0.030 0.007-0.799-0.155-1.495 0.059 0.793-0.175 1.419 0.155 1.495z"></path>
<path d="M3.025 21.358c0.472-0.107 0.336-0.774-0.026-1.583 0.075 0.874-0.4 1.379 0.026 1.583zM2.864 22.678c-0.178 0.53-1.522-0.698-1.735-1.163 0.68 0.57 1.855 0.766 1.735 1.163z"></path>
<path d="M3.669 23.506c-0.202 0.531-1.61-0.545-2.041-1.131 0.848 0.667 2.145 0.605 2.041 1.131z"></path>
<path d="M4.489 24.342c-0.226 0.739-1.699-0.441-2.138-1.019 0.937 0.715 2.258 0.492 2.138 1.019zM3.105 22.443c0.4 0.207 0.562-0.927 0.336-1.728 0.003 0.874-0.802 1.523-0.336 1.728z"></path>
<path d="M3.789 23.343c0.481 0.143 0.328-1.080-0.082-1.872-0.053 0.785-0.408 1.531 0.082 1.872zM4.642 24.187c0.537 0.030 0.167-1.048-0.275-1.656 0.075 0.793-0.175 1.564 0.275 1.656zM3.701 24.647c-0.161 0.273-0.556-0.232-1.204-0.601 0.583 0.152 1.276 0.348 1.204 0.601zM3.393 15.563c0.501-0.37 0.119-1.063 0-1.722-0.161 0.625-0.586 1.445 0 1.722zM3.376 16.488c-0.753-0.090-0.639-1.063-0.662-1.679 0.226 0.837 0.843 0.978 0.662 1.679zM3.495 16.36c0.637-0.037 0.603-0.761 0.637-1.493-0.323 0.673-0.705 0.777-0.637 1.493z"></path>
<path d="M3.469 17.26c-0.495 0.040-0.753-0.447-0.866-1.204 0.47 0.698 0.897 0.481 0.866 1.204zM3.648 17.2c0.637 0.082 0.535-0.659 0.509-1.205-0.195 0.52-0.713 0.684-0.51 1.205z"></path>
<path d="M2.654 16.886c0.051 0.483 0.357 1.315 0.849 1.128 0.204-0.594-0.433-0.712-0.849-1.128z"></path>
<path d="M3.656 18.065c-0.221-0.424 0.501-0.636 0.654-1.188 0.088 0.789 0.014 1.306-0.654 1.188zM1.602 13.040c0.396-0.426 0.046-1.103-0.073-1.762-0.161 0.625-0.441 1.453 0.073 1.762zM1.59 13.834c-0.696 0.071-0.865-1.344-0.936-1.952 0.226 0.837 1.028 1.219 0.936 1.952zM1.733 13.822c0.492-0.254 0.378-0.801 0.532-1.212-0.331 0.504-0.632 0.576-0.532 1.212z"></path>
<path d="M1.596 14.747c-0.728 0.062-1.162-1.505-1.185-2.121 0.226 0.837 1.27 1.292 1.185 2.121zM1.735 14.724c0.685-0.157 0.603-0.6 0.5-1.316-0.218 0.721-0.6 0.568-0.5 1.316z"></path>
<path d="M1.587 15.652c-0.801 0.136-0.745-1.13-1.381-2.048 0.55 0.682 1.54 1.541 1.381 2.048zM1.768 15.609c0.605 0.018 0.664-0.892 0.63-1.261-0.139 0.367-0.85 0.716-0.63 1.261z"></path>
<path d="M0.335 14.676c0.3 0.974 0.727 1.95 1.251 1.875 0.252-0.554-0.498-0.624-1.251-1.875z"></path>
<path d="M1.776 16.41c-0.221-0.424 0.501-0.636 0.654-1.188 0.088 0.789 0.014 1.306-0.654 1.188zM0.542 15.789c0.429 0.877 0.622 1.885 1.211 1.739 0.22-0.682-0.65-0.825-1.211-1.739z"></path>
<path d="M1.875 17.362c-0.253-0.464 0.469-0.628 0.646-1.268 0.096 0.837 0.006 1.435-0.646 1.268zM3.11 11.424c0.423 0.114 0.866-0.36 0.712-1.069-0.483 0.12-0.705 0.558-0.712 1.069zM1.758 11.069c0.037 0.2 0.28 0.218 0.209-0.064-0.059-0.229-0.069-0.401 0-0.587 0.095-0.233 0.063-0.63-0.008-0.796-0.072-0.175-0.309-0.072-0.209 0.064 0.11 0.159 0.116 0.489 0.040 0.643-0.099 0.227-0.073 0.53-0.032 0.739zM3.218 10.31c-0.040 0.312-0.304 0.34-0.227-0.1 0.064-0.357 0.075-0.626 0-0.916-0.103-0.364-0.068-0.984 0.009-1.243 0.078-0.273 0.336-0.113 0.227 0.101-0.119 0.248-0.126 0.763-0.044 1.004 0.108 0.355 0.079 0.827 0.035 1.155zM5.186 13.425c-0.163 0.24-0.423 0.101-0.276-0.285 0.125-0.267 0.138-0.597 0.277-0.792 0.194-0.296 0.522-0.542 0.709-0.721 0.193-0.19 0.353-0.007 0.176 0.156-0.215 0.214-0.447 0.481-0.577 0.684-0.241 0.393-0.135 0.706-0.309 0.958zM2.474 12.183c-0.019 0.339 0.253 0.421 0.241-0.070-0.012-0.513-0.376-0.982-0.153-1.763 0.117-0.382 0.119-1.082 0.048-1.454-0.062-0.369-0.325-0.128-0.225 0.159 0.11 0.333-0.021 0.972-0.105 1.293-0.252 0.936 0.208 1.392 0.193 1.834zM4.052 20.924c0.421 0.207 0.74 0.723 0.761 1.143 0.036 0.484 0.105 0.892 0.323 1.236-0.346-0.096-0.512-0.647-0.561-1.175-0.050-0.546-0.345-0.783-0.522-1.203zM4.928 21.935c0.291 0.537 0.698 0.741 0.719 1.139 0.035 0.458 0.070 0.482 0.194 0.932-0.343-0.091-0.429-0.121-0.521-0.807-0.057-0.482-0.443-0.822-0.392-1.265zM20.809 30.919c0.008 0.203 0.032 0.367 0.153 0.53-0.703-0.281-1.695-0.131-2.373 0.185-0.303 0.144-0.669-0.165-0.314-0.458 0.505-0.409 1.673-0.177 2.534-0.257zM10.896 30.909c0.613-0.006 1.623 0.003 1.885 0.007 0.394 0.006 0.706 0.261 0.867 0.494 0.094 0.131 0.051 0.511-0.48 0.292-0.772-0.311-1.592-0.573-2.355-0.257 0.071-0.168 0.093-0.343 0.083-0.535zM11.541 27.182c-0.213-0.092-0.461-0.003-0.683 0.23-0.746 0.73-1.621 1.442-2.328 1.995-0.264 0.229-0.533 0.639 0.591 1.049 0.041 0.015 0.86 0.319 1.38 0.338 0.212-0.006 0.211 0.311 0.172 0.395-0.090 0.169-0.025 0.233-0.206 0.395-0.189 0.159 0.020 0.365 0.168 0.225 0.633-0.549 1.66-0.198 2.649 0.124 0.234 0.065 0.661 0.047 0.658-0.276 0.004-0.351 0.259-0.599 0.414-0.608 0.404 0.070 2.399 0.092 3.014 0.017 0.358-0.047 0.38 0.49 0.572 0.702 0.132 0.14 0.641 0.177 0.99 0.024 0.69-0.32 1.741-0.32 2.169-0.014 0.176 0.134 0.315 0.025 0.215-0.111-0.129-0.186-0.126-0.272-0.19-0.419-0.161-0.327-0.032-0.407 0.136-0.431 1.906-0.245 2.514-0.895 1.931-1.424-0.752-0.659-1.59-1.322-2.311-2.101-0.196-0.207-0.325-0.289-0.732-0.12-1.245 0.566-2.825 0.979-4.371 1.009-1.439 0.012-3.417-0.653-4.239-1zM24.732 23.558c0.086 0.297 1.275-0.246 1.879-1.433-0.791 0.862-2.071 0.853-1.879 1.433z"></path>
<path d="M26.712 21.754c-0.362 0.503-0.845 0.866-0.867 1.264-0.037 0.458-0.073 0.482-0.204 0.932 0.359-0.091 0.449-0.121 0.546-0.807 0.060-0.482 0.578-0.947 0.524-1.39z"></path>
<path d="M27.3 21.060c-0.441 0.207-0.541 0.549-0.558 0.972-0.009 0.49-0.133 0.869-0.361 1.213 0.454 0.063 0.536-0.647 0.588-1.175 0.052-0.546 0.145-0.59 0.331-1.010zM28.531 10.288c0.039 0.312 0.299 0.34 0.224-0.1-0.063-0.357-0.074-0.626 0-0.916 0.101-0.364 0.067-0.984-0.009-1.243-0.077-0.273-0.331-0.113-0.224 0.101 0.118 0.248 0.124 0.763 0.043 1.004-0.106 0.355-0.078 0.827-0.034 1.155zM29.264 12.161c0.019 0.339-0.25 0.421-0.238-0.070 0.012-0.513 0.37-0.982 0.15-1.763-0.115-0.382-0.117-1.082-0.047-1.454 0.061-0.369 0.32-0.128 0.222 0.159-0.108 0.333 0.020 0.972 0.103 1.293 0.248 0.936-0.205 1.392-0.19 1.834zM29.968 11.046c-0.036 0.2-0.275 0.218-0.206-0.064 0.058-0.229 0.068-0.401 0-0.587-0.093-0.233-0.062-0.63 0.008-0.796 0.070-0.175 0.304-0.072 0.206 0.064-0.108 0.159-0.114 0.489-0.040 0.643 0.098 0.228 0.071 0.53 0.032 0.739zM28.504 11.436c-0.352 0.149-0.806-0.849-0.47-1.037 0.26-0.065 0.857 0.847 0.47 1.037zM26.531 13.412c0.157 0.24 0.409 0.101 0.266-0.285-0.12-0.267-0.133-0.597-0.267-0.792-0.187-0.296-0.504-0.542-0.684-0.721-0.186-0.19-0.34-0.007-0.17 0.156 0.207 0.214 0.432 0.481 0.556 0.684 0.233 0.393 0.13 0.706 0.298 0.958zM26.097 13.669c0.157 0.24 0.479 0.093 0.234-0.236-0.201-0.267-0.487-0.485-0.508-0.76-0.017-0.349-0.215-0.879-0.395-1.058-0.186-0.19-0.401 0.078-0.202 0.204 0.223 0.15 0.368 0.768 0.363 1.005 0.008 0.345 0.34 0.594 0.507 0.845zM12.273 24.82c0.477 0.381 0.927 0.813 1.062 1.35 0.14 0.501 0.225 0.884 0.547 1.382-0.504-0.322-0.704-0.807-0.853-1.334-0.13-0.518-0.429-0.905-0.756-1.398zM19.25 20.446l1.44 0c0.005 0.544 0.324 1.128 0.772 1.463h-2.76c0.432-0.391 0.55-0.855 0.547-1.463zM10.667 1.283c-0.012-0.237 0.357-0.256 0.314 0.071-0.054 0.407 0.769 1.437 0.837 2.072 0.046 0.426-0.25 0.799-0.544 1.031-0.36 0.278-0.912 0.24-1.171 0.080-0.156-0.126-0.299-0.557-0.182-0.727 0.041-0.057 0.229 0.633 0.642 0.63 0.562-0.004 1.017-0.425 1.033-0.801 0.029-0.655-0.919-1.689-0.929-2.355zM12.31 2.899c0.093-0.066 0.241 0.223 0.137 0.296-0.087 0.058-0.257-0.215-0.137-0.296zM12.559 2.312c-0.047 0.023-0.14-0.010-0.113-0.049 0.131-0.188 0.412-0.47 0.615-0.568 0.062-0.030 0.172 0.080 0.134 0.134-0.121 0.173-0.417 0.378-0.636 0.484zM14.731 0.592c0.052-0.109 0.365-0.232 0.445-0.305 0.074-0.075 0.109 0.064 0.077 0.13-0.052 0.109-0.322 0.292-0.441 0.297-0.064 0.003-0.113-0.056-0.082-0.121zM15.473 0.626c0.068-0.191 0.286-0.48 0.437-0.575 0.077-0.049 0.216-0.010 0.19 0.063-0.057 0.162-0.325 0.445-0.505 0.578-0.055 0.049-0.138-0.021-0.122-0.065zM14.836 1.104c-0.045 0.023-0.021 0.119 0.023 0.134 0.093 0.031 0.262 0.037 0.339-0.005 0.111-0.068 0.061-0.49-0.088-0.265-0.1 0.139-0.173 0.094-0.273 0.136zM13.579 2.070c-0.227-0.177 0.061-0.424 0.299-0.251 0.463 0.349-0.69 1.684-1.317 2.308-0.115 0.122-0.215-0.186-0.068-0.318 0.45-0.381 0.87-0.836 1.163-1.306 0.056-0.091 0.11-0.286-0.076-0.432zM16.212 0.922c0.028-0.169-0.274 0.004-0.279-0.221-0.003-0.119 0.33-0.202 0.469-0.065 0.235 0.238 0.059 0.64-0.332 0.666-0.326 0.014-0.87 0.462-0.787 0.557 0.094 0.116 0.939 0.193 1.431 0.116 0.304-0.043 0.241 0.229-0.071 0.266-0.301 0.035-0.547 0.002-0.828 0.091-0.331 0.095-0.476 0.539-0.66 0.705-0.041 0.029-0.152-0.146-0.11-0.211 0.133-0.207 0.344-0.524 0.577-0.615 0.147-0.059-0.405-0.078-0.581-0.128-0.14-0.042-0.099-0.219-0.046-0.318 0.071-0.154 0.591-0.674 0.801-0.666 0.197 0.008 0.396-0.049 0.416-0.175zM17.089 0.967c0.098-0.086 0.148-0.23 0.25-0.318 0.056-0.056 0.146 0.011 0.131 0.147-0.013 0.107-0.156 0.199-0.253 0.279-0.079 0.059-0.17-0.068-0.128-0.108zM18.204 0.57c0.146-0.016 0.182 0.265 0.023 0.31-0.097 0.032-0.181-0.294-0.023-0.31zM17.836 1.438c-0.002 0.242 0.117 0.22 0.345 0.211 0.221-0.008 0.416 0.006 0.415-0.213-0.001-0.226-0.125-0.424-0.162-0.27-0.032 0.145-0.058 0.382-0.142 0.278-0.080-0.089-0.048-0.108-0.185 0.037-0.076 0.080-0.084-0.039-0.13-0.114-0.032-0.044-0.142 0.036-0.142 0.070zM16.247 2.672c-0.054 0.32-0.005 0.768 0.159 0.773 0.203 0.007 0.622-0.699 0.82-1.066 0.119-0.204 0.324-0.24 0.238-0.027-0.129 0.329-0.118 1.033-0.004 1.24 0.061 0.111 0.511-0.102 0.584-0.261 0.132-0.288 0.025-0.82 0.071-1.145 0.023-0.213 0.218-0.258 0.207-0.060-0.019 0.353-0.053 1.001-0.028 1.296 0.015 0.169 0.499 0.419 0.577-0.093 0.041-0.323 0.207-0.64-0.008-0.998-0.133-0.223 0.196-0.195 0.373 0.11 0.124 0.208-0.105 0.551-0.097 0.817 0.021 0.409-0.298 0.641-0.528 0.646-0.206 0.004-0.341-0.249-0.51-0.253-0.188-0.012-0.38 0.292-0.535 0.281-0.601-0.041-0.283-0.919-0.466-0.929-0.204-0.012-0.444 0.86-0.695 0.829-0.247-0.030-0.503-0.711-0.4-0.999 0.093-0.268 0.268-0.331 0.241-0.16z"></path>
<path d="M19.157 1.288c-0.293-0.179 0.019-0.643 0.162-0.48 0.277 0.331 0.556 1.117 0.751 1.182 0.124 0.041 0.118-0.581 0.205-0.864 0.056-0.209 0.309-0.141 0.261 0.127-0.016 0.089-0.33 1.106-0.306 1.146 0.218 0.434 0.433 0.875 0.569 1.341 0.056 0.201-0.185 0.066-0.214 0.024-0.154-0.23-0.424-1.111-0.424-1.071-0.124 0.62-0.153 0.803-0.285 1.329-0.040 0.169-0.289 0.138-0.233-0.159 0.054-0.244 0.409-1.445 0.389-1.48-0.279-0.493-0.535-0.883-0.874-1.095z"></path>
<path d="M19.686 4.147c-0.082-0.009-0.209 0.182 0.199 0.257 0.544 0.098 1.14-0.085 1.322-0.618 0.209-0.635 0.347-1.236 0.456-1.463 0.136-0.264 0.311-0.243 0.182-0.629-0.091-0.278-0.26-0.194-0.296-0.046-0.095 0.405-0.456 1.714-0.569 1.955-0.213 0.44-0.641 0.614-1.294 0.543z"></path>
<path d="M20.775 2.058c-0.058-0.125-0.194-0.028-0.17 0.108 0.014 0.123 0.115 0.191 0.215 0.187 0.119-0.004 0.372 0.004 0.372-0.194 0-0.139-0.109-0.255-0.19-0.102-0.078 0.139-0.177 0.124-0.228 0zM20.912 1.536c-0.042 0.029-0.004 0.183 0.046 0.182 0.178-0.006 0.43-0.063 0.564-0.156 0.040-0.027 0.023-0.121-0.033-0.119-0.171 0.006-0.444 0.001-0.577 0.093zM22.422 1.925c0.129-0.201 0.484-0.221 0.356 0.066-0.090 0.198-0.974 1.904-1.095 2.121-0.132 0.244-0.239 0.123-0.146-0.067 0.126-0.244 0.844-2.060 0.885-2.119z"></path>
<path d="M21.091 4.464c-0.038-0.136-0.249-0.337-0.225 0.027 0.042 0.659 0.949 0.451 1.223 0.217 0.249-0.221 0.033 0.744 0.364 0.848 0.183 0.058 0.526-0.19 0.695-0.409 0.468-0.607 0.766-1.477 1.217-2.077 0.17-0.234-0.093-0.402-0.2-0.215-0.392 0.656-0.878 1.995-1.409 2.343-0.433 0.277-0.305-0.357-0.32-0.547-0.019-0.14-0.189-0.345-0.416-0.156-0.159 0.124-0.405 0.225-0.629 0.205-0.13-0.007-0.239-0.005-0.3-0.234z"></path>
<path d="M22.71 3.24c0.005-0.037-0.192-0.054-0.182 0.136 0.007 0.141 0.176 0.179 0.205 0.159 0.266-0.193-0.056-0.097-0.023-0.296zM22.323 4.013c-0.052 0.012-0.1 0.179 0.023 0.189 0.113 0.008 0.554-0.039 0.676-0.032 0.079-0.003 0.109-0.154-0.060-0.146-0.205 0.010-0.475-0.041-0.639-0.011zM25.245 3.817c0.181-0.678 0.619 0.105 0.233 0.49-0.596 0.583-0.776 1.697-1.722 1.865-0.255 0.055-0.704-0.115-0.837-0.209-0.052-0.037 0.034-0.279 0.193-0.161 0.23 0.18 0.706 0.22 0.958 0.016 0.538-0.527 0.975-1.225 1.174-2.001zM15.417 5.322c-0.043 0.049-0.173 0.041-0.185 0.11-0.051 0.255 0 0.384-0.056 0.63-0.054 0.235-0.217 0.244-0.206 0.052 0.015-0.248 0.22-0.599 0.075-0.623-0.096-0.023-0.171-0.151-0.071-0.215 0.188-0.13 0.289-0.111 0.419-0.071 0.045 0.014 0.057 0.080 0.024 0.118z"></path>
<path d="M15.285 4.99c-0.25 0.218-0.481 0.307-0.711 0.583-0.094 0.113-0.091 0.27-0.147 0.414-0.056 0.153-0.237 0.183-0.293 0.151-0.094-0.062-0.080-0.345-0.185-0.192-0.089 0.141-0.146 0.334-0.277 0.332-0.119-0.003-0.342-0.245-0.229-0.257 0.388-0.040 0.383-0.35 0.529-0.371 0.163-0.022 0.174 0.256 0.275 0.201 0.079-0.040 0.116-0.365 0.202-0.452 0.263-0.269 0.471-0.411 0.74-0.608 0.136-0.108 0.233 0.087 0.096 0.199zM16.195 5.825c-0.2 0.040-0.166 0.297-0.107 0.329 0.097 0.045 0.247 0.064 0.302-0.231 0.026-0.121 0.050 0.602 0.316 0.324 0.153-0.169 0.532 0.031 0.691-0.182 0.114-0.142 0.149-0.24 0.060-0.449-0.026-0.064-0.181-0.032-0.173 0.122 0.008 0.13-0.092 0.29-0.222 0.263-0.063-0.012 0.036-0.318-0.028-0.401-0.035-0.046-0.088-0.041-0.123 0.007-0.049 0.066 0.049 0.36-0.111 0.399-0.203 0.047-0.096-0.196-0.182-0.241-0.276-0.139-0.302 0.036-0.423 0.062zM17.755 5.332c0.146-0.041 0.101-0.041 0.331-0.23 0.090-0.068 0.108 0.131 0.098 0.209-0.017 0.134-0.175 0.039-0.225 0.157-0.072 0.153-0.043 0.508-0.067 0.652-0.016 0.074-0.136 0.068-0.147 0.009-0.034-0.176 0.024-0.349 0.019-0.569-0.002-0.075-0.109-0.192-0.009-0.229zM17.067 4.536c-0.035 0.16-0.033 0.291-0.033 0.4 0.008 0.088 0.17 0.031 0.169 0.020-0.008-0.14 0.024-0.334-0.017-0.388-0.023-0.029-0.111-0.063-0.119-0.033zM11.643 1.145c0.070 0.003 0.262 0.252 0.249 0.33-0.009 0.037-0.205-0.005-0.265-0.056-0.044-0.038-0.027-0.275 0.016-0.273zM10.718 2.945c-0.175 0.096 0.028 0.284 0.159 0.205 0.493-0.319 1.233-0.654 1.388-1.286 0.050-0.214 0.249-0.542 0.438-0.615 0.183-0.071 0.448 0.33 0.621 0.015 0.102-0.18 0.457 0.118 0.543-0.075 0.105-0.233 0.055-0.361 0.059-0.585-0.008-0.146-0.119-0.19-0.201 0.047-0.042 0.107 0.007 0.215-0.027 0.271-0.026 0.042-0.108 0.084-0.155 0.048-0.044-0.033-0.013-0.124-0.118-0.164-0.041-0.020-0.106-0.037-0.134 0.015-0.124 0.221-0.193 0.427-0.367 0.192-0.155-0.203-0.233-0.553-0.347-0.074-0.041 0.169-0.298 0.414-0.45 0.414-0.189 0-0.142-0.498-0.558-0.422-0.214 0.046-0.199 0.455-0.167 0.606 0.053 0.21 0.678 0.059 0.647 0.196-0.107 0.477-0.77 0.931-1.332 1.211zM6.804 5.218c-0.027 0.080 0.080 0.297 0.19 0.313 0.108 0.008 0.163-0.234 0.128-0.313-0.026-0.058-0.3-0.057-0.318 0zM7.378 6.059c-0.069-0.075-0.274 0.126-0.109 0.267 0.093 0.075 0.433 0.184 0.526 0.026 0.126-0.204-0.124-0.945-0.013-1.043 0.087-0.077 0.487 0.495 0.685 0.536 0.465 0.064 0.353-0.795 0.854-0.737 0.341 0.045 0.379-0.381 0.331-0.647-0.038-0.255-0.452-0.624-0.642-0.789-0.25-0.208-0.362 0.154-0.205 0.273 0.202 0.162 0.558 0.489 0.614 0.705 0.027 0.102-0.247 0.305-0.348 0.25-0.233-0.127-0.45-0.671-0.653-0.796-0.069-0.042-0.24 0.053-0.158 0.223 0.092 0.182 0.501 0.464 0.525 0.658 0.022 0.177-0.182 0.56-0.316 0.56-0.147 0-0.522-0.463-0.639-0.681-0.058-0.104-0.261-0.094-0.282 0.050-0.034 0.216 0.031 0.674 0.083 0.957 0.041 0.268-0.151 0.282-0.254 0.187zM6.675 4.583c-0.058 0.066 0.137 0.195 0.175 0.162 0.075-0.065 0.367-0.397 0.311-0.514-0.050-0.104-0.451-0.33-0.517-0.218-0.121 0.194 0.378 0.282 0.3 0.338-0.038 0.022-0.176 0.117-0.269 0.231zM7.395 3.127s0.125 0.429 0.228 0.25c0.083-0.124-0.228-0.25-0.228-0.25zM7.6 3.809c-0.046 0.025-0.175 0.127-0.091 0.182 0.133 0.079 0.496 0.141 0.417-0.116-0.048-0.152 0.547 0.004 0.402-0.406-0.038-0.114-0.217-0.278-0.305-0.301-0.056-0.015-0.246 0.090-0.127 0.147 0.087 0.045 0.349 0.199 0.252 0.3-0.111 0.105-0.188-0.047-0.325-0.023-0.069 0.013-0.024 0.21-0.063 0.263-0.022 0.030-0.122-0.066-0.159-0.045zM8.544 2.179c-0.075 0.037-0.209 0.24-0.214 0.334-0.003 0.050 0.052 0.119 0.095 0.098 0.079-0.039 0.2-0.231 0.205-0.32 0.003-0.056-0.039-0.135-0.086-0.112zM9.034 2.127c-0.145-0.177 0.154-0.439 0.288-0.085 0.081 0.222 0.946 1.359 1.123 1.745 0.125 0.261-0.005 0.369-0.159 0.182-0.438-0.558-0.797-1.254-1.252-1.841zM9.921 2.149c0.154-0.167 0.469-0.508 0.384-0.698-0.065-0.164-0.256-0.147-0.289-0.11-0.187 0.223 0.133 0.167 0.087 0.243-0.095 0.179-0.19 0.277-0.239 0.449-0.012 0.040 0.030 0.145 0.057 0.115zM23.33 2.708c-0.111-0.090 0.109-0.524 0.258-0.354 0.408 0.472 0.598 2.004 0.716 3.151 0 0-0.183 0.153-0.185 0.129 0-0.611-0.246-2.479-0.789-2.925z"></path>
<path d="M23.579 5.385c0.074-0.205 1.054-1.849 1.183-2.21 0.066-0.174 0.347 0.299 0.073 0.555-0.241 0.217-0.953 1.384-1.086 1.792-0.061 0.185-0.247 0.097-0.169-0.137zM14.176 1.217c-0.132-0.303 0.198-0.415 0.248-0.199 0.229 0.996 0.779 1.75 1.197 2.427 0.126 0.212 0.025 0.338-0.281 0.143-0.212-0.145-0.427-0.674-0.531-0.695-0.189-0.035-0.64 0.86-1.563 0.604-0.239-0.067-0.223-0.776-0.228-1.090-0.010-0.147 0.152-0.186 0.158 0.015 0.008 0.289-0 0.889 0.37 0.91 0.302 0.017 0.97-0.409 1.111-0.742 0.125-0.342-0.337-1.023-0.479-1.372zM14.103 25.191c0.086 0.192 0.212 0.183 0.193-0-0.037-0.235-0.108-0.559-0.148-0.841-0.023-0.239-0.27-0.193-0.205 0.057 0.082 0.269 0.065 0.564 0.159 0.784zM14.842 25.202c-0.001 0.097 0.149 0.088 0.148 0.012-0.016-0.244-0.034-0.574 0.034-0.693 0.053-0.093 0.268-0.027 0.466-0.045 0.079-0.012 0.063-0.23-0.102-0.216-0.195 0.017-0.708-0.046-0.74 0.136-0.045 0.327 0.202-0.020 0.193 0.807zM16.332 24.259c0.125 0.090 0.107 0.206-0.046 0.17-0.182-0.045-0.305-0.031-0.302 0.069 0.003 0.098 0.079 0.117 0.191 0.226 0.107 0.112-0.066 0.094-0.198 0.323-0.113 0.19 0.117 0.215 0.389 0.143 0.069-0.020 0.16 0.099-0.011 0.197-0.121 0.064-0.457 0.143-0.541-0.101-0.159-0.422 0.266-0.48 0.087-0.593-0.098-0.059-0.133-0.148-0.115-0.265 0.038-0.272 0.443-0.236 0.546-0.171zM16.894 25.189c0.164-0.299 0.277-0.522 0.322-0.776 0.040-0.229 0.204-0.251 0.239-0.057 0.044 0.258 0.192 0.513 0.371 0.747 0.105 0.145-0.106 0.273-0.189 0.16-0.152-0.193-0.159-0.462-0.248-0.46-0.104 0.002-0.221 0.3-0.332 0.519-0.032 0.064-0.228-0-0.163-0.134zM8.977 29.239c-0.079 0.061-0.074 0.242 0.080 0.305 1.438 0.516 2.827 1.468 6.822 1.431 4.033-0.038 5.451-0.968 6.742-1.398 0.172-0.065 0.334-0.199 0.113-0.386-0.725-0.592-1.509-1.068-2.027-1.8-0.092-0.132-0.343-0.057-0.499 0-1.54 0.54-2.962 0.919-4.441 0.916-1.444-0.003-2.949-0.4-4.304-0.956-0.13-0.055-0.342 0.007-0.443 0.104-0.629 0.626-1.313 1.233-2.043 1.784z"></path>
<path d="M10.916 28.25c-0.173-0.112-0.251 0.034-0.129 0.185 0.159 0.174 0.416 0.279 0.684 0.354 0.156 0.043 0.478-0.011 0.644 0.008 0.129 0.016 0.201 0.276 0.435 0.265 0.235-0.010 0.386-0.635 0.394-0.948 0.011-0.208-0.277-0.075-0.249 0.008 0.075 0.207-0.063 0.668-0.209 0.667-0.108-0.007-0.224-0.23-0.386-0.257-0.127-0.021-0.32 0.015-0.451 0.016-0.383 0.004-0.547-0.187-0.732-0.297z"></path>
<path d="M11.238 28.082c0.204 0.102 0.382-0.080 0.499 0.048 0.298 0.338 0.681-0.162 0.233-0.145-0.181 0.007-0.209-0.137-0.523-0.105-0.167 0.021-0.307 0.144-0.209 0.201zM11.286 29.56c-0.161-0.070-0.215 0.083-0.121 0.177 0.133 0.121 0.686 0.17 0.821 0.072 0.223-0.169 0.060-0.614-0.040-0.74-0.063-0.076-0.251-0.082-0.177 0.121 0.031 0.094 0.168 0.328 0.056 0.434-0.102 0.098-0.385-0-0.539-0.064zM12.525 29.697c0.035-0.091-0.060-0.247-0.226-0.064-0.136 0.144-0.026 0.751 0.411 0.86 0.426 0.105 0.746-0.049 0.804-0.281 0.041-0.155-0.193-0.289-0.072-0.426 0.101-0.107 0.295 0.001 0.378-0.169 0.049-0.095 0.053-0.29-0.209-0.418-0.113-0.057-0.31 0.073-0.306 0.169 0.006 0.132 0.211 0.046 0.137 0.161-0.054 0.087-0.296 0.051-0.37 0.257-0.044 0.131 0.274 0.373 0.105 0.434-0.151 0.052-0.347 0.086-0.547-0.024-0.124-0.065-0.176-0.336-0.104-0.498zM10.988 28.861c-0.101 0.015-0.241 0.088-0.249 0.209-0.006 0.097 0.074 0.264 0.209 0.152 0.14-0.109 0.033-0.16 0.064-0.121 0.070 0.070-0.033 0.076-0.161 0.249-0.089 0.132-0.28 0.111-0.378 0.064-0.169-0.087-0.106-0.143-0.29-0.225-0.184-0.090-0.295 0.122-0.121 0.217 0.193 0.11 0.509 0.331 0.821 0.169 0.185-0.105 0.402-0.2 0.394-0.434-0.011-0.152-0.078-0.311-0.29-0.281zM20.996 28.781c-0.142-0.102-0.055-0.286 0.153-0.217 0.177 0.065 0.471 0.274 0.491 0.547 0.022 0.298-0.459 0.517-0.643 0.506-0.315-0.026-0.259-0.275-0.024-0.257 0.182 0.013 0.406-0.052 0.418-0.241 0.011-0.164-0.292-0.26-0.394-0.338zM19.959 28.049c-0.184-0.185 0.201-0.386 0.314-0.161 0.148 0.286 0.325 0.568 0.459 0.884 0.106 0.259-0.033 0.295-0.121 0.153-0.146-0.247-0.368-0.577-0.652-0.876zM19.058 28.604c0.198-0.086 0.193 0.161 0.121 0.209-0.131 0.073-0.306-0.121-0.121-0.209zM19.645 28.387c0.198-0.086 0.193 0.161 0.121 0.209-0.131 0.073-0.306-0.121-0.121-0.209z"></path>
<path d="M13.506 28.733c-0.297-0.189 0.060-0.472 0.265-0.257 0.294 0.3 0.575 0.957 0.797 1.206 0.211 0.245 0.041-0.663 0.105-0.932 0.043-0.15 0.16-0.129 0.161 0.016 0.001 0.37-0.056 1.122 0.040 1.182 0.18 0.102 0.148 0.269 0.298 0.241 0.161-0.038 0.137-0.080 0.282-0.088 0.144 0 0.148 0.144 0.314 0.121 0.105-0.014 0.137-0.133 0.265-0.137 0.117-0.010 0.067 0.248-0.008 0.289-0.121 0.068-0.499-0.074-0.611-0.064-0.134 0.003-0.375 0.128-0.523 0.072-0.181-0.065-0.141-0.294-0.265-0.257-0.141 0.032-0.114 0.289-0.45 0.37-0.157 0.036-0.21-0.105-0.129-0.201 0.146-0.156 0.44-0.28 0.394-0.426-0.136-0.405-0.547-0.893-0.933-1.133zM16.089 28.789c0.143 0.469 0.136 1.093 0.217 1.519 0.040 0.168 0.201 0.018 0.185-0.113-0.063-0.458-0.091-1.020-0.209-1.455-0.049-0.151-0.248-0.121-0.193 0.048zM16.483 28.91c-0.038-0.196 0.15-0.214 0.177-0.097 0.097 0.378 0.084 1.241 0.273 1.27 0.327 0.037 0.785-0.030 1.191-0.113 0.2-0.040 0.241-0.184 0.233-0.241-0.038-0.232 0.179-0.214 0.233 0.032 0.029 0.128-0.029 0.359-0.273 0.41-0.478 0.092-1.136 0.234-1.513 0.153-0.33-0.070-0.223-0.921-0.322-1.414z"></path>
<path d="M17.014 29.247c0.008-0.247 0.194-0.284 0.193-0.072 0.005 0.506 0.598 0.375 0.724 0.185 0.093-0.148 0.025-0.212-0.064-0.378-0.111-0.215 0.124-0.275 0.225-0.088 0.076 0.134 0.128 0.559-0.008 0.667-0.188 0.149-0.698 0.222-0.917 0.056-0.117-0.080-0.162-0.234-0.153-0.37zM16.757 28.588c0.026 0.159 0.458 0.105 0.442-0.016-0.015-0.104-0.466-0.080-0.442 0.016zM17.32 28.717c0.017 0.16 0.297 0.113 0.281-0.008-0.015-0.128-0.298-0.153-0.282 0.008zM18.165 28.524c-0.142-0.196 0.134-0.208 0.225-0.064 0.236 0.352 0.391 0.919 0.619 1.302 0.097 0.177 0.219 0.019 0.233-0.024 0.015-0.045-0.074-0.115-0.080-0.273-0.011-0.123 0.24-0.276 0.418-0.161 0.167 0.112 0.030 0.211 0.113 0.273 0.078 0.059 0.277 0.022 0.306-0.016 0.088-0.138-0.032-0.057-0.153-0.137-0.14-0.1-0.056-0.534 0.233-0.354 0.172 0.1 0.223 0.418 0.161 0.595-0.055 0.164-0.343 0.22-0.499 0.185-0.176-0.053-0.318-0.265-0.282-0.209 0.087 0.143-0.021 0.283-0.105 0.338-0.205 0.129-0.349 0.196-0.499-0.016-0.266-0.398-0.412-1.068-0.692-1.439z"></path>
</svg>
