<!-- Generated by IcoMoon.io -->
<svg version="1.1" xmlns="http://www.w3.org/2000/svg" width="32" height="32" viewBox="0 0 32 32">
<title>ag</title>
<path d="M15.176 3.959c-0.553 2.94-0.781 3.916-0.868 3.818-0.065-0.076-1.085-1.605-2.267-3.417-1.182-1.801-2.169-3.265-2.191-3.243-0.011 0.022 0.336 1.812 0.781 3.981 0.456 2.159 0.803 3.948 0.781 3.97s-1.421-0.9-3.124-2.050c-1.692-1.161-3.222-2.191-3.406-2.311l-0.325-0.206 0.206 0.325c0.119 0.174 1.15 1.714 2.311 3.406 1.15 1.703 2.072 3.102 2.050 3.124s-1.812-0.325-3.97-0.781c-2.17-0.445-3.959-0.792-3.981-0.781-0.022 0.022 1.443 1.009 3.243 2.191 1.812 1.182 3.341 2.202 3.417 2.267 0.098 0.087-0.89 0.315-3.851 0.879l-3.981 0.759 7.995 0.033c4.404 0.011 11.607 0.011 16 0l8.005-0.033-3.981-0.759c-2.961-0.564-3.948-0.792-3.851-0.879 0.076-0.065 1.605-1.085 3.417-2.267 1.801-1.182 3.265-2.17 3.243-2.191-0.022-0.011-1.812 0.336-3.981 0.781-2.159 0.456-3.948 0.803-3.97 0.781s0.911-1.443 2.072-3.146c1.161-1.714 2.191-3.243 2.3-3.406l0.195-0.304-0.325 0.206c-0.174 0.119-1.714 1.15-3.406 2.311-1.703 1.15-3.102 2.072-3.124 2.050s0.325-1.812 0.77-3.981c0.456-2.159 0.803-3.948 0.781-3.97-0.011-0.022-0.998 1.443-2.18 3.243-1.182 1.812-2.202 3.352-2.267 3.417-0.087 0.098-0.315-0.879-0.879-3.818-0.412-2.18-0.781-3.959-0.813-3.959s-0.401 1.779-0.824 3.959z"></path>
</svg>
