<!-- Generated by IcoMoon.io -->
<svg version="1.1" xmlns="http://www.w3.org/2000/svg" width="32" height="32" viewBox="0 0 32 32">
<title>al</title>
<path d="M21.357 0.366c0.373-0.002 0.692 0.119 0.893 0.438 0.905-0.050 1.993-0.103 1.793 1.018-0.18-0.017-0.277-0.119-0.333-0.234-0.080-0.163-0.35-0.19-0.605-0.099-0.222 0.079-0.401 0.197-0.237 0.394 0.084 0.1 0.411 0.149 0.611 0.099s0.573-0.11 0.791-0.134c0.146-0.017 0.436-0.199 0.57-0.458s0.477-0.571 0.695-0.387c0.218 0.184-0.042 0.496-0.259 0.688s-0.662 0.432-0.896 0.432c-0.31 0-0.613 0.075-0.771 0.109-0.075 0.59-0.854 0.858-1.508 0.842s-1.516 0.301-2.311 0.957c-1.030 0.85-1.758 3.659-0.016 3.659 1.088 0 0.92-1.087 0.887-1.706s0.303-1.288 1.040-1.556c0.737-0.268 2.244-0.783 2.663-1.018 0.167-0.117 0.344 0.296 0.368 0.534 0.017 0.167 0.204 0.181 0.736 0.016 1.508-0.468 2.881-1.272 3.534-2.509s1.886-0.020 1.274 1.021c-0.737 1.254-3.199 2.274-4.757 2.474-0.724 0.093-0.719 0.96-0.035 1.056 1.424 0.201 2.819 0.173 3.687-0.954 0.67-0.87 1.328-0.088 1.037 0.602-0.62 1.472-2.722 2.093-4.773 1.104-0.486-0.234-1.006-0.195-0.586 0.384 1.055 1.455 2.458 1.68 4.219 0.602 0.519-0.318 0.923-0.268 1.040-0.067 0.206 0.352 0.296 0.672-0.304 1.104-1.323 0.953-2.854 0.885-4.084 0.25-0.486-0.251-1.376-0.451-0.589 0.586s2.8 1.571 3.62 0.986c0.821-0.585 1.841-0.049 1.188 0.855s-2.008 0.671-2.628 0.336c-0.62-0.335-1.576-0.789-1.978-0.973s-0.59 0.131-0.134 0.653c1.022 1.171 2.076 2.155 3.502 1.69 0.821-0.267 1.575-0.303 1.357 0.701s-1.909 1.072-2.746 0.57c-0.838-0.502-1.591-1.070-2.093-1.556s-1.013-0.466-0.455 0.352c1.256 1.84 2.331 3.186 4.123 2.842 1.658-0.318 1.245 0.675 0.887 0.986-1.022 0.886-2.814 0.654-4.958-1.972-0.167-0.205-0.448-0.146-0.301 0.234 0.954 2.458 2.546 4.046 4.087 3.662 0.802-0.2 1.581 0.246 0.768 0.954-0.921 0.803-2.597 0.503-3.803-0.835s-1.941-2.292-2.209-2.794c-0.268-0.502-0.671-0.518-0.621 0.134s0.535 1.925 1.389 2.343c0.442 0.217 0.837 0.701 0 1.069s-1.824-1.119-2.628-3.294c-0.095-0.255-0.649-0.32-0.637 0.166 0.017 0.686 0.352 1.253 0.72 1.588s0.080 0.895-0.419 0.669c-0.703-0.318-1.149-0.784-1.424-1.488-0.151-0.385-0.49-0.517-0.301 0.083 0.569 1.806 1.843 2.678 3.518 3.514-0.251 0.251-0.478 0.526-0.704 0.752 1.030 0.527 2.113 0.878 2.967 1.229 0.679-0.452 1.28-0.703 1.581-1.13 0.1-0.577 0.805-0.827 1.258-0.576 0.779-0.301 1.329-0.228 1.38 0.499-0.452-0.075-0.829-0.148-1.156 0.154-0.15 0.351-0.627 0.525-1.079 0.375-0.503 0.301-0.931 0.603-1.232 0.803 0.955-0.025 1.658-0.075 2.161-0.125 0.477-0.477 0.928-0.476 1.28-0.15 0.578-0.125 1.030 0.142 1.181 0.643-0.436-0.050-0.835-0.202-1.12-0.051-0.234 0.435-0.887 0.452-1.306 0.134-0.637-0.017-1.876-0.035-2.161-0.035 0.419 0.251 0.92 0.554 1.172 0.704 0.988-0.201 1.523 0.183 1.456 0.903 0.234 0.368 0.218 0.886-0.067 1.12-0.067-0.301-0.233-0.685-0.467-0.903-0.603 0.117-1.038-0.083-1.223-0.752-0.385-0.251-0.887-0.57-1.088-0.704s-0.363-0.287-0.823-0.083c-0.452 0.201-0.872 0.368-1.14 0.519-0.151 0.585-0.72 0.62-1.088 0.352-0.235 0.134-0.436 0.367-0.57 0.618-0.218-0.385-0.099-0.903 0.32-1.037 0.151-0.452 0.684-0.601 1.069-0.384 0.318-0.134 0.772-0.352 0.973-0.435-0.653-0.234-2.31-0.85-2.897-1.101-0.553 0.418-1.174 0.818-1.626 0.701-0.067-0.401-0.275-0.73-0.554-1.303-0.444-0.912-0.995-1.765-1.447-2.292s-0.912-0.227-0.88 0.499c0.075 1.756 1.374 4.384 3.284 4.484 0.653 0.035 0.91 0.168 0.551 0.653-0.335 0.452-1.372 0.51-1.949 0.083s-0.78-0.402-0.663 0.166c0.117 0.569 0.773 0.785 1.258 0.819 0.704 0.050 1.505 0.301 0.851 0.903s-1.725 0.266-2.513-0.637c-0.273-0.313-0.487-0.4-0.467 0.102 0.033 0.87 0.552 1.423 1.088 1.54s1.072 0.256 0.922 0.567c-0.251 0.518-1.090 0.603-1.559 0.352s-0.972-0.721-1.072-1.005c-0.101-0.284-0.305-0.121-0.25 0.269 0.117 0.836 0.704 0.819 0.704 1.504s-0.572 1.357-1.242 2.109c-0.67-0.753-1.239-1.424-1.239-2.109s0.587-0.668 0.704-1.504c0.055-0.39-0.152-0.553-0.253-0.269s-0.603 0.754-1.072 1.005c-0.469 0.251-1.304 0.166-1.556-0.352-0.15-0.31 0.386-0.45 0.922-0.567s1.055-0.67 1.088-1.54c0.020-0.502-0.197-0.416-0.471-0.102-0.787 0.903-1.859 1.239-2.513 0.637s0.151-0.852 0.855-0.903c0.485-0.035 1.14-0.251 1.258-0.819s-0.085-0.593-0.663-0.166c-0.578 0.426-1.618 0.368-1.953-0.083-0.36-0.485-0.099-0.618 0.554-0.653 1.91-0.1 3.209-2.728 3.284-4.484 0.031-0.727-0.428-1.026-0.88-0.499s-1.006 1.38-1.45 2.292c-0.279 0.573-0.483 0.901-0.551 1.303-0.452 0.117-1.073-0.283-1.626-0.701-0.587 0.251-2.244 0.867-2.897 1.101 0.201 0.084 0.652 0.302 0.97 0.435 0.385-0.217 0.921-0.068 1.072 0.384 0.419 0.134 0.538 0.652 0.32 1.037-0.134-0.251-0.335-0.484-0.57-0.618-0.369 0.268-0.941 0.233-1.091-0.352-0.268-0.15-0.684-0.318-1.136-0.519-0.459-0.204-0.621-0.050-0.823 0.083s-0.703 0.453-1.088 0.704c-0.184 0.669-0.62 0.869-1.223 0.752-0.235 0.217-0.401 0.602-0.467 0.903-0.285-0.234-0.302-0.752-0.067-1.12-0.067-0.719 0.468-1.103 1.456-0.903 0.251-0.15 0.753-0.453 1.172-0.704-0.285 0-1.525 0.018-2.161 0.035-0.419 0.317-1.072 0.3-1.306-0.134-0.285-0.151-0.688 0.001-1.124 0.051 0.15-0.502 0.603-0.769 1.181-0.643 0.352-0.326 0.806-0.326 1.284 0.15 0.502 0.050 1.206 0.1 2.161 0.125-0.301-0.2-0.73-0.503-1.232-0.803-0.452 0.151-0.928-0.023-1.079-0.374-0.327-0.301-0.706-0.229-1.159-0.154 0.050-0.727 0.604-0.8 1.383-0.499 0.452-0.251 1.157-0.001 1.258 0.576 0.301 0.427 0.903 0.678 1.581 1.13 0.855-0.351 1.934-0.702 2.964-1.229-0.226-0.226-0.45-0.501-0.701-0.752 1.674-0.836 2.945-1.708 3.515-3.515 0.19-0.601-0.15-0.468-0.301-0.083-0.276 0.704-0.718 1.171-1.421 1.488-0.499 0.226-0.788-0.334-0.419-0.669s0.704-0.902 0.72-1.588c0.012-0.486-0.543-0.422-0.637-0.166-0.804 2.174-1.794 3.662-2.631 3.294s-0.442-0.853 0-1.069c0.854-0.418 1.342-1.691 1.392-2.343s-0.353-0.636-0.621-0.134c-0.268 0.502-1.006 1.456-2.212 2.794s-2.881 1.638-3.803 0.835c-0.813-0.708-0.030-1.154 0.771-0.954 1.541 0.385 3.133-1.203 4.088-3.662 0.147-0.38-0.134-0.439-0.301-0.234-2.144 2.625-3.937 2.858-4.958 1.972-0.358-0.311-0.772-1.304 0.887-0.986 1.792 0.343 2.864-1.003 4.12-2.842 0.559-0.818 0.051-0.837-0.451-0.352s-1.256 1.054-2.093 1.556c-0.838 0.502-2.528 0.434-2.746-0.57s0.536-0.968 1.357-0.701c1.426 0.465 2.477-0.519 3.499-1.69 0.456-0.522 0.268-0.837-0.134-0.653s-1.356 0.638-1.975 0.973c-0.62 0.335-1.978 0.567-2.631-0.336s0.37-1.437 1.191-0.851c0.821 0.585 2.83 0.048 3.617-0.989s-0.1-0.837-0.586-0.586c-1.231 0.636-2.764 0.704-4.088-0.25-0.601-0.432-0.507-0.752-0.301-1.104 0.117-0.201 0.521-0.25 1.040 0.067 1.761 1.078 3.164 0.853 4.219-0.602 0.421-0.58-0.1-0.618-0.586-0.384-2.051 0.989-4.153 0.367-4.772-1.104-0.291-0.69 0.367-1.471 1.037-0.602 0.868 1.127 2.261 1.155 3.684 0.954 0.684-0.096 0.692-0.963-0.032-1.056-1.558-0.201-4.019-1.22-4.757-2.474-0.612-1.041 0.617-2.259 1.271-1.021s2.029 2.041 3.537 2.509c0.532 0.165 0.72 0.151 0.736-0.016 0.024-0.238 0.201-0.651 0.368-0.535 0.419 0.234 1.926 0.75 2.663 1.018s1.070 0.937 1.037 1.556c-0.033 0.619-0.199 1.706 0.89 1.706 1.742 0 1.011-2.809-0.019-3.658-0.795-0.656-1.658-0.974-2.311-0.957s-1.432-0.251-1.508-0.842c-0.159-0.034-0.458-0.109-0.768-0.109-0.234 0-0.678-0.24-0.896-0.432s-0.477-0.504-0.259-0.688c0.218-0.184 0.561 0.128 0.695 0.387s0.423 0.441 0.57 0.458c0.217 0.025 0.59 0.085 0.791 0.134s0.528 0.001 0.611-0.099c0.164-0.196-0.018-0.314-0.24-0.394-0.254-0.091-0.522-0.064-0.602 0.099-0.056 0.114-0.156 0.217-0.336 0.234-0.201-1.12 0.888-1.068 1.793-1.018 0.536-0.853 1.926-0.269 2.881 0.182 0.452 0.101 1.225 0.049 1.61-0.118s0.368 0.037 0.234 0.221c-0.134 0.184-0.618 0.517-0.819 0.567s-0.134 0.15-0.067 0.234c0.212 0.264 0.685 0.52 0.903 0.554s0.287 0.134 0.17 0.218c-0.117 0.084-0.287 0.183-0.455 0.234s-0.149 0.116-0.048 0.25c0.208 0.276 0.754 0.552 0.938 0.518s0.198 0.067 0.131 0.15c-0.067 0.084-0.317 0.202-0.451 0.202s-0.144 0.025-0.032 0.166c0.121 0.154 0.392 0.486 0.634 0.416 0.327-0.094 0.411-0.010 0.311 0.128-0.237 0.325-0.226 0.466 0.243 0.544 0.469-0.078 0.483-0.219 0.246-0.544-0.101-0.138-0.019-0.222 0.307-0.128 0.242 0.070 0.516-0.262 0.637-0.416 0.112-0.142 0.099-0.166-0.035-0.166s-0.385-0.118-0.451-0.202c-0.067-0.084-0.050-0.184 0.134-0.15s0.731-0.243 0.938-0.519c0.1-0.134 0.116-0.2-0.051-0.25s-0.334-0.15-0.451-0.234-0.052-0.184 0.166-0.218c0.218-0.033 0.694-0.289 0.906-0.554 0.067-0.084 0.134-0.183-0.067-0.234s-0.685-0.383-0.819-0.567c-0.134-0.184-0.152-0.388 0.234-0.221s1.155 0.219 1.607 0.118c0.597-0.282 1.366-0.618 1.988-0.621zM21.041 1.384c-0.173 0.001-0.359 0.052-0.531 0.138-0.234 0.117-0.149 0.318 0.035 0.368s0.535 0.051 0.803-0.032c0.268-0.084 0.218-0.319-0.016-0.419-0.088-0.038-0.188-0.055-0.291-0.054zM11.102 1.384c-0.104-0.001-0.203 0.017-0.291 0.054-0.234 0.1-0.284 0.336-0.016 0.419s0.619 0.082 0.803 0.032c0.184-0.050 0.269-0.251 0.035-0.368-0.172-0.086-0.359-0.136-0.531-0.138z"></path>
</svg>
