<!-- Generated by IcoMoon.io -->
<svg version="1.1" xmlns="http://www.w3.org/2000/svg" width="25" height="32" viewBox="0 0 25 32">
<title>ao</title>
<path d="M12.745 0.552c-0.072 0.199-0.159 0.358-0.183 0.358s-0.445-0.087-0.922-0.199c-0.485-0.103-1.073-0.207-1.312-0.215l-0.437-0.024-0.095 0.994c-0.048 0.549-0.103 1.153-0.119 1.344l-0.024 0.35 0.867 0.151c4.54 0.763 8.142 4.452 8.833 9.048 0.493 3.244-0.58 6.615-2.862 9.016-0.286 0.302-0.493 0.572-0.461 0.604s0.652 0.493 1.375 1.034c0.724 0.541 1.352 1.010 1.399 1.050 0.064 0.040 0.231-0.095 0.509-0.413l0.413-0.477-0.246-0.31c-0.135-0.167-0.246-0.334-0.246-0.358s0.159-0.254 0.35-0.501c0.191-0.254 0.517-0.739 0.724-1.081 0.199-0.334 0.382-0.612 0.39-0.612 0.016 0 0.183 0.056 0.366 0.119s0.366 0.119 0.398 0.119c0.103 0 0.954-2.019 0.954-2.258 0-0.056-0.167-0.175-0.366-0.27-0.27-0.135-0.35-0.215-0.318-0.31 0.087-0.223 0.445-2.059 0.445-2.282 0-0.199 0.016-0.207 0.429-0.207h0.429l0.056-0.676c0.032-0.374 0.024-0.954-0.008-1.296l-0.072-0.612-0.819-0.048-0.048-0.453c-0.032-0.246-0.143-0.819-0.254-1.272-0.103-0.453-0.191-0.851-0.191-0.883 0-0.040 0.159-0.127 0.358-0.199 0.199-0.079 0.358-0.175 0.358-0.215 0-0.127-0.525-1.439-0.747-1.884-0.119-0.231-0.246-0.413-0.286-0.413s-0.223 0.056-0.398 0.127c-0.183 0.072-0.334 0.119-0.342 0.103-0.016-0.016-0.159-0.262-0.334-0.549-0.167-0.286-0.501-0.779-0.739-1.097l-0.437-0.58 0.596-0.612-0.7-0.731c-0.39-0.405-0.811-0.803-0.93-0.89l-0.231-0.159-0.254 0.246c-0.135 0.135-0.286 0.246-0.334 0.246-0.040 0-0.326-0.183-0.628-0.405-0.31-0.223-0.795-0.549-1.089-0.716l-0.533-0.31 0.111-0.326c0.064-0.183 0.119-0.374 0.119-0.429 0-0.127-2.012-0.994-2.314-0.994-0.032 0-0.119 0.159-0.199 0.358z"></path>
<path d="M8.126 5.68l-0.564 1.709-3.626 0.080 0.31 0.246c0.175 0.127 0.827 0.604 1.455 1.057 0.62 0.445 1.129 0.827 1.129 0.843s-0.246 0.787-0.549 1.717c-0.31 0.93-0.549 1.701-0.541 1.709 0.008 0 0.676-0.469 1.479-1.050l1.455-1.065 0.254 0.183c0.135 0.095 0.779 0.565 1.439 1.034 0.652 0.477 1.201 0.835 1.209 0.795 0.016-0.032-0.207-0.763-0.493-1.614s-0.517-1.598-0.509-1.67c0-0.064 0.652-0.588 1.447-1.153l1.439-1.034-1.829-0.024-1.829-0.016-0.565-1.733-0.557-1.725-0.557 1.709z"></path>
<path d="M3.959 12.247c-0.119 0.215-0.318 0.66-0.437 0.986-0.207 0.541-0.223 0.692-0.223 1.63-0.008 0.851 0.024 1.137 0.167 1.59 0.405 1.28 1.336 2.369 2.894 3.363 0.867 0.564 12.411 7.466 12.61 7.545 0.079 0.032 0.66-0.517 0.724-0.692 0.016-0.032-1.94-1.471-4.333-3.188-5.311-3.808-6.527-4.715-7.474-5.55-0.684-0.604-0.835-0.811-0.676-0.906 0.032-0.024 0.398 0.262 0.811 0.636s1.296 1.081 1.948 1.566c1.209 0.906 9.469 6.846 9.795 7.052 0.159 0.095 0.199 0.087 0.35-0.056l0.159-0.167-1.336-0.994c-0.731-0.549-2.282-1.686-3.443-2.528-5.359-3.912-6.957-5.192-8.992-7.227-1.566-1.566-2.186-2.417-2.29-3.141l-0.048-0.31-0.207 0.39z"></path>
<path d="M0.946 23.227c-0.413 0.509-0.803 0.986-0.859 1.065-0.087 0.127-0.040 0.183 0.366 0.493 0.246 0.199 0.739 0.525 1.089 0.739 0.35 0.207 0.652 0.39 0.668 0.398 0.016 0.016-0.032 0.191-0.103 0.39-0.079 0.191-0.119 0.39-0.095 0.429 0.040 0.064 1.773 0.795 2.163 0.914 0.135 0.040 0.191-0.016 0.342-0.342l0.183-0.382 0.557 0.143c0.31 0.072 0.811 0.183 1.129 0.231 0.962 0.151 0.906 0.111 0.978 0.572l0.064 0.421 1.073 0.024c0.588 0.008 1.145 0 1.24-0.016 0.119-0.032 0.175-0.143 0.239-0.461l0.072-0.413 0.636-0.095c0.628-0.087 1.542-0.286 1.805-0.39 0.103-0.040 0.167 0.032 0.294 0.318 0.159 0.358 0.183 0.374 0.413 0.326 0.246-0.048 1.829-0.692 2.051-0.835 0.095-0.064 0.087-0.135-0.040-0.485l-0.151-0.421-2.846-1.67-0.89 0.215c-1.741 0.405-3.196 0.445-4.826 0.119-1.471-0.294-2.989-0.946-4.174-1.797-0.326-0.231-0.596-0.421-0.604-0.421s-0.358 0.421-0.771 0.93z"></path>
<path d="M19.861 26.765c-0.787 0.914-0.739 0.843-0.628 0.978 0.056 0.064 0.334 0.191 0.612 0.278 0.286 0.087 0.708 0.254 0.93 0.382 0.58 0.31 1.63 1.375 1.94 1.98 0.541 1.034 1.28 1.423 1.797 0.938 0.183-0.167 0.207-0.254 0.207-0.692 0-0.445-0.032-0.557-0.286-0.938-0.358-0.549-0.787-0.994-1.94-2.019-1.169-1.034-1.765-1.479-1.964-1.479-0.103 0-0.35 0.207-0.668 0.572z"></path>
</svg>
