<!-- Generated by IcoMoon.io -->
<svg version="1.1" xmlns="http://www.w3.org/2000/svg" width="43" height="32" viewBox="0 0 43 32">
<title>aq</title>
<path d="M12.32 15.020c-0.193-0.393-0.193-0.393-0.193-0.787-0.093 0-0.113 0.020-0.167 0-0.053-0.013-0.080 0.367-0.26 0.293-0.027-0.040 0.133-0.313-0.040-0.427-0.053-0.033 0.013-0.26-0.013-0.36 0 0-0.22 0.12-0.38-0.293-0.087-0.107-0.2 0.1-0.2 0.1s0.053 0.127-0.033 0.153c-0.127-0.093-0.213-0.040-0.373-0.167-0.153-0.133 0.033-0.273-0.267-0.38 0.2-0.493 0.2-0.4 0.68-0.593-0.293-0.2-0.293-0.2-0.487-0.493-0.287-0.093-0.38-0.2-0.667-0.393-0.387-0.487-0.58-1.473-0.58-2.16 0.24-0.233 0.573 0.787 1.060 1.080l0.667 0.293c0.387 0.2 0.487 0.4 0.773 0.593l0.867 0.293c0.387 0.293 0.58 0.687 0.867 0.787 0.313 0 0.373-0.18 0.473-0.2 0.567-0.027 0.853-0.1 0.967-0.267 0.113-0.147 0.387 0.073 1.16-0.22l-0.1-0.4s0.207-0.167 0.487-0.093c-0.013-0.18-0.027-0.66 0.247-0.873-0.167-0.18-0.060-0.307-0.060-0.307s0.153-0.153 0.173-0.233c-0.080-0.433 0.067-0.44 0.107-0.567s-0.133-0.080-0.087-0.26c0.047-0.173 0.327-0.213 0.367-0.36 0.033-0.147-0.080-0.22-0.073-0.253 0.060-0.133 0.007-0.467 0-0.593 0.513-0.133 0.687-0.567 0.867-0.393 0.093-0.587 0.187-0.787 0.767-0.787 0.080-0.18-0.207-0.333-0.093-0.393 0.193-0.020 0.333-0.013 0.567 0.287 0.067 0.093 0.080-0.133 0.153-0.16 0.067-0.027 0.247-0.027 0.267-0.147 0.033-0.12 0.067-0.273 0.167-0.467 0.080-0.167 0.147 0.060 0.213 0.373 0.623 0.026 1.211 0.103 1.782 0.226l-0.069-0.012c0.287 0.073 0.48-0.080 0.753-0.107 0.207 0.207 0.4 0.053 0.507 0.5 0.153 0.24 0.4 0.020 0.46 0.087 0.32 0.907 1.427 0.3 1.513 0.313 0.133 0 0.313 0.4 0.42 0.4 0.187-0.033 0.133-0.16 0.293-0.113-0.047 0.347 0.307 0.733 0.307 0.993 0 0 0.087 0.040 0.167-0.033s0.153-0.267 0.22-0.267l0.433 0.080c0.52 0.187 0.787 0.227 0.987 0.32 0.1 0.173 0.187 0.267 0.38 0.233 0.16 0.107 0.040 0.253 0.133 0.26 0.2-0.1 0.26-0.207 0.453-0.107 0.206 0.115 0.371 0.283 0.477 0.487l0.003 0.006c0 0.093-0.1 0.487 0 1.080 0.047 0.2 0.067 0.353 0.273 0.687-0.053 0.353 0.267 0.933 0.267 1.080 0 0.2-0.16 0.3-0.253 0.5 0.387 0.293 0 0.787-0.193 1.080 1.447 0.293 0.773 0.887 1.927 0.587-0.287 0.693-0.187 0.633 0.1 1.327-0.573 0.393-0.013 0.513-0.4 1-0.020 0.033 0.233 0.433 0.587 0.433-0.093 0.787-0.387 0.493-0.287 1.667-0.76-0.013-0.453 0.887-0.96 0.793 0.027 0.56 0.287 0.613 0.187 1.18-0.38 0.1-0.38 0.1-0.573 0.393l-0.293-0.1c-0.093 0.493-0.287 0.593 0 1.087h-0.473c-0.007 0.167 0.167 0.213 0.2 0.393-0.020 0.067-0.553 0.38-0.967 0.393-0.107 0.24 0.287 0.5 0.267 0.62-0.453 0.093-0.653 0.66-0.653 0.66s0.233 0.093 0.193 0.2c-0.127-0.1-0.193-0.107-0.387-0.107-0.093 0.027-0.333 0-0.553 0.387-0.247 0.080-0.367 0.053-0.553 0.307-0.080-0.247-0.2 0-0.347 0.093s-0.34 0.327-0.367 0.313c0-0.067 0.087-0.313 0.087-0.313l-0.48 0.1-0.060 0.007c-0.033 0-0.027-0.287-0.12-0.273-0.087 0.007-0.347 0.367-0.44 0.373-0.087 0.013-0.113-0.113-0.193-0.1-0.073 0.013-0.227 0.373-0.28 0.387-0.053 0.007-0.267-0.227-0.453-0.193-0.947 0.34-1.093-0.667-1.247-0.1-0.2-0.107-0.16-0.047-0.36 0.007-0.133 0.033-0.14-0.173-0.26-0.167-0.227 0-0.213 0.227-0.34 0.16-0.1-0.467-0.72-0.38-0.78-0.573-0.047-0.207 0.267-0.2 0.373-0.347 0.073-0.2-0.087-0.273 0.233-0.467 0.413-0.287 0.173-0.4 0.247-0.613 0.133-0.307 0.133-0.387 0.027-0.66 0 0-0.327-0.88-0.387-0.88-0.2-0.060-0.2 0.327-0.48 0.427-0.573 0.2-1.6-0.5-1.773-0.5-0.16 0-0.913 0.187-0.887-0.2-0.107 0.373-0.52 0.087-0.547 0.087-0.387 0-0.24 0.307-0.5 0.293-0.113-0.040-1.3-0.107-1.3-0.107v0.2l-0.773-0.4-0.667-0.2c-0.58-0.193-0.293-0.687-1.253-0.387v-0.6h-0.487c0.2-1.173 0-0.587-0.093-1.667l-0.387 0.1c-0.38-0.533 0.533-0.433-0.287-0.787 0 0 0.013-0.587-0.193-0.4-0.040 0.027 0.1 0.3 0.1 0.3-0.773-0.1-0.967-0.293-0.967-1.080 0 0 0.633 0.087 0.58 0-0.104-0.348-0.171-0.75-0.186-1.165l-0-0.009c-0.013-0.133 0.587-0.453 0.467-0.767 0.080-0.027 0.293-0.033 0.293-0.033z"></path>
<path d="M38.307 18.953c-0.015 0.027-0.023 0.059-0.023 0.093s0.009 0.066 0.024 0.094l-0.001-0.001c0.067-0.087 0.013-0.127 0-0.187z"></path>
<path d="M13.553 11.187s-0.16-0.020-0.127 0.12c0.053-0.113 0.12-0.113 0.127-0.12zM13.587 10.853c-0.087 0-0.2-0.013-0.16 0.133 0.053-0.113 0.16-0.127 0.16-0.133zM14.193 12.74s0.14-0.007 0.107 0.133c-0.053-0.107-0.1-0.127-0.107-0.133z"></path>
</svg>
