<!-- Generated by IcoMoon.io -->
<svg version="1.1" xmlns="http://www.w3.org/2000/svg" width="43" height="32" viewBox="0 0 43 32">
<title>aw</title>
<path d="M9.513 1.867l0.193 0.2-0.2-0.2zM9.313 2.267v0zM9.707 2.267v0z"></path>
<path d="M9.313 2.467l0.2 0.193-0.2-0.2zM9.707 2.46v0z"></path>
<path d="M9.113 2.853v0z"></path>
<path d="M9.513 2.853l0.193 0.2-0.2-0.2z"></path>
<path d="M9.907 2.853l0.193 0.2-0.2-0.2z"></path>
<path d="M9.113 3.053v0zM9.907 3.053l0.193 0.2-0.2-0.2z"></path>
<path d="M9.313 3.247v0zM9.707 3.247v0z"></path>
<path d="M8.92 3.447v0z"></path>
<path d="M20.305 2.172l-2.823 10.707-10.734 2.933 10.694 2.796 2.864 10.694 2.851-10.694 10.694-2.864-10.694-2.851-2.864-10.694z"></path>
<path d="M10.1 3.447v0z"></path>
<path d="M8.92 3.64v0zM10.1 3.64v0z"></path>
<path d="M9.113 3.84v0zM9.907 3.84l0.193 0.2-0.2-0.2z"></path>
<path d="M8.72 4.033v0z"></path>
<path d="M9.18 4.167v0zM9.967 4.167v0z"></path>
<path d="M10.3 4.033v0z"></path>
<path d="M8.72 4.233v0zM10.3 4.233v0z"></path>
<path d="M8.92 4.427v0zM10.1 4.427v0z"></path>
<path d="M8.527 4.627v0zM10.493 4.627v0z"></path>
<path d="M8.527 4.82v0zM10.493 4.82v0z"></path>
<path d="M8.527 5.020v0zM10.493 5.020v0z"></path>
<path d="M8.333 5.22l-0.007-0.007z"></path>
<path d="M8.72 5.22l0.2 0.193-0.2-0.2zM10.3 5.213v0z"></path>
<path d="M10.693 5.22l0.2 0.193-0.2-0.2z"></path>
<path d="M8.333 5.413l0.193 0.2-0.2-0.2z"></path>
<path d="M8.787 5.547v0zM10.36 5.547v0z"></path>
<path d="M10.693 5.413v0z"></path>
<path d="M8.333 5.613l0.193 0.2-0.2-0.2zM10.693 5.613v0z"></path>
<path d="M8.527 5.807v0zM10.493 5.807v0z"></path>
<path d="M8.133 6v0z"></path>
<path d="M8.593 6.133v0zM10.56 6.133v0z"></path>
<path d="M10.887 6v0z"></path>
<path d="M8.133 6.2v0zM10.887 6.2v0z"></path>
<path d="M8.333 6.4l0.193 0.2-0.2-0.2zM10.693 6.4v0z"></path>
<path d="M7.933 6.6l0.2 0.193-0.2-0.2z"></path>
<path d="M8.4 6.727l0.060 0.133-0.067-0.133zM10.753 6.727v0z"></path>
<path d="M11.087 6.6l0.2 0.193-0.2-0.2z"></path>
<path d="M7.933 6.793v0zM11.087 6.793v0z"></path>
<path d="M8.133 6.987v0zM10.887 6.987v0z"></path>
<path d="M7.733 7.187v0z"></path>
<path d="M8.133 7.187v0zM10.887 7.187v0z"></path>
<path d="M11.28 7.187v0zM7.147 7.387l0.2 0.193-0.2-0.2z"></path>
<path d="M7.347 7.38v0zM11.68 7.38l0.193 0.2-0.2-0.2z"></path>
<path d="M11.867 7.38v0zM6.56 7.58v0z"></path>
<path d="M6.753 7.58v0z"></path>
<path d="M7.54 7.58v0z"></path>
<path d="M7.733 7.58v0zM11.28 7.58v0z"></path>
<path d="M11.48 7.58v0z"></path>
<path d="M12.267 7.58v0z"></path>
<path d="M12.467 7.58l0.193 0.2-0.2-0.2z"></path>
<path d="M5.773 7.773v0z"></path>
<path d="M5.967 7.773v0z"></path>
<path d="M6.167 7.773v0z"></path>
<path d="M6.953 7.773v0z"></path>
<path d="M7.28 7.84v0zM11.807 7.84v0z"></path>
<path d="M12.067 7.773v0z"></path>
<path d="M12.853 7.773v0z"></path>
<path d="M13.053 7.773v0z"></path>
<path d="M13.247 7.773v0zM5.18 7.973v0z"></path>
<path d="M5.38 7.973v0z"></path>
<path d="M5.573 7.973v0z"></path>
<path d="M6.36 7.973v0z"></path>
<path d="M6.687 8.040v0zM12.393 8.040v0z"></path>
<path d="M12.66 7.973v0z"></path>
<path d="M13.447 7.973v0z"></path>
<path d="M13.64 7.973v0z"></path>
<path d="M13.84 7.973v0zM4.587 8.173l0.2 0.193-0.2-0.2z"></path>
<path d="M4.787 8.167v0z"></path>
<path d="M5.773 8.167v0z"></path>
<path d="M6.1 8.233v0zM12.987 8.233v0z"></path>
<path d="M13.247 8.167v0z"></path>
<path d="M14.233 8.167v0z"></path>
<path d="M14.427 8.167v0z"></path>
<path d="M4 8.367v0z"></path>
<path d="M4.2 8.367l0.193 0.2-0.2-0.2z"></path>
<path d="M4.987 8.367l0.193 0.2-0.2-0.2zM14.040 8.367l0.193 0.2-0.2-0.2z"></path>
<path d="M14.82 8.367v0z"></path>
<path d="M15.020 8.367v0zM3.407 8.567l0.2 0.193-0.2-0.2z"></path>
<path d="M3.6 8.56v0z"></path>
<path d="M4.393 8.56v0z"></path>
<path d="M4.72 8.627v0zM14.367 8.627v0z"></path>
<path d="M14.627 8.56v0z"></path>
<path d="M15.413 8.56v0z"></path>
<path d="M15.613 8.56v0z"></path>
<path d="M2.82 8.76v0z"></path>
<path d="M3.013 8.76v0z"></path>
<path d="M3.8 8.76v0zM15.22 8.76v0z"></path>
<path d="M16 8.76v0z"></path>
<path d="M16.2 8.76v0zM2.427 8.96l0.2 0.193-0.2-0.2z"></path>
<path d="M3.407 8.953v0zM15.607 8.953v0z"></path>
<path d="M16.6 8.953l0.193 0.2-0.2-0.2zM2.82 9.153v0z"></path>
<path d="M3.013 9.153v0z"></path>
<path d="M3.8 9.153v0zM15.22 9.153v0z"></path>
<path d="M16 9.153v0z"></path>
<path d="M16.2 9.153v0z"></path>
<path d="M3.407 9.353l0.2 0.193-0.2-0.2z"></path>
<path d="M3.6 9.353l0.2 0.193-0.2-0.2z"></path>
<path d="M4.393 9.353l0.2 0.193-0.2-0.2z"></path>
<path d="M4.72 9.413v0zM14.367 9.413v0z"></path>
<path d="M14.627 9.353l0.2 0.193-0.2-0.2z"></path>
<path d="M15.413 9.353l0.2 0.193-0.2-0.2z"></path>
<path d="M15.613 9.353l0.2 0.193-0.2-0.2zM4 9.547v0z"></path>
<path d="M4.2 9.547l0.193 0.2-0.2-0.2z"></path>
<path d="M4.987 9.547l0.193 0.2-0.2-0.2zM14.040 9.547l0.193 0.2-0.2-0.2z"></path>
<path d="M14.82 9.547v0z"></path>
<path d="M15.020 9.547v0z"></path>
<path d="M4.587 9.747l0.2 0.193-0.2-0.2z"></path>
<path d="M4.787 9.747l0.2 0.193-0.2-0.2z"></path>
<path d="M5.773 9.747l0.2 0.193-0.2-0.2z"></path>
<path d="M6.1 9.807v0zM12.987 9.807v0z"></path>
<path d="M13.247 9.747l0.2 0.193-0.2-0.2z"></path>
<path d="M14.233 9.747l0.2 0.193-0.2-0.2z"></path>
<path d="M14.427 9.747l0.2 0.193-0.2-0.2zM5.18 9.94v0z"></path>
<path d="M5.38 9.94v0z"></path>
<path d="M5.573 9.94v0z"></path>
<path d="M6.36 9.94v0z"></path>
<path d="M6.687 10v0zM12.393 10v0z"></path>
<path d="M12.66 9.94v0z"></path>
<path d="M13.447 9.94v0z"></path>
<path d="M13.64 9.94v0z"></path>
<path d="M13.84 9.94v0zM5.773 10.14l-0.007-0.007z"></path>
<path d="M5.967 10.133v0z"></path>
<path d="M6.167 10.133v0z"></path>
<path d="M6.953 10.133v0z"></path>
<path d="M7.28 10.2v0zM11.807 10.2v0z"></path>
<path d="M12.067 10.133v0z"></path>
<path d="M12.853 10.133v0z"></path>
<path d="M13.053 10.133v0z"></path>
<path d="M13.247 10.133v0z"></path>
<path d="M6.56 10.333v0z"></path>
<path d="M6.753 10.333v0z"></path>
<path d="M7.54 10.333v0z"></path>
<path d="M7.733 10.333v0zM11.28 10.333v0z"></path>
<path d="M11.48 10.333v0z"></path>
<path d="M12.267 10.333v0z"></path>
<path d="M12.467 10.333l0.193 0.2-0.2-0.2zM7.147 10.533v0z"></path>
<path d="M7.347 10.533v0zM11.68 10.533l0.193 0.2-0.2-0.2z"></path>
<path d="M8.133 10.733l0.2 0.193-0.2-0.2zM10.887 10.727v0z"></path>
<path d="M11.28 10.733l0.2 0.193-0.2-0.2z"></path>
<path d="M8.133 10.927v0zM10.887 10.927v0z"></path>
<path d="M7.933 11.12v0z"></path>
<path d="M8.4 11.253l0.060 0.133-0.067-0.133zM10.753 11.253v0z"></path>
<path d="M11.087 11.12v0z"></path>
<path d="M7.933 11.32v0zM11.087 11.32v0z"></path>
<path d="M8.333 11.513l0.193 0.2-0.2-0.2zM10.693 11.513v0z"></path>
<path d="M8.133 11.713v0z"></path>
<path d="M8.593 11.84v0zM10.56 11.84v0z"></path>
<path d="M10.887 11.713v0z"></path>
<path d="M8.133 11.907v0zM10.887 11.907v0z"></path>
<path d="M8.527 12.107v0zM10.493 12.107v0z"></path>
<path d="M8.333 12.3l0.193 0.2-0.2-0.2z"></path>
<path d="M8.787 12.433v0zM10.36 12.433v0z"></path>
<path d="M10.693 12.3v0z"></path>
<path d="M8.333 12.5l0.193 0.2-0.2-0.2zM10.693 12.5v0z"></path>
<path d="M8.333 12.693l0.193 0.2-0.2-0.2z"></path>
<path d="M8.72 12.693v0zM10.3 12.693v0z"></path>
<path d="M10.693 12.693v0z"></path>
<path d="M8.527 12.893v0zM10.493 12.893v0z"></path>
<path d="M8.527 13.087v0zM10.493 13.087v0z"></path>
<path d="M8.527 13.287v0zM10.493 13.287v0z"></path>
<path d="M8.92 13.48v0zM10.1 13.48v0z"></path>
<path d="M8.72 13.68v0z"></path>
<path d="M9.18 13.813v0zM9.967 13.813v0z"></path>
<path d="M10.3 13.68v0z"></path>
<path d="M8.72 13.88l0.2 0.193-0.2-0.2zM10.3 13.873v0z"></path>
<path d="M9.113 14.073v0zM9.907 14.073l0.193 0.2-0.2-0.2z"></path>
<path d="M8.92 14.267v0zM10.1 14.267v0z"></path>
<path d="M8.92 14.467v0zM10.1 14.467v0z"></path>
<path d="M9.313 14.667v0zM9.707 14.667v0z"></path>
<path d="M9.113 14.86v0zM9.907 14.86l0.193 0.2-0.2-0.2z"></path>
<path d="M9.113 15.060v0z"></path>
<path d="M9.513 15.060l0.193 0.2-0.2-0.2z"></path>
<path d="M9.907 15.060l0.193 0.2-0.2-0.2z"></path>
<path d="M9.313 15.453v0zM9.707 15.453v0z"></path>
<path d="M9.313 15.647v0zM9.707 15.647v0zM9.507 16.047l0.2 0.193-0.2-0.2z"></path>
</svg>
