<!-- Generated by IcoMoon.io -->
<svg version="1.1" xmlns="http://www.w3.org/2000/svg" width="43" height="32" viewBox="0 0 43 32">
<title>ba</title>
<path d="M32.827 30.094l-1.744-1.269-1.788 1.262 0.675-2.075-1.762-1.281h2.188l0.675-2.075 0.669 2.081h2.188l-1.75 1.294 0.65 2.063zM37.908 30.744l-2.188-0.006-0.669-2.081-0.675 2.075h-2.188l1.763 1.281-0.675 2.075 1.788-1.263 1.75 1.269-0.656-2.063 1.75-1.288zM28.183 24.044l1.75-1.294-2.188-0.006-0.669-2.075-0.675 2.075-2.188-0.006 1.762 1.281-0.675 2.081 1.788-1.269 1.75 1.275-0.656-2.063zM24.165 20.012l1.75-1.288-2.188-0.006-0.669-2.081-0.681 2.075h-2.181l1.762 1.281-0.675 2.075 1.788-1.262 1.744 1.269-0.65-2.063zM20.183 16.038l1.75-1.294h-2.188l-0.663-2.088-0.675 2.075h-2.188l1.762 1.275-0.675 2.081 1.788-1.269 1.75 1.275-0.656-2.063zM16.158 12.019l1.75-1.287-2.188-0.006-0.669-2.081-0.681 2.075h-2.181l1.769 1.281-0.675 2.075 1.787-1.262 1.744 1.269-0.65-2.063zM12.183 8.025l1.744-1.294h-2.188l-0.662-2.087-0.681 2.081h-2.188l1.775 1.275-0.681 2.075 1.787-1.262 1.738 1.275-0.644-2.063zM8.183 4.025l1.744-1.294h-2.188l-0.662-2.087-0.681 2.081h-2.188l1.775 1.275-0.688 2.081 1.794-1.269 1.737 1.275-0.644-2.063zM4.183 0.025l1.737-1.294h-2.188l-0.669-2.081-0.669 2.075h-2.188l1.769 1.275-0.675 2.075 1.788-1.262 1.738 1.275-0.644-2.063z"></path>
</svg>
