<!-- Generated by IcoMoon.io -->
<svg version="1.1" xmlns="http://www.w3.org/2000/svg" width="43" height="32" viewBox="0 0 43 32">
<title>bi</title>
<path d="M21.34 16c-24.602 18.45-12.301 9.225 0 0zM21.34 16c-24.602 18.45-12.301 9.225 0 0z"></path>
<path d="M21.807 0.007c-0.139-0.004-0.303-0.007-0.467-0.007-8.836 0-15.999 7.163-15.999 15.999 0 0 0 0 0 0v0c0.002 8.837 7.167 16.001 16.005 16.001s16.002-7.163 16.005-16v-0h-0.011c0 0 0-0 0-0 0-8.672-6.899-15.733-15.508-15.992l-0.024-0.001zM21.351 4.498l1.070 1.784 2.076 0.043-1.005 1.816 1.005 1.827-2.086 0.032-1.081 1.773-1.070-1.773-2.076-0.043 1.005-1.827-0.995-1.816 2.076-0.043 1.081-1.773zM14.378 16.562l1.070 1.784 2.076 0.043-1.005 1.816 0.995 1.827-2.076 0.032-1.081 1.773-1.070-1.773-2.076-0.043 1.005-1.827-0.995-1.816 2.076-0.043 1.081-1.773zM28.486 16.562l1.081 1.784 2.076 0.043-1.016 1.816 1.005 1.827-2.076 0.032-1.081 1.773-1.081-1.773-2.065-0.043 1.005-1.827-1.005-1.816 2.076-0.043 1.081-1.773z"></path>
</svg>
