<!-- Generated by IcoMoon.io -->
<svg version="1.1" xmlns="http://www.w3.org/2000/svg" width="32" height="32" viewBox="0 0 32 32">
<title>bn</title>
<path d="M15.887 2.051c-0.127 0.093-0.127 0.1-0.013 0.22 0.1 0.113 0.113 0.306 0.113 1.705v1.578h0.399v-1.531l0.672 0.34c0.373 0.18 0.686 0.326 0.692 0.313 0.013-0.013-0.14-0.24-0.34-0.499-0.2-0.266-0.36-0.493-0.36-0.513 0-0.013 0.246-0.113 0.546-0.213l0.546-0.18-0.899-0.453c-0.652-0.326-0.859-0.459-0.772-0.493 0.16-0.067 0.14-0.28-0.033-0.326-0.246-0.060-0.419-0.047-0.553 0.053z"></path>
<path d="M14.768 5.32c-0.353 0.12-0.373 0.153-0.166 0.333 0.26 0.226 0.826 0.32 1.718 0.286 0.653-0.020 0.826-0.053 1.152-0.206 0.233-0.107 0.38-0.213 0.366-0.26-0.040-0.12-0.493-0.24-0.932-0.246l-0.38-0.007-0.020 0.213c-0.020 0.213-0.033 0.22-0.333 0.24l-0.32 0.020v-0.473h-0.413c-0.233 0.007-0.533 0.047-0.672 0.1z"></path>
<path d="M17.651 5.766c-0.846 0.413-2.43 0.419-3.050 0.013-0.087-0.060-0.173-0.093-0.186-0.073-0.013 0.013-0.060 0.2-0.1 0.419-0.073 0.439-0.293 1.159-0.446 1.458l-0.093 0.2 0.22-0.2c0.127-0.113 0.3-0.26 0.38-0.333l0.16-0.133 0.246 0.293 0.253 0.293 0.253-0.273c0.133-0.153 0.286-0.28 0.326-0.28 0.047 0 0.18 0.107 0.306 0.233l0.226 0.233 0.553-0.539 0.559 0.626 0.519-0.506 0.32 0.233c0.173 0.126 0.353 0.246 0.399 0.273s-0.040-0.2-0.18-0.506c-0.153-0.326-0.3-0.772-0.346-1.052l-0.087-0.493-0.233 0.113z"></path>
<path d="M15.854 8.356v0.739l-0.273-0.246c-0.426-0.386-0.799-0.519-1.518-0.553-1.012-0.047-1.565 0.127-2.53 0.779-1.258 0.852-1.844 1.045-3.023 0.985l-0.786-0.040 0.153 0.266c0.213 0.386 0.659 0.772 0.946 0.832 0.513 0.093 0.972-0.007 1.771-0.373 0.473-0.22 0.886-0.366 1.092-0.386 0.399-0.040 0.373 0.080-0.033 0.147-0.153 0.027-0.626 0.206-1.052 0.399s-0.899 0.386-1.052 0.433c-0.326 0.087-0.34 0.12-0.153 0.36 0.333 0.426 0.952 0.393 1.678-0.080 0.626-0.413 0.806-0.499 1.278-0.639 0.519-0.153 0.639-0.033 0.127 0.127-0.506 0.16-0.959 0.393-1.465 0.752-0.453 0.326-0.473 0.399-0.12 0.619 0.433 0.266 0.965 0.146 1.558-0.36 0.539-0.453 1.099-0.792 1.252-0.759 0.093 0.020 0.053 0.060-0.146 0.166-0.313 0.166-0.886 0.586-1.245 0.919-0.22 0.206-0.246 0.26-0.18 0.373 0.12 0.233 0.499 0.346 0.846 0.26 0.493-0.12 0.752-0.293 1.432-0.939 0.666-0.626 0.872-0.746 0.513-0.293-0.346 0.44-0.226 0.826 0.233 0.739 0.266-0.053 0.28-0.013 0.127 0.32-0.153 0.313-0.080 0.646 0.186 0.872l0.206 0.18 0.16-0.206c0.2-0.253 0.366-0.26 0.546-0.033 0.167 0.213 0.36 0.166 0.546-0.127 0.16-0.273 0.16-0.493-0.007-0.766-0.18-0.286-0.173-0.3 0.107-0.246 0.18 0.033 0.273 0.013 0.366-0.073 0.18-0.16 0.16-0.366-0.073-0.659-0.373-0.466-0.2-0.386 0.419 0.206 0.712 0.679 1.165 0.952 1.665 1.005 0.313 0.033 0.373 0.013 0.566-0.146 0.12-0.1 0.213-0.213 0.206-0.253 0-0.133-1.365-1.152-1.678-1.265-0.047-0.013-0.053-0.053-0.027-0.087 0.080-0.087 0.679 0.253 1.245 0.706 0.573 0.459 0.826 0.559 1.245 0.513 0.286-0.033 0.619-0.253 0.619-0.406 0-0.080-0.866-0.679-1.245-0.866-0.12-0.060-0.36-0.146-0.539-0.193-0.346-0.087-0.433-0.226-0.12-0.193 0.26 0.020 1.252 0.493 1.565 0.739 0.466 0.366 1.159 0.4 1.511 0.067 0.246-0.226 0.206-0.353-0.14-0.446-0.16-0.040-0.599-0.213-0.965-0.38s-0.812-0.34-0.985-0.38c-0.459-0.113-0.513-0.213-0.093-0.166 0.226 0.027 0.633 0.173 1.099 0.386 1.178 0.546 1.778 0.526 2.35-0.087 0.226-0.233 0.459-0.646 0.406-0.699-0.020-0.020-0.213 0.007-0.426 0.047-0.573 0.12-1.385 0.040-2.004-0.2-0.286-0.107-0.832-0.406-1.218-0.659-0.832-0.553-1.178-0.699-1.891-0.806-0.879-0.133-1.651 0.040-2.104 0.459l-0.26 0.253v-0.693c0-0.373-0.020-0.686-0.047-0.686-0.033 0-0.113 0.047-0.18 0.1-0.113 0.087-0.146 0.087-0.286 0l-0.153-0.1v0.739z"></path>
<path d="M23.364 12.258c0.399 0.786 0.679 2.137 0.679 3.303 0 2.484-0.779 4.375-2.47 6.012-1.019 0.985-2.057 1.558-3.635 1.998-1.538 0.433-2.876 0.373-4.481-0.186-3.149-1.099-5.36-4.135-5.506-7.551-0.053-1.159 0.206-2.543 0.626-3.389l0.1-0.2-0.213 0.2c-0.113 0.107-0.346 0.406-0.513 0.652-1.218 1.831-1.491 4.807-0.679 7.464 0.879 2.87 3.063 5.1 5.899 6.026 1.059 0.34 1.744 0.426 3.103 0.386 1.292-0.040 1.957-0.146 2.943-0.473 2.244-0.752 4.195-2.55 5.26-4.854 1.225-2.65 1.178-5.953-0.113-8.223-0.386-0.666-0.819-1.252-0.999-1.352-0.127-0.067-0.127-0.060 0 0.186zM0.093 12.311c-0.093 0.253 0.173 2.051 0.426 2.863 0.22 0.686 0.293 0.792 1.185 1.665 0.586 0.573 0.766 0.792 0.826 0.999 0.047 0.166 0.073 0.979 0.073 2.144v1.871l0.459 0.18c0.4 0.16 0.533 0.18 0.959 0.153 0.286-0.020 0.599-0.087 0.752-0.16l0.26-0.127 0.020-0.965c0.013-0.533 0-1.791-0.020-2.796l-0.047-1.831-0.466-0.433c-0.732-0.679-1.192-1.139-1.525-1.518-0.226-0.26-0.346-0.346-0.486-0.346-0.3 0-0.293 0.18 0.053 0.819 0.3 0.553 0.506 1.152 0.506 1.445 0 0.186-0.047 0.166-0.326-0.113-0.133-0.133-0.466-0.366-0.739-0.519-0.426-0.24-0.513-0.32-0.586-0.539-0.053-0.146-0.14-0.386-0.193-0.546-0.053-0.153-0.2-0.433-0.326-0.613-0.186-0.273-0.226-0.386-0.226-0.693 0-0.419-0.080-0.672-0.28-0.892-0.166-0.173-0.24-0.186-0.3-0.047zM31.72 12.358c-0.206 0.22-0.286 0.473-0.286 0.892 0 0.306-0.040 0.42-0.226 0.693-0.127 0.18-0.273 0.459-0.326 0.613-0.053 0.16-0.14 0.399-0.193 0.546-0.073 0.22-0.16 0.3-0.586 0.539-0.273 0.153-0.606 0.386-0.739 0.519-0.28 0.28-0.326 0.3-0.326 0.113 0-0.293 0.206-0.892 0.506-1.445 0.346-0.639 0.353-0.819 0.053-0.819-0.14 0-0.26 0.087-0.486 0.346-0.166 0.193-0.513 0.546-0.759 0.786-0.253 0.24-0.633 0.599-0.846 0.799l-0.386 0.366-0.047 1.698c-0.020 0.932-0.033 2.191-0.020 2.796l0.020 1.099 0.26 0.127c0.153 0.073 0.466 0.14 0.752 0.16 0.426 0.027 0.559 0.007 0.959-0.153l0.459-0.18v-1.871c0-1.152 0.027-1.978 0.073-2.144 0.060-0.206 0.24-0.426 0.826-0.999 0.413-0.406 0.812-0.826 0.886-0.939 0.3-0.44 0.672-2.097 0.699-3.096 0.013-0.593-0.040-0.686-0.266-0.446z"></path>
<path d="M0.746 12.338c-0.067 0.040-0.080 0.12-0.047 0.246 0.027 0.107 0.073 0.386 0.1 0.626 0.040 0.34 0.1 0.513 0.286 0.786 0.133 0.2 0.293 0.553 0.36 0.792 0.107 0.399 0.147 0.453 0.413 0.613 0.166 0.093 0.473 0.286 0.679 0.419l0.386 0.24-0.060-0.2c-0.073-0.26-0.293-0.499-0.606-0.659-0.147-0.073-0.253-0.18-0.253-0.246 0-0.16-0.373-0.879-0.559-1.079-0.12-0.127-0.166-0.28-0.2-0.633-0.047-0.453-0.206-0.906-0.34-0.946-0.033-0.007-0.107 0.007-0.16 0.040zM31.075 12.424c-0.127 0.193-0.233 0.672-0.24 1.025 0 0.2-0.040 0.313-0.16 0.419-0.173 0.166-0.573 0.926-0.573 1.099 0 0.053-0.113 0.16-0.246 0.233-0.32 0.16-0.539 0.399-0.613 0.659l-0.060 0.2 0.386-0.24c0.206-0.133 0.513-0.326 0.679-0.419 0.273-0.16 0.306-0.213 0.413-0.626 0.073-0.24 0.24-0.619 0.38-0.832 0.213-0.313 0.26-0.439 0.26-0.706 0-0.173 0.033-0.413 0.080-0.533 0.060-0.173 0.060-0.24-0.007-0.32-0.12-0.146-0.186-0.133-0.3 0.040z"></path>
<path d="M1.312 12.538c-0.027 0.033-0.013 0.193 0.027 0.353 0.033 0.16 0.067 0.386 0.067 0.513 0 0.14 0.067 0.293 0.18 0.433 0.173 0.2 0.553 0.939 0.553 1.072 0 0.033 0.127 0.14 0.28 0.226l0.28 0.16-0.153-0.226c-0.080-0.126-0.266-0.473-0.406-0.772-0.206-0.426-0.266-0.633-0.266-0.899 0-0.24-0.047-0.439-0.153-0.619-0.147-0.26-0.326-0.366-0.406-0.24zM30.522 12.558c-0.18 0.22-0.286 0.539-0.286 0.846 0 0.253-0.067 0.466-0.286 0.919-0.153 0.32-0.34 0.672-0.413 0.779l-0.127 0.193 0.28-0.16c0.153-0.087 0.28-0.193 0.28-0.226 0-0.127 0.38-0.866 0.546-1.065 0.153-0.186 0.213-0.44 0.273-1.165 0.013-0.18-0.153-0.26-0.266-0.12zM15.993 13.763c-0.040 0.053-0.093 0.186-0.113 0.3-0.053 0.253-0.153 0.266-0.353 0.053-0.146-0.16-0.499-0.273-0.613-0.2-0.033 0.020 0.027 0.14 0.133 0.266 0.513 0.579 0.559 0.952 0.233 1.924-0.206 0.619-0.233 0.792-0.206 1.139 0.033 0.413 0.166 0.712 0.366 0.792 0.073 0.027 0.18-0.040 0.333-0.226 0.127-0.153 0.266-0.273 0.32-0.273s0.193 0.133 0.306 0.3c0.12 0.166 0.233 0.3 0.253 0.3s0.127-0.093 0.24-0.206c0.18-0.186 0.193-0.246 0.22-0.766 0.020-0.486-0.007-0.646-0.193-1.205-0.253-0.779-0.233-1.052 0.107-1.558 0.127-0.186 0.226-0.366 0.226-0.399 0-0.14-0.433-0.053-0.606 0.113-0.226 0.213-0.393 0.173-0.393-0.093 0-0.246-0.146-0.393-0.26-0.26z"></path>
<path d="M15.894 17.951c-0.053 0.087-0.113 0.22-0.14 0.3-0.053 0.193-0.087 0.193-0.366-0.013-0.22-0.16-0.533-0.226-0.533-0.113 0 0.033 0.060 0.113 0.127 0.173 0.173 0.16 0.266 0.626 0.2 1.019-0.027 0.173-0.146 0.573-0.266 0.886-0.18 0.473-0.213 0.666-0.22 1.172-0.007 0.559 0.007 0.626 0.193 0.932 0.206 0.326 0.433 0.466 0.433 0.26 0-0.22 0.652-1.232 0.792-1.232 0.1 0 0.553 0.719 0.672 1.059l0.113 0.333 0.2-0.213c0.113-0.12 0.233-0.273 0.273-0.346 0.22-0.439 0.14-1.198-0.22-2.071-0.12-0.293-0.24-0.639-0.266-0.772-0.060-0.32 0.067-0.746 0.306-1.019l0.206-0.233h-0.166c-0.087 0-0.293 0.1-0.453 0.226-0.32 0.253-0.393 0.253-0.393-0.013 0-0.213-0.166-0.479-0.3-0.479-0.053 0-0.14 0.067-0.193 0.146z"></path>
<path d="M15.9 21.813c-0.366 0.493-0.399 0.573-0.353 0.886 0.067 0.413-0.107 0.393-0.652-0.080-0.147-0.12-0.313-0.22-0.373-0.22-0.067 0-0.253-0.073-0.426-0.166-0.366-0.193-0.38-0.133-0.113 0.34 0.24 0.419 0.586 0.726 1.072 0.952 0.32 0.153 0.446 0.173 1.065 0.173 0.633-0.007 0.732-0.020 1.052-0.186 0.193-0.1 0.466-0.3 0.606-0.439 0.26-0.26 0.646-0.852 0.593-0.906s-0.892 0.313-1.119 0.493c-0.127 0.107-0.333 0.24-0.459 0.3l-0.226 0.12 0.047-0.306c0.040-0.26 0.020-0.36-0.133-0.639-0.1-0.18-0.233-0.38-0.293-0.433-0.113-0.1-0.133-0.093-0.286 0.113zM2.45 22.046c-0.193 0.186 0.173 0.559 0.699 0.719 0.659 0.193 1.558 0.067 1.891-0.266 0.353-0.353 0.127-0.519-0.393-0.293-0.513 0.226-1.165 0.213-1.625-0.027-0.353-0.18-0.493-0.213-0.573-0.133zM29.070 22.186c-0.439 0.233-1.099 0.246-1.611 0.020-0.366-0.16-0.553-0.153-0.553 0.027 0 0.306 0.706 0.633 1.365 0.633 0.699 0 1.465-0.373 1.418-0.692-0.027-0.2-0.233-0.2-0.619 0.013z"></path>
<path d="M2.237 22.692c-0.166 0.12-0.1 0.313 0.16 0.486 0.353 0.24 0.719 0.32 1.438 0.32 0.786-0.007 1.385-0.193 1.511-0.473 0.133-0.293-0.013-0.34-0.526-0.173-0.892 0.28-1.491 0.253-2.224-0.12-0.2-0.107-0.26-0.113-0.36-0.040zM29.57 22.705c-0.093 0.047-0.373 0.153-0.619 0.233-0.533 0.166-0.939 0.146-1.665-0.087-0.326-0.107-0.466-0.127-0.519-0.073-0.147 0.146 0.013 0.366 0.393 0.539 0.333 0.153 0.466 0.18 1.079 0.18 0.386 0 0.819-0.040 0.972-0.080 0.586-0.18 0.939-0.586 0.646-0.739-0.087-0.047-0.173-0.040-0.286 0.027z"></path>
<path d="M1.951 23.437c-0.093 0.186-0.033 0.28 0.273 0.439 0.453 0.226 0.906 0.32 1.618 0.32 0.979 0 1.824-0.28 1.824-0.606 0-0.2-0.16-0.22-0.612-0.060-0.266 0.093-0.653 0.16-1.052 0.18-0.566 0.033-0.686 0.020-1.132-0.146-0.719-0.253-0.839-0.273-0.919-0.127zM29.403 23.517c-0.353 0.16-0.486 0.18-1.132 0.18-0.599 0-0.819-0.027-1.185-0.153-0.479-0.166-0.646-0.16-0.646 0.040 0 0.34 0.819 0.613 1.824 0.613 0.719 0 1.165-0.093 1.625-0.326 0.246-0.127 0.286-0.173 0.266-0.326-0.027-0.246-0.246-0.253-0.752-0.027zM7.81 24.11c-0.36 0.173-0.513 0.453-0.513 0.926 0 0.326 0.033 0.453 0.186 0.679 0.246 0.373 0.226 0.426-0.093 0.313-0.573-0.206-1.265-0.093-1.565 0.24-0.213 0.233-0.246 0.419-0.127 0.692 0.053 0.14 0.1 0.286 0.1 0.326s-0.153 0.14-0.333 0.226c-0.186 0.087-0.38 0.226-0.439 0.313-0.113 0.18-0.206 0.699-0.127 0.699 0.033 0 0.24-0.073 0.466-0.167 1.045-0.413 1.964-0.22 3.143 0.679 0.812 0.613 1.498 0.779 1.957 0.466 0.186-0.12 0.24-0.213 0.286-0.479 0.033-0.186 0.073-0.346 0.080-0.36 0.013-0.013 0.14 0.053 0.28 0.146 0.732 0.479 1.731 0.866 2.85 1.092 0.799 0.16 2.777 0.16 3.722-0.007 1.465-0.246 2.464-0.586 3.262-1.112 0.28-0.18 0.519-0.326 0.546-0.326 0.020 0 0.020 0.12-0.007 0.266-0.080 0.526 0.233 0.812 0.886 0.812 0.379-0.007 0.639-0.127 1.072-0.479 0.772-0.633 1.352-0.866 2.177-0.866 0.433 0 0.679 0.040 1.065 0.173 0.273 0.093 0.513 0.153 0.533 0.133s0.013-0.166-0.007-0.333c-0.060-0.38-0.286-0.626-0.639-0.679-0.146-0.027-0.286-0.073-0.306-0.1-0.020-0.033 0.027-0.16 0.1-0.286 0.166-0.266 0.18-0.619 0.033-0.826-0.253-0.366-0.965-0.513-1.565-0.333-0.146 0.040-0.28 0.053-0.3 0.033-0.027-0.020 0.020-0.14 0.1-0.266 0.413-0.666-0.067-1.578-0.826-1.578-0.32 0-0.586 0.16-1.325 0.806-1.318 1.145-2.97 1.978-4.654 2.33-0.919 0.2-2.677 0.22-3.502 0.040-1.811-0.393-3.229-1.119-4.654-2.39-1.059-0.939-1.345-1.065-1.864-0.806z"></path>
</svg>
