<!-- Generated by IcoMoon.io -->
<svg version="1.1" xmlns="http://www.w3.org/2000/svg" width="43" height="32" viewBox="0 0 43 32">
<title>bt</title>
<path d="M39.847 0.962c-0.050 0.35-0.558 0.692-0.8 0.867-0.725 0.525-0.1 0.983-0.875 1.666-0.853 0.763-0.249 1.060-0.705 1.717-0.185-0.015-0.383 0.052-0.559 0.131-0.001-0.002-0.001-0.005-0.002-0.007l-0.003 0.003c-0.11-0.211-0.384-0.201-0.788 0.006-0.3-0.266-0.749-0.458-1.14-0.392 0 0 0.001 0.001 0.001 0.001-0.006 0.001-0.006 0.001-0.007 0.001l0.005-0.001c0.002 0.002 0.005 0.004 0.008 0.007l-0.027 0.008-0.055 0.043 1.207 0.341c-0.052 0.024-0.085 0.041-0.117 0.058l0.017-0.008c-1.333 0.758-1.825-0.4-2.624-0.425-0.732-0.030-1.032-0.492-1.486-0.771 0.033 0.058 0.065 0.12 0.095 0.187-0.525 0.132-0.978-0.056-1.393-0.291-0.215 0.060-0.413 0.088-0.597 0.097 0.019 0.023 0.039 0.046 0.057 0.069-0.368 0.074-0.535 0.021-0.649-0.090-0.291-0.031-0.556-0.078-0.82-0.066 0.004 0.013 0.007 0.027 0.011 0.040-0.206 0.034-0.39 0.094-0.561 0.178l0.012-0.005c0.065 0.067 0.131 0.139 0.199 0.219v0.008l-0.392 0.167c-0.054-0.064-0.121-0.148-0.201-0.239-0.018 0.014-0.035 0.029-0.053 0.044 0.042 0.020 0.091 0.043 0.13 0.061v0.008l-0.125 0.264c0.086 0.031 0.16 0.072 0.227 0.121l-0.003-0.002-0.242-0.082-0.074 0.157c-0.095-0.088-0.192-0.169-0.289-0.245-0.178 0.018-0.326 0.098-0.415 0.199 0.060 0.042 0.121 0.084 0.18 0.122 0.866 0.509 0.894 0.775 0.641 0.884l-0.040-0.084c0.008 0.029 0.017 0.059 0.029 0.089-0.018 0.007-0.037 0.013-0.056 0.019-0.029-0.023-0.057-0.047-0.083-0.075 0.005 0.032 0.011 0.062 0.018 0.090-0.286 0.056-0.726 0.002-0.943-0.107-0.069-0.036-0.137-0.069-0.206-0.103-0.076 0.021-0.149 0.044-0.219 0.069 0.145 0.077 0.269 0.191 0.361 0.362-0.090-0.109-0.396-0.119-0.766-0.119 0.050 0.016 0.1 0.032 0.146 0.050-0.015 0.141-0.128 0.258-0.311 0.351 0.045 0.017 0.090 0.035 0.136 0.057 0.28 0.113 0.603 0.203 0.9 0.355-0.349-0.053-0.717-0.093-1.081-0.114 0.095 0.098 0.242 0.194 0.444 0.285 0.035-0.019 0.072-0.035 0.11-0.047 0.048 0.036 0.103 0.064 0.162 0.089-0.085-0.013-0.171-0.025-0.261-0.037 0.077 0.034 0.162 0.068 0.256 0.101l-0.016 0.104c-0.081 0.050-0.146 0.12-0.188 0.203l-0.001 0.003c-0.136 0.213-0.269 0.395-0.412 0.569l0.008-0.010c-0.176-0.352 0.012-0.794 0.337-0.972-0.369-0.047-0.766-0.079-1.143-0.095 0.020 0.179 0.007 0.377-0.053 0.544l0.78 0.189c-0.403 0.137-0.719 0.009-0.785-0.173-0.040 0.107-0.1 0.2-0.182 0.265-0.024 0.019-0.049 0.036-0.075 0.051 0.196 0.885-0.742 1.047-1.045 0.73l0.014 0.427c-0.065 0.005-0.13 0.011-0.196 0.021 0.003 0.135 0.015 0.272 0.037 0.412 0.022 0 0.044 0.002 0.066 0.007-0.043-0.044-0.070-0.099-0.076-0.164l0.174-0.121 0.009 0.271c-0.020 0.010-0.041 0.018-0.060 0.025 0.001 0 0.001 0 0.002 0.001l0.016 0.040c-0.016-0.010-0.031-0.021-0.045-0.033-0.027 0.008-0.053 0.013-0.079 0.015 0.018 0.101 0.040 0.203 0.069 0.307l0.017 0.003c0.050-0.001 0.102-0.002 0.154-0.002l0.014 0.034 1.095 0.211c-0.266 0.179-0.516 0.219-0.727 0.183l0.993 0.192c-0.358 0.322-0.688 0.418-0.92 0.383l0.234 0.31c-0.028-0.095-0.052-0.196-0.072-0.302l1.416 0.367c-0.187 0.171-0.348 0.29-0.489 0.366l1.439-0.033c-0.523 0.756-1.080 0.485-1.446 0.037-0.185 0.098-0.333 0.122-0.452 0.090l0.049 0.065c-0.016 0.025-0.032 0.048-0.050 0.069 0.003-0.001 0.005-0.002 0.008-0.003h0.008l0 0.001 0.2-0.109c-0.023 0.075-0.106 0.109-0.182 0.129l0.672 0.769 0.31-0.198c-0.064 0.089-0.161 0.197-0.278 0.236l0.194 0.222c0.002 0.034-0.003 0.065-0.015 0.094 0.005 0.002 0.010 0.004 0.015 0.006l0.111 0.258 0.439-0.241c-0.071 0.148-0.272 0.265-0.424 0.278l0.102 0.238c0.010-0.008 0.020-0.016 0.030-0.024 0.224 0.16 0.335 0.423 0.373 0.712l0.627-0.146c-0.022 0.072-0.087 0.135-0.172 0.182l1.402-0.114 0.022 0.181c-0.397 0.655-1.141 0.622-1.433-0.062-0.127 0.069-0.294 0.104-0.433 0.091 0.014 0.254-0.021 0.518-0.083 0.742l0.83 0.045c-0.218 0.078-0.444 0.101-0.63 0.068l1.005 0.665c-0.632 0.117-0.991-0.291-1.008-0.665-0.078-0.014-0.149-0.037-0.21-0.070-0.029 0.097-0.062 0.186-0.098 0.261-0.036-0.003-0.072-0.012-0.108-0.023 0.006 0.028 0.009 0.058 0.008 0.089-0.034 0.057-0.081 0.104-0.134 0.145l0.676 0.397c-0.356 0.083-0.67-0.027-0.749-0.348-0.146 0.084-0.329 0.127-0.504 0.146l0.72 0.736c-0.753 0.505-1.101-0.322-0.855-0.727-0.144 0.006-0.274-0.001-0.353-0.015 0.022-0.025 0.038-0.057 0.049-0.091-0.013-0.002-0.025-0.003-0.038-0.005-0.017-0.135-0.206-0.247-0.335-0.287-0.146-0.051-0.343-0.013-0.39 0.109-0.001-0-0.002-0.001-0.003-0.001-0.005-0.248-0.145-0.543-0.624-0.667-0.42-0.103-0.703 0.027-0.77 0.136-0.004-0.002-0.008-0.003-0.012-0.005 0.129-0.158 0.051-0.47-0.335-0.639-0.252-0.111-0.464-0.032-0.583 0.089-0.009 0.065-0.034 0.129-0.079 0.185-0.007-0.002-0.014-0.005-0.020-0.007-0.002 0.012-0.003 0.023-0.003 0.034-0.016 0.017-0.034 0.033-0.055 0.048l-0.298-0.107 0.735 0.842c-0.108-0.192-0.124-0.434-0.002-0.615l0.1 0.034 0.583 0.838c0.040-0.195 0.151-0.388 0.334-0.492l0.096 0.036 0.46 0.99c-0.197 0.135-0.489 0.157-0.686 0.048l-0.272 0.702c-0.003-0.025-0.004-0.053-0.004-0.082 0-0.246 0.105-0.467 0.273-0.621l0.001-0.001c-0.068-0.038-0.125-0.092-0.162-0.163-0.053-0.103-0.068-0.238-0.048-0.375-0.297 0.074-0.538-0.071-0.665-0.282-0.779 0.202-1.131-0.461-0.895-0.913l-0.5-0.18c-0.025-0.019-0.043-0.044-0.057-0.072-0.002-0.001-0.005-0.001-0.007-0.002 0.001-0.002 0.002-0.003 0.003-0.005-0.056-0.118-0.032-0.303-0.007-0.484-0.070-0.088-0.181-0.158-0.324-0.196-0.199-0.053-0.364 0.016-0.471 0.137-0.054-0.145-0.199-0.258-0.404-0.304-0.214-0.047-0.384 0.042-0.482 0.182-0.066-0.156-0.235-0.259-0.468-0.274-0.188-0.016-0.33 0.068-0.414 0.192 0.037 0.126 0.039 0.255-0.005 0.371-0.025 0-0.049 0.001-0.074 0.001 0.002 0.009 0.003 0.017 0.005 0.026l0.057 0.001c-0.004 0.009-0.006 0.018-0.011 0.026h0.008l-0.045 0.007c0.001 0.003 0.002 0.007 0.003 0.010l0.826 0.022c0.034 0.1 0.033 0.208 0.002 0.309 0.066-0.108 0.159-0.205 0.273-0.275l0.122 0.020 0.41 0.897c-0.217 0.15-0.625 0.242-0.833-0.050-0.088-0.125-0.095-0.285-0.044-0.439-0.103 0.152-0.286 0.264-0.531 0.264-0.529-0.015-0.711-0.436-0.564-0.71l-0.402 0.060c-0.028-0.017-0.053-0.034-0.075-0.052 0 0.001 0 0.001 0 0.002l-0.386 0.157 0.398 0.759c0.042-0.221 0.193-0.423 0.455-0.524l0.082 1.345c0.038-0.193 0.157-0.365 0.376-0.462l-0.274 1.028c0.088-0.11 0.238-0.165 0.39-0.195l-0.361 0.599c0.134-0.030 0.282-0.047 0.424-0.055-0.058-0.165-0.032-0.295 0.047-0.386-0.202-0.226-0.257-0.586-0.076-0.841-0.23-0.15-0.242-0.446-0.116-0.725l0.665 0.815c-0.030-0.146-0.001-0.317 0.126-0.507l0.292 0.942c0.097-0.112 0.245-0.179 0.456-0.15-0.027-0.162 0.013-0.342 0.159-0.516l0.225 1.025c-0.19-0.105-0.347-0.29-0.384-0.506l-0.458 0.877c0.177 0.014 0.323 0.043 0.442 0.082 0.070-0.006 0.138-0.008 0.204-0.007 0.009-0.385 0.316-0.557 0.612-0.471 0.055-0.106 0.143-0.187 0.241-0.249-0.211-0.091-0.355-0.297-0.355-0.537 0-0.158 0.063-0.301 0.164-0.406l-0 0 0.205 0.935c0.152-0.092 0.324-0.14 0.428-0.16l-0.683 0.417c0.175 0.051 0.347 0.192 0.45 0.433l-0.633 0.085c0.171 0.038 0.323 0.095 0.453 0.165 0.066-0.27 0.385-0.386 0.663-0.259 0.044-0.238 0.243-0.437 0.601-0.441l-0.155 0.987c0.098 0.007 0.191 0.019 0.279 0.034-0.016 0.070-0.020 0.146-0.007 0.228 0 0 0.001 0 0.001 0l0.508-0.084c0.17 0.074 0.305 0.164 0.405 0.262 0.022 0.001 0.043 0.001 0.065 0.003 0.033-0.309 0.266-0.531 0.741-0.547 0 0.001 0 0.002 0.001 0.002l-0.662 0.552c0.425 0.038 0.77 0.158 1.021 0.309-0.141-0.456 0.107-0.645 0.578-0.613l-0.461 0.528c0.093-0.028 0.356-0.078 0.713 0.105 0.004-0.104 0.034-0.192 0.084-0.27-0.303-0.151-0.443-0.466-0.328-0.961-0.074-0.013-0.144-0.049-0.199-0.111-0.106-0.12-0.172-0.279-0.172-0.453 0-0.205 0.090-0.389 0.234-0.514l0.001-0.001 0.115 0.034 0.489 0.775c-0.077 0.195-0.283 0.301-0.466 0.27l0.329 0.955c0.080-0.121 0.21-0.216 0.37-0.3l-0.368 0.624c0.010 0.006 0.019 0.011 0.029 0.017 0.25 0.017 0.457 0.045 0.626 0.082-0.070-0.17-0.035-0.342 0.069-0.495-0.523-0.201-0.612-0.598-0.323-1.012l0.329 1.004c0.125-0.178 0.339-0.328 0.579-0.412l0.009 0.006c-0.030-0.15-0.003-0.35 0.090-0.612-0.443 0.048-0.721-0.238-0.474-0.71l0.733 0.65c-0.090 0.032-0.176 0.051-0.257 0.060l0.566 0.99c-0.020-0-0.039-0.002-0.059-0.003l0.017 0.011c-0.049 0.198-0.123 0.351-0.213 0.468l1.046 0.249c-0.481 0.199-0.921 0.084-1.048-0.246-0.083 0.108-0.18 0.183-0.279 0.234-0.002-0.001-0.004-0.003-0.006-0.004l-0.012 0.014c-0.062 0.030-0.125 0.050-0.187 0.062 0.028 0.027 0.050 0.055 0.067 0.083l-0.46 0.558c0.021 0.016 0.041 0.029 0.062 0.040-0.030-0.001-0.060-0.002-0.089-0.004-0.136 0.27-0.205 0.55-0.020 0.757l-0.004 0.006c0.002 0.002 0.004 0.004 0.006 0.007-0.001 0.002-0.001 0.004-0.002 0.006 0.007 0.005 0.015 0.010 0.022 0.015 0.010 0.009 0.021 0.018 0.032 0.025 0.017 0.013 0.033 0.024 0.050 0.039l0.089 0.421 0.252-0.554c0.202 0.3 0.019 0.72-0.207 0.767l0.065 0.307c-0.010 0.054-0.026 0.119-0.044 0.187 0.043 0.026 0.096 0.046 0.161 0.054-0.025 0.342 0.425 0.608 0.758 0.458-0.008 0.358 0.591 0.591 0.85 0.45 0.1 0.367 0.892 0.45 1.017 0.242-0.005 0.154 0.235 0.295 0.504 0.37l-0.488-0.636c1.013-0.136 0.842 0.667 0.534 0.648 0.212 0.052 0.435 0.061 0.566 0.001 0.617-0.283 0.858 0.408 1.283 0.275-0.5 0.35-0.45 0.841-0.083 1.183-0.017 0.488 0.296 0.959 0.765 0.982 0.001 0.003 0.001 0.006 0.002 0.009l0.009-0.006c0.127 0.581 1.050 0.731 1.524 0.581-0.971-0.315-0.496-0.812-1.052-0.899l0.002-0.001c-0.003-0.001-0.005-0.001-0.008-0.001 0.083-0.258 0.199-0.69-0.167-0.882 0.233-0.258 0.533-0.766 0.425-1.066 0.123 0 0.24-0.032 0.346-0.088 0.084-0.085 0.175-0.161 0.274-0.228l0.006-0.004c0.092-0.112 0.161-0.246 0.198-0.388 0.090 0.093 0.225 0.132 0.367 0.135 0.106-0.029 0.229-0.048 0.356-0.055l0.005-0c0.118-0.038 0.218-0.092 0.272-0.146l0.2-0.192c-0.033 0.050-0.117 0.125-0.2 0.192 0.092 0.192 0.392 0.192 0.692 0.083-0.333-0.308 0.033-0.75 0.167-0.641-0.125-0.342-0.4-0.408-0.683-0.325l-0.35 0.242c0.058-0.133 0.192-0.192 0.35-0.242-0.108-0.092-0.533-0.167-0.75 0.025-0.054-0.098-0.187-0.071-0.342-0.009 0.273-0.15 0.474-0.373 0.358-0.7 0.583 0.067 0.558-0.666 1.25-0.475-0.38-0.447-1.146-0.425-1.54-0.131l0.291 0.598c-0.513-0.041-0.437-0.479-0.301-0.592-0.060-0.021-0.129-0.033-0.2-0.033-0.35 0-0.633 0.284-0.633 0.633 0 0.053 0.007 0.105 0.019 0.154l-0.001-0.004c-0.342-0.15-0.725 0.125-0.7 0.517l0.2 0.767c-0.126-0.2-0.201-0.444-0.201-0.705 0-0.022 0.001-0.044 0.002-0.065l-0 0.003c-0.217-0.075-0.517 0.042-0.667 0.342 0.020 0.342-0.294 0.42-0.591 0.369-0.098 0.143-0.204 0.231-0.351 0.256l0.345-0.257c-0.201-0.036-0.393-0.129-0.47-0.243l1.067-0.125c-0.275-0.308-0.583-0.342-0.858-0.308 0.081 0.551-0.622 0.583-0.961 0.297-0.102 0.244-0.442 0.383-0.649 0.41 0-0.001 0-0.002 0-0.003l0.647-0.409c-0.043-0.037-0.081-0.078-0.109-0.125-0.197 0.153-0.595 0.057-0.739-0.124-0.192 0.245-0.489 0.246-0.688 0.246l0.686-0.248c-0.031-0.040-0.050-0.083-0.052-0.129-0.363 0.125-0.826-0.294-0.642-0.59l0.886 0.353c-0.094-0.246-0.508-0.509-0.803-0.403-0.325 0.233-0.616-0.158-0.467-0.4l0.467 0.4c-0.011-0.117-0.015-0.22-0.012-0.313-0.599 0.205-0.915-0.805-0.363-0.971-0.248 0.020-0.455-0.048-0.576-0.159-0.055 0.395-0.575 0.477-0.782 0.327l0.778-0.331c-0.062-0.058-0.102-0.127-0.111-0.202l0.85 0.342 0.207 0.947c0.023-0.416 0.18-0.602 0.326-0.755 0.475-0.492 0.366-0.633 0.733-1.116 0.331-0.484 0.588-1.049 0.74-1.656l0.008-0.036c-0.119 0.255-0.375 0.41-0.515 0.459l0.548-0.596c0.059-0.259 0.1-0.562 0.114-0.873l0-0.011c-0.040 0.15-0.177 0.26-0.302 0.372l0.305-0.436c0.002-0.058 0.004-0.127 0.004-0.195 0-0.169-0.008-0.336-0.024-0.501l0.002 0.021c-0.054 0.040-0.106 0.083-0.155 0.129-0.047-0.047-0.113-0.142-0.19-0.265l0.025-0.058c-0.011 0.015-0.023 0.030-0.034 0.045-0.12-0.192-0.269-0.463-0.433-0.783l0.075-0.205c-0.050 0.077-0.086 0.147-0.076 0.202-0.448-0.874-1-2.111-1.341-3.132-0.016 0.017-0.033 0.034-0.041 0.046l0.032-0.073c-0.095-0.285-0.173-0.553-0.226-0.789-0.057 0.038-0.123 0.063-0.156 0.079l0.142-0.142c-0.045-0.214-0.070-0.401-0.067-0.549 0.042 0.029 0.081 0.058 0.12 0.088-0.009-0.105-0.011-0.211-0.005-0.318 0.14-0.016 0.262-0.016 0.376-0.009-0.092-0.114-0.192-0.217-0.313-0.301-0.008 0.002-0.016 0.004-0.025 0.006 0.001-0.006 0.003-0.013 0.004-0.019-0.080-0.053-0.167-0.097-0.267-0.13l0.275-0.367c0.052 0.015 0.101 0.037 0.149 0.063 0.031-0.054 0.056-0.093 0.082-0.132l-0.007 0.011c0.297 0.119 0.648 0.224 1.084 0.233-0.189 0.182-0.457 0.22-0.749 0.251 0.114 0.136 0.224 0.29 0.337 0.447 0.318 0.032 0.708 0.031 1.378-0.14-0.419 0.082-0.257 0.689-0.89 0.746 0.105 0.105 0.217 0.198 0.34 0.27 0.246-0.33 0.634-0.541 1.072-0.541 0.104 0 0.206 0.012 0.303 0.035l-0.009-0.002c0.537 0.154 0.919 0.124 1.22-0.046-0.11-0.013-0.223-0.018-0.337-0.012 0.112-0.459 0.345-0.625 0.608-0.638-0.11-0.261 0.025-0.461 0.253-0.503-0.021-0.138 0.142-0.17 0.405-0.136 0.006-0.013 0.012-0.025 0.018-0.038 0.261-0.547 0.656-0.79 1.12-0.803-0.017-0.040-0.035-0.077-0.054-0.105 0.642-0.183 1.575 0.333 1.875 0.667-0.033 0.040-0.070 0.074-0.11 0.104 0.051 0.022 0.103 0.042 0.155 0.056 0.038-0.038 0.084-0.073 0.147-0.101 0.094-0.007 0.147 0.014 0.17 0.057 0.295-0.015 0.613-0.299 0.78-0.532-0.019-0.007-0.039-0.015-0.058-0.025 0.014-0.219 0.16-0.628 0.29-0.834 0.016 0.015 0.036 0.027 0.063 0.037 0.018-0.037 0.037-0.072 0.056-0.105 0.099 0.045 0.164 0.092 0.2 0.135 0.56-0.008 1.63-0.326 2.065-0.65 0.75-0.558 2.483 0.083 2.783-0.667-1.166 0.383-1.691-0.575-2.999 0.217-0.296 0.181-0.603 0.128-0.951 0.162 0.252-0.112 0.463-0.312 0.693-0.587 0.475-0.558 1.558-0.25 1.7-1.125-0.808 0.617-1.758-0.192-2.208 0.5-0.114 0.169-0.284 0.258-0.477 0.399 0.223-1.11 0.699-1.097 0.644-1.841-0.083-1.241 1.191-1.35 0.883-2.125zM37.716 6.677c-0.106 0.002-0.195-0.008-0.256-0.031-0.029 0.059-0.056 0.122-0.079 0.194 0.251 0.102 0.463-0.011 0.336-0.163zM37.38 6.84c-0.011-0.004-0.021-0.008-0.032-0.013 0.012 0.005 0.021 0.010 0.032 0.014 0-0 0-0.001 0.001-0.001zM37.38 6.842c-0.031 0.095-0.057 0.201-0.076 0.324 0.304 0.092 0.522-0.128 0.076-0.324zM37.304 7.166c-0.027-0.008-0.054-0.018-0.081-0.031 0.030 0.012 0.056 0.023 0.081 0.035 0-0.001 0-0.003 0.001-0.005zM37.303 7.171c-0.005 0.034-0.010 0.070-0.014 0.106-0.004 0.038-0.011 0.075-0.019 0.111-0.010-0.012-0.020-0.024-0.031-0.036-0.019 0.036-0.045 0.076-0.075 0.117 0.026 0.010 0.052 0.017 0.077 0.022-0.127 0.37-0.465 0.586-0.846 0.596 0.003-0.033 0.001-0.063-0.011-0.085-0.015 0.001-0.030 0.002-0.045 0.001h-0.008c-0.001 0.031-0.004 0.057-0.006 0.084-0.085-0.003-0.171-0.017-0.257-0.041-0.216 0.22-0.101 0.579-0.661 0.799-0.040 0.015-0.079 0.031-0.117 0.049-0.649-0.284-1.664-0.655-2.225-0.727-0.029 0.063-0.058 0.125-0.087 0.185-0.072-0.036-0.15-0.058-0.236-0.056-0.028 0.001-0.055 0.003-0.081 0.008 0.008 0.050 0.038 0.113 0.098 0.192v0.008c0.135 0.030 0.178 0.041 0.221 0.052l-0.093-0.021c-0.058 0.112-0.116 0.218-0.176 0.315-0.102-0.031-0.204-0.049-0.303-0.044 0.032 0.077 0.087 0.159 0.166 0.244-0.13 0.174-0.271 0.312-0.437 0.406 0.639 0.076 1.208 0.462 1.613 1.038 0.058 0.082 0.142 0.154 0.242 0.215-0.324 0.149-0.427 0.67-0.817 0.685 0.436 0.236 0.792 0.063 1.076-0.212-0.116 0.33-0.039 0.697 0.357 0.837-0.241-0.338 0.146-0.547 0.313-0.793 0.126 0.254 0.469 0.392 0.321 0.718 0.455-0.104 0.543-0.927 0.167-1.201 0.175-0.175 0.205-0.46 0.071-0.658-0.109-0.233-0.324-0.451-0.601-0.521 0.143-0.127 0.291-0.217 0.433-0.292 0.281 0.114 0.472 0.2 0.66 0.29l-0.081-0.035c0.013 0.007 0.027 0.014 0.040 0.021 0.004 0.019 0.006 0.034 0.010 0.054 0.075 0.342 0.217 0.9-0.025 1.458 0.445-0.322 0.421-0.874 0.429-1.334 0.642 0.215 1.455 0.247 2.179 0.034 0.916-0.25 2.683-0.492 2.591 0.65 0.483-0.575-0.125-1.183-1.35-1.291 0.025-0.558-0.575-1.058-1-0.725 0.392-0.058 0.733 0.683-0.050 0.983 0.016-0.055 0.025-0.119 0.025-0.184 0-0.387-0.313-0.7-0.7-0.7-0.109 0-0.212 0.025-0.304 0.069l0.004-0.002c0.367 0.108 0.75 0.733-0.083 0.967-0.16 0.046-0.343 0.059-0.535 0.047-0.020-0.675 0.811-1.284 0.236-2.076 0.183-0.018 0.247-0.181-0.054-0.326zM35.913 7.989c-0.070-0.030-0.139-0.066-0.207-0.112-0.141-0.096-0.281-0.18-0.42-0.253 0.079 0.188 0.029 0.417-0.205 0.553 0.216 0 0.581-0 0.832-0.188zM35.286 7.624c-0.062-0.147-0.203-0.268-0.397-0.297-0.014 0.032-0.034 0.067-0.056 0.103 0.148 0.049 0.299 0.114 0.452 0.194zM34.834 7.43c-0.22-0.073-0.432-0.112-0.632-0.106 0.085 0.195 0.146 0.501 0.063 0.695 0.186-0.114 0.438-0.375 0.569-0.589zM29.55 10.009c-0.006 0.008-0.015 0.019-0.023 0.030l-0.003 0.004c-0.104 0.142-0.223 0.204-0.355 0.224 0.075 0.044 0.157 0.084 0.247 0.117 0.983 0.367 1.083 1.25 1.891 1.033-0.75-0.208-0.7-1.075-1.483-1.291-0.098-0.027-0.189-0.067-0.274-0.117zM29.169 10.267c-0.193-0.114-0.342-0.26-0.471-0.419-0.102 0.053-0.166 0.117-0.326 0.177 0.036 0.050 0.071 0.1 0.104 0.15 0.258 0.054 0.491 0.123 0.693 0.093zM28.476 10.175c-0.166-0.034-0.342-0.062-0.528-0.049 0.039 0.106 0.084 0.212 0.134 0.318l-0.118 0.268c0.003 0.009 0.006 0.018 0.009 0.027 0.063-0.066 0.158-0.167 0.111-0.29 0.067 0.142 0.143 0.284 0.224 0.427h-0.010c0.003 0.002 0.009 0.004 0.013 0.006 0.408 0.716 0.964 1.454 1.379 2.319 0.103 0.23 0.198 0.506 0.269 0.791l0.008 0.036-0.019 0.090c0.013-0.007 0.024-0.015 0.037-0.022-0.006-0.026-0.003-0.014 0.001-0.003l0.009 0.037-0.211 0.482c0.104-0.139 0.215-0.277 0.228-0.419 0.038 0.17 0.071 0.379 0.091 0.592l0.002 0.021c0.211-0.158 0.453-0.273 0.695-0.32l0.025-0.78c0.001-0 0.002-0 0.003-0.001 0.179 0.23 0.211 0.516-0.021 0.779 0.259-0.049 0.517-0.020 0.734 0.118 0.085 0.352 0.004 0.828-0.466 0.965 0.292 0.183 0.725 0.017 0.958-0.383-0.35 0.783-0.117 1.491 0.441 1.633-0.267-0.55 0.333-0.808 0.142-1.166 0.35 0.158 0.666 0.641 0.65 0.941 0.423-0.469-0.196-1.082-0.208-1.552 0.356 0.026 0.716 0.002 1.017-0.106l-1.025-0.316c0.163-0.176 0.507-0.211 0.769-0.148 0.095-0.312 0.407-0.379 0.665-0.336l0.066-0.441c0.015 0.046 0.023 0.098 0.023 0.153 0 0.108-0.033 0.207-0.090 0.29l0.001-0.002c0.279 0.046 0.493 0.221 0.299 0.359l-0.938-0.016c0.257 0.070 0.422 0.236 0.229 0.458 0.109-0.039 0.21-0.088 0.3-0.15 0.634-0.436 0.994-0.705 1.292-0.752l-0 0.002c0.004-0.001 0.007-0.002 0.011-0.003 0.062-0.009 0.122-0.008 0.18 0.003 0.249 0.381 0.563 0.564 0.944 0.599l-0.003 0.001c0.008-0.001 0.009-0.001 0.011-0.001l-0.006 0.001c0.001 0 0.002 0 0.003 0.001 0.117 0.133 0.542 0.233 0.775 0.208 0.342 0.083 0.758-0.025 1.091-0.392 0.517 0.083 1-0.308 1.183-0.892 0.55-0.058 0.583-0.667 0.233-1.083-0.265-0.049-0.139-0.824-0.778-0.945-0.066-0.768-0.706-1.367-1.486-1.367-0.039 0-0.077 0.001-0.115 0.004l0.005-0c-0.773 0.061-1.377 0.704-1.377 1.487 0 0.728 0.521 1.334 1.211 1.465l0.009 0.001c-0.052 0.040-0.097 0.085-0.134 0.136l-0.001 0.002c-0.141-0.249-0.627-0.497-0.928-0.524l0.003-0.001c-0.003-0-0.005 0-0.008-0-0-0.083-0.017-0.25-0.058-0.341-0.133-0.258-0.25-0.567-0.192-0.958-0.234 0.274-0.435 0.587-0.59 0.925l-0.010 0.025c-0.408-0.283-1.416 0.125-1.891 0.233-0.116 0.027-0.302 0.031-0.521 0.016-0.001-0.003-0.002-0.005-0.004-0.008l-0.027 0.006c-0.66-0.049-1.599-0.264-1.864-0.547-0.487-0.392-1.077-0.678-1.723-0.812l-0.027-0.005c-0.142-0.041-0.262-0.1-0.367-0.172 0 0.152 0.041 0.714-0.25 0.831l0.249-0.831c-0.315-0.218-0.498-0.56-0.739-0.92zM29.216 11.095c0 0 0 0 0.001 0s0-0.002 0-0.002zM33.844 14.476c-0.009-0.002-0.018-0.005-0.027-0.007-0.001 0.002-0.001 0.004-0.002 0.006zM34.482 14.133c-0-0-0-0-0.001-0l-0 0.001c-0.001 0.001-0 0-0 0l0.001-0.001zM30.806 14.484c-0.002 0-0.005 0.001-0.007 0.001l-0 0.007c0.003-0.003 0.005-0.006 0.007-0.008zM27.949 10.126c-0-0-0-0.001-0-0.001-0.002 0-0.004 0.001-0.007 0.001 0.002-0 0.005 0 0.007-0zM27.948 10.125c0.197-0.030 0.328-0.065 0.424-0.101-0.154-0.215-0.34-0.431-0.594-0.627 0.021 0.247 0.081 0.488 0.17 0.727zM28.699 9.848c0.093-0.048 0.219-0.087 0.484-0.105 0.010-0.001 0.017-0.003 0.027-0.003-0.179-0.18-0.336-0.394-0.488-0.607-0.202-0.020-0.376-0.052-0.572-0.063 0.192 0.238 0.344 0.524 0.549 0.778zM28.384 8.686c-0.128-0.153-0.262-0.282-0.41-0.363-0.021 0.036-0.049 0.086-0.075 0.137l-0.008 0.017c-0.032 0.095-0.056 0.188-0.075 0.28 0.007 0.004 0.014 0.008 0.020 0.013 0.183-0.046 0.369-0.064 0.547-0.083zM27.725 9.859c0.004 0.021 0.009 0.042 0.014 0.063 0.059-0.040 0.107-0.094 0.094-0.171zM29.392 13.668c0.117-0.181 0.316-0.407 0.224-0.609zM30.123 15.481c-0.001 0.031-0.002 0.053-0.003 0.075l0-0.011c0.007-0.025 0.011-0.050 0.012-0.078zM30.006 16.429c-0.018 0.082-0.029 0.128-0.041 0.174l0.008-0.037c0.023-0.049 0.041-0.101 0.052-0.158zM28.165 20.129c-0.001 0.016-0.001 0.032-0.002 0.048 0.004-0.001 0.008-0.002 0.012-0.004zM27.958 19.183c-0.060 0.001-0.112 0.010-0.158 0.024 0.051-0.004 0.104-0.012 0.158-0.024zM27.22 19.043c0.001 0.001 0.002 0.003 0.004 0.004 0-0.002 0.001-0.004 0.001-0.006zM28.977 20.893c0.002 0.005 0.004 0.009 0.006 0.014 0.001-0.001 0.003-0.001 0.004-0.002 0.001-0.002 0.003-0.004 0.004-0.006zM28.987 20.905c-0.062 0.109-0.14 0.178-0.226 0.215l0.863-0.121c0.040 0.189-0.005 0.311-0.092 0.382l1.067-0.166c-0.325-0.333-0.625-0.417-0.991-0.25-0.108-0.132-0.404-0.174-0.62-0.060zM29.532 21.381l-0.008 0.001c0.001 0.001 0.002 0.002 0.002 0.003 0.002-0.001 0.004-0.003 0.006-0.005zM28.762 21.12l-0.029 0.004c0 0.002 0.001 0.004 0.001 0.007 0.009-0.003 0.019-0.007 0.028-0.011zM28.785 21.259c0.001 0.001 0.001 0.001 0.002 0.002 0.001-0.002 0.003-0.003 0.004-0.004zM29.636 21.51c0.001 0.001 0.002 0.002 0.003 0.002 0.001-0.002 0.002-0.004 0.003-0.006zM30.861 21.892c0.002 0 0.004 0.001 0.006 0.001 0.003-0.004 0.005-0.007 0.008-0.011zM33.64 19.916c0.005 0.001 0.005 0.001 0.005 0.001l-0.004-0.001c0.003-0.002 0.006-0.004 0.009-0.006l-0.001-0.002c-0.003 0.002-0.006 0.006-0.009 0.008zM35.357 21.524l-0.167 0.641c0.125 0.192 0.45 0.175 0.533 0.641 0.283-0.45 0.025-1.050-0.366-1.283zM34.226 22.228c-0.111 0.036-0.239 0.059-0.361 0.056-0.215 0.056-0.403 0.142-0.571 0.256l0.006-0.004c-0.079 0.096-0.174 0.176-0.281 0.232-0.327 0.331-0.529 0.786-0.529 1.288 0 1.012 0.82 1.832 1.832 1.833h0v0.008c1.015 0 1.837-0.823 1.837-1.837s-0.823-1.837-1.837-1.837v0c-0.036 0.001-0.070 0.003-0.104 0.005l0.006-0zM29.408 22.68c-0.015-0.004-0.031-0.008-0.046-0.012l0.004 0.005c0.014 0.004 0.028 0.006 0.042 0.007zM26.073 21.095c-0.167-0.102-0.186-0.319-0.172-0.504-0.271-0.132-0.202-0.393-0.088-0.704-0.452-0.301-0.663 0.19-0.896-0.004-0.25-0.183-0.567-0.208-0.692-0.025 0.45 0.017 0.233 0.366 1.108 0.45-0.875 0.058-0.716 1.041-1.3 0.991 0.617 0.583 0.941-0.525 1.45-0.342-0.15 0.042 0.233 0.392-0.033 0.866 0.357-0.007 0.537-0.413 0.622-0.729zM26.052 20.6l-0.045-0.214-0.089 0.196c0.045 0.023 0.091 0.027 0.135 0.018zM25.832 19.111c0.006-0.012 0.012-0.024 0.018-0.037-0.207-0.215-0.167-0.463-0.109-0.768 0 0.001 0.001 0.001 0.001 0.002 0.085 0.104 0.29 0.168 0.51 0.126-0.102-0.098-0.284-0.188-0.581-0.252 0.016 0.039 0.037 0.078 0.066 0.117-0.164-0.013-0.337-0.032-0.521-0.056-0.044-0.049-0.096-0.095-0.157-0.135-0.005-0.003-0.009-0.005-0.014-0.008-0.012-0.001-0.025-0.002-0.038-0.002l0.009-0.015c-0.030-0.018-0.060-0.035-0.089-0.049-0.001 0.019-0.001 0.039 0 0.059-0.005-0-0.010-0.001-0.015-0.001-0.016 0.030-0.030 0.065-0.040 0.102-0.211-0.034-0.441-0.077-0.695-0.13-0.017-0.011-0.034-0.023-0.052-0.034l0.089-0.102c-0.023 0.007-0.039 0.013-0.039 0.013-0.020 0.027-0.036 0.057-0.050 0.088-0.009-0.006-0.019-0.011-0.028-0.017 0.004 0.012 0.007 0.024 0.011 0.037-0.319-0.068-0.685-0.156-1.094-0.262-0.005-0.006-0.010-0.013-0.015-0.020l0.077-0.064c-0.027-0.002-0.053-0.005-0.080-0.007-0.002 0.020-0.003 0.041-0.004 0.062-0.019-0.022-0.039-0.044-0.061-0.065-0.030-0.001-0.059-0.003-0.090-0.003h-0.008c-0.007 0.013-0.014 0.028-0.021 0.043-0.246-0.065-0.511-0.138-0.794-0.218l-0.001 0c-0-0 0-0 0-0.001-0.099-0.028-0.196-0.055-0.299-0.085l0.028-0.177c-0.092-0.007-0.187-0.011-0.288-0.010 0.064 0.073 0.146 0.136 0.247 0.183-0.057-0.016-0.105-0.030-0.163-0.047-0.068-0.046-0.142-0.091-0.22-0.132-0.021 0.001-0.041 0.001-0.062 0.002-0.005 0.011-0.010 0.026-0.014 0.042-0.095-0.028-0.197-0.059-0.296-0.089-0.053-0.058-0.118-0.113-0.194-0.164l0.011-0.007c-0.011-0.003-0.022-0.005-0.033-0.008-0.030-0.020-0.062-0.039-0.096-0.057-0.003 0.012-0.005 0.023-0.007 0.035-0.113-0.021-0.229-0.034-0.346-0.035-0.005 0.010-0.008 0.023-0.013 0.034-0.163-0.046-0.321-0.086-0.475-0.12-0.011-0.008-0.022-0.015-0.034-0.023l0.422-0.057c-0.132-0.029-0.276-0.046-0.429-0.047-0.001 0.033 0 0.066 0.004 0.102-0.058-0.036-0.126-0.068-0.208-0.095-0.041 0.003-0.083 0.008-0.125 0.014v0.008c-0.006 0.006-0.011 0.014-0.015 0.023-0.267-0.044-0.519-0.069-0.756-0.076-0.013-0.021-0.026-0.040-0.040-0.055-0.002 0-0.003 0-0.005 0v-0.005c-0-0-0.001-0-0.001-0.001-0.006 0.014-0.013 0.035-0.019 0.059-0.397-0.007-0.754 0.034-1.071 0.115-0.017-0.015-0.034-0.028-0.052-0.038-0.002 0.001-0.005 0.002-0.007 0.003v-0.008c-0.003 0.017-0.004 0.039-0.006 0.060-0.326 0.090-0.609 0.223-0.851 0.388l0.031-0.049c-0.023 0.016-0.038 0.027-0.053 0.039l0.007-0.005c0.005 0.006 0.008 0.011 0.013 0.017-0.047 0.032-0.093 0.066-0.137 0.1-0.006-0.002-0.010-0.005-0.016-0.007 0.002 0.005 0.004 0.010 0.006 0.015-0.255 0.202-0.458 0.443-0.612 0.709-0.008 0-0.015-0-0.023 0l0.014-0.083c-0.010 0.017-0.023 0.035-0.031 0.049 0.003 0.010 0.009 0.022 0.016 0.034-0.011 0.013-0.023 0.030-0.036 0.050 0.009-0 0.018-0 0.028-0.001l0.008-0.049c0.003 0.006 0.007 0.012 0.012 0.019-0.129 0.227-0.222 0.472-0.282 0.726-0.001 0-0.003 0.001-0.004 0.002l0 0.002c-0.001-0-0.002-0.001-0.003-0.001-0.013 0.005-0.026 0.010-0.039 0.016 0.012 0.005 0.024 0.009 0.037 0.014-0.012 0.051-0.021 0.103-0.029 0.155l-0.048-0.089c-0.013 0.078-0.025 0.185-0.037 0.298 0.026-0.019 0.048-0.043 0.065-0.072-0.014 0.115-0.024 0.23-0.025 0.346-0.018 0.002-0.035 0.004-0.055 0.007 0.004 0.038 0.006 0.058 0.009 0.078l-0.002-0.019c0.015 0.010 0.032 0.020 0.050 0.028 0.002 0.095 0.007 0.191 0.017 0.286l0.001 0.002c0.002 0.009 0.002 0.018 0.001 0.026 0.021 0.181 0.058 0.36 0.109 0.535l-0.009-0.008c0.010 0.035 0.013 0.043 0.016 0.051l-0.008-0.028c0.001-0.002 0.003-0.003 0.004-0.005 0.040 0.137 0.089 0.27 0.148 0.399-0.072-0.264 0.043-0.499 0.106-0.704 0.085-0.291 0.1-0.471 0.026-0.568 0.071-0.049 0.125-0.13 0.14-0.257 0.024-0.192 0.005-0.336-0.054-0.426 0.1-0.033 0.196-0.106 0.27-0.249 0.044-0.088 0.060-0.171 0.054-0.244 0.106 0.014 0.215-0.011 0.312-0.106 0.141-0.134 0.221-0.297 0.226-0.453 0.149 0.085 0.339 0.116 0.574 0.028 0.179-0.069 0.275-0.189 0.315-0.323 0.117 0.086 0.28 0.142 0.509 0.14 0.225-0.005 0.364-0.087 0.444-0.203 0.152 0.24 0.48 0.403 1.151 0.254 0.192 0.165 0.45 0.271 0.778 0.228 0.217 0.191 0.543 0.329 1.009 0.33 0.202 0.15 0.501 0.264 0.942 0.292 0.137 0.009 0.251-0.010 0.343-0.047 0.183 0.184 0.538 0.328 1.182 0.355 0.119 0.005 0.214-0.008 0.29-0.033 0.094 0.074 0.211 0.13 0.352 0.158 0.221 0.044 0.385 0.014 0.495-0.060 0.149 0.086 0.351 0.146 0.62 0.163zM15.747 20.836c0.004 0.015 0.009 0.031 0.014 0.046-0.054-0.117-0.111-0.263-0.158-0.413l-0.008-0.028c-0.141 0.18-0.311 0.219-0.446 0.169l0.654 0.371c-0.229 0.229-0.544 0.161-0.684-0.041-0.464 0.281-0.978 0.059-1.064-0.354-0.178 0.147-0.383 0.175-0.556 0.114l0.897 0.647c-0.499 0.25-0.941-0.083-0.9-0.648-0.147-0.053-0.27-0.17-0.333-0.335h1.080c-0.229-0.087-0.404-0.273-0.421-0.475l1.1 0.4c-0.22 0.149-0.469 0.153-0.675 0.076-0.056 0.091-0.119 0.162-0.186 0.217l1.060 0.356c-0.068-0.099-0.094-0.229-0.049-0.373-0.156-0.115-0.223-0.372-0.043-0.657 0.007 0.005 0.013 0.009 0.020 0.013l0.542 0.495c-0.043-0.129-0.085-0.29-0.116-0.455l-0.004-0.024c0.011-0.014 0.018-0.030 0.020-0.048-0.001-0.009-0.002-0.019-0.003-0.028l-0.038-0.059c-0.010-0.065-0.021-0.153-0.028-0.241l-0.001-0.014c-0.012-0.008-0.023-0.017-0.032-0.026h0.008c0.007-0.063 0.019-0.191 0.032-0.315-0.077 0.057-0.188 0.072-0.315 0.023-0.025-0.009-0.048-0.026-0.070-0.047l-0.013-0.020c-0.001 0.001-0.002 0.003-0.002 0.004-0.078-0.085-0.134-0.233-0.134-0.389-0.72-0.052-0.645-0.659-0.414-0.981l0.415 0.943c0.010-0.16 0.081-0.322 0.251-0.426l0.023 0.044c0.002 0.14 0.068 0.276 0.198 0.369l0.097 0.182c0.005-0.029 0.010-0.054 0.015-0.070 0.009-0.004 0.017-0.007 0.025-0.010-0.005-0.002-0.012-0.004-0.017-0.006 0.002-0.009 0.005-0.018 0.008-0.027 0.016 0.006 0.031 0.013 0.048 0.018 0.001-0 0.002-0.001 0.003-0.001l-0.010-0.146c0.075-0.224 0.177-0.438 0.249-0.55-0.168 0.007-0.267-0.076-0.302-0.192l-0.003-0.043c-0.002 0.001-0.004 0.002-0.006 0.003-0.009-0.055-0.006-0.116 0.011-0.177-0.188-0.115-0.325-0.297-0.379-0.512l-0.001-0.006 0.381 0.511c0.051-0.178 0.208-0.358 0.464-0.418-0.346-0.12-0.429-0.407-0.324-0.651-0.348 0.048-0.662-0.201-0.638-0.492-0.080 0.038-0.16 0.046-0.234 0.035-0.017 0.236-0.111 0.391-0.231 0.482l0.023-0.010c0.133 0.356 0.034 0.605-0.14 0.743l0.824 0.725c-0.001 0.002-0.002 0.005-0.003 0.007-0.469 0.027-0.886-0.318-0.822-0.73-0.246 0.194-0.639 0.168-0.741-0.090l-0.2 0.628 0.858 0.109c-0.211 0.29-0.504 0.331-0.718 0.257 0.034 0.063 0.057 0.122 0.071 0.177l0.364-0.192c-0.189 0.576-0.457 0.742-0.656 0.735-0.077 0.038-0.165 0.068-0.257 0.091 0.003 0.068 0.004 0.134 0.004 0.197l0.418 0.172c-0.099-0.115-0.154-0.27-0.126-0.453l0.916 0.566c-0.090 0.066-0.193 0.097-0.298 0.101-0.235 0.35-0.728 0.331-0.944 0.059-0.024 0.147-0.059 0.273-0.102 0.378l0.536-0.171c-0.076 0.42-0.45 0.46-0.653 0.386-0.045 0.062-0.093 0.111-0.143 0.148 0.040 0.13 0.055 0.25 0.050 0.358l0.779 0.266c-0.144 0.118-0.35 0.146-0.542 0.117-0.050 0.45-0.578 0.685-0.859 0.595l-0.18 0.46 0.506 0.011c-0.154 0.211-0.516 0.203-0.694 0.124l-0.093 0.13 0.662 0.257c-0.092-0.099-0.113-0.244-0.1-0.352l0.633 0.425c-0.068 0.020-0.129 0.031-0.184 0.036 0.101 0.011 0.187 0.062 0.237 0.125 0.036-0.022 0.071-0.040 0.106-0.060-0.186-0.075-0.31-0.361-0.127-0.576l0.273 0.495c0.193-0.1 0.367-0.17 0.511-0.197 0.047-0.047 0.103-0.076 0.169-0.082l0.081 0.184c0.018-0.060 0.028-0.117 0.034-0.172 0.172 0.046 0.321 0.195 0.422 0.38l0.185 0.051c-0.040 0.030-0.086 0.046-0.134 0.053 0.078 0.183 0.111 0.383 0.077 0.547-0.126 0.032-0.229 0.107-0.234 0.187 0 0.002 0 0.003 0.001 0.005l0.159-0.016c-0.009 0.012-0.018 0.023-0.027 0.033-0.035 0.037-0.077 0.065-0.122 0.089 0.024 0.297-0.001 0.61-0.104 0.899-0.014 0.009-0.025 0.020-0.033 0.033 0.006 0.003 0.012 0.005 0.019 0.008-0.002 0.006-0.005 0.012-0.008 0.018l0.398 0.278c0.003-0.004 0.004-0.007 0.006-0.011 0.014 0.013 0.027 0.026 0.041 0.039 0.040 0.024 0.075 0.057 0.097 0.099-0.031-0.034-0.064-0.067-0.097-0.099-0.129-0.076-0.315-0.052-0.339 0.13l0.441 0.183c-0.063 0.019-0.122 0.062-0.165 0.142l0.525 0.208c0.006-0.010 0.009-0.020 0.013-0.030-0.057-0.106-0.122-0.211-0.197-0.313-0.056-0.020-0.117-0.024-0.174-0.008 0.032-0.084 0.024-0.156-0.006-0.213 0.065 0.071 0.125 0.145 0.18 0.221 0.138 0.050 0.244 0.189 0.197 0.313 0.005 0.009 0.010 0.018 0.015 0.026 0.065-0.024 0.134-0.025 0.197-0.007-0 0.001-0.001 0.002-0.001 0.002l0.003-0.002c0.133 0.040 0.237 0.171 0.214 0.385l-0.002-0c0.022 0.010 0.043 0.024 0.061 0.042 0.016 0.016 0.031 0.035 0.042 0.058 0.076 0.164-0.099 0.332-0.244 0.368 0.011 0.112 0.010 0.213-0.003 0.3l0.58-0.076c-0.179-0.374 0.197-0.58 0.386-0.474 0.039-0.137 0.157-0.19 0.273-0.201l0.333 0.667c-0.051 0.121-0.299 0.144-0.459 0.027-0.053 0.149-0.4 0.271-0.532-0.019-0.018 0.036-0.053 0.067-0.097 0.093l0.006-0.002c0.074 0.111 0.065 0.209 0.013 0.281l0.537-0.248c0 0.224-0.339 0.399-0.539 0.251-0.053 0.072-0.148 0.12-0.244 0.132-0.208 0.033-0.424-0.083-0.359-0.224-0.003-0.002-0.006-0.004-0.009-0.006-0.081 0.179-0.19 0.352-0.115 0.521-1.050 0.15-1.416 0.892-1.158 1.683-0.057 0.284 0.351 0.614 0.419 0.947 0.007-0.396 0.15-0.756 0.385-1.038l-0.002 0.003c-0.102-0.089-0.294-0.364-0.277-0.553l0.279 0.55c0.030-0.037 0.059-0.069 0.089-0.101l-0 0c0.103-0.106 0.22-0.198 0.348-0.274l0.008-0.004c-0.013-0.055-0.021-0.119-0.021-0.184 0-0.166 0.048-0.32 0.132-0.449l-0.002 0.003-0.108 0.63c0.241-0.144 0.531-0.229 0.841-0.23h0c0.002 0.003 0.005 0.006 0.007 0.009 0.879 0.009 1.595 0.698 1.646 1.566l0 0.005c0.1-0.077 0.172-0.199 0.204-0.363 0.175-0.2 0.208-0.675 0.058-0.933 0.092-0.342-0.142-0.858-0.425-0.983 0.054 0.019 0.115 0.029 0.18 0.029 0.142 0 0.271-0.052 0.371-0.138l-0.001 0.001c0.083 0.192 0.333 0.333 0.583 0.308-0.050 0.292 0.442 0.367 0.467 0.716 0.008 0.2 0.042 0.517 0.008 0.742 0.188-0.248 0.302-0.562 0.302-0.902 0-0.258-0.065-0.502-0.181-0.714l0.004 0.008c0-0.003-0-0.006 0-0.008 0.022-0.546-0.261-1-0.817-0.958-0.001-0.001-0.001-0.001-0.002-0.002l-0.34 0.21c0.064-0.105 0.191-0.209 0.335-0.215-0.252-0.316-0.745-0.249-0.894 0.032-0-0-0.001-0.001-0.002-0.002l-0-0-0.114 0.327c0.010-0.123 0.051-0.235 0.115-0.33l-0.002 0.002c-0.133-0.123-0.312-0.199-0.508-0.199-0.043 0-0.085 0.004-0.126 0.011l0.004-0.001c0.083-0.433-0.083-0.658-0.333-0.667 0.025-0.367-0.183-0.716-0.6-0.8-0.437 0.091-0.604-0.374-0.438-0.553-0.028-0.018-0.054-0.040-0.076-0.064l0.005 0.009c-0.092 0.014-0.169 0.005-0.233-0.021l-0.016 0.32c0.099-0.032 0.202-0.031 0.258-0.007l-0.458 0.15c0.047-0.073 0.122-0.118 0.2-0.143-0.065-0.075-0.050-0.245 0.015-0.321-0.102-0.042-0.171-0.125-0.208-0.219l-0.457 0.308c0.043-0.137 0.184-0.241 0.322-0.285l0.003 0.002c-0-0.001-0-0.002-0-0.003 0.046-0.014 0.091-0.022 0.132-0.022-0.061-0.155-0.037-0.34 0.059-0.416-0.063-0.044-0.11-0.099-0.141-0.159l-0.246 0.229c-0.001-0-0.001-0.001-0.002-0.001 0.035-0.146 0.174-0.211 0.248-0.228-0.111-0.213-0.033-0.492 0.167-0.592l0.333 0.858c-0.154-0.006-0.27-0.047-0.357-0.106l0.297 0.51c-0.047-0.135-0.028-0.289 0.077-0.37l0.017 0.022c-0.102-0.162-0.086-0.402 0.082-0.522-0.027-0.044-0.045-0.092-0.054-0.142-0.425-0.045-0.541-0.493-0.316-0.727-0.102-0.114-0.139-0.279-0.087-0.447l0.608 0.583c-0.219 0.050-0.397-0.008-0.507-0.12l0.297 0.689c-0.020-0.162 0.050-0.342 0.226-0.459-0.034-0.126 0.003-0.272 0.123-0.382l-0.021-0.11c-0.022-0.057-0.033-0.119-0.035-0.183l-0.065-0.342c-0.388 0.112-0.742-0.24-0.694-0.484l0.687 0.45-0.061-0.323c-0.266-0.079-0.496-0.396-0.418-0.76l0.425 0.363c0.112 0.008 0.216 0.022 0.316 0.044l-0.015-0.003c-0.067-0.183-0.149-0.378-0.252-0.588-0.014-0.029-0.026-0.059-0.039-0.088zM16.038 21.512c0.315 0.861 0.261 1.442 0.149 1.976 0.284 0.192 0.638 0.172 0.807 0.152-0.083-0.217 0.25-0.433 0.267-0.633 0.008-0.201 0.358-0.354 0.735-0.019 0 0.002 0 0.004 0 0.006 0 0.019 0 0.037 0.001 0.056l-0-0.003-1.002 0.593c0.167 0.45 0.717 0.433 0.95 0.683 0.242 0.25 1.041 0.225 1.275 0.083-0.070-0.006-0.148-0.025-0.23-0.056 0.133 0.046 0.287 0.072 0.447 0.073h0c0.794-0.003 1.436-0.647 1.436-1.441 0-0.596-0.362-1.108-0.878-1.327l-0.009-0.004c0.108 0.017 0.211 0.056 0.292 0.147 0.050-0.703-0.616-1.077-1.073-0.846l-0.001-0.004c-0.004 0.002-0.008 0.004-0.012 0.007-0.178-0.097-0.655-0.031-0.746 0.093-0.131-0.062-0.504 0.119-0.704 0.259 0.167-0.14 0.189-0.452 0.113-0.567 0.183-0.083 0.383-0.325 0.408-0.5 0.25 0.042 0.642-0.133 0.808-0.092-0.262-0.349-0.689-0.486-1.139-0.463l0.331 0.538c-0.485-0.008-0.699-0.463-0.413-0.532-0.482 0.030-0.688 0.369-0.754 0.732-0.283 0.175-0.383 0.75-0.275 0.958-0.163 0-0.318 0.151-0.379 0.244 0.17 0.061 0.612 0.334 0.629 0.615l-0.63-0.613c-0.001 0.002-0.002 0.003-0.003 0.005-0.112-0.048-0.245-0.089-0.383-0.118l-0.014-0.003zM16.439 21.627c0-0 0.001-0.001 0.001-0.001-0.001-0-0.003-0.002-0.005-0.002zM17.847 19.692c0.004-0 0.009-0.001 0.013-0.001 0.023-0.002 0.046-0.003 0.069-0.005l-0.002-0.004c-0.030 0-0.056 0.004-0.080 0.010zM16.187 23.488c-0.008-0.005-0.015-0.011-0.022-0.017l0.013 0.035c-0.19-0.004-0.316-0.098-0.369-0.221l0.251 0.776c0.041-0.192 0.087-0.38 0.128-0.573zM16.060 24.062c-0 0.001-0 0.002-0.001 0.003 0.001-0 0.001 0 0.002 0zM16.059 24.065c-0.171 0.010-0.3-0.046-0.384-0.136l0.311 0.579c0.016-0.154 0.043-0.3 0.073-0.443zM15.986 24.508c-0.001 0.006-0.001 0.012-0.001 0.018 0.003-0.001 0.006-0.001 0.010-0.002zM15.985 24.526c-0.173 0.056-0.308 0.011-0.394-0.080l0.379 0.486c-0.139 0.071-0.256 0.063-0.347 0.015l0.422 0.544c-0.081-0.367-0.088-0.678-0.060-0.964zM15.622 24.946l-0.011-0.015c-0.002 0.002-0.003 0.004-0.005 0.006 0.005 0.003 0.011 0.006 0.016 0.009zM15.59 24.445l-0.046-0.059c0.013 0.021 0.029 0.041 0.046 0.059zM15.675 23.929l-0.039-0.073c-0.004 0.002-0.006 0.005-0.010 0.008 0.014 0.023 0.030 0.045 0.049 0.065zM15.809 23.285l-0.015-0.045c-0 0-0.001 0.001-0.001 0.001 0.004 0.015 0.009 0.030 0.016 0.044zM16.165 23.471l-0.229-0.631c-0.007 0.006-0.013 0.012-0.020 0.019l0.086 0.456c0.049 0.063 0.104 0.114 0.162 0.156zM15.736 21.471c-0.021-0.002-0.050-0.004-0.079-0.005l-0.005-0 0.076 0.402c0.13 0.038 0.267 0.021 0.382-0.077zM15.79 22.191l0.006 0.034c0.009-0.003 0.018-0.005 0.027-0.008 0.021 0.039 0.047 0.076 0.078 0.11-0.029 0.075-0.043 0.158-0.041 0.24l0.035 0.183c0.054 0.14 0.171 0.245 0.365 0.241l-0.354-0.658c0.084 0.090 0.203 0.158 0.354 0.175l-0.475-0.625c-0.036 0.097-0.022 0.218 0.035 0.329zM15.568 23.7c0.001 0.008 0.003 0.015 0.004 0.022 0.002 0 0.004 0.001 0.006 0.001zM15.27 23.011l-0.009-0.021c-0.002 0.002-0.003 0.004-0.005 0.006 0.005 0.005 0.009 0.011 0.014 0.016zM15.451 24.735c0.018 0.051 0.045 0.098 0.080 0.138zM15.154 24.225l-0.001-0.002c-0 0-0.001 0.001-0.001 0.001s0.001 0.001 0.002 0.001zM15.093 24.64c0 0 0 0 0 0.001l0.001-0.001c-0.001 0-0.001 0-0.002 0zM15.301 24.859c0.001 0 0.001 0.001 0.002 0.001l0-0.004c-0.001 0.001-0.001 0.002-0.002 0.003zM15.286 25.18c0 0 0 0.001 0.001 0.001v-0.001c-0 0-0 0-0.001 0zM17.607 27.145c0 0 0.001 0.001 0.001 0.001v0l0.002-0.006c0.001-0.001-0 0.001-0.002 0.002l-0.002 0.003zM18.504 27.116c0.001 0.002 0.003 0.003 0.004 0.005l0.010-0.006c-0.005 0-0.010 0.001-0.015 0.001zM17.756 30.318c-0.154 0.119-0.376 0.132-0.629 0.020 0.242-0.15 0.325-0.416 0.317-0.641-0.136-0.136-0.225-0.319-0.241-0.522l-0-0.003c-0.409 0.065-0.977-0.278-1.093-0.425-0.003-0-0.009-0-0.014-0l-0.001-0c-0.466 0-0.887 0.192-1.189 0.5l-0 0c-0.030 0.031-0.059 0.064-0.086 0.098l-0.002 0.003-0-0.001c0.001-0.001 0.001-0.001-0 0l-0.002 0.002c0 0 0 0 0.001 0-0.235 0.285-0.378 0.654-0.378 1.057 0 0.002 0 0.005 0 0.007v-0c-0.001-0.009-0.004-0.019-0.006-0.028-0 0.008-0 0.018-0 0.028 0 0.919 0.745 1.665 1.664 1.666h0c0.92-0.001 1.665-0.747 1.665-1.666 0-0.034-0.001-0.067-0.003-0.1l0 0.005zM15.262 28.969c-0.005 0.003-0.005 0.004-0.006 0.004l0.005-0.003c0.001 0.006 0.001 0.007 0.001 0.008l-0.001-0.005zM15.284 27.235c0.028-0.062 0.053-0.125 0.065-0.19 0.011 0.015 0.024 0.029 0.041 0.040 0.004-0.016 0.005-0.035 0.008-0.052l-0.047 0.006c0.013-0.076 0.008-0.153-0.030-0.233-0.042-0.071-0.064-0.106-0.086-0.141l0.020 0.033c-0.068-0.116-0.117-0.194-0.168-0.272l0.019 0.031c-0.221 0.134-0.080 0.42 0.198 0.349-0.175 0.056-0.243 0.285-0.018 0.429zM15.104 26.457c0.010-0.006 0.020-0.012 0.032-0.018-0.013 0.004-0.025 0.006-0.037 0.009-0.018-0.032-0.016-0.029-0.015-0.026l0.020 0.035zM15.099 26.449c-0.083-0.142-0.148-0.246-0.215-0.348l0.019 0.031 0.371 0.077c-0.039-0.107-0.086-0.215-0.143-0.323-0.096 0.035-0.183 0.115-0.228 0.246-0.051-0.070-0.087-0.117-0.123-0.164l0.014 0.018c-0.187 0.088-0.085 0.562 0.306 0.463zM14.793 25.985c0.013-0.006 0.027-0.010 0.043-0.012-0.018-0.001-0.036-0.002-0.053-0.001-0.011-0.015-0.007-0.010-0.004-0.006l0.014 0.019zM14.783 25.971c-0.224-0.312-0.45-0.586-0.692-0.844l0.004 0.004c0.040-0.068 0.073-0.139 0.102-0.212l-0.019-0.013c0.002-0.005 0.006-0.008 0.008-0.013-0.246-0.1-0.641-0.127-0.808-0.021-0.217 0.125-0.142 0.167 0.117 0.183s0.583 0.433 0.033 0.458c-0.258 0.008-0.167 0.633-0.708 0.675 0.217 0.267 0.85 0.092 1.075-0.2-0.042 0.242 0.275 0.458 0.15 0.75 0.38 0.040 0.18-0.759 0.738-0.768zM15.274 26.208c0.008 0.022 0.015 0.043 0.022 0.064 0.042-0.020 0.088-0.031 0.135-0.032zM15.296 26.272c-0.091 0.043-0.156 0.127-0.135 0.234l0.092 0.192c0.030 0.042 0.086 0.050 0.147 0.035-0.015-0.141-0.049-0.297-0.104-0.46zM15.389 27.085c-0.012 0.054-0.029 0.101-0.051 0.14l0.312-0.101c-0.1 0.013-0.199 0.003-0.261-0.039zM15.65 27.124c0.083-0.011 0.166-0.037 0.23-0.075zM15.339 27.225l-0.044 0.014c-0 0-0 0.001-0.001 0.001 0.008 0.005 0.016 0.010 0.026 0.015 0.007-0.010 0.013-0.020 0.019-0.031zM15.896 27.332c0.001-0.001 0.002-0.002 0.002-0.003l-0.005 0.002c0.001 0 0.001 0.001 0.002 0.001zM16.51 26.975c0-0.001 0.001-0.001 0.001-0.002l-0.133-0.483c-0.004-0.003-0.010-0.005-0.014-0.008-0.023 0.081-0.019 0.192 0.031 0.341 0.024 0.066 0.066 0.115 0.116 0.152zM15.542 26.264c-0.034-0.016-0.072-0.023-0.111-0.023zM14.323 23.962c-0.003-0.035-0.006-0.070-0.010-0.105l-0.001 0c0-0.002 0.001-0.004 0.001-0.005-0.031-0.258-0.097-0.499-0.176-0.695-0.037-0.088-0.073-0.162-0.11-0.224 0.078 0.099 0.273 0.207 0.443 0.185-0.015-0.036-0.032-0.070-0.051-0.104l-0.415-0.115c0 0 0.001 0.001 0.001 0.001-0.035-0.052-0.071-0.095-0.109-0.125 0.003-0.026 0.006-0.050 0.008-0.076-0.054-0.010-0.119-0.007-0.191 0.007-0.005 0.004-0.009 0.009-0.013 0.014-0.121 0.013-0.267 0.1-0.454 0.262l-0.044-0.079c-0.047 0.024-0.097 0.053-0.146 0.081 0.059 0.024 0.124 0.027 0.189-0.001-0.105 0.091-0.224 0.207-0.358 0.345l0.101-0.112c0.024-0.054 0.006-0.117-0.038-0.172-0.217 0.129-0.449 0.286-0.68 0.452 0.065 0.133 0.204 0.211 0.307 0.163-0.045 0.049-0.083 0.088-0.131 0.141-0.069 0.076-0.139 0.146-0.21 0.215l-0.255-0.305c-0.028 0.021-0.055 0.042-0.083 0.063 0.009 0.142 0.171 0.316 0.335 0.245-0.174 0.169-0.354 0.316-0.538 0.446l-0.242-0.339c-0.005 0.004-0.009 0.007-0.013 0.011-0.047 0.148 0.087 0.35 0.252 0.33-0.302 0.213-0.616 0.38-0.938 0.516-0.139 0.532-0.956 1.416-1.786 1.673-0.711 1.006-1.371 0.582-1.546 1.368 0.9-0.725 1.608-0.25 2.15-0.967 0.808-1.091 1.483-0.933 1.8-1.666 0.291-0.684 1.214-0.916 1.863-1.441 0.196 0.057 0.356 0.042 0.47-0.018 0.092 0.103 0.398 0.147 0.62 0.032zM8.967 26.654c0.035-0.049 0.069-0.1 0.104-0.156 0.555-0.887 1.062-1.15 1.343-1.385 0.114-0.041 0.226-0.085 0.338-0.132 0.003-0.013 0.007-0.026 0.009-0.038-0.054-0.006-0.109-0.030-0.154-0.065 0.004-0.010 0.010-0.019 0.013-0.029 0.022-0.021 0.062-0.057 0.090-0.083l0.064 0.070c0.003-0.046 0.004-0.090 0.002-0.13 0.052-0.047 0.101-0.092 0.166-0.149-0.022-0.062-0.017-0.133 0.036-0.199l0.079 0.1c0.118-0.102 0.239-0.205 0.381-0.321 0.002-0.006 0.003-0.011 0.006-0.016-0.128-0.038-0.226-0.128-0.241-0.228l0.499 0.033c0.064-0.050 0.129-0.101 0.195-0.151-0.003-0.043 0.008-0.084 0.038-0.113-0.125-0.041-0.216-0.147-0.198-0.277l0.477 0.152c0.018-0.013 0.037-0.026 0.055-0.039-0.057-0.118-0.056-0.278 0.084-0.43 0.088-0.092 0.181-0.135 0.269-0.146-0.112-0.006-0.192-0.044-0.249-0.099-0.033 0.042-0.067 0.077-0.103 0.104 0.058 0.050 0.082 0.141 0.041 0.191l-0.041-0.191c-0.165 0.124-0.359 0.099-0.506 0.011 0.081 0.096 0.11 0.448-0.227 0.571-0.077 0.031-0.15 0.031-0.216 0.012 0.048 0.257-0.11 0.447-0.359 0.447-0.12 0-0.224-0.088-0.28-0.198-0.032 0.028-0.061 0.052-0.093 0.080l0.256 0.102c-0.057 0.088-0.122 0.136-0.187 0.158l0.695-0.025c-0.191 0.408-0.706 0.3-0.7 0.026-0.043 0.014-0.085 0.016-0.126 0.009-0.012 0.027-0.026 0.051-0.041 0.072-0.061-0.039-0.127-0.069-0.193-0.093-0.037 0.030-0.086 0.071-0.107 0.086-0.070-0.025-0.132-0.056-0.189-0.090 0.001-0.039 0.013-0.079 0.042-0.118-0.003-0.002-0.006-0.003-0.009-0.005-0.035 0.025-0.070 0.050-0.105 0.074-0.083-0.062-0.152-0.134-0.206-0.211-0.706-0.244-1.685-0.209-1.866 0.167 0.358-0.033 0.667 0.1 0.733 0.3-0.533-0.333-1.375 0.175-1.875-0.133-1.2-0.758-1.441-0.15-2.041-0.475s-1.183-0.058-1.2 0.275c0.558-0.45 1.008 0.442 1.566 0.325 1.159-0.232 1.567 0.462 2.313 0.607-0.588-0.060-1.209-0.116-1.947 0.318-0.75 0.433-1.958 0.075-2.016 0.708 0.517-0.283 1.091 0.117 1.541-0.117 0.45-0.242 0.933-0.316 1.158-0.2-0.8 0.958-1.525 0.317-2.358 1.083-0.533 0.5-1.216 0.183-1.675 0.667-0.45 0.475-0.733 0.658-1.158 0.716 0.742 0.467 1.458-0.6 2.125-0.583 0.015 0 0.034 0 0.052 0 0.55 0 1.060-0.168 1.482-0.456l-0.009 0.006c-0.392 0.908-1.533 0.45-2.533 1.475-0.625 0.642-1.050 1.225-2.108 1.375 0.492 0.55 1.825-0.716 2.908-0.725 1.425-0.017 1.491-1.2 2.2-1.141 0.708 0.067 0.983-0.858 1.566-0.858s0.816-1.025 1.266-0.858c-0.617 0.283-0.617 1.183-1.416 1.333 0.858 0.333 1.208-0.858 2.191-0.916 0.114-0.009 0.23-0.033 0.346-0.069zM9.72 23.831c0.112 0.039 0.217 0.084 0.311 0.136 0.015-0.010 0.029-0.021 0.044-0.031-0.013 0.012-0.025 0.024-0.034 0.036 0.046 0.026 0.090 0.054 0.13 0.084 0.040 0.011 0.082 0.024 0.123 0.039 0.026-0.021 0.041-0.032 0.073-0.059 0.044 0.040 0.101 0.069 0.161 0.079 0-0.001 0.001-0.001 0.001-0.002l-0.156-0.083c0.065-0.054 0.14-0.119 0.217-0.185l-0.26-0.103c0.123-0.097 0.244-0.199 0.362-0.306-0.073 0.088-0.065 0.219-0.009 0.329 0.127-0.111 0.247-0.22 0.332-0.302l-0.298-0.049c0.049-0.045 0.098-0.090 0.146-0.137 0.075 0.034 0.159 0.061 0.254 0.077 0.001 0.001 0.001 0.002 0.002 0.003 0.001-0.001 0.002-0.002 0.002-0.002l0.285-0.396-0.253 0.020c0.179-0.194 0.349-0.402 0.511-0.625 0.014-0 0.027-0.002 0.041-0.002 0.016 0.026 0.046 0.049 0.089 0.068l0.060-0.083c0.041-0.006 0.081-0.014 0.117-0.024l0.011-0.027-0.187-0.004c-0.021-0.009-0.042-0.017-0.062-0.023 0.111-0.158 0.217-0.325 0.319-0.499 0.029 0.030 0.067 0.052 0.11 0.066l0.066-0.169-0.17 0.092c0.032-0.055 0.063-0.11 0.094-0.167 0.040-0.009 0.079-0.020 0.119-0.036l0.032-0.082c-0.025-0.010-0.049-0.018-0.074-0.026 0.104-0.199 0.202-0.407 0.293-0.625-0.023 0.123 0.061 0.235 0.196 0.314 0.036-0.082 0.059-0.175 0.064-0.278l-0.241-0.082c0.030-0.072 0.058-0.144 0.087-0.218 0.035-0.014 0.070-0.033 0.104-0.058-0.004-0.014-0.008-0.028-0.013-0.042-0.016-0.007-0.032-0.014-0.048-0.019 0.024-0.067 0.048-0.135 0.072-0.204 0.003 0.046 0.056 0.089 0.132 0.117 0.043-0.059 0.082-0.131 0.116-0.215l-0.241 0.077c0.088-0.263 0.169-0.54 0.24-0.83-0.015 0.153 0.027 0.279 0.104 0.375 0.021-0.131 0.033-0.279 0.034-0.446l-0.11-0.045c0.010-0.044 0.020-0.090 0.030-0.135 0.025-0.005 0.051-0.011 0.075-0.017-0.001-0.028-0.002-0.055-0.004-0.084-0.017 0-0.033 0.001-0.050 0.001 0.005-0.025 0.011-0.050 0.016-0.076 0.010-0.047 0.020-0.093 0.030-0.139 0.007 0.102 0.116 0.203 0.264 0.208 0.219-0.109 0.357-0.284 0.291-0.543l-0.545 0.287c0.035-0.159 0.071-0.315 0.11-0.464 0.037-0 0.076-0.007 0.116-0.023l0.037-0.116c0.049 0.060 0.124 0.109 0.211 0.139-0.040-0.074-0.094-0.154-0.165-0.24-0.004-0.002-0.009-0.003-0.013-0.004l0.039-0.121-0.119-0.015c0.116-0.392 0.246-0.75 0.389-1.075 0.022 0.009 0.044 0.017 0.069 0.024l0.001-0.001c-0.016-0.023-0.033-0.043-0.051-0.061 0.169-0.38 0.356-0.715 0.557-1.010 0.021-0.002 0.044-0.006 0.067-0.009-0 0.024 0.003 0.048 0.010 0.072l0.046-0.080c0.045-0.008 0.091-0.020 0.14-0.034l0.090-0.145-0.146 0.033 0.027-0.047c-0.023-0.006-0.047-0.011-0.070-0.016 0.096-0.125 0.194-0.242 0.296-0.351 0.014 0.015 0.029 0.029 0.045 0.042l0.044-0.033c-0.016-0.018-0.032-0.035-0.048-0.052 0.097-0.102 0.197-0.197 0.299-0.285-0.077 0.082-0.112 0.162-0.115 0.233l0.306-0.232-0.149-0.038c0.183-0.154 0.373-0.286 0.57-0.4-0.248-0.265-0.717-0.198-0.924 0.032-0.15 0.167-0.185 0.381-0.13 0.555-0.435-0.364-0.872-0.33-1.137-0.122-0.575 0.458-1.125 0.2-1.142 0.65 0.342-0.267 0.65 0.050 0.916-0.042 0.119-0.042 0.228 0.030 0.369 0.11-0.108 0.075-0.167 0.193-0.144 0.364-0.15 0.069-0.215 0.44-0.019 0.682-0.293-0.037-0.633 0.235-0.706 0.592-0.046 0.243-0.010 0.534 0.089 0.743-0.784 0.18-1.351 1.317-2.255 1.056 0.392 0.625 1.341-0 1.7 0.067 0.033 0.006 0.070 0.011 0.107 0.015-0.188 0.127-0.267 0.364-0.323 0.785-0.035 0.238 0.025 0.421 0.13 0.529-0.347 0.17-0.612 0.633-0.57 0.905-0.56 0.086-0.758 0.668-1.251 0.508 0.087 0.213 0.432 0.369 0.8 0.437-0.267 0.165-0.453 0.482-0.816 0.363 0.017 0.179 0.121 0.388 0.328 0.529-0.403-0.039-0.86 0.177-1.203 0.046 0 0.169 0.050 0.386 0.183 0.575zM15.719 14.451c0.018 0.019 0.035 0.041 0.051 0.064 0-0.001 0.001-0.002 0.001-0.003-0.013-0.023-0.024-0.048-0.033-0.072-0.006 0.004-0.013 0.007-0.019 0.011zM15.738 14.44c0.055-0.032 0.111-0.062 0.167-0.090-0.063 0.047-0.108 0.103-0.134 0.162 0.002 0.004 0.004 0.009 0.007 0.013l0.277-0.113-0.123-0.076c0.352-0.176 0.722-0.295 1.105-0.368 0.010 0.010 0.020 0.020 0.031 0.029-0.002-0.012-0.006-0.023-0.008-0.034 0.264-0.049 0.534-0.075 0.808-0.083-0.023-0.127 0.005-0.264 0.078-0.372-0.088-0.3-0.367-0.586-0.669-0.642-0.375-0.083-0.817-0.075-0.967-0.442-0.083 0.317 0.15 0.525 0.433 0.708 0.172 0.114 0.109 0.339 0.148 0.557-0.216-0.179-0.57-0.182-0.79-0.099-0.291 0.107-0.49 0.517-0.364 0.848zM16.055 14.413l0.629 0.389c-0.184-0.15-0.226-0.405-0.176-0.574zM16.508 14.228l0.175-0.071-0.047-0.090c-0.060 0.020-0.104 0.081-0.128 0.161zM16.684 14.802c0.033 0.027 0.071 0.051 0.114 0.070zM16.797 14.872l0.072 0.044c-0.695 0.521-1.244 0.005-1.108-0.379l-0.463 0.351 0.63 0.161c-0.094 0.188-0.233 0.295-0.374 0.342l0.607 0.541c-0.391-0.025-0.583-0.208-0.608-0.54-0.28 0.093-0.571-0.050-0.561-0.271l-0.137 0.104c0.007 0.007 0.013 0.014 0.020 0.022l-0.215 0.35 0.802-0.18c-0.126 0.43-0.301 0.644-0.475 0.725l0.639 0.489c0.080-0.185 0.266-0.345 0.529-0.388-0.058-0.258 0.065-0.552 0.29-0.635l0.249 1.053c0.095-0.055 0.209-0.081 0.318-0.062l-0.376 0.599c0.121-0.087 0.26-0.168 0.405-0.237l0.017-0.007c-0.26-0.381 0.22-0.652 0.596-0.538l-0.531 0.508c0.091-0.042 0.204-0.085 0.32-0.12l0.019-0.005c0.002 0.001 0.005 0.003 0.007 0.005 0.059-0.032 0.128-0.056 0.203-0.077-0.055-0.192-0.027-0.327 0.047-0.421-0.095-0.17-0.134-0.368-0.103-0.55-0.123-0.046-0.224-0.11-0.305-0.184l-0.199 0.928c-0.152-0.162-0.188-0.379-0.114-0.576-0.562-0.052-0.661-0.434-0.586-0.783l0.588 0.778c0.052-0.134 0.154-0.259 0.308-0.351-0.193-0.179-0.266-0.421-0.227-0.644-0.111 0.002-0.205-0.018-0.282-0.053zM17.079 14.925c0.002-0 0.004 0 0.006 0l-0.005-0.009c-0.001 0.003-0.001 0.006-0.002 0.009zM17.306 15.57c0.001 0.001 0.002 0.002 0.003 0.003l0.001-0.005c-0.001 0.001-0.003 0.002-0.004 0.003zM16.999 15.92c-0.001 0.001-0.001 0.003-0.002 0.004 0.002 0 0.003 0.001 0.005 0.001zM17.615 15.757c0.001 0.001 0.003 0.001 0.004 0.002l-0.001-0.021c-0.001 0.006-0.002 0.013-0.003 0.019zM17.718 16.306c0 0.001 0.001 0.001 0.001 0.002l0.001-0.005c-0.001 0.001-0.001 0.002-0.002 0.003zM17.671 16.728c0.007 0.023 0.014 0.047 0.023 0.072l0.055-0.092c-0.027 0.006-0.053 0.013-0.079 0.020zM17.121 16.924c-0.039 0.017-0.060 0.027-0.082 0.037l0.016-0.007c0.005 0.007 0.008 0.013 0.013 0.020zM16.693 16.662c-0.002 0.001-0.004 0.003-0.006 0.004 0.003 0 0.005 0.001 0.008 0.001zM16.687 16.666c-0.312-0.031-0.476-0.204-0.529-0.402l-0.131 1.045c-0.027-0.007-0.051-0.014-0.075-0.022l-0.119 0.698c0.066-0.105 0.169-0.239 0.277-0.359-0.267-0.27 0.076-0.585 0.367-0.666l-0.286 0.579c0.105-0.108 0.201-0.189 0.253-0.196 0.001 0 0.003 0.001 0.004 0.002-0-0.001-0.001-0.003-0.001-0.004 0.040-0.033 0.086-0.068 0.133-0.102l0.008-0.006c-0.19-0.227-0.088-0.454 0.098-0.566zM16.191 17.537c-0.027 0.028-0.054 0.056-0.081 0.087 0.008 0.009 0.016 0.017 0.025 0.026zM15.952 17.286l0.001-0.003c-0.001 0-0.003 0.001-0.004 0.001 0.001 0 0.002 0.001 0.004 0.001zM16.158 16.263l0.003-0.022c-0.002 0-0.005 0.001-0.007 0.001 0.002 0.007 0.003 0.014 0.004 0.020zM15.625 16.631c-0 0.001-0.001 0.001-0.001 0.002 0.001-0 0.002-0 0.004-0zM15.553 15.393c0-0 0-0 0.001-0l-0.001-0.001c0 0 0 0.001 0 0.001zM15.761 14.538l0.017-0.013c-0.002-0.004-0.005-0.007-0.008-0.010-0.003 0.008-0.006 0.015-0.009 0.023zM14.54 15.582c0.001 0 0.003 0.001 0.004 0.001v-0.008zM14.384 15.855l-0.313 0.545 0.677-0.223c-0.18-0.029-0.326-0.176-0.364-0.322zM14.748 16.177c0.002 0 0.003 0 0.005 0 0-0.001 0-0.001 0-0.002zM14.071 16.4l-0.151 0.050c-0.038 0.078-0.030 0.146 0.008 0.2zM13.927 16.65l-0.124 0.217c-0.001-0-0.002-0.001-0.002-0.001l-0.038 0.12 0.532-0.229c-0.154 0.026-0.303-0.018-0.367-0.108zM14.294 16.758c0.078-0.013 0.157-0.044 0.227-0.098zM13.762 16.986l-0.109 0.047c-0.027 0.109-0.021 0.199 0.008 0.271zM13.803 16.867v-0.008l-0.002 0.006c0.001 0.001 0.001 0.001 0.002 0.002zM12.718 21.127c-0.091 0.208-0.266 0.35-0.447 0.421l-0.043 0.111 0.792-0.427c-0.111-0.017-0.216-0.054-0.302-0.105zM11.405 22.961l0.354-0.029c-0.084-0.051-0.152-0.122-0.191-0.198zM11.569 22.734l0.131-0.182-0.138-0.054c-0.042 0.071-0.034 0.155 0.007 0.235zM11.759 22.932c0.002 0.001 0.003 0.002 0.005 0.003-0.001-0.001-0.002-0.002-0.003-0.003zM11.118 23.359c-0.018 0.022-0.057 0.061-0.104 0.105l0.284 0.047c-0.076-0.028-0.139-0.084-0.18-0.152zM11.298 23.511c0.007 0.003 0.015 0.005 0.023 0.007-0-0.001-0-0.002-0.001-0.003zM10.654 24.108c0.002-0 0.003-0.001 0.005-0.001l-0.005 0c0 0 0 0.001 0 0.001zM12.27 22.925c0-0 0-0 0.001-0s-0.001-0.001-0.001-0.001zM12.374 22.82c0.001-0.002 0.003-0.003 0.004-0.005l-0.017-0.007c0.004 0.004 0.008 0.008 0.012 0.012zM12.623 22.919c0.028 0.001 0.057 0.001 0.088-0.002-0.028-0.003-0.058-0.002-0.088 0.002zM12.214 23.534c-0.064 0.047-0.127 0.094-0.19 0.142 0.096 0.006 0.2-0.026 0.288-0.11zM12.023 23.676c-0.029-0.002-0.057-0.007-0.084-0.016l0.040 0.048c0.014-0.011 0.029-0.022 0.044-0.033zM11.939 23.66l-0.003-0.003c-0.001 0.001-0.001 0.001-0.002 0.002 0.001 0 0.003 0.001 0.004 0.001zM11.702 23.922c-0.085 0.067-0.167 0.133-0.247 0.199 0.159 0.043 0.361 0.009 0.515-0.181zM11.455 24.121c-0.002-0.001-0.004-0.001-0.007-0.002l0.003 0.004c0.001-0.001 0.002-0.002 0.003-0.003zM11.448 24.119l-0.003-0.005c-0.001 0.001-0.001 0.002-0.001 0.003 0.001 0 0.003 0.001 0.004 0.001zM11.058 24.456c-0.039 0.033-0.081 0.069-0.116 0.1 0.047 0.133 0.22 0.23 0.328 0.167zM10.774 24.835c-0.001 0.018-0.002 0.036-0.004 0.055-0.002 0.017-0.005 0.035-0.008 0.053 0.034 0.004 0.069 0.001 0.1-0.011zM14.038 19.692c0.002-0.003 0.005-0.006 0.007-0.010l-0.499-0.205c0.121 0.141 0.308 0.222 0.492 0.215zM14.403 17.395c0.001-0.001 0.001-0.001 0.002-0.002l-0.002-0.002c-0 0.001-0 0.002-0 0.003zM15.484 17.702c-0.001 0.002-0.001 0.004-0.001 0.007 0 0 0.004 0.003 0.008 0.005l0.004 0.002zM14.893 18.742c-0.001 0.013-0.001 0.026-0.001 0.038 0.007 0 0.012 0.002 0.019 0.002zM15.069 20.568c0.025 0.018 0.051 0.033 0.080 0.043l-0.079-0.045c-0 0.001-0 0.001-0.001 0.002zM15.118 20.94c0 0 0.001 0.001 0.001 0.001s0.001-0 0.001-0zM14.058 20.584l-0.005-0.002c0 0.002 0.001 0.003 0.001 0.005 0.001-0.001 0.002-0.002 0.004-0.003zM14.244 20.367c0-0 0-0.001 0.001-0.001h-0.003c0.001 0 0.002 0.001 0.003 0.001zM13.495 20.7c0.001 0 0.002 0.001 0.003 0.001l-0.003-0.002c-0 0 0 0.001 0 0.001zM18.609 16.669c0-0.001 0.001-0.002 0.001-0.003v0.004c0.002 0.002 0.003 0.003 0.005 0.005 0.152-0.008 0.288-0.007 0.411-0.001-0.060-0.143-0.075-0.327-0.033-0.49l-0.674 0.462c0.094-0.003 0.183-0.004 0.259-0.004 0.011 0.007 0.022 0.017 0.032 0.028zM18.318 16.645c-0.047 0.002-0.096 0.004-0.145 0.007 0.008 0.024 0.017 0.047 0.029 0.073zM18.993 16.184l0.001-0c-0-0-0-0-0.001-0s-0 0-0 0.001zM18.993 16.183c0.021-0.080 0.055-0.155 0.105-0.217-0.191-0.082-0.361-0.239-0.405-0.449-0.251 0.026-0.429-0.013-0.549-0.091l0.082 0.835c0.155-0.17 0.493-0.201 0.767-0.077zM18.225 16.26c-0.002 0.002-0.004 0.004-0.006 0.007 0.002 0.003 0.005 0.006 0.007 0.008zM18.144 15.425v-0c-0 0-0 0-0 0s0 0 0 0zM18.693 15.517c0-0 0 0 0.001 0l-0.001-0.001c0 0 0 0.001 0 0.001zM19.098 15.966c0.007 0.003 0.014 0.006 0.021 0.009l-0.008-0.025c-0.004 0.005-0.009 0.010-0.013 0.015zM19.026 16.674c0.013 0.030 0.026 0.059 0.043 0.084l0.041-0.079c-0.027-0.002-0.055-0.004-0.084-0.005zM20.766 17.032c0.198 0.050 0.387 0.126 0.555 0.216 0.046-0.002 0.092-0.004 0.137-0.004-0.137-0.156-0.191-0.356-0.158-0.535zM21.3 16.709l0.001-0.001c-0-0-0.001-0-0.001-0s-0 0.001-0 0.001zM24.913 18.091c0.001-0.003 0.003-0.006 0.004-0.009l-0.008 0.008c0.001 0 0.003 0 0.004 0zM26.735 18.128c0.001-0.001 0.001-0.002 0.002-0.003l-0.004-0.001c0 0.001 0.001 0.002 0.002 0.004zM26.933 17.647l-0.598-0.375c0.050 0.25 0.261 0.359 0.598 0.375zM26.426 16.66l-0.001-0.001c-0 0-0 0.001-0 0.001s0.001-0 0.001-0zM25.746 17.678c-0.002 0.003-0.004 0.006-0.006 0.009 0.004 0.001 0.007 0.003 0.011 0.004zM25.014 17.758c-0.001 0.002-0.002 0.003-0.003 0.005 0.002 0.001 0.004 0.002 0.006 0.003zM24.685 16.803l-0.001-0.003c-0 0.001-0 0.002-0.001 0.003s0.001 0 0.002 0zM20.623 16.027c-0.005 0.003-0.009 0.005-0.014 0.008 0.002 0.001 0.008 0.003 0.013 0.006l0.004 0.001zM19.567 15.802l0.001-0.002c-0-0-0.001-0-0.001-0s0 0.001 0 0.002zM17.546 13.991l0.336-0.050c-0.004-0.011-0.007-0.022-0.009-0.034l-0.262-0.006c-0.026 0.027-0.047 0.058-0.064 0.090zM18.641 14.436c0.033-0.048 0.056-0.1 0.073-0.154-0.030 0.050-0.055 0.101-0.073 0.154zM20.509 13.771c0.105 0.133 0.118 0.308 0.007 0.484 0.001 0.002 0.003 0.004 0.004 0.007 0.36 0.099 0.716 0.211 1.066 0.331 0.011-0.059 0.046-0.123 0.1-0.178 0.023-0.178-0.077-0.367-0.233-0.448-0.433-0.217-0.275-0.767-0.558-0.875-0.275-0.108-0.541-0.3-0.558-0.5-0.133 0.275-0.050 0.517 0.142 0.692 0.091 0.079 0.061 0.28 0.032 0.488zM21.076 14.513l0.152 0.055-0.11-0.126c-0.016 0.023-0.029 0.047-0.042 0.071zM21.971 15.426c0.002-0 0.003-0.001 0.005-0.001l-0.014-0.015c0.003 0.005 0.006 0.011 0.009 0.017zM22.636 15.708c0.010-0.003 0.021-0.005 0.031-0.008l-0.023-0.034c-0.003 0.014-0.006 0.028-0.008 0.041zM22.846 16.247c0.001 0 0.002 0.001 0.003 0.001l0.002-0.006c-0.002 0.002-0.004 0.003-0.005 0.005l0-0zM24.774 15.684c0.414 0.052 0.718-0.005 0.928-0.143 0.003 0.033 0.009 0.064 0.016 0.094 0.026-0.015 0.050-0.031 0.073-0.049l-0.084-0.049c0.078-0.053 0.144-0.116 0.196-0.19 0.005 0.002 0.010 0.003 0.015 0.005-0.001-0.007-0.003-0.013-0.005-0.019 0.178-0.265 0.198-0.651 0.099-1.088 0.046 0.050 0.121 0.077 0.207 0.085-0.003-0.045-0.007-0.090-0.013-0.134l-0.196 0.045c-0.045-0.196-0.112-0.402-0.202-0.611 0.006-0.023 0.012-0.047 0.016-0.071l-0.022-0.051c-0.012 0.010-0.025 0.019-0.036 0.029-0.041-0.089-0.084-0.179-0.131-0.269 0.020 0.003 0.042 0.004 0.066 0.002l-0.016-0.036-0.053 0.029c-0.039-0.073-0.080-0.145-0.123-0.218 0.022-0.023 0.039-0.048 0.050-0.075-0.042-0.018-0.082-0.031-0.121-0.041-0.055-0.088-0.112-0.175-0.173-0.261-0.165-0.235-0.349-0.463-0.55-0.675-0.039-0.041-0.076-0.081-0.113-0.122 0.003-0.003 0.006-0.006 0.008-0.009 0.020-0.004 0.041-0.009 0.064-0.015l-0.017-0.020-0.029 0.016c0.004-0.005 0.008-0.009 0.012-0.014-0.021 0.005-0.041 0.012-0.060 0.019-0.319-0.35-0.573-0.687-0.767-1.013 0.009-0.011 0.018-0.022 0.026-0.034 0.048 0.028 0.106 0.049 0.172 0.058l-0.113-0.15-0.164-0.409c-0.060 0.106-0.075 0.208-0.053 0.296-0.115-0.222-0.205-0.438-0.269-0.648 0.059 0.096 0.157 0.189 0.283 0.255l-0.126-0.313-0.168-0.032c-0.005 0-0.011 0-0.016 0.001-0-0.001-0.001-0.002-0.001-0.004l-0.020-0.004c0.001 0.003 0.002 0.006 0.003 0.008-0.211 0.007-0.405 0.027-0.587 0.063-0.076 0.142-0.13 0.305-0.149 0.462-0.075 0.583-0.916 0.783-0.45 1.675 0.1-0.567 0.475-0.883 0.775-0.9 0.187-0.016 0.434-0.044 0.639-0.153-0.095 0.232-0.053 0.536 0.111 0.753 0.163 0.223 0.422 0.328 0.654 0.261-0.168 0.239-0.138 0.634 0.096 0.939 0.084 0.112 0.224 0.182 0.377 0.215-0.047 0.059-0.090 0.122-0.127 0.185-0.25 0.417-1.008-0.117-1.266 0.441 0.35-0.15 0.7 0.167 0.866 0.275 0.261 0.17 0.653 0.217 0.975 0.105-0.040 0.111-0.056 0.215-0.050 0.304 0.004 0.127 0.092 0.327 0.226 0.506-0.156-0.039-0.319-0.043-0.434-0.014-0.3 0.083-0.875-0.008-1-0.333-0.117 0.258 0.042 0.542 0.475 0.683 0.261 0.078 0.311 0.237 0.273 0.359zM22.784 9.922c0.1-0.187 0.24-0.337 0.398-0.391-0.125-0.046-0.213-0.173-0.247-0.356-0.493 0.156-0.993 0.531-1.433 1.443 0.386-0.391 0.79-0.6 1.282-0.696zM22.934 9.175c0.114-0.036 0.227-0.061 0.34-0.078-0.003-0.152 0.005-0.301 0.025-0.447 0.045 0.008 0.096 0.010 0.152 0.002l0.002-0.006c0.001 0.001 0.002 0.003 0.003 0.004l-0-0.013 0.126-0.41-0.197 0.066c-0.021 0.069-0.025 0.132-0.015 0.187-0.014-0.003-0.028-0.005-0.041-0.007 0.047-0.245 0.123-0.481 0.221-0.709 0.043 0.027 0.095 0.046 0.157 0.056l0.021-0.068c0.012 0.022 0.028 0.043 0.046 0.063l0.306-0.635-0.361 0.32c-0.028 0.056-0.032 0.112-0.021 0.167-0.028-0.019-0.055-0.033-0.083-0.046 0.096-0.202 0.21-0.396 0.335-0.584 0.065-0.003 0.131-0.005 0.202-0.006l0.051-0.106v-0.008c-0.016-0.017-0.031-0.032-0.047-0.046 0.096-0.011 0.197-0.020 0.301-0.026l-0.209 0.186c0.179-0.001 0.37 0.003 0.569 0.012-0.009-0.074-0.022-0.146-0.042-0.21 0.239-0.004 0.491 0.002 0.745 0.017-0.072-0.074-0.113-0.149-0.129-0.223 0.064-0.023 0.122-0.048 0.175-0.075-0.060-0.022-0.119-0.040-0.177-0.055 0.023-0.122 0.114-0.24 0.261-0.346 0.027-0 0.055-0 0.082-0-0.019-0.006-0.037-0.012-0.056-0.018 0.122-0.083 0.277-0.16 0.46-0.225-0.694-0.366-1.853 0.114-2.125-0.715-0.119 0.381-0.023 0.61 0.188 0.748-0.672 0.022-1.349 0.208-1.801 0.693-1.224-0.053-2.062 0.128-2.187 0.792 0.941-0.85 2.533-0.15 3.174-0.325 0.038-0.010 0.082-0.018 0.131-0.026-0.005 0.009-0.010 0.017-0.015 0.026-0.094 0.187-0.121 0.36-0.082 0.491-0.143 0.023-0.265 0.152-0.343 0.393-0.067 0.222-0.059 0.41 0.017 0.53-0.119 0.073-0.185 0.233-0.175 0.478 0 0.065 0.006 0.126 0.017 0.182zM24.246 7.033c-0.032 0-0.065-0-0.096 0l-0.072 0.149zM23.772 7.816l-0.005 0.011c-0.021-0.001-0.042-0.003-0.061-0.006l-0.125 0.406 0.694-0.233c-0.201 0.024-0.396-0.056-0.503-0.178zM24.275 7.994c0.076-0.009 0.153-0.032 0.226-0.075-0-0-0-0.001-0-0.001zM23.182 9.531c0.042 0.015 0.087 0.022 0.137 0.018-0.002-0.013-0.005-0.026-0.007-0.039-0.044-0-0.088 0.007-0.13 0.022zM23.698 10.204l0.039 0.097c0.009-0.016 0.019-0.033 0.031-0.049l0.12 0.023c-0.069-0.016-0.132-0.041-0.19-0.071zM23.888 10.274c0.017 0.004 0.035 0.007 0.053 0.010zM25.267 12.667c0.040 0.004 0.078-0.002 0.114-0.014l-0.033-0.038zM25.079 15.79c0.044-0.002 0.088-0.004 0.134-0.009l-0.071-0.073c-0.024 0.024-0.045 0.052-0.063 0.081zM26.123 15.114c0.004-0.014 0.009-0.028 0.013-0.043l-0.086-0.005c0.022 0.018 0.047 0.033 0.073 0.048zM26.334 15.185c0.001 0 0.002 0 0.003 0.001l-0.003-0.002c0 0 0 0.001 0 0.001zM26.652 14.238c0.003-0.002 0.006-0.004 0.010-0.006l-0.012 0.001c0.001 0.002 0.001 0.003 0.002 0.005zM24.643 11.694l-0.396-0.525c0.079 0.264 0.197 0.472 0.396 0.525zM25.095 11.605c0.003-0.001 0.005-0.003 0.008-0.004l-0.011 0c0.001 0.001 0.002 0.002 0.003 0.004zM23.397 9.533c0.009-0.002 0.018-0.004 0.027-0.008-0.016-0.005-0.031-0.008-0.047-0.010 0.006 0.006 0.013 0.012 0.020 0.018zM24.757 7.604c0.002-0.005 0.003-0.011 0.005-0.016l-0.012-0.003c0.002 0.006 0.004 0.013 0.007 0.019zM25.958 7.139c0.006 0.001 0.011 0.001 0.017 0.002-0.004-0.002-0.008-0.003-0.012-0.005-0.002 0.001-0.004 0.002-0.005 0.003zM26.352 5.841c0.321-0.089 0.704-0.149 1.122-0.164-0.111-0.086-0.247-0.146-0.395-0.166l-0.004-0c-0.393-0.081-0.422-0.326-0.263-0.505-0.365-0.252-0.728-0.558-0.683-0.823 0.357 0.138 0.734 0.34 1.099 0.624 0.029-0.003 0.059-0.005 0.089-0.005 0.099-0.108 0.194-0.199 0.287-0.278-0.365-0.174-0.848-0.391-1.334-0.549 0.087-0.067 0.217-0.127 0.4-0.18 0.451 0.135 0.77 0.438 0.988 0.685 0.102-0.081 0.2-0.146 0.296-0.197 0.018 0.021 0.037 0.039 0.055 0.060 0.002-0.001 0.016-0.008 0.030-0.014l0.013-0.005c-0.021-0.021-0.040-0.040-0.061-0.060 0.206-0.103 0.402-0.144 0.599-0.153-0.085-0.29-0.128-0.584-0.074-0.826 0.106 0.093 0.217 0.185 0.344 0.266 0.338 0.207 0.394 0.473 0.551 0.626 0.184 0.020 0.379 0.033 0.592 0.022-0.389-0.472-0.863-0.914-1.324-1.231 0.029-0.030 0.061-0.057 0.097-0.082 0.379 0.297 0.709 0.606 1.068 0.782 0.243 0.117 0.492 0.284 0.756 0.434 0.001-0 0.001-0 0.002-0 0.5-0.15 0.85-0.108 1.116 0.017 0.002-0.002 0.005-0.003 0.008-0.005 0.061 0.027 0.118 0.058 0.173 0.092-0.011-0.019-0.022-0.036-0.033-0.054l-0.139-0.039c0.026-0.017 0.053-0.033 0.080-0.049-0.561-0.788-1.483-0.591-1.914-1.037-0.708-0.733-2.499-1.416-3.249-0.908 0.772-0.039 1.335 0.211 1.806 0.53-0.040 0.030-0.078 0.065-0.115 0.106-0.448-0.247-0.856-0.342-1.125-0.186 0.441 0.027 0.718 0.206 0.971 0.421-0.063 0.132-0.111 0.295-0.138 0.495-1.064-0.783-2.225-0.976-2.598-0.441-0.602-0.165-1.267-0.105-1.427 0.349 0.756-0.368 1.467-0.015 2.008 0.209-0.129 0.043-0.247 0.115-0.342 0.219-0.478-0.092-0.894-0.070-1.099 0.189 0.195-0.080 0.547-0.090 0.97-0.001-0.094 0.185-0.139 0.432-0.111 0.751-1.8-0.725-3.091-0.483-3.366 0.242-0.3 0.792 0.816 1.233 1.008 0.725-0.2 0.083-0.9-0.15-0.533-0.6 0.352-0.433 2.091-0.132 3.801 0.714zM31.805 4.065c0.020 0.028 0.039 0.057 0.058 0.088l1.689 0.477c0.022-0.12 0.061-0.227 0.115-0.325l-0.003 0.005c-0.525-0.485-1.232-0.612-1.86-0.246zM33.665 4.311l-0.057 0.335 0.584 0.165c0.199-0.234 0.583-0.11 0.781 0.139-0.142-0.557-0.55-0.981-1.057-0.839-0.107 0.034-0.194 0.105-0.249 0.198l-0.001 0.002zM34.973 4.95c0 0.001 0 0.002 0.001 0.002s0.001-0 0.001-0c-0.001-0.001-0.001-0.001-0.002-0.002zM34.192 4.811c-0.074 0.086-0.122 0.221-0.126 0.416l0.301-0.088c-0.017 0.077-0.015 0.167 0.015 0.271l0.518-0.4-0.046-0.013 0.101-0.029 0.010-0.008c-0.048 0.009-0.089 0.021-0.129 0.036l0.006-0.002-0.009-0.002c0.040-0.015 0.088-0.029 0.137-0.037l0.005-0.001c-0.119-0.12-0.306-0.131-0.444-0.047zM33.608 4.646l-0.055-0.016c-0.011 0.058-0.018 0.125-0.018 0.194 0 0.060 0.005 0.119 0.015 0.176l-0.001-0.006zM27.317 4.802l0.274 0.093 0.018-0.037c-0.086-0.033-0.186-0.053-0.291-0.056l-0.001-0zM27.475 5.677l0.118 0.25c-0.025-0.092-0.041-0.178-0.118-0.25zM25.941 2.995c0.476-0.009 1.062 0.32 1.723 0.982-0.663-0.508-1.148-0.417-1.705-0.725-0.12-0.067-0.252-0.124-0.391-0.17 0.115-0.055 0.239-0.085 0.372-0.087zM30.702 4.452c0.052 0 0.109 0.006 0.172 0.017l-0.333 0.333c-0.299-0.109-0.202-0.353 0.161-0.35zM29.599 4.469l0.008 0.475c-0.717-0.183-0.292-0.492-0.008-0.475zM31.671 4.644c0.125-0.004 0.294 0.015 0.503 0.067l-0.633 0.167c-0.206-0.109-0.145-0.226 0.131-0.234zM31.104 5.009c0.053 0.001 0.111 0.007 0.17 0.018l-0.167 0.417c-0.569-0.204-0.378-0.44-0.004-0.435zM34.778 5.020c-0.138 0.063-0.251 0.159-0.332 0.278l-0.002 0.003c0.077-0.116 0.181-0.209 0.303-0.271l0.005-0.002zM30.167 5.075c0.062 0.001 0.134 0.007 0.216 0.019l-0.258 0.342c-0.335-0.153-0.39-0.37 0.043-0.36zM32.361 5.273c0.152 0 0.337 0.058 0.529 0.187l-1.375 0.575c0.008-0.4 0.242-0.6 0.517-0.6 0.058-0.104 0.177-0.162 0.329-0.162zM34.443 5.302c-0.011 0.016-0.023 0.036-0.034 0.056l-0.002 0.004c0.013-0.024 0.025-0.044 0.038-0.063l-0.002 0.003zM33.186 5.456c0.16 0.002 0.324 0.053 0.469 0.158 0.018 0.011 0.035 0.024 0.052 0.038l-0.001 0.002c0.049 0.041 0.095 0.089 0.137 0.143 0 0 0.003 0.003 0.005 0.006l0.002 0.002c0.016 0.020 0.031 0.041 0.045 0.064 0.010 0.016 0.023 0.035 0.034 0.056l0.003 0.005c0.005 0.009 0.011 0.018 0.016 0.028 0.017 0.030 0.034 0.067 0.049 0.104l0.002 0.007c-0.126 0.047-0.234 0.102-0.335 0.167l0.007-0.004c-0.002 0.001-0.004 0.003-0.006 0.004-0.054 0.035-0.1 0.068-0.144 0.103l0.004-0.003v-0.004c-0.086 0.063-0.17 0.131-0.249 0.201l-0.010 0.020c-0.002-0.002-0.003-0.004-0.005-0.006-0.093 0.084-0.178 0.169-0.245 0.248-0.65-0.15-0.642-0.875-0.333-1.15 0.134-0.125 0.316-0.19 0.504-0.188zM33.26 6.546c0.005-0.004 0.010-0.009 0.015-0.013l0.159-0.325c0.020 0.042 0.050 0.082 0.089 0.119v0.004c0.047-0.034 0.094-0.066 0.141-0.096-0.005 0.003-0.003 0.002-0.001 0l0.007-0.004c0.114-0.072 0.227-0.131 0.328-0.163-0.016-0.039-0.033-0.076-0.052-0.111-0.008-0.014-0.013-0.024-0.018-0.033l0.003 0.005c-0.012-0.021-0.024-0.041-0.037-0.061-0.017-0.025-0.031-0.046-0.047-0.066l0.002 0.002c-0.002-0.003-0.004-0.005-0.006-0.008-0.042-0.052-0.087-0.099-0.136-0.141l-0.001-0.001 0-0.001c-0.008-0.007-0.016-0.013-0.024-0.019s-0.018-0.015-0.027-0.022c-0.385-0.246-0.88 0.368-0.395 0.932zM30.74 5.693c0.088-0.002 0.188 0.005 0.292 0.026l-0.542 0.192c-0.169-0.112-0.014-0.211 0.249-0.218zM38.172 5.842c-0.051 0.020-0.103 0.044-0.156 0.072 0.006-0.023 0.010-0.046 0.010-0.072 0.050 0.002 0.099 0.002 0.146-0zM31.563 6.045c0.176-0.011 0.373 0.046 0.545 0.165l-1.050 0.508c-0.026-0.443 0.212-0.654 0.505-0.673zM30.363 6.159c0.047-0.001 0.096 0.005 0.145 0.018l-0.408 0.5c-0.314-0.19-0.066-0.513 0.264-0.518zM35.24 6.394l-0.092 0.583c-0.45-0.15-0.467-0.517 0.092-0.583zM36.29 6.444c0.583 0.050 0.458 0.925-0.333 0.858l0.001-0.004c0.181-0.007 0.218-0.201 0.24-0.529 0.003-0.050 0.010-0.095 0.019-0.138zM31.066 6.735c0.817 0 1.333 0.516 1.333 1.075 0 0.438-0.284 0.85-0.808 1.007v0.001c0.001 0.002 0.001 0.002 0.001 0.001l-0.002-0.002c-0.143 0.043-0.304 0.068-0.482 0.068-0.833 0-1.308-0.641-1.308-1.141 0-0.492 0.267-1 1.266-1zM31.59 8.817c0-0 0-0 0.001-0l0.005-0.175-0.088 0.055c0.026 0.046 0.053 0.085 0.083 0.121l-0.001-0.001zM31.508 8.697c-0.067-0.117-0.107-0.257-0.107-0.407 0-0.218 0.085-0.417 0.223-0.564l-0 0c-0.15-0.242-0.6-0.217-0.6 0.083s-0.258 0.383-0.275 0.6c-0.025 0.217 0.483 0.175 0.5 0.45zM31.624 7.727l-0.028 0.915 0.287-0.18c-0.013-0.126 0.012-0.265 0.064-0.372-0.129-0.112-0.256-0.259-0.323-0.364zM31.947 8.090c0.001 0.001 0.001 0.001 0.002 0.002l0-0.007c-0.001 0.002-0.001 0.004-0.002 0.005zM31.949 8.092l-0.005 0.331 0.279-0.175c-0.075-0.004-0.175-0.069-0.274-0.156zM32.223 8.248c0.044 0.002 0.080-0.015 0.101-0.063zM31.944 8.424l-0.061 0.039c0.007 0.070 0.026 0.136 0.058 0.19zM33.649 6.935l-0.5 0.442c0.175-0.226 0.346-0.366 0.5-0.442zM31.218 6.936c-0.159 0-0.317 0.088-0.443 0.191h0.8c-0.109-0.139-0.233-0.191-0.357-0.191zM29.526 7.019c0.093 0.077 0.185 0.167 0.274 0.274-0.010 0-0.022 0-0.035 0-0.333 0-0.647-0.081-0.923-0.225l0.011 0.005zM28.199 7.127c0.451 0.167 0.926 0.874 1.517 0.658-0.405 0.217-0.956 0.176-1.412 0.071 0.017-0.021 0.029-0.036 0.041-0.051l-0.004 0.005c0.262-0.226-0.098-0.455-0.732-0.635 0-0 0.001-0 0.001-0zM27.028 7.262c0.046 0.043 0.090 0.089 0.131 0.14-0.112-0.049-0.264-0.093-0.438-0.133 0.1 0.003 0.203 0 0.307-0.008zM30.249 7.377c-0.017 0.242 0.108 0.55 0.5 0.2zM27.316 7.897c0 0 0.001 0 0.001 0l0.124 1.033c-0.107 0.067-0.21 0.154-0.304 0.27 0.002-0.111 0.008-0.227 0.019-0.349 0-0 0.001-0.001 0.002-0.001l-0.001-0.001c0.018-0.193 0.047-0.399 0.089-0.622 0.010-0.004 0.019-0.007 0.029-0.010l-0.021-0.027c0.019-0.095 0.039-0.193 0.062-0.294zM30.383 8.085l-0.058 0.2c0.050-0.058 0.058-0.133 0.058-0.2zM24.509 8.327l0.68 0.263c-0.033 0.034-0.066 0.066-0.099 0.098l-0.001 0.001c-0.304-0.068-0.496-0.243-0.58-0.362zM36.889 8.352c-0.115 0.32-0.136 0.848 0.024 1.198-0.182-0.028-0.368-0.077-0.55-0.143 0.017-0.121 0.048-0.227 0.109-0.306 0.15-0.2 0.35-0.5 0.417-0.75zM24.342 8.627c0.066 0.153 0.092 0.287 0.091 0.405-0.219 0.031-0.462 0.025-0.718 0.032zM33.321 8.641c0.633 0.152 1.161 0.319 1.674 0.515l-0.092-0.031c-0.136 0.106-0.25 0.227-0.336 0.357-0.314-0.144-0.501-0.475-0.785-0.489-0.167-0.012-0.307-0.183-0.461-0.352zM26.128 8.79l0.026 0.016c0.048 0.046 0.109 0.081 0.178 0.107l0.806 0.486c-0.002-0.058-0.002-0.118-0.001-0.179 0.121-0.037 0.228-0.065 0.328-0.087l0.236 1.971c-0.322-0.467-0.543-0.971-0.564-1.701-0.784 0.363-1.016 0.008-1.043-0.553 0.011-0.020 0.022-0.040 0.033-0.060zM27.138 9.403c0.001-0.001 0.002-0.001 0.004-0.002l-0.004-0.002c0 0.001 0 0.003 0 0.004zM35.926 8.886c-0.027 0.079-0.042 0.177-0.040 0.302-0.027-0.015-0.053-0.030-0.079-0.046-0.032-0.019-0.074-0.042-0.121-0.066 0.096-0.055 0.179-0.115 0.24-0.191zM26.005 9.008c0.628 0.907-0.352 1.336-0.911 0.753 0.474-0.153 0.723-0.441 0.911-0.753zM33.024 9.476c0.252 0.011 0.374 0.135 0.543 0.252zM26.35 9.493l0.858 0.55c-0.195 0.143-0.37 0.216-0.518 0.238l0.751 0.428c-0.388 0.264-0.864 0.151-0.777-0.425-0.445 0.050-0.625-0.382-0.315-0.792zM26.665 10.285c0.008-0.001 0.017-0.002 0.026-0.003l-0.024-0.014c-0.001 0.006-0.001 0.011-0.002 0.017zM24.606 9.859l1.286 0.692c-0.141 0.085-0.283 0.123-0.419 0.124l1.285 0.060c-0.275 0.875-1.441 0.783-1.441-0.067l0.091 0.004c-0.402-0.032-0.738-0.388-0.814-0.812 0.004-0 0.008-0.001 0.012-0.001zM25.408 10.672c0.022 0.002 0.043 0.003 0.065 0.003zM25.517 10.035l1.142 0.483c-0.692 0.308-0.992-0.108-1.142-0.483zM35.127 10.386c0.007 0.002 0.014 0.005 0.020 0.007-0.008 0.026-0.016 0.049-0.024 0.067zM23.758 10.734c0.010 0.011 0.021 0.022 0.033 0.032-0.004 0.002-0.007 0.005-0.011 0.007-0.008-0.013-0.015-0.026-0.022-0.039zM37.739 10.86c0 0.183 0.417 0.267 0.55 0.15v0.375c-0.308 0.008-0.567-0.283-0.55-0.525zM28.508 11.218l-0.046 0.488c0.038-0.151 0.125-0.353 0.046-0.488zM28.462 11.706c-0.014 0.054-0.021 0.102-0.013 0.137zM27.721 11.26l0.012 0.098c-0.317 0.408-1.043 0.628-1.391-0.091zM26.942 11.734l0.853 0.146 0.059 0.489c-0.13 0.084-0.272 0.141-0.421 0.148-0.025 0.001-0.049 0.002-0.071 0.001l0.532 0.184 0.070 0.581c-0.407-0.007-0.616-0.356-0.605-0.765-0.362-0.010-0.448-0.276-0.417-0.784zM27.358 12.519c0.001 0 0.002-0 0.004 0l-0.004-0.001c0 0 0 0.001 0 0.001zM29.674 11.834c0.142 0.217 0.183 0.633-0.233 0.858zM25.592 12.017l1.366 0.225c-0.883 0.758-1.425 0.358-1.366-0.225zM29.050 12.092l-0.049 0.381c0.058-0.126 0.13-0.257 0.049-0.381zM29.001 12.474c-0.042 0.093-0.077 0.184-0.035 0.268zM39.16 12.318c0.020 0.158 0.063 0.304 0.212 0.407-0.25 0-0.574 0.097-0.694 0.426 0.021-0.105 0.010-0.194-0.013-0.266 0.21-0.144 0.378-0.336 0.491-0.559l0.004-0.008zM26.025 12.667l1.383 0.225c-0.8 0.841-1.35 0.258-1.383-0.225zM37.937 12.981c0.001 0.001 0.002 0.002 0.002 0.003-0.005 0-0.008 0.001-0.010 0.001l0.003-0c-0-0-0.001-0-0.001-0.001zM27.733 13.242l0.243 0.149 0.077 0.643c-0.296-0.19-0.413-0.536-0.32-0.791zM38.656 13.259c-0.044 0.171-0.131 0.318-0.25 0.433l-0 0zM26.409 13.284l1.341 0.425c-0.642 0.633-1.4 0.4-1.341-0.425zM39.431 13.517l0.417 0.042c-0.192 0.042-0.325 0-0.417-0.042zM32.632 13.549c0.011 0.003 0.022 0.005 0.033 0.008 0.293 0.134 0.424 0.549-0.033 0.693zM35.273 13.701c0.067 0.117 0.167 0.341-0.067 0.525zM36.174 13.723c0.059 0.001 0.123 0.043 0.192 0.103l-0.242-0.092c0.017-0.007 0.033-0.011 0.051-0.010zM33.582 13.825c0.033 0.125 0.042 0.442-0.167 0.617zM31.294 13.901c0.402-0.013 0.742 0.345 0.558 0.652l-0.362-0.103c0.008 0.020 0.016 0.041 0.023 0.062l-0.548-0.512c0.108-0.066 0.22-0.096 0.328-0.1zM19.393 14l0.007 0.007c-0.003-0-0.005-0.001-0.008-0.001 0-0.002 0-0.003 0.001-0.005zM29.080 14.065l0.003 0.002c-0.001 0-0.002 0.001-0.003 0.001-0-0.001-0-0.002-0.001-0.003zM19.385 14.074l0.107 0.018 0.601 0.558c-0.552 0.039-0.745-0.16-0.708-0.576zM32.136 14.151c0.446 0.004 1.216 0.332 0.785 0.706l-0.505-0.144-0.534-0.496c0.045-0.047 0.139-0.067 0.254-0.066zM20.243 14.184l0.006 0.007c-0.003-0.001-0.006-0.001-0.008-0.002 0.001-0.002 0.001-0.003 0.002-0.005zM38.256 14.2l0.408 0.25c-0.162-0.048-0.299-0.135-0.408-0.25l-0-0zM20.213 14.242l0.102 0.022 0.762 0.853c-0.733 0.21-1.161-0.299-0.863-0.875zM28.016 14.409l0.087 0.040 0.020 0.17c-0.043-0.064-0.079-0.134-0.107-0.21zM19.593 14.592l0.667 0.775c-0.583 0.033-0.883-0.217-0.667-0.775zM26.958 14.65l1.266 0.811 0.001 0.009c-0.297 0.177-0.572 0.224-0.79 0.166l0.847 0.314 0.043 0.357c-0.269 0.203-0.533 0.203-0.719 0.078l0.576 0.531c-0.398 0.303-0.76 0.262-0.925 0.070l0.525 0.921c-0.814 0.199-1.040-0.529-0.545-0.946-0.048-0.066-0.074-0.147-0.074-0.237-0.548 0.040-0.847-0.393-0.614-1.058l0.614 1.054c0.003-0.152 0.083-0.328 0.269-0.495l0.057 0.052c-0.126-0.157-0.179-0.393-0.107-0.658-0.316-0.115-0.497-0.466-0.424-0.969zM27.383 15.62c0.017 0.006 0.035 0.012 0.054 0.017l-0.053-0.020c-0 0.001-0 0.002-0.001 0.003zM27.49 16.277c0.034 0.042 0.073 0.079 0.117 0.108zM27.164 16.72c-0 0.001 0 0.003 0 0.004 0.001-0 0.002 0 0.002 0zM27.238 16.962c0.006 0.009 0.013 0.017 0.020 0.025l-0.016-0.029c-0.001 0.001-0.002 0.002-0.004 0.003zM21.326 15.383l0.125 1.041c-0.542-0.233-0.442-0.825-0.125-1.041zM23.653 15.426l0.072 0.027 0.658 1.097c-0.684 0.212-1.169-0.5-0.73-1.124zM22.226 15.675l0.042 1.3c-0.375-0.292-0.542-0.8-0.042-1.3zM28.067 16.45l0.316 0.323 0.037 0.312c-0.233-0.114-0.341-0.328-0.353-0.635zM15.544 16.641c-0.048 0.335-0.332 0.589-0.677 0.589-0.105 0-0.205-0.024-0.294-0.066l0.004 0.002zM27.883 17.1l0.565 0.222 0.060 0.504c-0.391 0.124-0.785-0.228-0.625-0.726zM28.772 17.172l0.002 0.002c-0.001-0-0.001-0-0.002-0s-0-0.001-0-0.002zM27.958 17.666l0.099 1.018c0.087-0.132 0.225-0.249 0.417-0.335l-0.2 1.291c-0.341-0.271-0.417-0.651-0.221-0.952-0.188-0.112-0.312-0.314-0.312-0.546 0-0.19 0.083-0.36 0.215-0.476l0.001-0.001zM28.054 18.689c-0.001-0.001 0 0 0.002 0.001l0.003 0.002-0.001-0.007c-0.001 0.002-0.002 0.003-0.003 0.005zM28.433 17.85l0.095 0.14 0.054 0.445c-0.199-0.139-0.208-0.337-0.149-0.586zM13.324 17.98c-0.001 0.015 0 0.029 0.002 0.043-0.005-0.001-0.009-0.002-0.014-0.003 0.004-0.013 0.007-0.027 0.011-0.040zM24.125 18.031c-0.003 0.007-0.006 0.013-0.009 0.020-0.002-0-0.005-0.001-0.008-0.002zM27.317 18.474c-0.117 0.475-0.525 0.592-0.858 0.433zM14.728 18.783c-0.308 0.525-0.816 0.308-0.966 0.042zM14.228 19.108l0.65 0.625c-0.425 0.1-0.783-0.25-0.65-0.625zM26.992 19.374l0.533 0.367c-0.283-0.008-0.492-0.108-0.533-0.367zM27.317 19.724c-0.241 0.391-0.773 0.309-0.99 0.010 0-0 0-0.001 0.001-0.001zM27.083 19.941c0.001 0.005 0 0.010 0.001 0.015l0.624 0.452c-0.015 0.003-0.030 0.005-0.045 0.007-0.175 0.335-0.463 0.409-0.678 0.327 0-0 0-0.001 0-0.001l0.664-0.324c-0.273 0.026-0.52-0.148-0.567-0.371-0.012 0.098-0.057 0.181-0.124 0.246-0.159 0.154-0.435 0.201-0.643 0.098 0.299 0.285 0.254 0.768-0.073 0.751l0.058-0.766c0.002 0.002 0.003 0.004 0.005 0.005zM26.305 20.379l-0.005 0.003c0.005 0.003 0.010 0.004 0.015 0.007-0.003-0.003-0.006-0.006-0.010-0.010zM27.083 20.045c0.003-0.029 0.004-0.058 0.001-0.089l-0.009-0.007c-0.002 0.033 0.001 0.064 0.008 0.096zM27.649 20.416c0.005-0 0.009-0.001 0.014-0.002 0.001-0.002 0.003-0.004 0.004-0.007zM32.832 20.666l0.108 0.167c-0.042-0.042-0.108-0.117-0.108-0.167zM28.050 20.707c-0.117 0.25-0.392 0.425-0.633 0.292zM26.517 20.874c0.119 0.009 0.219 0.036 0.302 0.073l-0.002 0.010c0.004-0.002 0.008-0.005 0.012-0.007 0.384 0.177 0.403 0.594 0.172 0.648zM14.394 21.007l1 0.608c-0.168 0.134-0.389 0.158-0.583 0.1-0.052 0.165-0.125 0.286-0.208 0.369l0.842 0.131c-0.089 0.356-0.441 0.436-0.666 0.277l0.357 0.998c-0.691-0.125-0.583-0.782-0.359-0.999-0.107-0.077-0.186-0.208-0.19-0.391-0.345 0.321-0.859 0.036-0.859-0.334l1.083-0.050c-0.288-0.085-0.516-0.35-0.416-0.708zM14.587 22.1c0.005-0.005 0.011-0.010 0.016-0.015l-0.017-0.003c0 0.006 0.001 0.012 0.001 0.018zM14.777 22.491c0 0 0.001 0 0.001 0.001l-0.001-0.002c-0 0-0 0.001-0.001 0.001zM27.158 21.34c0.742-0.042 0.958 0.633 0.691 0.708zM13.945 21.432c-0.156 0.42-0.469 0.498-0.741 0.42 0.094 0.207 0.013 0.498-0.334 0.538-0.023 0.003-0.049 0.005-0.076 0.005-0.29 0-0.525-0.235-0.525-0.525 0-0.008 0-0.016 0.001-0.023l-0 0.001 0.874-0.016c-0.125-0.047-0.237-0.126-0.316-0.218zM13.144 21.833c0.020 0.007 0.040 0.013 0.060 0.019-0.003-0.007-0.006-0.014-0.009-0.020zM30.249 21.699c-0.050 0.225-0.233 0.333-0.442 0.342zM28.236 21.719c0.411-0.010 0.779 0.341 0.631 0.571l-0.916-0.5c0.094-0.047 0.191-0.069 0.286-0.071zM18.21 21.832l0.287 0.056c-0.006 0.006-0.012 0.011-0.017 0.016l0.001-0.001c-0.093-0.005-0.202-0.021-0.27-0.072zM18.591 21.907l0.003 0c-0.002 0-0.005-0-0.007-0 0.006-0 0.007-0 0.009-0.001l-0.004 0zM29.904 22.208c0.525-0.012 0.334 0.393 0.079 0.466l-0.35-0.433c0.065-0.013 0.122-0.020 0.175-0.026l0 0c0-0 0-0 0-0s0-0 0-0v0c0.034-0.003 0.067-0.006 0.096-0.007zM30.469 22.262c0.024 0 0.045 0.002 0.066 0.005l0.006 0.007c-0-0.002-0.001-0.004-0.001-0.006 0.218 0.029 0.289 0.181 0.278 0.303l-0.002 0.003c0.001 0 0.001 0 0.002 0-0.011 0.109-0.088 0.193-0.185 0.141l-0.417-0.417c0.098-0.026 0.182-0.037 0.253-0.036zM18.145 22.34c0.002-0.006 0-0.002-0.001 0.001l-0.004 0.009c-0.079 0.035-0.19 0.072-0.263 0.090zM20.193 22.873c0.158-0.008 0.267 0.183 0.067 0.375l-0.177-0.336c0.036-0.023 0.075-0.037 0.11-0.039zM11.109 23.028c-0.064 0.101-0.053 0.224 0.005 0.323-0.068-0.052-0.14-0.086-0.214-0.109 0.071-0.070 0.141-0.142 0.209-0.215zM10.288 23.777c-0.044 0.071-0.011 0.168 0.059 0.242l-0.223-0.118c0.055-0.040 0.11-0.082 0.164-0.124zM18.195 23.904c0.035 0 0.074 0.006 0.116 0.020l-0.366 0.392c-0.087-0.117 0.003-0.412 0.251-0.411zM9.829 24.098l0.007 0.004c-0.016 0.011-0.032 0.022-0.049 0.033 0.013-0.012 0.025-0.025 0.041-0.037zM10.042 24.216l0.184 0.101c-0.074-0.008-0.142-0.047-0.184-0.101zM9.52 24.298l0.004 0.002c-0.007 0.004-0.015 0.009-0.022 0.013 0.006-0.005 0.011-0.010 0.017-0.015zM10.688 24.39l0.249 0.041c-0.051 0.061-0.116 0.1-0.184 0.121-0.016-0.061-0.037-0.115-0.066-0.162zM9.757 24.426l0.18 0.097c-0 0.001-0.001 0.001-0.001 0.002-0.072-0.009-0.137-0.046-0.179-0.099zM9.204 24.482l0.004 0.002c-0.013 0.007-0.025 0.013-0.038 0.020 0.011-0.008 0.021-0.016 0.034-0.023zM9.458 24.634l0.132 0.080c-0.052-0.014-0.098-0.042-0.132-0.080zM8.854 24.656l0.011 0.007c-0.023 0.011-0.049 0.023-0.072 0.035 0.017-0.015 0.037-0.029 0.061-0.041zM9.166 24.844l0.029 0.018c-0.011-0.005-0.020-0.011-0.029-0.018zM9.237 24.931l0.004 0.003c-0.001 0.001-0.002 0.002-0.004 0.004 0-0.002-0.001-0.005-0-0.007zM10.117 25.025l0.012 0.006c-0.003 0.002-0.006 0.003-0.008 0.005-0.002-0.003-0.002-0.007-0.004-0.011zM14.735 25.093c0.241-0.015 0.521 0.341 0.317 0.53l-0.417-0.5c0.031-0.019 0.065-0.028 0.099-0.030zM7.896 25.115l0.004 0.001c-0.008 0.003-0.015 0.007-0.023 0.011 0.005-0.004 0.012-0.008 0.019-0.011zM10.245 25.171l0.001 0.002c-0.001-0-0.002-0.001-0.002-0.002 0.001-0 0.001-0 0.002-0.001zM8.604 25.223l0.001 0.004c-0.003 0-0.006 0.001-0.008 0.001 0.002-0.002 0.004-0.003 0.007-0.005zM9.092 25.379l0.003 0.002c-0.001 0-0.002 0-0.003 0.001-0-0.001-0.001-0.002-0.001-0.002zM15.719 25.448l0.75 0.308c-0.311 0.325-0.722 0.133-0.775-0.125l0.001-0c-0-0-0-0-0.001-0-0.012-0.059-0.006-0.122 0.026-0.183zM9.156 25.468l-0.002 0.005c-0.001-0.001-0.002-0.002-0.004-0.003 0.002-0 0.004-0.001 0.006-0.001zM7.088 25.49l0.005 0.002c-0.017 0.008-0.034 0.017-0.052 0.025 0.014-0.010 0.030-0.019 0.047-0.027zM7.97 25.598l0.001 0c-0 0-0 0-0 0s-0-0-0-0zM16.102 25.931l0.167 0.517c-0.114-0.070-0.198-0.231-0.196-0.381l0.005-0.002c-0.001-0-0.003-0.001-0.004-0.001 0.001-0.046 0.010-0.091 0.029-0.132zM6.63 25.94l0 0.001c-0 0-0.001 0-0.001 0s0-0.001 0.001-0.001zM6.579 26.089h0c-0 0-0 0-0 0s0-0 0-0zM5.796 26.248l0.004 0.002c-0.009 0.007-0.017 0.014-0.025 0.021 0.006-0.007 0.013-0.015 0.021-0.023zM6.149 26.376l0.014 0.005c-0.003 0.001-0.006 0.002-0.009 0.003-0.002-0.003-0.003-0.006-0.005-0.008zM5.813 26.695l0 0.002c-0.014 0.007-0.027 0.012-0.041 0.015 0.013-0.005 0.027-0.012 0.040-0.017zM16.685 30.573c0.077 0.003 0.143 0.024 0.184 0.066-0.32-0.175-0.493 0.388-0.277 0.497l-0.498-0.139c0.038-0.275 0.361-0.433 0.591-0.424z"></path>
</svg>
