<!-- Generated by IcoMoon.io -->
<svg version="1.1" xmlns="http://www.w3.org/2000/svg" width="32" height="32" viewBox="0 0 32 32">
<title>by</title>
<path d="M1.209 0.249c0 0.199-0.028 0.249-0.142 0.249-0.121 0-0.142 0.050-0.142 0.284s-0.021 0.284-0.142 0.284c-0.114 0-0.142 0.050-0.142 0.249 0 0.22-0.021 0.249-0.178 0.249s-0.178 0.028-0.178 0.249c0 0.199-0.028 0.249-0.142 0.249-0.121 0-0.142 0.050-0.142 0.284s0.021 0.284 0.142 0.284c0.114 0 0.142 0.050 0.142 0.249 0 0.22 0.021 0.249 0.178 0.249 0.164 0 0.178 0.028 0.178 0.284 0 0.235 0.021 0.284 0.142 0.284 0.114 0 0.142 0.050 0.142 0.249s0.028 0.249 0.142 0.249 0.142 0.050 0.142 0.242c0 0.199 0.028 0.249 0.164 0.27 0.128 0.014 0.164 0.071 0.178 0.284 0.021 0.213 0.050 0.27 0.164 0.27s0.135-0.050 0.135-0.284 0.021-0.284 0.142-0.284c0.114 0 0.142-0.050 0.142-0.249 0-0.22 0.021-0.249 0.178-0.249s0.178-0.028 0.178-0.249c0-0.199 0.028-0.249 0.142-0.249 0.121 0 0.142-0.050 0.142-0.284s0.021-0.284 0.142-0.284c0.114 0 0.142-0.050 0.142-0.249 0-0.22 0.021-0.249 0.185-0.249s0.178-0.021 0.156-0.27c-0.014-0.213-0.050-0.27-0.178-0.284-0.135-0.021-0.164-0.071-0.164-0.27 0-0.192-0.028-0.242-0.142-0.242s-0.142-0.050-0.142-0.249-0.028-0.249-0.135-0.249c-0.114 0-0.142-0.057-0.164-0.27-0.014-0.213-0.050-0.27-0.178-0.284-0.135-0.021-0.164-0.071-0.164-0.27v-0.242h-0.924v0.249zM1.849 1.316c0 0.199 0.028 0.249 0.135 0.249 0.114 0 0.142 0.057 0.164 0.263 0.014 0.22 0.050 0.277 0.185 0.292 0.128 0.021 0.156 0.071 0.156 0.27 0 0.213-0.021 0.242-0.178 0.242s-0.178 0.028-0.178 0.249c0 0.199-0.028 0.249-0.142 0.249-0.121 0-0.142 0.050-0.142 0.284s-0.021 0.284-0.142 0.284-0.142-0.050-0.142-0.284c0-0.256-0.014-0.284-0.178-0.284-0.156 0-0.178-0.028-0.178-0.249 0-0.199-0.028-0.249-0.142-0.249s-0.142-0.050-0.142-0.249 0.028-0.249 0.142-0.249c0.121 0 0.142-0.050 0.142-0.284 0-0.256 0.021-0.284 0.178-0.284s0.178-0.028 0.178-0.249c0-0.199 0.028-0.249 0.142-0.249s0.142 0.050 0.142 0.249zM4.978 0.242c0 0.199-0.028 0.249-0.156 0.27-0.135 0.014-0.171 0.071-0.185 0.284-0.021 0.213-0.050 0.27-0.164 0.27-0.107 0-0.135 0.050-0.135 0.249s-0.028 0.249-0.142 0.249-0.142 0.050-0.142 0.242c0 0.199-0.028 0.249-0.156 0.27-0.135 0.014-0.171 0.071-0.185 0.284-0.021 0.249-0.007 0.27 0.156 0.27s0.185 0.028 0.185 0.249c0 0.199 0.028 0.249 0.142 0.249 0.121 0 0.142 0.050 0.142 0.284s0.021 0.284 0.142 0.284c0.114 0 0.142 0.050 0.142 0.249 0 0.22 0.021 0.249 0.178 0.249s0.178 0.028 0.178 0.249c0 0.199 0.028 0.249 0.142 0.249 0.121 0 0.142 0.050 0.142 0.284s0.021 0.284 0.135 0.284c0.114 0 0.142-0.057 0.164-0.27 0.014-0.213 0.050-0.27 0.185-0.284 0.128-0.021 0.156-0.071 0.156-0.27 0-0.192 0.028-0.242 0.142-0.242s0.142-0.050 0.142-0.249 0.028-0.249 0.142-0.249c0.121 0 0.142-0.050 0.142-0.284 0-0.256 0.021-0.284 0.178-0.284s0.178-0.028 0.178-0.249c0-0.199 0.028-0.249 0.142-0.249s0.142-0.050 0.142-0.256c0-0.192-0.036-0.263-0.142-0.292s-0.142-0.1-0.142-0.277c0-0.213-0.021-0.242-0.178-0.242s-0.178-0.028-0.178-0.249c0-0.199-0.028-0.249-0.142-0.249-0.121 0-0.142-0.050-0.142-0.284s-0.021-0.284-0.142-0.284c-0.114 0-0.142-0.050-0.142-0.249v-0.249h-0.924v0.242zM5.547 1.316c0 0.22 0.021 0.249 0.178 0.249 0.164 0 0.178 0.028 0.178 0.284 0 0.235 0.021 0.284 0.142 0.284 0.114 0 0.142 0.050 0.142 0.249s-0.028 0.249-0.142 0.249-0.142 0.050-0.142 0.249c0 0.22-0.021 0.249-0.178 0.249s-0.178 0.028-0.178 0.284c0 0.235-0.021 0.284-0.142 0.284s-0.142-0.050-0.142-0.284-0.021-0.284-0.142-0.284c-0.114 0-0.142-0.050-0.142-0.249 0-0.22-0.021-0.249-0.178-0.249s-0.178-0.028-0.178-0.242c0-0.199 0.028-0.249 0.164-0.27 0.128-0.014 0.164-0.071 0.178-0.292 0.021-0.206 0.050-0.263 0.164-0.263 0.107 0 0.135-0.050 0.135-0.249s0.028-0.249 0.142-0.249 0.142 0.050 0.142 0.249zM0.64 4.978c0 0.256-0.014 0.284-0.178 0.284-0.156 0-0.178 0.028-0.178 0.249 0 0.199-0.028 0.249-0.142 0.249-0.121 0-0.142 0.050-0.142 0.284s0.021 0.284 0.142 0.284c0.114 0 0.142 0.050 0.142 0.249 0 0.22 0.021 0.249 0.178 0.249s0.178 0.028 0.178 0.249c0 0.199 0.028 0.249 0.142 0.249s0.142-0.050 0.142-0.249 0.028-0.249 0.142-0.249 0.142-0.050 0.142-0.242c0-0.199 0.028-0.249 0.164-0.27 0.128-0.014 0.164-0.071 0.178-0.292 0.021-0.242 0.007-0.263-0.156-0.263s-0.185-0.028-0.185-0.249c0-0.199-0.028-0.249-0.142-0.249-0.121 0-0.142-0.050-0.142-0.284s-0.021-0.284-0.142-0.284-0.142 0.050-0.142 0.284zM2.489 4.978c0 0.256-0.014 0.284-0.178 0.284-0.156 0-0.178 0.028-0.178 0.249 0 0.199-0.028 0.249-0.142 0.249s-0.142 0.050-0.142 0.256c0 0.192 0.036 0.263 0.142 0.292s0.142 0.1 0.142 0.277c0 0.213 0.021 0.242 0.178 0.242s0.178 0.028 0.178 0.249c0 0.199 0.028 0.249 0.142 0.249s0.142-0.050 0.142-0.249 0.028-0.249 0.142-0.249 0.142-0.050 0.142-0.242c0-0.199 0.028-0.249 0.164-0.27 0.128-0.014 0.164-0.071 0.178-0.292 0.021-0.242 0.007-0.263-0.156-0.263s-0.185-0.028-0.185-0.249c0-0.199-0.028-0.249-0.142-0.249-0.121 0-0.142-0.050-0.142-0.284s-0.021-0.284-0.142-0.284-0.142 0.050-0.142 0.284zM4.338 4.978c0 0.235-0.021 0.284-0.142 0.284-0.114 0-0.142 0.050-0.142 0.249 0 0.22-0.021 0.249-0.185 0.249s-0.178 0.021-0.156 0.263c0.014 0.22 0.050 0.277 0.185 0.292 0.128 0.021 0.156 0.071 0.156 0.27 0 0.192 0.028 0.242 0.142 0.242s0.142 0.050 0.142 0.249 0.028 0.249 0.142 0.249 0.142-0.050 0.142-0.249c0-0.22 0.021-0.249 0.178-0.249s0.178-0.028 0.178-0.242c0-0.178 0.036-0.249 0.142-0.277s0.142-0.1 0.142-0.292c0-0.206-0.028-0.256-0.142-0.256s-0.142-0.050-0.142-0.249c0-0.22-0.021-0.249-0.178-0.249s-0.178-0.028-0.178-0.284c0-0.235-0.021-0.284-0.142-0.284s-0.142 0.050-0.142 0.284zM6.187 4.978c0 0.235-0.021 0.284-0.142 0.284-0.114 0-0.142 0.050-0.142 0.249 0 0.22-0.021 0.249-0.185 0.249s-0.178 0.021-0.156 0.263c0.014 0.22 0.050 0.277 0.185 0.292 0.128 0.021 0.156 0.071 0.156 0.27 0 0.192 0.028 0.242 0.142 0.242s0.142 0.050 0.142 0.249 0.028 0.249 0.142 0.249 0.142-0.050 0.142-0.249c0-0.22 0.021-0.249 0.178-0.249s0.178-0.028 0.178-0.249c0-0.199 0.028-0.249 0.142-0.249 0.121 0 0.142-0.050 0.142-0.284s-0.021-0.284-0.142-0.284c-0.114 0-0.142-0.050-0.142-0.249 0-0.22-0.021-0.249-0.178-0.249s-0.178-0.028-0.178-0.284c0-0.235-0.021-0.284-0.142-0.284s-0.142 0.050-0.142 0.284z"></path>
<path d="M1.565 7.068c0 0.199-0.028 0.249-0.156 0.27-0.135 0.014-0.171 0.071-0.185 0.284-0.021 0.213-0.050 0.27-0.164 0.27-0.107 0-0.135 0.050-0.135 0.249s-0.028 0.249-0.142 0.249-0.142 0.050-0.142 0.242c0 0.199-0.028 0.249-0.156 0.27-0.135 0.014-0.171 0.071-0.185 0.284-0.021 0.213-0.050 0.27-0.164 0.27-0.121 0-0.135 0.050-0.135 0.533s0.014 0.533 0.142 0.533c0.114 0 0.142 0.050 0.142 0.249 0 0.22 0.021 0.249 0.178 0.249s0.178 0.028 0.178 0.249c0 0.199 0.028 0.249 0.142 0.249 0.121 0 0.142 0.050 0.142 0.284s0.021 0.284 0.135 0.284c0.114 0 0.142-0.057 0.164-0.27 0.014-0.213 0.050-0.27 0.185-0.284 0.128-0.021 0.156-0.071 0.156-0.27 0-0.192 0.028-0.242 0.142-0.242s0.142-0.050 0.142-0.242c0-0.242-0.007-0.249-0.299-0.27-0.299-0.021-0.306-0.028-0.327-0.292l-0.021-0.263h0.924l0.021 0.263c0.014 0.22 0.050 0.277 0.185 0.292 0.128 0.021 0.156 0.071 0.156 0.27 0 0.192 0.028 0.242 0.142 0.242s0.142 0.050 0.142 0.249-0.028 0.249-0.142 0.249c-0.121 0-0.142 0.050-0.142 0.284 0 0.256-0.014 0.284-0.178 0.284-0.156 0-0.178 0.028-0.178 0.249 0 0.199-0.028 0.249-0.142 0.249s-0.142 0.050-0.142 0.249-0.028 0.249-0.142 0.249c-0.121 0-0.142 0.050-0.142 0.284 0 0.256-0.014 0.284-0.178 0.284-0.156 0-0.178 0.028-0.178 0.249 0 0.199-0.028 0.249-0.142 0.249s-0.142-0.050-0.142-0.249-0.028-0.249-0.135-0.249c-0.114 0-0.142-0.057-0.164-0.27-0.014-0.213-0.050-0.27-0.178-0.284-0.135-0.021-0.164-0.071-0.164-0.27 0-0.192-0.028-0.242-0.142-0.242-0.135 0-0.142 0.050-0.142 0.782 0 0.725 0.007 0.782 0.135 0.782 0.114 0 0.142 0.057 0.164 0.263 0.014 0.22 0.050 0.277 0.185 0.292 0.128 0.021 0.156 0.071 0.156 0.27 0 0.192 0.028 0.242 0.142 0.242s0.142 0.050 0.142 0.249 0.028 0.249 0.142 0.249c0.121 0 0.142 0.050 0.142 0.284s-0.021 0.284-0.142 0.284c-0.114 0-0.142 0.050-0.142 0.249s-0.028 0.249-0.142 0.249-0.142 0.050-0.142 0.242c0 0.199-0.028 0.249-0.164 0.27-0.128 0.014-0.164 0.071-0.178 0.284-0.021 0.213-0.050 0.27-0.164 0.27-0.128 0-0.135 0.057-0.135 0.782 0 0.733 0.007 0.782 0.142 0.782 0.114 0 0.142-0.050 0.142-0.242 0-0.199 0.028-0.249 0.164-0.27 0.128-0.014 0.164-0.071 0.178-0.292 0.021-0.206 0.050-0.263 0.164-0.263 0.107 0 0.135-0.050 0.135-0.249s0.028-0.249 0.142-0.249 0.142 0.050 0.142 0.249c0 0.22 0.021 0.249 0.178 0.249 0.164 0 0.178 0.028 0.178 0.284 0 0.235 0.021 0.284 0.142 0.284 0.114 0 0.142 0.050 0.142 0.249s0.028 0.249 0.142 0.249 0.142 0.050 0.142 0.249c0 0.22 0.021 0.249 0.178 0.249 0.164 0 0.178 0.028 0.178 0.284 0 0.235 0.021 0.284 0.142 0.284 0.114 0 0.142 0.050 0.142 0.249s-0.028 0.249-0.142 0.249-0.142 0.050-0.142 0.242c0 0.199-0.028 0.249-0.156 0.27-0.135 0.014-0.171 0.071-0.185 0.284l-0.021 0.27h-0.924l0.021-0.27c0.021-0.256 0.028-0.263 0.327-0.284 0.292-0.021 0.299-0.028 0.299-0.27 0-0.192-0.028-0.242-0.142-0.242s-0.142-0.050-0.142-0.242c0-0.199-0.028-0.249-0.156-0.27-0.135-0.014-0.171-0.071-0.185-0.292-0.021-0.206-0.050-0.263-0.164-0.263s-0.135 0.050-0.135 0.284-0.021 0.284-0.142 0.284c-0.114 0-0.142 0.050-0.142 0.249 0 0.22-0.021 0.249-0.178 0.249s-0.178 0.028-0.178 0.249c0 0.199-0.028 0.249-0.142 0.249-0.128 0-0.142 0.050-0.142 0.533s0.014 0.533 0.135 0.533c0.114 0 0.142 0.057 0.164 0.263 0.014 0.22 0.050 0.277 0.185 0.292 0.128 0.021 0.156 0.071 0.156 0.27 0 0.192 0.028 0.242 0.142 0.242s0.142 0.050 0.142 0.249 0.028 0.249 0.135 0.249c0.114 0 0.142 0.057 0.164 0.263 0.014 0.22 0.050 0.277 0.185 0.292 0.128 0.021 0.156 0.071 0.156 0.27 0 0.192 0.028 0.242 0.142 0.242s0.142-0.050 0.142-0.249 0.028-0.249 0.135-0.249c0.114 0 0.142-0.057 0.164-0.27 0.014-0.213 0.050-0.27 0.185-0.284 0.128-0.021 0.156-0.071 0.156-0.27 0-0.192 0.028-0.242 0.142-0.242s0.142-0.050 0.142-0.249 0.028-0.249 0.135-0.249c0.114 0 0.142-0.057 0.164-0.27 0.014-0.213 0.050-0.27 0.185-0.284 0.128-0.021 0.156-0.071 0.156-0.27 0-0.192 0.028-0.242 0.142-0.242s0.142 0.050 0.142 0.242c0 0.199 0.028 0.249 0.164 0.27 0.128 0.014 0.164 0.071 0.178 0.284 0.021 0.213 0.050 0.27 0.164 0.27 0.107 0 0.135 0.050 0.135 0.249s0.028 0.249 0.142 0.249 0.142 0.050 0.142 0.242c0 0.199 0.028 0.249 0.164 0.27 0.128 0.014 0.164 0.071 0.178 0.284 0.021 0.213 0.050 0.27 0.164 0.27 0.107 0 0.135 0.050 0.135 0.249s0.028 0.249 0.142 0.249 0.142-0.050 0.142-0.242c0-0.199 0.028-0.249 0.164-0.27 0.128-0.014 0.164-0.071 0.178-0.292 0.021-0.206 0.050-0.263 0.163-0.263 0.107 0 0.135-0.050 0.135-0.249s0.028-0.249 0.142-0.249 0.142-0.050 0.142-0.242c0-0.199 0.028-0.249 0.164-0.27 0.128-0.014 0.164-0.071 0.178-0.292 0.021-0.206 0.050-0.263 0.164-0.263 0.121 0 0.135-0.050 0.135-0.533s-0.014-0.533-0.142-0.533c-0.114 0-0.142-0.050-0.142-0.249 0-0.22-0.021-0.249-0.178-0.249s-0.178-0.028-0.178-0.249c0-0.199-0.028-0.249-0.142-0.249-0.121 0-0.142-0.050-0.142-0.284s-0.021-0.284-0.135-0.284c-0.114 0-0.142 0.057-0.164 0.263-0.014 0.22-0.050 0.277-0.178 0.292-0.135 0.021-0.164 0.071-0.164 0.27 0 0.192-0.028 0.242-0.142 0.242s-0.142 0.050-0.142 0.242c0 0.242 0.007 0.249 0.306 0.27 0.292 0.021 0.299 0.028 0.299 0.27v0.249l-0.882 0.043-0.021-0.27c-0.014-0.22-0.050-0.277-0.178-0.292-0.135-0.021-0.164-0.071-0.164-0.27 0-0.192-0.028-0.242-0.142-0.242s-0.142-0.050-0.142-0.249 0.028-0.249 0.142-0.249c0.121 0 0.142-0.050 0.142-0.284 0-0.256 0.021-0.284 0.178-0.284s0.178-0.028 0.178-0.249c0-0.199 0.028-0.249 0.142-0.249s0.142-0.050 0.142-0.249 0.028-0.249 0.142-0.249c0.121 0 0.142-0.050 0.142-0.284 0-0.256 0.021-0.284 0.178-0.284s0.178-0.028 0.178-0.249c0-0.199 0.028-0.249 0.142-0.249s0.142 0.050 0.142 0.249 0.028 0.249 0.135 0.249c0.114 0 0.142 0.057 0.164 0.263 0.014 0.22 0.050 0.277 0.185 0.292 0.128 0.021 0.156 0.071 0.156 0.27 0 0.192 0.028 0.242 0.142 0.242 0.135 0 0.142-0.050 0.142-0.782 0-0.725-0.007-0.782-0.135-0.782-0.114 0-0.142-0.057-0.164-0.27-0.014-0.213-0.050-0.27-0.178-0.284-0.135-0.021-0.164-0.071-0.164-0.27 0-0.192-0.028-0.242-0.142-0.242s-0.142-0.050-0.142-0.249-0.028-0.249-0.142-0.249c-0.121 0-0.142-0.050-0.142-0.284s0.021-0.284 0.142-0.284c0.114 0 0.142-0.050 0.142-0.249s0.028-0.249 0.142-0.249 0.142-0.050 0.142-0.242c0-0.199 0.028-0.249 0.164-0.27 0.128-0.014 0.164-0.071 0.178-0.292 0.021-0.206 0.050-0.263 0.164-0.263 0.128 0 0.135-0.057 0.135-0.782 0-0.732-0.007-0.782-0.142-0.782-0.114 0-0.142 0.050-0.142 0.242 0 0.199-0.028 0.249-0.156 0.27-0.135 0.014-0.171 0.071-0.185 0.284-0.021 0.213-0.050 0.27-0.164 0.27-0.107 0-0.135 0.050-0.135 0.249s-0.028 0.249-0.142 0.249-0.142-0.050-0.142-0.249c0-0.22-0.021-0.249-0.178-0.249s-0.178-0.028-0.178-0.284c0-0.235-0.021-0.284-0.142-0.284-0.114 0-0.142-0.050-0.142-0.249s-0.028-0.249-0.142-0.249-0.142-0.050-0.142-0.249c0-0.22-0.021-0.249-0.178-0.249s-0.178-0.028-0.178-0.284c0-0.235-0.021-0.284-0.142-0.284-0.114 0-0.142-0.050-0.142-0.249s0.028-0.249 0.142-0.249 0.142-0.050 0.142-0.242c0-0.199 0.028-0.249 0.164-0.27 0.128-0.014 0.164-0.071 0.178-0.292l0.021-0.263h0.924l-0.021 0.263c-0.021 0.263-0.028 0.27-0.32 0.292-0.299 0.021-0.306 0.028-0.306 0.27 0 0.192 0.028 0.242 0.142 0.242s0.142 0.050 0.142 0.242c0 0.199 0.028 0.249 0.164 0.27 0.128 0.014 0.164 0.071 0.178 0.284 0.021 0.213 0.050 0.27 0.164 0.27s0.135-0.050 0.135-0.284 0.021-0.284 0.142-0.284c0.114 0 0.142-0.050 0.142-0.249 0-0.22 0.021-0.249 0.178-0.249s0.178-0.028 0.178-0.249c0-0.199 0.028-0.249 0.142-0.249 0.128 0 0.142-0.050 0.142-0.533s-0.014-0.533-0.135-0.533c-0.114 0-0.142-0.057-0.164-0.27-0.014-0.213-0.050-0.27-0.178-0.284-0.135-0.021-0.164-0.071-0.164-0.27 0-0.192-0.028-0.242-0.142-0.242s-0.142-0.050-0.142-0.249-0.028-0.249-0.135-0.249c-0.114 0-0.142-0.057-0.164-0.27-0.014-0.213-0.050-0.27-0.178-0.284-0.135-0.021-0.164-0.071-0.164-0.27 0-0.192-0.028-0.242-0.142-0.242s-0.142 0.050-0.142 0.249-0.028 0.249-0.135 0.249c-0.114 0-0.142 0.057-0.164 0.263-0.014 0.22-0.050 0.277-0.178 0.292-0.135 0.021-0.164 0.071-0.164 0.27 0 0.192-0.028 0.242-0.142 0.242s-0.142 0.050-0.142 0.249-0.028 0.249-0.135 0.249c-0.114 0-0.142 0.057-0.164 0.263-0.014 0.22-0.050 0.277-0.178 0.292-0.135 0.021-0.164 0.071-0.164 0.27 0 0.192-0.028 0.242-0.142 0.242s-0.142-0.050-0.142-0.242c0-0.199-0.028-0.249-0.156-0.27-0.135-0.014-0.171-0.071-0.185-0.292-0.021-0.206-0.050-0.263-0.164-0.263-0.107 0-0.135-0.050-0.135-0.249s-0.028-0.249-0.142-0.249-0.142-0.050-0.142-0.242c0-0.199-0.028-0.249-0.156-0.27-0.135-0.014-0.171-0.071-0.185-0.292-0.021-0.206-0.050-0.263-0.164-0.263-0.107 0-0.135-0.050-0.135-0.249s-0.028-0.249-0.142-0.249-0.142 0.050-0.142 0.242zM3.698 12.331c0 0.199 0.028 0.249 0.164 0.27 0.121 0.014 0.164 0.078 0.178 0.242 0.014 0.156 0.064 0.242 0.164 0.263 0.099 0.028 0.135 0.1 0.135 0.292 0 0.206 0.028 0.256 0.142 0.256s0.142 0.050 0.142 0.242c0 0.199 0.028 0.249 0.164 0.27 0.128 0.014 0.164 0.071 0.178 0.284 0.021 0.213 0.050 0.27 0.164 0.27 0.128 0 0.135 0.064 0.135 1.28s-0.007 1.28-0.135 1.28c-0.114 0-0.142 0.057-0.164 0.263-0.014 0.22-0.050 0.277-0.178 0.292-0.135 0.021-0.164 0.071-0.164 0.27 0 0.192-0.028 0.242-0.142 0.242s-0.142 0.050-0.142 0.256c0 0.192-0.036 0.263-0.135 0.292-0.1 0.021-0.149 0.107-0.164 0.263-0.014 0.164-0.057 0.228-0.178 0.242-0.135 0.021-0.164 0.071-0.164 0.27 0 0.192-0.028 0.242-0.142 0.242s-0.142-0.050-0.142-0.242c0-0.199-0.028-0.249-0.156-0.27-0.128-0.014-0.171-0.078-0.185-0.242-0.014-0.156-0.064-0.242-0.164-0.263-0.1-0.028-0.135-0.1-0.135-0.292 0-0.206-0.028-0.256-0.142-0.256s-0.142-0.050-0.142-0.242c0-0.199-0.028-0.249-0.156-0.27-0.135-0.014-0.171-0.071-0.185-0.292-0.021-0.206-0.050-0.263-0.164-0.263-0.128 0-0.135-0.064-0.135-1.28s0.007-1.28 0.135-1.28c0.114 0 0.142-0.057 0.164-0.27 0.014-0.213 0.050-0.27 0.185-0.284 0.128-0.021 0.156-0.071 0.156-0.27 0-0.192 0.028-0.242 0.142-0.242 0.121 0 0.142-0.050 0.142-0.284s0.021-0.284 0.142-0.284c0.114 0 0.142-0.050 0.142-0.249 0-0.22 0.021-0.249 0.178-0.249s0.178-0.028 0.178-0.249c0-0.199 0.028-0.249 0.142-0.249s0.142 0.050 0.142 0.242z"></path>
<path d="M2.773 14.684c0 0.484 0.014 0.533 0.142 0.533 0.114 0 0.142 0.050 0.142 0.249 0 0.22 0.021 0.249 0.178 0.249 0.164 0 0.178 0.028 0.178 0.284s-0.014 0.284-0.178 0.284c-0.156 0-0.178 0.028-0.178 0.249 0 0.199-0.028 0.249-0.142 0.249-0.128 0-0.142 0.050-0.142 0.533s0.014 0.533 0.135 0.533c0.114 0 0.142-0.057 0.164-0.27 0.014-0.213 0.050-0.27 0.185-0.284 0.128-0.021 0.156-0.071 0.156-0.27 0-0.192 0.028-0.242 0.142-0.242s0.142 0.050 0.142 0.242c0 0.199 0.028 0.249 0.164 0.27 0.128 0.014 0.164 0.071 0.178 0.284 0.021 0.213 0.050 0.27 0.164 0.27 0.121 0 0.135-0.050 0.135-0.533s-0.014-0.533-0.142-0.533c-0.114 0-0.142-0.050-0.142-0.249 0-0.22-0.021-0.249-0.178-0.249s-0.178-0.028-0.178-0.284 0.021-0.284 0.178-0.284 0.178-0.028 0.178-0.249c0-0.199 0.028-0.249 0.142-0.249 0.128 0 0.142-0.050 0.142-0.533s-0.014-0.533-0.135-0.533c-0.114 0-0.142 0.057-0.164 0.263-0.014 0.22-0.050 0.277-0.178 0.292-0.135 0.021-0.164 0.071-0.164 0.27 0 0.192-0.028 0.242-0.142 0.242s-0.142-0.050-0.142-0.242c0-0.199-0.028-0.249-0.156-0.27-0.135-0.014-0.171-0.071-0.185-0.292-0.021-0.206-0.050-0.263-0.164-0.263-0.121 0-0.135 0.050-0.135 0.533zM0.64 24.924c0 0.22-0.021 0.249-0.178 0.249s-0.178 0.028-0.178 0.249c0 0.199-0.028 0.249-0.142 0.249-0.121 0-0.142 0.050-0.142 0.284s0.021 0.284 0.142 0.284c0.114 0 0.142 0.050 0.142 0.249 0 0.22 0.021 0.249 0.178 0.249 0.164 0 0.178 0.028 0.178 0.284 0 0.235 0.021 0.284 0.142 0.284s0.142-0.050 0.142-0.284 0.021-0.284 0.142-0.284c0.114 0 0.142-0.050 0.142-0.249 0-0.22 0.021-0.249 0.185-0.249s0.178-0.021 0.156-0.27c-0.014-0.213-0.050-0.27-0.178-0.284-0.135-0.021-0.164-0.071-0.164-0.27 0-0.192-0.028-0.242-0.142-0.242s-0.142-0.050-0.142-0.249-0.028-0.249-0.142-0.249-0.142 0.050-0.142 0.249zM2.489 24.924c0 0.22-0.021 0.249-0.178 0.249s-0.178 0.028-0.178 0.242c0 0.178-0.036 0.249-0.142 0.277s-0.142 0.1-0.142 0.292c0 0.206 0.028 0.256 0.142 0.256s0.142 0.050 0.142 0.249c0 0.22 0.021 0.249 0.178 0.249 0.164 0 0.178 0.028 0.178 0.285 0 0.235 0.021 0.284 0.142 0.284s0.142-0.050 0.142-0.284 0.021-0.284 0.142-0.284c0.114 0 0.142-0.050 0.142-0.249 0-0.22 0.021-0.249 0.185-0.249s0.178-0.021 0.156-0.27c-0.014-0.213-0.050-0.27-0.178-0.284-0.135-0.021-0.164-0.071-0.164-0.27 0-0.192-0.028-0.242-0.142-0.242s-0.142-0.050-0.142-0.249-0.028-0.249-0.142-0.249-0.142 0.050-0.142 0.249zM4.338 24.924c0 0.199-0.028 0.249-0.142 0.249s-0.142 0.050-0.142 0.242c0 0.199-0.028 0.249-0.156 0.27-0.135 0.014-0.171 0.071-0.185 0.284-0.021 0.249-0.007 0.27 0.156 0.27s0.185 0.028 0.185 0.249c0 0.199 0.028 0.249 0.142 0.249 0.121 0 0.142 0.050 0.142 0.284s0.021 0.284 0.142 0.284 0.142-0.050 0.142-0.284c0-0.256 0.021-0.284 0.178-0.284s0.178-0.028 0.178-0.249c0-0.199 0.028-0.249 0.142-0.249s0.142-0.050 0.142-0.256c0-0.192-0.036-0.263-0.142-0.292s-0.142-0.1-0.142-0.277c0-0.213-0.021-0.242-0.178-0.242s-0.178-0.028-0.178-0.249c0-0.199-0.028-0.249-0.142-0.249s-0.142 0.050-0.142 0.249zM6.187 24.924c0 0.199-0.028 0.249-0.142 0.249s-0.142 0.050-0.142 0.242c0 0.199-0.028 0.249-0.156 0.27-0.135 0.014-0.171 0.071-0.185 0.284-0.021 0.249-0.007 0.27 0.156 0.27s0.185 0.028 0.185 0.249c0 0.199 0.028 0.249 0.142 0.249 0.121 0 0.142 0.050 0.142 0.284s0.021 0.284 0.142 0.284 0.142-0.050 0.142-0.284c0-0.256 0.021-0.284 0.178-0.284s0.178-0.028 0.178-0.249c0-0.199 0.028-0.249 0.142-0.249 0.121 0 0.142-0.050 0.142-0.284s-0.021-0.284-0.142-0.284c-0.114 0-0.142-0.050-0.142-0.249 0-0.22-0.021-0.249-0.178-0.249s-0.178-0.028-0.178-0.249c0-0.199-0.028-0.249-0.142-0.249s-0.142 0.050-0.142 0.249zM1.55 27.001c-0.014 0.22-0.050 0.277-0.178 0.292-0.135 0.021-0.164 0.071-0.164 0.27 0 0.192-0.028 0.242-0.142 0.242s-0.142 0.050-0.142 0.249-0.028 0.249-0.142 0.249c-0.121 0-0.142 0.050-0.142 0.284 0 0.256-0.014 0.284-0.178 0.284-0.156 0-0.178 0.028-0.178 0.249 0 0.199-0.028 0.249-0.142 0.249s-0.142 0.050-0.142 0.249 0.028 0.249 0.142 0.249c0.121 0 0.142 0.050 0.142 0.284 0 0.256 0.021 0.284 0.178 0.284s0.178 0.028 0.178 0.249c0 0.199 0.028 0.249 0.142 0.249 0.121 0 0.142 0.050 0.142 0.284s0.021 0.284 0.142 0.284c0.114 0 0.142 0.050 0.142 0.249v0.249h0.925v-0.242c0-0.199 0.028-0.249 0.164-0.27 0.128-0.014 0.164-0.071 0.178-0.292 0.021-0.206 0.050-0.263 0.164-0.263 0.107 0 0.135-0.050 0.135-0.249s0.028-0.249 0.135-0.249c0.114 0 0.142-0.057 0.164-0.263 0.014-0.22 0.050-0.277 0.185-0.292 0.128-0.021 0.156-0.071 0.156-0.27 0-0.213-0.021-0.242-0.178-0.242s-0.178-0.028-0.178-0.249c0-0.199-0.028-0.249-0.142-0.249-0.121 0-0.142-0.050-0.142-0.284s-0.021-0.284-0.142-0.284c-0.114 0-0.142-0.050-0.142-0.249 0-0.22-0.021-0.249-0.178-0.249s-0.178-0.028-0.178-0.249c0-0.199-0.028-0.249-0.142-0.249-0.121 0-0.142-0.050-0.142-0.284s-0.021-0.284-0.135-0.284c-0.114 0-0.142 0.057-0.164 0.263zM1.849 28.587c0 0.235 0.021 0.284 0.142 0.284 0.114 0 0.142 0.050 0.142 0.249 0 0.22 0.021 0.249 0.178 0.249s0.178 0.028 0.178 0.242c0 0.199-0.028 0.249-0.156 0.27-0.135 0.014-0.171 0.071-0.185 0.284-0.021 0.213-0.050 0.27-0.164 0.27-0.107 0-0.135 0.050-0.135 0.249s-0.028 0.249-0.142 0.249-0.142-0.050-0.142-0.249c0-0.22-0.021-0.249-0.178-0.249s-0.178-0.028-0.178-0.284c0-0.235-0.021-0.284-0.142-0.284-0.114 0-0.142-0.050-0.142-0.249s0.028-0.249 0.142-0.249 0.142-0.050 0.142-0.249c0-0.22 0.021-0.249 0.178-0.249 0.164 0 0.178-0.028 0.178-0.284 0-0.235 0.021-0.284 0.142-0.284s0.142 0.050 0.142 0.284zM5.262 27.022c0 0.235-0.021 0.284-0.142 0.284-0.114 0-0.142 0.050-0.142 0.249 0 0.22-0.021 0.249-0.178 0.249s-0.178 0.028-0.178 0.249c0 0.199-0.028 0.249-0.142 0.249-0.121 0-0.142 0.050-0.142 0.284s-0.021 0.284-0.142 0.284c-0.114 0-0.142 0.050-0.142 0.249 0 0.22-0.021 0.249-0.178 0.249s-0.178 0.028-0.178 0.242c0 0.199 0.028 0.249 0.164 0.27 0.128 0.014 0.164 0.071 0.178 0.292 0.021 0.206 0.050 0.263 0.164 0.263 0.107 0 0.135 0.050 0.135 0.249s0.028 0.249 0.135 0.249c0.114 0 0.142 0.057 0.164 0.263 0.014 0.22 0.050 0.277 0.185 0.292 0.128 0.021 0.156 0.071 0.156 0.27v0.242h0.924v-0.249c0-0.199 0.028-0.249 0.142-0.249 0.121 0 0.142-0.050 0.142-0.284s0.021-0.284 0.142-0.284c0.114 0 0.142-0.050 0.142-0.249 0-0.22 0.021-0.249 0.178-0.249 0.164 0 0.178-0.028 0.178-0.284 0-0.235 0.021-0.284 0.142-0.284 0.114 0 0.142-0.050 0.142-0.249s-0.028-0.249-0.142-0.249-0.142-0.050-0.142-0.249c0-0.22-0.021-0.249-0.178-0.249s-0.178-0.028-0.178-0.284c0-0.235-0.021-0.284-0.142-0.284-0.114 0-0.142-0.050-0.142-0.249s-0.028-0.249-0.142-0.249-0.142-0.050-0.142-0.242c0-0.199-0.028-0.249-0.156-0.27-0.135-0.014-0.171-0.071-0.185-0.292-0.021-0.206-0.050-0.263-0.164-0.263s-0.135 0.050-0.135 0.284zM5.547 28.587c0 0.256 0.021 0.284 0.178 0.284s0.178 0.028 0.178 0.249c0 0.199 0.028 0.249 0.142 0.249s0.142 0.050 0.142 0.249-0.028 0.249-0.142 0.249c-0.121 0-0.142 0.050-0.142 0.284 0 0.256-0.014 0.284-0.178 0.284-0.156 0-0.178 0.028-0.178 0.249 0 0.199-0.028 0.249-0.142 0.249s-0.142-0.050-0.142-0.249-0.028-0.249-0.135-0.249c-0.114 0-0.142-0.057-0.164-0.27-0.014-0.213-0.050-0.27-0.178-0.284-0.135-0.021-0.164-0.071-0.164-0.27 0-0.213 0.021-0.242 0.178-0.242s0.178-0.028 0.178-0.249c0-0.199 0.028-0.249 0.142-0.249 0.121 0 0.142-0.050 0.142-0.284s0.021-0.284 0.142-0.284 0.142 0.050 0.142 0.284z"></path>
</svg>
