<!-- Generated by IcoMoon.io -->
<svg version="1.1" xmlns="http://www.w3.org/2000/svg" width="32" height="32" viewBox="0 0 32 32">
<title>ca</title>
<path d="M0.729 16.138l7.531 6.595-0.555 2.221 7.462-0.694-0.347 7.74h2.291l-0.347-7.67 7.532 0.625-0.555-2.221 7.531-6.595q-0.625-0.364-1.839-1.128l1.197-5.085q-4.2 0.833-4.252 0.833-0.156 0-1.267-2.239l-4.269 4.078 1.267-8.59-2.62 1.128-3.453-5.137-3.523 5.137-2.62-1.128 1.284 8.59-4.286-4.078q-1.267 2.256-1.336 2.239l-4.252-0.833 1.267 5.085q-0.607 0.399-1.839 1.128z"></path>
</svg>
