<!-- Generated by IcoMoon.io -->
<svg version="1.1" xmlns="http://www.w3.org/2000/svg" width="43" height="32" viewBox="0 0 43 32">
<title>ck</title>
<path d="M20.154 5.539l0.553-1.777-1.49-1.127 1.873-0.022 0.639-1.755 0.596 1.755 1.883 0.053-1.5 1.117 0.532 1.777-1.543-1.064zM24.58 5.88l1.107-1.479-1.032-1.574 1.777 0.617 1.171-1.436v1.873l1.745 0.681-1.788 0.532-0.085 1.862-1.085-1.532zM15.92 7.018l-0.074-1.862-1.788-0.553 1.777-0.659v-1.851l1.16 1.436 1.788-0.596-1.042 1.564 1.096 1.49-1.808-0.479zM12.813 9.859l-0.788-1.681-1.851 0.191 1.362-1.309-0.702-1.734 1.617 0.873 1.415-1.256-0.361 1.851 1.585 0.947-1.841 0.266zM11.367 13.923l-1.415-1.181-1.596 0.979 0.681-1.777-1.372-1.234 1.841 0.074 0.744-1.745 0.457 1.83 1.83 0.16-1.554 1.042zM11.323 18.498l-1.755-0.51-1.075 1.543-0.074-1.904-1.745-0.585 1.713-0.659v-1.915l1.138 1.5 1.745-0.596-1.022 1.596zM13.387 22.37l-1.808 0.256-0.372 1.851-0.83-1.703-1.819 0.17 1.298-1.309-0.755-1.745 1.628 0.904 1.362-1.256-0.298 1.851zM16.579 25.434l-1.607 0.873 0.276 1.873-1.351-1.319-1.659 0.808 0.777-1.692-1.309-1.372 1.841 0.276 0.851-1.649 0.361 1.851zM20.484 26.041l-0.883 1.628 1.245 1.405-1.851-0.351-0.947 1.596-0.256-1.841-1.83-0.425 1.681-0.788-0.181-1.862 1.298 1.362zM24.867 25.371l-0.053 1.851 1.734 0.681-1.808 0.532-0.127 1.862-1.064-1.521-1.808 0.468 1.149-1.479-1-1.564 1.766 0.606zM29.453 5.199l1.276 1.34 1.692-0.788-0.883 1.681 1.223 1.394-1.808-0.298-0.957 1.649-0.223-1.873-1.808-0.372 1.67-0.851zM33.272 9.316l0.585 1.766 1.862 0.032-1.511 1.138 0.5 1.788-1.5-1.064-1.554 1.075 0.574-1.788-1.468-1.127 1.873-0.042zM34.709 14.625l-0.213 1.851 1.67 0.819-1.841 0.383-0.287 1.841-0.926-1.607-1.851 0.309 1.276-1.383-0.862-1.649 1.703 0.766zM33.698 20.19l-0.83 1.659 1.266 1.351-1.851-0.287-0.893 1.628-0.319-1.841-1.851-0.351 1.659-0.851-0.245-1.851 1.34 1.309zM30.932 25.115l-1.564 0.979 0.405 1.841-1.436-1.223-1.596 0.915 0.67-1.734-1.394-1.287 1.851 0.16 0.744-1.703 0.468 1.83z"></path>
</svg>
