<!-- Generated by IcoMoon.io -->
<svg version="1.1" xmlns="http://www.w3.org/2000/svg" width="43" height="32" viewBox="0 0 43 32">
<title>cn</title>
<path d="M27.83 1.899l-0.689 0.787 0.002 0.002-0.694 0.785-1.959-0.788 0.11 0.202c0.065 0.108 0.305 0.513 0.537 0.899 0.23 0.38 0.415 0.701 0.411 0.71s-0.312 0.365-0.687 0.793c-0.379 0.427-0.684 0.785-0.681 0.792 0.005 0.002 0.469-0.096 1.032-0.223l1.023-0.237 0.094 0.156c0.050 0.082 0.288 0.481 0.533 0.883 0.24 0.405 0.452 0.722 0.465 0.703 0.016-0.014 0.064-0.456 0.106-0.977s0.089-0.974 0.11-1.011c0.015-0.034 0.484-0.165 1.039-0.286l1.007-0.224-0.974-0.432-0.975-0.427 0.094-1.057 0.097-1.051zM10.568 4.827l-1.044 3.202 0.005 0.004-1.056 3.202-6.793 0.15 0.581 0.461c0.328 0.238 1.549 1.131 2.726 1.98 1.162 0.833 2.115 1.549 2.115 1.579s-0.461 1.474-1.029 3.217c-0.581 1.742-1.028 3.187-1.013 3.202 0.015 0 1.267-0.879 2.771-1.967l2.726-1.995 0.476 0.343c0.253 0.178 1.459 1.058 2.696 1.937 1.222 0.893 2.25 1.565 2.265 1.49 0.030-0.060-0.388-1.43-0.924-3.024s-0.969-2.994-0.953-3.129c0-0.12 1.222-1.102 2.711-2.16l2.696-1.937-3.427-0.045-3.427-0.030-1.059-3.247-1.044-3.231zM31.817 8.162l0.019 0.23c0.016 0.125 0.072 0.592 0.13 1.039 0.057 0.441 0.097 0.809 0.091 0.816s-0.432 0.209-0.948 0.449c-0.519 0.238-0.941 0.443-0.941 0.449 0.003 0.003 0.468 0.101 1.035 0.211l1.032 0.195 0.023 0.18c0.014 0.096 0.070 0.556 0.132 1.023 0.057 0.467 0.123 0.843 0.143 0.83 0.020-0.006 0.242-0.391 0.49-0.852s0.473-0.855 0.507-0.881c0.027-0.026 0.509 0.043 1.066 0.156l1.012 0.201-0.717-0.787-0.721-0.784 0.512-0.929 0.512-0.923-0.948 0.443 0 0.002-0.951 0.44-1.476-1.51zM32.837 17.347l-0.256 1.015 0.002 0.001-0.259 1.015-2.103 0.191 0.19 0.13c0.107 0.067 0.504 0.318 0.888 0.557 0.378 0.233 0.689 0.435 0.689 0.444s-0.111 0.467-0.25 1.020c-0.143 0.552-0.252 1.010-0.247 1.014 0.005-0 0.374-0.3 0.818-0.669l0.802-0.677 0.155 0.096c0.082 0.050 0.475 0.297 0.877 0.543 0.398 0.251 0.731 0.437 0.734 0.413 0.008-0.019-0.151-0.435-0.351-0.918s-0.364-0.908-0.362-0.95c-0.002-0.037 0.355-0.367 0.794-0.727l0.795-0.658-1.063 0.059-1.063 0.063-0.397-0.984-0.392-0.98zM27.389 23.859l-0.689 0.787 0.001 0.002-0.694 0.785-1.959-0.788 0.11 0.202c0.065 0.108 0.305 0.513 0.537 0.899 0.23 0.38 0.415 0.701 0.411 0.71s-0.312 0.365-0.687 0.793c-0.379 0.427-0.684 0.785-0.681 0.791 0.005 0.002 0.47-0.096 1.032-0.223l1.023-0.237 0.094 0.156c0.050 0.082 0.288 0.481 0.533 0.883 0.24 0.405 0.452 0.722 0.465 0.703 0.016-0.014 0.064-0.456 0.106-0.977s0.089-0.974 0.11-1.011c0.015-0.034 0.483-0.165 1.039-0.286l1.007-0.224-0.974-0.432-0.975-0.427 0.094-1.057 0.097-1.051z"></path>
</svg>
