<!-- Generated by IcoMoon.io -->
<svg version="1.1" xmlns="http://www.w3.org/2000/svg" width="43" height="32" viewBox="0 0 43 32">
<title>cv</title>
<path d="M13.84 23.319l0.573 1.771h1.858l-1.51 1.102 0.573 1.78-1.493-1.111-1.51 1.102 0.582-1.78-1.51-1.102h1.867zM29.987 10.401l0.582 1.78h1.849l-1.51 1.094 0.573 1.78-1.51-1.102-1.51 1.102 0.573-1.78-1.51-1.094h1.875zM10.124 17.771l0.573 1.78h1.867l-1.502 1.111 0.582 1.771-1.51-1.094-1.51 1.094 0.573-1.771-1.51-1.102h1.867zM29.987 17.268l0.582 1.771h1.849l-1.51 1.102 0.573 1.771-1.51-1.094-1.51 1.102 0.573-1.78-1.51-1.102h1.875zM25.881 5.001l0.582 1.771h1.875l-1.51 1.102 0.573 1.78-1.51-1.102-1.51 1.102 0.582-1.78-1.519-1.102h1.875zM19.717 2.848l0.582 1.78h1.867l-1.51 1.094 0.573 1.78-1.51-1.094-1.51 1.094 0.582-1.78-1.51-1.094h1.858zM13.536 4.88l0.582 1.78h1.867l-1.51 1.094 0.582 1.78-1.519-1.102-1.51 1.102 0.582-1.78-1.51-1.094h1.875zM9.951 10.41l0.573 1.78h1.875l-1.519 1.094 0.582 1.78-1.51-1.102-1.51 1.102 0.573-1.78-1.51-1.094h1.867zM19.717 25.159l0.582 1.78h1.867l-1.51 1.094 0.582 1.78-1.519-1.102-1.51 1.102 0.582-1.78-1.51-1.094h1.858zM26.271 23.319l0.573 1.771h1.867l-1.502 1.102 0.582 1.78-1.51-1.102-1.519 1.102 0.582-1.78-1.51-1.102h1.867z"></path>
</svg>
