<!-- Generated by IcoMoon.io -->
<svg version="1.1" xmlns="http://www.w3.org/2000/svg" width="43" height="32" viewBox="0 0 43 32">
<title>cy-bottom</title>
<path d="M2.505 9.046c-0.005-0-0.012-0-0.018-0-0.039 0-0.077 0.005-0.113 0.015l0.003-0.001c0 0.039-0.026 0.367 0 0.76 0.039 0.55 0.183 0.969 0.406 1.231 0.648 0.641 1.449 1.129 2.344 1.404l0.041 0.011h0.013c0.008 0.002 0.017 0.003 0.026 0.003s0.018-0.001 0.027-0.003l-0.001 0c0.019-0.012 0.033-0.030 0.039-0.052l0-0.001c0.026-0.052 0.013-0.105 0-0.183-0.053-0.229-0.125-0.43-0.217-0.62l0.008 0.017c-0.197-0.419-0.419-0.851-0.459-0.904 0 0-0.327-0.419-0.747-0.838-0.205-0.207-0.428-0.396-0.665-0.566l-0.016-0.011c-0.262-0.183-0.472-0.262-0.655-0.262-0.004-0-0.009-0.001-0.015-0.001l-0.001-0zM40.329 9.046c-0.006 0-0.012 0.001-0.017 0.001l0.002-0c-0.183 0-0.393 0.079-0.655 0.262-0.253 0.18-0.476 0.37-0.681 0.576l-0 0c-0.419 0.419-0.747 0.838-0.747 0.838-0.039 0.052-0.262 0.485-0.459 0.904-0.085 0.172-0.157 0.373-0.206 0.583l-0.004 0.020c-0.013 0.079-0.026 0.131 0 0.183 0.007 0.022 0.020 0.040 0.039 0.052l0 0c0.008 0.002 0.017 0.003 0.026 0.003s0.018-0.001 0.027-0.003l-0.001 0h0.013c0.935-0.285 1.736-0.773 2.385-1.415l-0 0c0.223-0.262 0.367-0.681 0.406-1.231 0.026-0.393 0-0.72 0-0.76-0.033-0.009-0.071-0.014-0.11-0.014-0.006 0-0.013 0-0.019 0l0.001-0zM5.481 9.859l0.079 0.589c0.026 0.262 0.079 0.694 0.079 0.917 0 0.21 0.144 0.472 0.314 0.734 0.11 0.172 0.213 0.318 0.323 0.457l-0.009-0.012v-0.013c0 0 0.079-0.786 0.079-1.572s-0.825-1.1-0.865-1.1zM37.353 9.859c-0.039 0-0.865 0.314-0.865 1.1s0.079 1.572 0.079 1.572v0.013c0.101-0.128 0.204-0.273 0.301-0.423l0.013-0.022c0.17-0.262 0.314-0.524 0.314-0.734 0-0.223 0.052-0.655 0.079-0.917l0.079-0.589zM7.42 12.361c-0.183 0.013-0.301 0.079-0.301 0.079 0.396 0.968 0.989 1.784 1.734 2.43l0.008 0.007c0.287 0.251 0.615 0.466 0.97 0.631l0.025 0.011h0.013c-0.38-1.192-0.812-2.057-1.31-2.581-0.419-0.459-0.799-0.576-1.061-0.576h-0.052c-0.004-0-0.009-0-0.013-0s-0.009 0-0.014 0l0.001-0zM35.335 12.361c-0.262 0-0.642 0.118-1.061 0.576-0.498 0.524-0.93 1.389-1.31 2.581h0.013c0.381-0.176 0.709-0.39 1-0.646l-0.005 0.004c0.753-0.652 1.346-1.468 1.727-2.394l0.015-0.042c0 0-0.118-0.065-0.301-0.079-0.004-0-0.009-0-0.013-0s-0.009 0-0.014 0l0.001-0h-0.052zM2.626 12.466c0 0 0.052 0.328 0.183 0.655 0.144 0.314 0.393 0.694 0.838 0.773 0.333 0.059 0.716 0.092 1.107 0.092 0.025 0 0.051-0 0.076-0l-0.004 0v0.013c0.288 0 0.498-0.026 0.498-0.026-0.033-0.282-0.157-0.531-0.341-0.721l0 0c-0.301-0.341-0.969-0.747-2.358-0.786zM40.208 12.466c-1.389 0.039-2.057 0.445-2.358 0.786-0.184 0.189-0.308 0.438-0.34 0.715l-0.001 0.006c0 0 0.21 0.026 0.498 0.026v-0.013c0.021 0 0.047 0 0.072 0 0.391 0 0.774-0.034 1.147-0.098l-0.040 0.006c0.445-0.079 0.694-0.458 0.838-0.773 0.131-0.328 0.183-0.655 0.183-0.655zM5.848 13.042l-0.131 0.013c0.079 0.982 0.799 1.611 1.375 1.965 0.362 0.225 0.779 0.413 1.222 0.541l0.036 0.009c-0.458-1.009-0.956-1.742-1.506-2.161-0.432-0.328-0.786-0.367-0.956-0.367h-0.039zM36.947 13.042c-0.17 0-0.524 0.039-0.956 0.367-0.55 0.419-1.048 1.153-1.506 2.161 0.478-0.138 0.896-0.325 1.279-0.563l-0.022 0.012c0.576-0.354 1.297-0.982 1.375-1.965l-0.131-0.013h-0.039zM5.375 14.588c-0.079 0.002-0.155 0.011-0.228 0.028l0.007-0.001c-0.004 0.029-0.006 0.062-0.006 0.096 0 0.107 0.021 0.209 0.060 0.302l-0.002-0.005c0.052 0.131 0.223 0.393 0.734 0.393v0.013c0.197 0 0.314-0.053 0.367-0.131 0.066-0.118-0.013-0.249-0.039-0.301-0.194-0.241-0.488-0.394-0.819-0.394-0.012 0-0.023 0-0.035 0.001l0.002-0c-0.006-0-0.013-0-0.021-0s-0.014 0-0.022 0l0.001-0zM37.418 14.588c-0.010-0-0.021-0.001-0.033-0.001-0.33 0-0.625 0.153-0.817 0.392l-0.002 0.002c-0.026 0.052-0.105 0.183-0.039 0.301 0.052 0.079 0.17 0.131 0.367 0.131v-0.013c0.511 0 0.681-0.262 0.734-0.393 0.037-0.088 0.058-0.19 0.058-0.297 0-0.034-0.002-0.067-0.006-0.1l0 0.004c-0.073-0.017-0.156-0.027-0.241-0.027-0.007 0-0.014 0-0.022 0l0.001-0zM10.302 14.968c-0.058 0.004-0.111 0.018-0.16 0.040l0.003-0.001c0 0.026-0.013 0.236 0.039 0.445 0.022 0.121 0.073 0.228 0.145 0.316l-0.001-0.001c0.081 0.081 0.192 0.131 0.316 0.131 0.004 0 0.008-0 0.012-0h-0.001v-0.013c0.118 0 0.21-0.052 0.249-0.144 0.026-0.079 0.026-0.183-0.026-0.314-0.092-0.223-0.301-0.458-0.563-0.458h-0.013zM32.519 14.968c-0.262 0-0.472 0.236-0.563 0.458-0.052 0.131-0.052 0.236-0.026 0.314 0.039 0.092 0.131 0.144 0.249 0.144v0.013c0.004 0 0.008 0 0.012 0 0.123 0 0.235-0.050 0.316-0.131v-0c0.072-0.087 0.122-0.193 0.144-0.31l0.001-0.004c0.052-0.21 0.039-0.419 0.039-0.445-0.046-0.021-0.099-0.035-0.156-0.039l-0.001-0h-0.013zM11.769 15.466c-0.236 0.013-0.393 0.052-0.393 0.052 0.12 0.356 0.303 0.662 0.539 0.919l-0.002-0.002c0.637 0.663 1.496 1.109 2.457 1.217l0.018 0.002c-0.616-1.873-1.834-2.175-2.489-2.188-0.020-0.001-0.042-0.001-0.066-0.001s-0.046 0-0.069 0.001l0.003-0zM30.934 15.466c-0.655 0.013-1.873 0.314-2.489 2.188 0.98-0.109 1.839-0.555 2.474-1.217l0.001-0.001c0.234-0.255 0.418-0.561 0.532-0.899l0.005-0.018c0 0-0.157-0.039-0.393-0.052-0.020-0.001-0.042-0.001-0.066-0.001s-0.046 0-0.069 0.001l0.003-0zM6.202 15.714c-0.642 0.013-1.1 0.144-1.1 0.144-0.002 0.016-0.003 0.034-0.003 0.052s0.001 0.037 0.003 0.055l-0-0.002c0.017 0.099 0.054 0.188 0.106 0.264l-0.001-0.002c0.131 0.197 0.432 0.459 1.127 0.642 0.359 0.083 0.771 0.131 1.194 0.131 0.018 0 0.035-0 0.053-0l-0.003 0v0.013c0.747 0 1.271-0.157 1.271-0.157-0.407-0.532-0.989-0.913-1.658-1.058l-0.019-0.003c-0.257-0.051-0.552-0.080-0.853-0.080-0.041 0-0.082 0.001-0.122 0.002l0.006-0zM36.632 15.714c-0.035-0.001-0.075-0.001-0.116-0.001-0.302 0-0.597 0.029-0.882 0.085l0.029-0.005c-0.688 0.148-1.269 0.529-1.672 1.054l-0.005 0.007c0 0 0.524 0.157 1.271 0.157v-0.013c0.015 0 0.032 0 0.050 0 0.423 0 0.836-0.048 1.231-0.138l-0.037 0.007c0.694-0.183 0.996-0.445 1.127-0.642 0.051-0.074 0.088-0.163 0.104-0.258l0.001-0.004c0.002-0.016 0.003-0.034 0.003-0.052s-0.001-0.037-0.003-0.055l0 0.002c0 0-0.459-0.131-1.1-0.144zM9.529 16.016c-0.236 0-0.393 0.026-0.393 0.052s0.026 0.131 0.092 0.262c0.116 0.22 0.265 0.407 0.443 0.561l0.002 0.002c0.418 0.392 1.279 0.862 2.921 0.916-1.323-1.558-2.462-1.794-3.012-1.794h-0.052zM12.594 17.81c0 0 0 0 0.001 0.001h0.013c-0.005-0-0.009-0-0.014-0.001zM33.253 16.016c-0.55 0-1.69 0.236-3.012 1.794 1.641-0.055 2.503-0.524 2.921-0.916 0.18-0.156 0.329-0.343 0.44-0.553l0.005-0.010c0.066-0.131 0.092-0.236 0.092-0.262s-0.157-0.052-0.393-0.052h-0.052zM30.24 17.81c-0.005 0-0.009 0-0.014 0.001h0.013c0-0 0-0 0.001-0.001zM15.241 17.024c-0.005-0-0.011-0-0.017-0-0.055 0-0.108 0.010-0.157 0.027l0.003-0.001c-0.002 0.027-0.003 0.058-0.003 0.090 0 0.126 0.015 0.249 0.044 0.366l-0.002-0.011c0.022 0.121 0.073 0.227 0.145 0.316l-0.001-0.001c0.079 0.079 0.21 0.131 0.341 0.131l-0.013-0.013c0.131 0 0.223-0.052 0.262-0.131 0.026-0.092 0.013-0.197-0.039-0.328-0.079-0.223-0.301-0.445-0.563-0.445zM27.594 17.024c-0.262 0-0.485 0.223-0.563 0.445-0.052 0.131-0.066 0.236-0.039 0.328 0.039 0.079 0.131 0.131 0.262 0.131l-0.013 0.013c0.131 0 0.262-0.052 0.341-0.131 0.072-0.087 0.122-0.193 0.144-0.31l0.001-0.004c0.027-0.107 0.042-0.229 0.042-0.356 0-0.032-0.001-0.063-0.003-0.094l0 0.004c-0.046-0.017-0.099-0.026-0.154-0.026-0.006 0-0.012 0-0.017 0l0.001-0zM9.18 17.273c-0.044 0.001-0.086 0.010-0.124 0.027l0.002-0.001c0 0.013-0.013 0.196 0.026 0.38 0.015 0.099 0.052 0.188 0.106 0.264l-0.001-0.002c0.062 0.078 0.156 0.129 0.262 0.131h0l0.013 0.013c0.092 0 0.17-0.079 0.17-0.131 0.039-0.079 0.026-0.17 0-0.288-0.043-0.103-0.105-0.191-0.183-0.262l-0.001-0c-0.052-0.066-0.144-0.131-0.262-0.131-0.001-0-0.003-0-0.004-0s-0.003 0-0.005 0h0zM33.646 17.273c-0.118 0-0.21 0.066-0.262 0.131-0.078 0.072-0.14 0.159-0.182 0.257l-0.002 0.005c-0.026 0.118-0.039 0.21 0 0.288 0 0.052 0.079 0.131 0.17 0.131l0.013-0.013c0.106-0.002 0.2-0.053 0.261-0.13l0.001-0.001c0.053-0.074 0.090-0.163 0.104-0.259l0-0.003c0.039-0.183 0.026-0.367 0.026-0.38-0.037-0.017-0.080-0.026-0.126-0.026-0.002 0-0.004 0-0.005 0h0zM16.682 17.444c-0.157 0-0.262 0.026-0.262 0.026s-0.079 0.511 0.262 1.048c0.328 0.511 1.1 1.166 2.921 1.428v-0.013c-1.192-2.24-2.423-2.489-2.921-2.489zM26.153 17.444c-0.498 0-1.729 0.249-2.921 2.489v0.013c1.821-0.262 2.594-0.917 2.921-1.428 0.341-0.537 0.262-1.048 0.262-1.048s-0.105-0.026-0.262-0.026zM11.088 18.269c-0.851 0.026-1.624 0.223-1.624 0.223 0.707 0.694 1.834 0.956 2.646 0.956v-0.013h0.066c0.445 0 0.76-0.079 0.943-0.21 0.079-0.066 0.118-0.144 0.105-0.223-0.013-0.092-0.092-0.183-0.223-0.288-0.393-0.301-0.982-0.445-1.755-0.445h-0.157zM31.589 18.269c-0.773 0-1.362 0.144-1.755 0.445-0.131 0.105-0.21 0.196-0.223 0.288-0.013 0.079 0.026 0.157 0.105 0.223 0.183 0.131 0.498 0.21 0.943 0.21h0.066v0.013c0.812 0 1.939-0.262 2.646-0.956 0 0-0.773-0.197-1.624-0.223h-0.157zM14.598 18.36c-0.004-0-0.008-0-0.012-0-0.331 0-0.646 0.067-0.933 0.189l0.016-0.006c0.007 0.077 0.026 0.148 0.054 0.214l-0.002-0.005c0.091 0.179 0.225 0.326 0.389 0.43l0.004 0.003c0.393 0.262 0.982 0.393 1.755 0.393 0.367 0 0.773-0.026 1.218-0.079-0.62-0.673-1.495-1.103-2.47-1.139l-0.006-0c-0.003-0-0.008-0-0.013-0h-0.001zM28.236 18.36c-0.006 0-0.011 0-0.015 0l0.002-0c-0.981 0.036-1.855 0.467-2.474 1.137l-0.002 0.002c0.445 0.052 0.852 0.079 1.218 0.079 0.773 0 1.362-0.131 1.755-0.393 0.168-0.107 0.302-0.253 0.39-0.426l0.003-0.006c0.027-0.061 0.045-0.132 0.052-0.207l0-0.003c-0.271-0.116-0.586-0.183-0.917-0.183-0.004 0-0.009 0-0.013 0h0.001zM13.839 19.657c-0.005-0-0.011-0-0.016-0-0.055 0-0.108 0.010-0.157 0.028l0.003-0.001c-0.002 0.027-0.003 0.058-0.003 0.089 0 0.126 0.015 0.249 0.044 0.367l-0.002-0.011c0.022 0.121 0.072 0.228 0.145 0.316l-0.001-0.001c0.079 0.079 0.21 0.131 0.341 0.131v-0.013c0.105 0 0.21-0.052 0.236-0.131 0.039-0.092 0.026-0.196-0.026-0.327-0.092-0.223-0.301-0.445-0.563-0.445zM28.995 19.657c-0.262 0-0.472 0.223-0.563 0.445-0.052 0.131-0.065 0.236-0.026 0.327 0.026 0.079 0.131 0.131 0.236 0.131v0.013c0.131 0 0.262-0.052 0.341-0.131 0.072-0.087 0.122-0.193 0.143-0.31l0.001-0.004c0.027-0.107 0.042-0.23 0.042-0.356 0-0.031-0.001-0.063-0.003-0.094l0 0.004c-0.046-0.017-0.099-0.027-0.154-0.027-0.006 0-0.012 0-0.017 0l0.001-0zM16.655 20.011c-0.603 0.013-0.969 0.183-1.179 0.34-0.21 0.144-0.301 0.314-0.301 0.314 0.599 0.364 1.321 0.582 2.094 0.589h0.002v-0.013c0.006 0 0.013 0 0.020 0 0.708 0 1.37-0.195 1.936-0.534l-0.017 0.010c-0.982-0.459-1.847-0.707-2.554-0.707zM26.179 20.011c-0.707 0-1.572 0.249-2.554 0.707 0.549 0.329 1.211 0.524 1.918 0.524 0.007 0 0.014-0 0.022-0h-0.001v0.013c0.775-0.007 1.497-0.225 2.114-0.6l-0.018 0.010c0 0-0.092-0.17-0.301-0.314-0.21-0.157-0.576-0.327-1.179-0.34zM20.323 20.312l-0.314 0.354 0.599 0.273-0.009 0.002-1.506 1.113 0.432 0.38c0.153 0.143 0.294 0.292 0.426 0.451l0.006 0.008-0.092-0.066-0.105 0.078 0.21 0.026h0.013c0.010-0.007 0.019-0.016 0.026-0.026l0-0h0.013l0.17-0.183 0.498-0.589 0.642-0.825 0.078-0.118 0.007-0.002 0.006 0.002 0.078 0.118 0.642 0.825 0.498 0.589 0.17 0.183h0.013c0.007 0.010 0.016 0.019 0.026 0.026l0 0h0.013l0.21-0.026-0.105-0.078-0.092 0.066c0.138-0.166 0.279-0.316 0.429-0.456l0.003-0.003 0.432-0.38-1.506-1.113-0.009-0.002 0.598-0.273-0.314-0.354-1.094 0.456-1.094-0.456z"></path>
</svg>
