<!-- Generated by IcoMoon.io -->
<svg version="1.1" xmlns="http://www.w3.org/2000/svg" width="43" height="32" viewBox="0 0 43 32">
<title>cy-top</title>
<path d="M34.6 5.093l-0.12 0.047-0.053 0.020-0.147-0.007-0.147 0.067-0.253 0.173-0.007 0.007-0.1 0.027-0.087-0.040-0.047 0.027-0.020 0.1-0.047 0.073-0.060 0.040-0.2 0.020-0.167 0.093-0.227-0.067-0.1 0.047-0.22 0.2-0.113 0.047h-0.033l-0.153-0.007-0.060 0.020-0.093 0.087-0.173 0.013-0.060 0.040-0.087 0.173-0.093 0.107-0.053 0.007-0.053-0.020-0.047 0.007-0.020 0.113-0.040 0.047-0.12 0.040-0.093 0.080-0.087 0.040h-0.133l-0.113 0.067-0.207 0.013-0.087 0.080-0.020 0.020-0.040 0.020-0.067 0.040-0.013 0.013-0.080-0.013-0.093 0.033-0.040-0.053-0.067 0.033-0.080 0.007-0.107-0.047-0.087-0.040-0.060 0.013-0.020 0.1v0.013l-0.067 0.080-0.113 0.073-0.013 0.020-0.133 0.173-0.253 0.267-0.213 0.107-0.22 0.067-0.153 0.127-0.4 0.2-0.647 0.32-0.133 0.040-0.187 0.027-0.333 0.127-0.293 0.087-0.020 0.007-0.053 0.020-0.42 0.127-0.193-0.027-0.113 0.047-0.3-0.033h-0.207l-0.133 0.027-0.247 0.12-0.42 0.2-0.133 0.133-0.213 0.107-0.253 0.080v-0.107l-0.087 0.027-0.067 0.020-0.2 0.027h-0.113l-0.073-0.020h-0.013l-0.413 0.14-0.467 0.047-0.233 0.073h-0.173l-0.107 0.033-0.213 0.027-0.080-0.020-0.013-0.007-0.627 0.027-0.287-0.033-0.133 0.033-0.233-0.080-0.333-0.040-0.080-0.020-0.173-0.053-0.080 0.047-0.067 0.007-0.133-0.053h-0.053l-0.12 0.040-0.067-0.013-0.067-0.053-0.14-0.020-0.093-0.073-0.5 0.067-0.133-0.040-0.46-0.133h-0.067l-0.093 0.067-0.133 0.053-0.127 0.027-0.16 0.007-0.187-0.047-0.187-0.093-0.073-0.020-0.16 0.020h-0.047l-0.293-0.153-0.373-0.233-0.253-0.127-0.1-0.013-0.013 0.047 0.047 0.147 0.020 0.153v0.133l-0.007 0.087 0.020 0.073 0.093 0.107 0.040 0.1 0.027 0.28v0.287l-0.047 0.453-0.013 0.067-0.053 0.24-0.047 0.22-0.193 0.58-0.047 0.067-0.133 0.087-0.287 0.2-0.213 0.12-0.067 0.027-0.173 0.013h-0.107l-0.133-0.073-0.133-0.033-0.173-0.127-0.187-0.040-0.213-0.12-0.053-0.067-0.113-0.013-0.16-0.047-0.060-0.020-0.040-0.007-0.2-0.007-0.193-0.087-0.1-0.027h-0.133l-0.14 0.067-0.073 0.027-0.093-0.033h-0.067l-0.067 0.113-0.013 0.020-0.053 0.027h-0.113l-0.053 0.020-0.073 0.033-0.1 0.040h-0.020l-0.033 0.013h-0.040l-0.12-0.060-0.067-0.013-0.033 0.020-0.007 0.127-0.033 0.073-0.213 0.187-0.067 0.107-0.2 0.447-0.127 0.18-0.033 0.047-0.133 0.14-0.113 0.087-0.26 0.2-0.247 0.1-0.213 0.040h-0.107l-0.2-0.027-0.173-0.053-0.2-0.12-0.207-0.173-0.313-0.3-0.040-0.027-0.013-0.007-0.093-0.067h-0.073l-0.027 0.053-0.020 0.067-0.013 0.060-0.033 0.333v0.020l0.020 0.14 0.24 0.333 0.067 0.173 0.013 0.020 0.047 0.080 0.040 0.067 0.087 0.24-0.060 0.133 0.027 0.093-0.067 0.053-0.013 0.080 0.207 0.267 0.047 0.113-0.047 0.16-0.087 0.093-0.020 0.020 0.013 0.067 0.093 0.093 0.167 0.147 0.087 0.213 0.067 0.067 0.080-0.020 0.040 0.033h0.067l0.067 0.067 0.040 0.013 0.067 0.033 0.053 0.067 0.007 0.213 0.1 0.253v0.167l0.067 0.1 0.013 0.080-0.033 0.22 0.080 0.067 0.080-0.013 0.053 0.007 0.087 0.073 0.107 0.16 0.107-0.013 0.067 0.027 0.313 0.287 0.067 0.040 0.060 0.027 0.067 0.067 0.093-0.067h0.013l0.107-0.013 0.047 0.033 0.093 0.060h0.113l0.267 0.080 0.107 0.027 0.227 0.14 0.1 0.060 0.053 0.047 0.080 0.067 0.147 0.067 0.2 0.040 0.060 0.020 0.28 0.113 0.153 0.033 0.133 0.053 0.107 0.033h0.080l0.107-0.087h0.1l0.087 0.013 0.087-0.013 0.133-0.080 0.020-0.040 0.093-0.040 0.32-0.040 0.093 0.027 0.24-0.1 0.16 0.040 0.133-0.047 0.313 0.067 0.080 0.060 0.093 0.1h0.113l-0.047 0.073 0.133 0.147 0.127 0.18 0.007 0.027 0.087 0.26 0.067 0.093 0.047 0.127v0.080l-0.067 0.060-0.013 0.027v0.013l0.013 0.033 0.027-0.013 0.047-0.027 0.067-0.013 0.107 0.013 0.073 0.007 0.113-0.053 0.080-0.040 0.12 0.053h0.133l0.060 0.020 0.16 0.073 0.080 0.007 0.027-0.020 0.020-0.040-0.007-0.053-0.067-0.073-0.133-0.16-0.053-0.080-0.040-0.113-0.013-0.147-0.013-0.1 0.020-0.133 0.033-0.047 0.033-0.133 0.080-0.1 0.2-0.133 0.213-0.187 0.167-0.113 0.173-0.073v-0.020l0.027 0.007 0.44-0.153 0.2-0.033 1.333 0.093 0.047-0.013 0.047-0.127 0.020-0.020 0.020-0.013 0.147-0.067 0.067-0.013 0.267 0.067 0.127-0.067h0.087l0.18-0.1h0.113l0.047-0.013 0.22-0.16 0.207-0.060 0.053-0.027 0.020-0.013 0.22-0.113 0.133-0.107 0.12-0.067 0.133-0.027 0.333-0.027 0.073-0.113 0.147-0.020 0.087-0.1 0.1-0.040 0.073-0.107 0.067-0.087 0.080-0.047 0.273-0.020 0.32 0.040 0.047-0.027 0.067-0.26 0.080-0.047 0.2-0.3v-0.107l0.007-0.093 0.033-0.133-0.020-0.227 0.027-0.24 0.127-0.3 0.113-0.12 0.18-0.127 0.093-0.040 0.133-0.020h0.013l0.033-0.013h0.613l0.153-0.007 0.38 0.067h0.027l0.127 0.047 0.147 0.113 0.16 0.153 0.027 0.027 0.1 0.047 0.033 0.013 0.080-0.013 0.12-0.067 0.093-0.067 0.12-0.067v-0.013l0.073-0.1 0.027-0.047 0.24-0.093 0.28-0.013 0.033-0.020h0.013l0.073-0.093h0.067l0.173 0.067 0.113-0.027 0.093 0.033 0.073-0.007 0.133-0.020 0.153 0.107 0.087 0.013 0.3 0.173h0.027l0.013 0.007 0.033-0.013 0.053-0.013h0.007l0.007 0.007 0.040 0.047 0.047 0.007 0.053-0.067-0.027-0.053-0.113-0.020-0.093-0.167 0.093-0.1-0.147-0.173-0.027-0.033v-0.007l-0.053-0.080-0.253-0.387-0.333-0.267-0.113-0.087-0.040-0.033-0.18-0.18-0.127-0.167-0.013-0.033-0.027-0.060-0.073-0.16-0.133-0.1-0.107-0.12-0.227-0.307-0.033-0.047-0.053-0.033h-0.113l-0.007-0.013h-0.007v-0.007l0.053-0.053 0.067-0.013 0.020-0.060-0.113-0.327v-0.013l-0.007-0.1 0.087-0.473 0.013-0.060 0.16-0.313 0.093-0.080 0.107-0.207 0.093-0.133 0.087-0.087 0.013-0.007 0.153-0.093 0.133-0.020 0.127-0.020 0.22 0.067h0.2l0.14-0.020 0.153-0.047 0.073-0.047 0.040-0.053 0.080-0.267 0.027-0.087 0.047-0.093 0.287-0.327 0.213-0.2 0.48-0.347 0.233-0.14 0.12-0.073 1.073-0.48 0.427-0.427 0.253-0.173 0.3-0.127 0.267-0.2 0.053-0.073 0.067-0.233 0.067-0.013 0.047-0.113 0.020-0.033 0.207-0.147 0.027-0.013 0.82-0.413 0.12 0.020 0.067-0.1 0.233-0.040h0.047l0.060-0.033 0.047-0.087v-0.020l0.007-0.227 0.053-0.060 0.027-0.147 0.027-0.040 0.027-0.033 0.067-0.047-0.013-0.027z"></path>
</svg>
