<!-- Generated by IcoMoon.io -->
<svg version="1.1" xmlns="http://www.w3.org/2000/svg" width="32" height="32" viewBox="0 0 32 32">
<title>eg</title>
<path d="M14.266 0.1c-0.787 0.050-1.005 0.134-1.223 0.469-0.335 0.519-0.201 0.988 0.268 0.838s0.955 0.168 1.156 0.787c0.268 0.821-0.033 2.346-0.754 3.803l-0.603 1.223-0.888-0.067c-0.586-0.050-1.374-0.318-2.329-0.771-1.977-0.972-2.848-1.156-3.669-0.821-0.436 0.184-0.704 0.452-0.871 0.821-0.168 0.402-0.335 3.25-0.653 10.522-0.234 5.462-0.402 9.985-0.352 10.019 0.050 0.050 0.251-0.067 0.469-0.251 0.201-0.184 1.575-1.407 3.033-2.748 1.474-1.324 2.63-2.295 2.58-2.161s-0.335 1.122-0.62 2.178l-0.536 1.927h-0.821c-0.972 0-1.391 0.335-1.391 1.072 0 0.385-0.151 0.62-0.737 1.039-0.653 0.486-0.687 0.57-0.469 0.821 0.134 0.151 0.251 0.352 0.251 0.452s0.117 0.268 0.251 0.385c0.134 0.117 0.251 0.335 0.251 0.503 0 0.486 0.536 0.804 1.86 1.072 3.87 0.787 11.175 0.787 15.045 0 1.324-0.268 1.86-0.586 1.86-1.072 0-0.168 0.117-0.385 0.251-0.503s0.251-0.285 0.251-0.385c0-0.101 0.117-0.302 0.251-0.452 0.218-0.251 0.184-0.335-0.469-0.821-0.586-0.419-0.737-0.653-0.737-1.039 0-0.737-0.419-1.072-1.391-1.072h-0.821l-0.586-2.094c-0.318-1.139-0.553-2.111-0.536-2.128 0.033-0.033 1.357 1.156 2.965 2.63s2.982 2.681 3.066 2.681c0.067 0 0.084-0.737 0.034-1.642-0.050-0.888-0.251-5.395-0.452-10.002-0.251-6.065-0.402-8.528-0.57-8.93-0.168-0.369-0.436-0.637-0.871-0.821-0.821-0.335-1.692-0.151-3.669 0.821-0.938 0.452-1.742 0.72-2.312 0.771-0.838 0.067-0.888 0.050-1.072-0.402-0.385-1.022-0.536-1.876-0.553-3.334 0-1.977-0.218-2.597-1.039-2.999-0.704-0.335-1.424-0.419-2.848-0.318zM15.020 0.988c0.754 0.469 0.854 0.486 1.19 0.251 0.452-0.318 1.189-0.318 1.458 0 0.117 0.151 0.251 1.106 0.335 2.379 0.084 1.541 0.218 2.396 0.469 3.049 0.201 0.503 0.335 0.955 0.302 0.988-0.050 0.034-0.235-0.033-0.436-0.134-0.469-0.251-0.821-1.106-0.955-2.346-0.050-0.57-0.168-1.056-0.251-1.106-0.318-0.201 0.201 2.463 0.637 3.317 0.285 0.536 0.117 0.586-0.603 0.218-0.469-0.235-0.503-0.335-0.519-1.223 0-0.519-0.084-1.34-0.151-1.793-0.117-0.62-0.134-0.369-0.084 1.039 0.067 1.525 0.034 1.893-0.184 2.078-0.201 0.168-0.302 0.151-0.503-0.050-0.218-0.201-0.235-0.385-0.084-0.905 0.101-0.369 0.218-1.223 0.251-1.91 0.101-1.391-0.101-0.737-0.318 1.056-0.084 0.737-0.235 1.106-0.586 1.508-0.268 0.302-0.519 0.486-0.586 0.419s0.067-0.586 0.302-1.173c0.452-1.139 0.821-2.815 0.62-2.815-0.067 0-0.184 0.352-0.251 0.787-0.201 1.374-0.72 2.547-1.257 2.815-0.787 0.402-0.854 0.302-0.335-0.536 0.704-1.106 1.139-2.362 1.273-3.636 0.084-0.771 0.184-1.106 0.335-1.106 0.385 0 0.268-0.268-0.352-0.821-0.637-0.553-1.055-0.653-1.391-0.318-0.151 0.151-0.201 0.151-0.201-0.050 0-0.653 0.787-0.653 1.876 0.017zM9.642 6.484c0.771 0.369 1.642 0.737 1.91 0.787 0.285 0.067 0.687 0.134 0.888 0.184 0.335 0.067 0.369 0.117 0.201 0.318-0.268 0.318-0.067 0.318 0.787 0.017l0.67-0.235-0.084 0.419c-0.084 0.469-0.050 0.452 0.821-0.134 0.436-0.302 0.452-0.302 0.737 0.017 0.302 0.335 0.302 0.335 0.687-0.017 0.335-0.318 0.402-0.318 0.771-0.101 0.62 0.402 1.139 0.503 1.139 0.251 0-0.168 0.168-0.218 0.603-0.168 0.419 0.050 0.586 0.017 0.503-0.101-0.117-0.184 0-0.218 1.206-0.452 0.251-0.050 1.072-0.402 1.826-0.787 2.547-1.257 3.92-1.072 4.306 0.586l0.117 0.469-0.536-0.268c-0.285-0.151-0.57-0.234-0.62-0.168-0.084 0.084 0.235 9.030 0.586 16.335 0.067 1.575 0.050 2.044-0.101 1.91-0.134-0.117-0.318-3.016-0.603-9.030-0.218-4.859-0.436-8.863-0.469-8.896s-0.302 0.151-0.603 0.402l-0.553 0.452 0.268 6.199c0.151 3.401 0.302 6.953 0.369 7.874 0.084 1.575 0.067 1.659-0.184 1.391-0.251-0.235-0.335-1.173-0.603-7.12-0.168-3.753-0.335-7.070-0.352-7.372l-0.050-0.519-0.905 0.771 0.235 5.596c0.318 7.255 0.318 7.305 0.017 7.003-0.184-0.201-0.285-1.223-0.419-4.44-0.101-2.312-0.235-4.976-0.285-5.948l-0.101-1.759h-1.273c-1.407 0-3.401-0.519-4.071-1.056-0.369-0.318-0.385-0.318-1.257 0.151-1.156 0.603-3.217 1.056-4.255 0.938l-0.804-0.101-0.101 1.709c-0.050 0.938-0.184 3.669-0.285 6.065-0.134 3.351-0.235 4.406-0.419 4.607-0.302 0.302-0.302 0.117 0.017-7.171l0.235-5.596-0.452-0.385-0.452-0.402-0.050 0.452c-0.017 0.251-0.184 3.569-0.352 7.372-0.268 6.065-0.352 6.97-0.603 7.204-0.268 0.268-0.268 0.184-0.184-1.474 0.067-0.972 0.218-4.507 0.369-7.874l0.251-6.115-0.536-0.452c-0.302-0.251-0.57-0.436-0.62-0.402-0.033 0.033-0.235 4.054-0.452 8.913-0.285 5.964-0.469 8.896-0.603 9.014-0.151 0.134-0.168-0.335-0.101-1.91 0.352-7.422 0.67-16.268 0.586-16.352-0.050-0.050-0.352 0.033-0.653 0.184-0.503 0.268-0.536 0.268-0.419 0 0.050-0.151 0.101-0.385 0.101-0.519s0.201-0.436 0.436-0.687c0.637-0.637 1.927-0.503 3.77 0.419zM16.829 9.282c0.921 0.469 2.63 0.922 3.485 0.922h0.536v0.888c0 1.24-0.553 3.3-1.29 4.808-0.436 0.905-0.603 1.441-0.57 1.877 0.033 0.352-0.033 0.637-0.134 0.637-0.285 0-0.385-0.335-0.168-0.603 0.101-0.134 0.168-0.268 0.134-0.318-0.050-0.033-0.436 0.385-0.854 0.921-0.436 0.536-1.055 1.189-1.391 1.441l-0.603 0.452-0.62-0.503c-0.335-0.268-0.955-0.922-1.374-1.441-0.419-0.503-0.787-0.905-0.821-0.854-0.034 0.033 0.033 0.168 0.134 0.302 0.218 0.268 0.117 0.603-0.168 0.603-0.101 0-0.168-0.285-0.134-0.637 0.033-0.436-0.134-0.972-0.57-1.877-0.737-1.508-1.29-3.569-1.29-4.808v-0.888h0.553c0.754 0 2.379-0.436 3.384-0.921 0.469-0.218 0.854-0.402 0.888-0.402 0.017-0.017 0.419 0.168 0.871 0.402zM12.641 17.039c0.302 1.139 0.218 1.759-0.335 2.295-0.436 0.419-0.536 0.452-0.67 0.251-0.134-0.218-0.168-0.218-0.168 0.017 0 0.486 0.218 0.486 0.854-0.033l0.653-0.519 0.017 0.653c0.017 0.787 0.218 1.357 0.385 1.089 0.067-0.101 0.033-0.335-0.067-0.519-0.251-0.486-0.201-1.458 0.101-1.692 0.218-0.184 0.318-0.168 0.603 0.134l0.352 0.352-0.436 0.586c-0.503 0.637-0.586 0.921-0.218 0.603 0.218-0.168 0.302-0.050 0.519 0.737 0.268 0.905 0.268 0.921-0.117 1.508-0.218 0.335-0.436 0.603-0.503 0.603s-0.168-0.419-0.218-0.921c-0.067-0.503-0.168-0.922-0.235-0.922-0.050 0-0.302 0.235-0.553 0.536l-0.436 0.536-0.201-0.72-0.184-0.737-0.586 0.57c-0.67 0.653-0.687 0.57-0.184-1.039 0.218-0.687 0.57-1.893 0.787-2.697 0.201-0.804 0.436-1.424 0.519-1.374 0.084 0.033 0.218 0.352 0.318 0.704zM20.046 19.904c0.268 0.201 0.318 0.168 0.452-0.168 0.117-0.352 0.184-0.251 0.503 0.787 0.184 0.653 0.352 1.257 0.352 1.34 0 0.067-0.251-0.117-0.57-0.419l-0.586-0.57-0.184 0.737-0.201 0.72-0.436-0.536c-0.251-0.302-0.503-0.536-0.553-0.536-0.067 0-0.168 0.419-0.235 0.921-0.050 0.503-0.151 0.922-0.218 0.922s-0.285-0.268-0.503-0.603c-0.385-0.586-0.385-0.603-0.117-1.541l0.285-0.955 0.352 0.486c0.318 0.436 0.352 0.452 0.469 0.168 0.067-0.168 0.134-0.62 0.134-0.972l0.017-0.653 0.385 0.318c0.201 0.184 0.503 0.436 0.653 0.553zM11.887 22.098c0.134 0.637 0.302 0.637 0.787-0.034l0.385-0.553 0.101 0.503c0.218 0.988 0.151 1.642-0.218 2.228l-0.369 0.603-0.235-0.704c-0.117-0.385-0.285-0.704-0.352-0.704s-0.268 0.268-0.452 0.586c-0.168 0.318-0.352 0.586-0.419 0.586s-0.235-0.469-0.369-1.056l-0.268-1.039 0.519-0.536c0.586-0.603 0.737-0.586 0.888 0.117zM20.984 21.964l0.519 0.553-0.268 1.039c-0.134 0.586-0.302 1.055-0.369 1.055s-0.251-0.268-0.419-0.586c-0.184-0.318-0.385-0.586-0.452-0.586s-0.235 0.318-0.352 0.704l-0.235 0.704-0.369-0.603c-0.369-0.586-0.436-1.24-0.218-2.228l0.101-0.503 0.385 0.553c0.503 0.687 0.67 0.67 0.804-0.050 0.050-0.318 0.151-0.586 0.218-0.586s0.352 0.251 0.653 0.536zM12.222 24.444c0.168 0.737 0.369 0.754 0.771 0.084 0.402-0.687 0.57-0.586 0.737 0.452 0.168 0.972-0.034 1.642-0.486 1.642-0.302 0-0.452-0.151-0.637-0.637l-0.235-0.62-0.285 0.536c-0.168 0.302-0.352 0.553-0.436 0.553s-0.218-0.318-0.318-0.704c-0.168-0.62-0.134-0.787 0.151-1.257 0.419-0.687 0.603-0.704 0.737-0.050zM19.51 25.030c0.084-0.050 0.184-0.318 0.251-0.586 0.134-0.653 0.318-0.637 0.737 0.050 0.285 0.469 0.318 0.637 0.151 1.257-0.101 0.385-0.235 0.704-0.318 0.704s-0.268-0.251-0.436-0.553l-0.285-0.536-0.235 0.62c-0.184 0.469-0.335 0.637-0.62 0.637-0.57 0-0.737-0.854-0.402-2.078l0.184-0.637 0.402 0.603c0.235 0.335 0.486 0.57 0.57 0.519zM10.597 27.644c0.201 0.084 0.452 0.352 0.553 0.603l0.168 0.452 0.201-0.402c0.201-0.402 0.285-0.419 1.692-0.419 1.324 0 1.525 0.050 1.91 0.385 0.318 0.318 0.452 0.352 0.553 0.168 0.084-0.117 0.151-0.318 0.151-0.436 0-0.101 0.084-0.201 0.168-0.201 0.101 0 0.168 0.101 0.168 0.201 0 0.117 0.067 0.318 0.151 0.436 0.101 0.184 0.235 0.151 0.553-0.168 0.385-0.335 0.586-0.385 1.91-0.385 1.391 0 1.491 0.017 1.675 0.402l0.201 0.385 0.235-0.469c0.184-0.419 0.402-0.536 1.642-0.838 1.592-0.385 1.809-0.369 2.027 0.201 0.067 0.218 0.251 0.402 0.385 0.402 0.369 0 0.737 0.704 0.586 1.122-0.067 0.184-0.201 0.402-0.302 0.469-0.101 0.050-0.184 0.251-0.184 0.419 0 0.184-0.151 0.402-0.335 0.503-0.637 0.335-2.798 0.653-5.763 0.838-4.339 0.268-10.404-0.168-11.661-0.838-0.184-0.101-0.335-0.318-0.335-0.503 0-0.168-0.084-0.369-0.184-0.419-0.101-0.067-0.235-0.285-0.302-0.469-0.151-0.419 0.218-1.123 0.586-1.123 0.134 0 0.318-0.184 0.402-0.402s0.234-0.436 0.352-0.469c0.235-0.084 2.144 0.302 2.798 0.553z"></path>
<path d="M14.517 9.801c-0.586 0.218-1.508 0.469-2.078 0.57-0.553 0.084-1.039 0.184-1.072 0.218-0.134 0.134 0.285 2.597 0.62 3.636 0.553 1.692 1.458 3.15 2.781 4.524l1.223 1.257 1.24-1.29c1.357-1.424 2.212-2.815 2.764-4.49 0.318-1.022 0.771-3.502 0.637-3.619-0.033-0.033-0.653-0.168-1.391-0.302-0.72-0.134-1.441-0.268-1.575-0.302-0.134-0.050-0.201-0.050-0.117-0.017 0.067 0.050 0.117 1.91 0.117 4.138v4.054l-1.692 1.659-0.905-0.955-0.922-0.938v-7.757l0.754-0.318c0.419-0.184 0.754-0.369 0.754-0.419s-0.017-0.067-0.033-0.067c-0.034 0.017-0.519 0.201-1.106 0.419z"></path>
</svg>
