<!-- Generated by IcoMoon.io -->
<svg version="1.1" xmlns="http://www.w3.org/2000/svg" width="32" height="32" viewBox="0 0 32 32">
<title>er</title>
<path d="M20.125 0.923c0.145 1.045 0.511 1.746 1.357 2.591 0.445 0.445 0.778 0.812 0.734 0.812-0.167 0-0.789-0.467-1.545-1.145-1.079-0.967-1.357-1.056-2.379-0.745-0.767 0.234-1.746 0.311-1.979 0.167-0.278-0.167 0.056 0.3 0.4 0.556 0.211 0.156 0.378 0.334 0.378 0.4 0 0.156-0.589 0.122-1.045-0.067-0.534-0.222-0.511-0.056 0.067 0.434 0.945 0.823 1.267 0.901 3.158 0.867 1.568-0.033 1.735-0.022 2.491 0.245 0.445 0.156 0.856 0.322 0.912 0.378 0.156 0.156-1.123 0.278-1.823 0.189l-0.589-0.078 0.311 0.334c0.845 0.89 2.046 1.179 3.402 0.812 0.445-0.111 0.878-0.189 0.956-0.167 0.178 0.078 0.823 0.934 1.49 2.013 0.511 0.823 0.545 0.923 0.334 0.923-0.4 0-0.634-0.211-1.012-0.912-0.456-0.856-1.156-1.623-1.323-1.457-0.2 0.2-0.245 0.978-0.1 1.579 0.178 0.756 0.867 1.801 1.735 2.624 0.689 0.656 0.712 0.689 0.712 1.234 0 0.834 0.367 2.101 0.912 3.158 0.434 0.867 0.478 1.023 0.511 1.89l0.033 0.945-0.345-0.389c-0.578-0.656-1.090-2.446-0.923-3.247 0.067-0.311 0.056-0.334-0.167-0.211-0.378 0.2-0.667 0.656-0.812 1.29-0.122 0.556-0.111 0.667 0.156 1.468 0.389 1.134 0.4 1.935 0.022 2.535-0.2 0.334-0.267 0.6-0.278 1.067 0 0.734-0.233 1.479-0.612 1.935l-0.278 0.334 0.133-1.668-0.901 0.945c-0.867 0.912-1.223 1.479-1.623 2.591-0.222 0.634-0.623 1.134-1.090 1.368-0.189 0.1-0.99 0.345-1.79 0.545s-1.901 0.545-2.446 0.767c-0.556 0.222-1.045 0.4-1.101 0.4-0.145 0 0-1.357 0.211-2.068 0.278-0.901 0.556-1.168 1.245-1.223 1.079-0.078 2.19-0.756 2.535-1.568 0.167-0.378 0.189-1.179 0.056-1.523-0.067-0.189-0.1-0.178-0.222 0.122-0.167 0.4-0.745 0.978-1.090 1.090-0.145 0.033-0.256 0.044-0.256 0.011 0-0.022 0.234-0.311 0.512-0.645 0.645-0.734 1.045-1.568 1.045-2.146 0-0.712-0.145-0.801-0.478-0.289-0.345 0.511-0.978 1.168-1.312 1.345-0.211 0.122-0.222 0.111-0.067-0.189 0.567-1.112 0.2-1.746-0.634-1.101-0.523 0.389-0.934 1.256-1.223 2.535-0.133 0.623-0.289 1.079-0.322 1.012-0.033-0.056-0.178-0.7-0.3-1.434-0.133-0.723-0.334-1.623-0.445-1.979-0.389-1.167-0.245-1.712 0.511-1.957 0.3-0.1 0.556-0.1 1.123 0 1.868 0.356 3.258-0.323 3.258-1.579v-0.445l-0.334 0.289c-0.189 0.156-0.523 0.334-0.756 0.4-0.5 0.133-1.546 0.145-1.623 0.022-0.033-0.056 0.1-0.245 0.278-0.422 1.19-1.123 1.49-2.424 0.734-3.136l-0.256-0.245-0.122 0.478c-0.189 0.667-0.723 1.457-1.268 1.857-0.445 0.311-0.489 0.322-0.589 0.145-0.067-0.111-0.111-0.689-0.111-1.279 0-0.867-0.022-1.056-0.145-0.967-0.156 0.145-0.734 1.601-0.934 2.357-0.067 0.289-0.145 0.511-0.167 0.489-0.078-0.067 0.189-2.001 0.367-2.713 0.245-0.978 0.445-1.112 1.345-0.878 1.279 0.334 2.279 0.178 2.947-0.467 0.356-0.334 0.6-1.101 0.422-1.279-0.078-0.078-0.122-0.078-0.122-0.011 0 0.222-0.878 0.612-1.279 0.578l-0.4-0.033 0.656-0.478c0.778-0.556 1.134-1.134 1.134-1.812 0-0.445-0.156-0.901-0.245-0.767-0.556 0.756-0.734 0.934-1.045 1.067-0.2 0.089-0.422 0.156-0.478 0.156-0.189 0 0.334-1.323 0.667-1.679 0.178-0.189 0.322-0.378 0.322-0.4 0-0.156-1.179 0.1-1.501 0.311-0.411 0.289-1.012 1.123-1.123 1.568-0.111 0.478-0.211 0.3-0.434-0.745l-0.2-0.956 0.3-0.578c0.589-1.179 0.2-2.335-0.901-2.68-0.211-0.067-0.267-0.022-0.322 0.222-0.044 0.178-0.033 0.6 0.022 0.956 0.067 0.356 0.1 0.645 0.089 0.645s-0.233-0.1-0.5-0.222c-0.6-0.267-1.434-0.289-1.946-0.044-0.378 0.178-0.378 0.189-0.189 0.4 0.456 0.5 1.168 0.678 1.935 0.489 0.589-0.156 0.634-0.133 0.378 0.234-0.233 0.322-0.667 0.4-1.357 0.222-0.322-0.089-0.589-0.133-0.589-0.1s0.133 0.234 0.289 0.434c0.434 0.567 0.901 0.812 1.557 0.812 0.556 0 0.567 0 0.689 0.434 0.267 0.856 0.178 1.579-0.311 2.546-0.245 0.489-0.523 0.945-0.612 1.023-0.145 0.122-0.167 0.044-0.167-0.567 0-0.511-0.078-0.867-0.267-1.268-0.334-0.7-0.912-1.301-1.223-1.256-0.334 0.044-0.367 0.712-0.067 1.312 0.133 0.256 0.211 0.489 0.189 0.523-0.1 0.1-0.99-1.123-1.301-1.779-0.222-0.445-0.334-0.589-0.378-0.456-0.2 0.534 0.089 2.457 0.489 3.124 0.278 0.478 0.278 0.589 0.011 0.589-0.122 0-0.422-0.234-0.667-0.534l-0.456-0.523 0.067 0.389c0.345 2.079 1.012 2.88 2.313 2.746 0.311-0.033 0.656-0.089 0.767-0.133 0.167-0.067 0.189 0.011 0.189 0.901 0 0.545 0.033 1.712 0.067 2.602l0.067 1.612-0.311-0.389c-0.901-1.145-2.502-2.479-2.713-2.268-0.178 0.178 0.145 1.079 0.6 1.712 0.222 0.3 0.4 0.578 0.4 0.612 0 0.1-0.901-0.389-1.579-0.856-0.589-0.389-0.645-0.411-0.645-0.2 0 0.712 0.789 1.701 1.935 2.457 0.612 0.4 0.634 0.434 0.334 0.434-0.434-0.011-1.212-0.367-1.79-0.845l-0.478-0.389v0.422c0 0.567 0.478 1.523 0.956 1.879 0.745 0.578 1.979 0.745 3.158 0.445 0.334-0.089 0.634-0.145 0.678-0.122 0.078 0.056 0.378 5.604 0.289 5.682-0.033 0.033-0.389-0.067-0.778-0.233-0.4-0.156-1.045-0.334-1.434-0.4-1.935-0.3-3.658-1.846-4.859-4.325-0.256-0.511-0.456-1.012-0.456-1.101 0-0.389-0.211 0.078-0.245 0.545l-0.033 0.5-0.156-0.334c-0.623-1.334-1.145-2.379-1.334-2.613l-0.222-0.278 0.067 1.223c0.067 1.312-0.022 1.423-0.345 0.456-0.245-0.767-0.222-1.39 0.089-2.079 0.456-1.012 0.456-1.245 0.022-2.902-0.222-0.834-0.4-1.623-0.4-1.757 0-0.445-0.1-0.189-0.434 1.134-0.178 0.7-0.4 1.423-0.5 1.601-0.122 0.2-0.167 0.233-0.133 0.1 0.022-0.122 0.089-0.545 0.122-0.945 0.111-1.090 0.256-1.623 0.656-2.557 0.423-0.967 0.556-1.579 0.423-2.057l-0.1-0.334-0.234 0.534c-0.133 0.289-0.334 0.667-0.467 0.823l-0.222 0.289v-0.356c0-0.801 1.023-2.146 2.257-2.991 0.934-0.623 1.49-1.857 1.19-2.624l-0.122-0.322-0.334 0.322c-0.189 0.178-0.656 0.723-1.023 1.201-0.367 0.489-0.689 0.834-0.712 0.767-0.067-0.189 0.489-1.345 0.878-1.835 0.801-1.012 1.846-1.49 3.636-1.646 1.29-0.122 1.979-0.322 2.302-0.678 0.211-0.234 0.2-0.234-0.178-0.167-0.856 0.145-1.779 0.122-1.779-0.044 0-0.289 0.756-0.489 2.19-0.567 1.657-0.089 2.291-0.3 2.724-0.901l0.245-0.345-0.334 0.089c-1.034 0.278-2.213 0.345-2.824 0.178-0.278-0.078-0.278-0.078-0.044-0.211 0.122-0.067 1.023-0.356 1.99-0.634 0.978-0.278 2.013-0.645 2.302-0.801 0.489-0.267 0.523-0.311 0.367-0.467-0.133-0.145-0.422-0.178-1.312-0.178-1.368 0-2.379 0.3-4.192 1.234l-1.168 0.612 0.511-0.534c0.678-0.712 1.323-1.501 1.323-1.612 0-0.156-0.478-0.089-0.945 0.122-1.001 0.456-2.702 2.168-3.814 3.847-0.278 0.423-0.756 1.001-1.056 1.279-0.3 0.267-0.7 0.723-0.878 1.001s-0.3 0.4-0.267 0.289c0.156-0.456 0.856-4.103 0.801-4.147-0.078-0.078-0.756 0.356-1.023 0.656-0.845 0.945-1.134 2.090-1.279 5.148-0.133 2.757-0.3 3.647-0.311 1.723-0.022-1.601-0.389-3.447-0.689-3.447-0.178 0-0.422 0.511-0.612 1.279-0.245 1.034-0.245 3.992 0 5.615 0.323 2.101 0.334 2.024-0.111 1.112-0.222-0.456-0.456-1.079-0.534-1.379-0.156-0.611-0.189-0.589-0.445 0.256-0.545 1.857 0.289 4.136 2.68 7.261 0.267 0.345 0.478 0.656 0.478 0.7 0 0.033-0.233-0.1-0.523-0.289-0.756-0.523-2.068-1.801-2.78-2.746-0.345-0.445-0.634-0.789-0.645-0.778-0.022 0.022 0.011 0.322 0.067 0.678 0.133 0.801 0.523 1.79 0.967 2.435 0.523 0.767 1.779 1.868 2.891 2.535 1.868 1.123 2.379 1.457 2.335 1.501-0.022 0.022-0.489-0.122-1.034-0.334-1.212-0.467-2.302-0.534-2.735-0.178l-0.267 0.211 0.5 0.133c1.757 0.445 2.646 0.867 3.48 1.623 1.457 1.312 3.48 1.946 7.138 2.224 0.767 0.067 0.934 0.1 0.723 0.178-0.667 0.245-1.323 0.99-1.49 1.668l-0.067 0.311h6.004l-0.067-0.3c-0.167-0.712-0.812-1.457-1.401-1.657l-0.256-0.089 0.278-0.078c0.156-0.044 0.523-0.078 0.812-0.089 0.934-0.022 2.969-0.356 4.481-0.734 2.457-0.623 4.67-1.612 5.615-2.513l0.378-0.367-0.367-0.078c-0.2-0.033-0.767 0-1.268 0.078-0.489 0.089-0.923 0.145-0.945 0.122-0.022-0.033 0.3-0.256 0.723-0.5 1.846-1.101 3.602-2.646 4.459-3.925 0.645-0.956 0.901-1.735 0.901-2.691v-0.801l-0.334 0.645c-0.445 0.878-0.967 1.579-1.746 2.313-0.611 0.578-1.279 1.101-1.412 1.101-0.033 0 0.422-0.712 1.012-1.59 2.168-3.202 2.602-4.926 1.623-6.36l-0.3-0.434-0.2 0.812c-0.211 0.878-0.578 1.601-0.99 1.957-0.222 0.2-0.245 0.2-0.178 0.022 0.256-0.689 0.767-2.479 0.912-3.169 0.5-2.424 0.245-4.436-0.756-5.826l-0.356-0.511v1.523c0 1.179-0.044 1.579-0.178 1.835l-0.178 0.322-0.078-0.878c-0.2-2.257-0.667-4.103-1.279-4.959-0.267-0.378-1.168-0.967-1.301-0.845-0.022 0.033 0.078 0.278 0.222 0.545 0.311 0.567 0.623 1.946 0.623 2.791v0.589l-0.4-0.678c-0.411-0.7-0.945-1.334-1.546-1.823-0.178-0.156-0.556-0.634-0.834-1.056-0.589-0.934-2.213-2.591-3.235-3.313-0.411-0.289-0.778-0.523-0.823-0.523s-0.056 0.222-0.022 0.489z"></path>
</svg>
