<!-- Generated by IcoMoon.io -->
<svg version="1.1" xmlns="http://www.w3.org/2000/svg" width="43" height="32" viewBox="0 0 43 32">
<title>fm</title>
<path d="M20.583 1.684l-0.378 1.16 0.002 0.001-0.383 1.16-2.461 0.054 0.21 0.167c0.119 0.086 0.561 0.41 0.988 0.717 0.421 0.302 0.766 0.561 0.766 0.572s-0.167 0.534-0.373 1.165c-0.21 0.631-0.372 1.154-0.367 1.16 0.005 0 0.459-0.318 1.004-0.713l0.988-0.723 0.172 0.124c0.092 0.064 0.529 0.383 0.977 0.702 0.443 0.324 0.815 0.567 0.82 0.54 0.011-0.022-0.14-0.518-0.335-1.095s-0.351-1.085-0.345-1.134c0-0.043 0.442-0.399 0.982-0.783l0.977-0.702-1.241-0.016-1.241-0.011-0.384-1.176zM7.367 12.459l-0.378 1.16 0.002 0.001-0.383 1.16-2.461 0.054 0.21 0.167c0.119 0.086 0.561 0.41 0.988 0.717 0.421 0.302 0.766 0.561 0.766 0.572s-0.167 0.534-0.373 1.165c-0.21 0.631-0.373 1.154-0.367 1.16 0.005 0 0.459-0.318 1.004-0.713l0.987-0.723 0.172 0.124c0.092 0.064 0.529 0.383 0.977 0.702 0.443 0.324 0.815 0.567 0.821 0.54 0.011-0.022-0.14-0.518-0.335-1.095s-0.351-1.085-0.345-1.134c0-0.043 0.443-0.399 0.982-0.783l0.977-0.702-1.241-0.016-1.241-0.011-0.383-1.176zM20.663 23.18l-0.378 1.16 0.002 0.001-0.383 1.16-2.461 0.054 0.21 0.167c0.119 0.086 0.561 0.41 0.988 0.717 0.421 0.302 0.766 0.561 0.766 0.572s-0.167 0.534-0.373 1.165c-0.21 0.631-0.372 1.154-0.367 1.16 0.005 0 0.459-0.318 1.004-0.713l0.988-0.723 0.172 0.124c0.092 0.064 0.529 0.383 0.977 0.702 0.443 0.324 0.815 0.567 0.82 0.54 0.011-0.022-0.14-0.518-0.335-1.095s-0.351-1.085-0.345-1.134c0-0.043 0.442-0.399 0.982-0.783l0.977-0.702-1.241-0.016-1.241-0.011-0.384-1.176zM34.253 12.41l-0.378 1.16 0.002 0.001-0.383 1.16-2.461 0.054 0.21 0.167c0.119 0.086 0.561 0.41 0.988 0.717 0.421 0.302 0.766 0.561 0.766 0.572s-0.167 0.534-0.373 1.165c-0.21 0.631-0.373 1.154-0.367 1.16 0.005 0 0.459-0.318 1.004-0.713l0.987-0.723 0.172 0.124c0.092 0.064 0.529 0.383 0.977 0.702 0.443 0.324 0.815 0.567 0.821 0.54 0.011-0.022-0.141-0.518-0.335-1.095s-0.351-1.085-0.345-1.134c0-0.043 0.443-0.399 0.982-0.783l0.977-0.702-1.241-0.016-1.241-0.011-0.383-1.176z"></path>
</svg>
