<!-- Generated by IcoMoon.io -->
<svg version="1.1" xmlns="http://www.w3.org/2000/svg" width="32" height="32" viewBox="0 0 32 32">
<title>ge</title>
<path d="M10.475 0.905c0.302 1.618 0.932 6.609 1.124 8.857l0.192 2.166-2.578-0.192c-2.441-0.165-7.87-0.877-8.72-1.124-0.357-0.11-0.411 0.631-0.411 5.512 0 5.484 0 5.621 0.548 5.484 0.85-0.219 6.608-0.932 9.021-1.152l2.139-0.192-0.165 2.029c-0.247 2.66-0.96 8.446-1.152 9.159-0.137 0.548 0 0.548 5.484 0.548 4.908 0 5.621-0.055 5.512-0.411-0.247-0.74-0.932-6.115-1.124-8.72l-0.192-2.523h0.658c1.069 0 7.65 0.795 9.378 1.097 0.905 0.165 1.645 0.274 1.673 0.219 0.055-0.055-0.027-1.316-0.137-2.824-0.082-1.508-0.082-3.976 0-5.484 0.11-1.508 0.192-2.769 0.192-2.797-0.027-0.027-0.658 0.082-1.398 0.219-1.947 0.384-8.034 1.069-9.296 1.069h-1.069l0.192-2.55c0.192-2.578 0.877-7.87 1.152-8.775 0.137-0.439 0.055-0.494-0.439-0.329-0.768 0.247-9.35 0.247-10.146 0-0.576-0.192-0.603-0.137-0.439 0.713z"></path>
</svg>
