<!-- Generated by IcoMoon.io -->
<svg version="1.1" xmlns="http://www.w3.org/2000/svg" width="32" height="32" viewBox="0 0 32 32">
<title>hk</title>
<path d="M16.886 0.215c-3.533 0.637-6.287 3.289-7.056 6.812-0.187 0.834-0.206 2.549-0.047 3.298 0.487 2.249 1.912 4.132 4.123 5.472l0.506 0.309-0.459-0.478c-0.609-0.637-1.115-1.48-1.415-2.399-0.215-0.647-0.244-0.918-0.253-1.968-0.009-1.031 0.028-1.331 0.216-1.921 0.319-1.031 0.693-1.734 0.862-1.63 0.047 0.028-0.047 0.3-0.206 0.618-0.871 1.724-0.862 4.142 0.019 5.791 0.309 0.59 1.087 1.602 1.274 1.659 0.056 0.028-0.028-0.206-0.187-0.506-0.281-0.506-0.3-0.6-0.3-1.48 0-0.825 0.028-1.003 0.253-1.48 0.347-0.74 1.059-1.452 1.874-1.902 1.593-0.853 2.474-2.418 2.399-4.235-0.028-0.759-0.056-0.881-0.497-1.743-0.422-0.843-0.468-1.003-0.506-1.668-0.028-0.647 0-0.796 0.215-1.237 0.234-0.478 0.647-0.928 1.181-1.293 0.225-0.159 0.215-0.159-0.515-0.159-0.412 0.009-1.078 0.066-1.48 0.141zM14.974 5.772c0.497-0.197 0.534-0.141 0.253 0.384l-0.169 0.328 0.675 0.825-0.525-0.066-0.515-0.066-0.29 0.44-0.281 0.44-0.066-0.422c-0.084-0.562-0.112-0.59-0.647-0.74l-0.469-0.131 0.881-0.468v-1.021l0.356 0.337 0.347 0.337 0.45-0.178zM0.628 8.33c-0.628 2.033-0.553 4.198 0.216 6.081 0.543 1.359 1.799 2.933 3.008 3.795 0.787 0.562 1.996 1.124 2.933 1.359 0.665 0.169 0.984 0.197 2.062 0.159 1.134-0.038 1.377-0.075 2.202-0.356 0.974-0.328 2.211-1.050 3.017-1.752l0.459-0.403-0.609 0.272c-0.89 0.384-1.518 0.515-2.577 0.506-1.509 0-2.802-0.44-4.029-1.368-0.74-0.553-1.125-0.965-0.993-1.050 0.056-0.028 0.384 0.197 0.74 0.515 1.106 1.021 2.839 1.687 4.348 1.687 0.797 0 1.762-0.215 2.483-0.553 0.581-0.281 0.815-0.469 0.347-0.291-0.412 0.159-1.584 0.112-2.099-0.084-1.303-0.497-2.183-1.659-2.427-3.205-0.141-0.853-0.515-1.537-1.237-2.258-1.087-1.096-2.352-1.546-3.645-1.293-1.968 0.394-3.214-0.197-3.795-1.808l-0.216-0.581-0.187 0.628zM5.472 13.306l0.215 0.244 0.459-0.178c0.253-0.103 0.459-0.169 0.459-0.15 0 0.028-0.084 0.234-0.178 0.469l-0.187 0.422 0.281 0.347c0.15 0.187 0.272 0.365 0.272 0.394 0 0.019-0.206 0.019-0.468-0.019l-0.468-0.066-0.543 0.881-0.112-0.525c-0.103-0.497-0.112-0.525-0.45-0.581-0.6-0.094-0.628-0.187-0.159-0.431l0.44-0.225-0.047-0.487c-0.047-0.44-0.037-0.487 0.103-0.412 0.084 0.047 0.262 0.197 0.384 0.319zM21.646 8.536c-1.771 0.403-3.514 1.48-4.517 2.792-0.721 0.937-1.434 2.474-1.668 3.636-0.066 0.281-0.009 0.234 0.412-0.403 0.815-1.209 1.996-2.099 3.43-2.568 0.647-0.216 0.909-0.253 1.968-0.253 1.237-0.009 1.733 0.056 1.733 0.234 0 0.066-0.197 0.066-0.581 0.019-2.174-0.281-4.076 0.328-5.519 1.752-0.6 0.59-1.303 1.584-1.303 1.827 0 0.037 0.187-0.131 0.422-0.375 0.234-0.234 0.665-0.543 0.965-0.684 0.468-0.225 0.647-0.253 1.471-0.253 0.862 0 0.993 0.028 1.565 0.3 0.365 0.169 0.881 0.534 1.227 0.853 0.853 0.796 1.509 1.096 2.633 1.237 0.778 0.094 1.752-0.047 2.389-0.328 0.328-0.15 0.787-0.497 1.227-0.928 0.853-0.825 1.059-0.956 1.78-1.143 0.834-0.216 1.602-0.019 2.408 0.59l0.309 0.234-0.15-0.497c-0.234-0.834-0.937-2.146-1.555-2.924-1.078-1.368-2.755-2.483-4.479-2.98-0.9-0.253-3.298-0.337-4.17-0.141zM24.888 11.835c0.215-0.084 0.412-0.131 0.44-0.103s-0.019 0.197-0.103 0.375c-0.206 0.431-0.197 0.543 0.038 0.759 0.103 0.094 0.234 0.244 0.272 0.328 0.075 0.122 0.019 0.141-0.412 0.103-0.487-0.037-0.487-0.037-0.759 0.365l-0.281 0.412-0.084-0.487c-0.075-0.459-0.103-0.497-0.422-0.59-0.187-0.047-0.394-0.094-0.45-0.094-0.225 0-0.122-0.141 0.253-0.356 0.365-0.206 0.375-0.225 0.375-0.74v-0.534l0.74 0.721 0.394-0.159zM16.586 16.258c-0.122 0.028 0.019 0.084 0.403 0.169 1.696 0.347 3.364 1.687 4.282 3.42 0.487 0.937 0.881 2.614 0.609 2.614-0.047 0-0.112-0.094-0.131-0.216-0.028-0.112-0.094-0.478-0.159-0.815s-0.309-0.993-0.534-1.452c-0.89-1.78-2.792-3.186-4.545-3.373l-0.487-0.047 0.347 0.131c1.518 0.59 2.399 2.183 2.136 3.87-0.056 0.347-0.244 0.946-0.422 1.321-0.6 1.274-0.628 2.464-0.094 3.776 0.44 1.106 1.031 1.696 2.136 2.183 1.537 0.675 2.258 2.155 1.762 3.589-0.094 0.272-0.141 0.497-0.112 0.497 0.159 0 1.387-1.031 1.865-1.556 2.989-3.317 2.989-8.49-0.009-11.713-1.509-1.621-3.589-2.483-5.922-2.464-0.515 0.009-1.021 0.038-1.124 0.066zM22.208 23.164c0.234-0.084 0.459-0.141 0.478-0.113 0.028 0.028-0.038 0.225-0.15 0.44l-0.197 0.384 0.291 0.356c0.15 0.206 0.281 0.375 0.281 0.394s-0.225 0.028-0.487 0.009c-0.487-0.028-0.497-0.028-0.731 0.347-0.244 0.412-0.309 0.384-0.412-0.197-0.056-0.328-0.103-0.365-0.487-0.459-0.225-0.056-0.431-0.141-0.459-0.169-0.019-0.038 0.159-0.159 0.394-0.281l0.422-0.206-0.131-1.068 0.384 0.365 0.375 0.365 0.431-0.169zM15.33 17.654c-0.019 1.527-1.406 2.98-3.064 3.205-0.328 0.047-0.909 0.038-1.415-0.019-0.656-0.075-0.984-0.066-1.377 0.019-1.293 0.291-2.671 1.312-3.177 2.352-0.141 0.3-0.29 0.834-0.356 1.265-0.262 1.921-1.124 2.839-2.727 2.933l-0.731 0.047 0.487 0.365c0.675 0.506 2.23 1.246 3.027 1.434 2.999 0.731 6.091-0.103 8.274-2.23 1.115-1.087 1.715-2.071 2.127-3.505 0.45-1.555 0.394-3.27-0.178-4.901-0.375-1.068-0.412-1.068-0.412-0.038 0 2.455-1.34 4.695-3.495 5.847-0.553 0.291-0.74 0.347-0.74 0.197 0-0.056 0.309-0.253 0.684-0.45 0.459-0.234 0.918-0.59 1.434-1.106 0.618-0.618 0.834-0.909 1.19-1.64 0.534-1.096 0.768-2.165 0.693-3.139-0.037-0.375-0.103-0.778-0.15-0.9-0.075-0.187-0.094-0.15-0.094 0.262zM9.858 23.979l0.319 0.309 0.431-0.159c0.244-0.084 0.459-0.141 0.478-0.122 0.019 0.009-0.056 0.206-0.169 0.422l-0.197 0.394 0.337 0.412 0.347 0.412-0.515-0.056-0.515-0.066-0.262 0.394c-0.281 0.431-0.347 0.403-0.45-0.187-0.056-0.319-0.094-0.347-0.553-0.468l-0.487-0.131 0.459-0.272 0.459-0.262-0.056-0.459c-0.028-0.253-0.028-0.459 0-0.459 0.037 0 0.206 0.141 0.375 0.3z"></path>
</svg>
