<!-- Generated by IcoMoon.io -->
<svg version="1.1" xmlns="http://www.w3.org/2000/svg" width="43" height="32" viewBox="0 0 43 32">
<title>hn</title>
<path d="M5.408 7.842l-0.338 1.035 0.002 0.001-0.342 1.035-2.197 0.048 0.188 0.149c0.106 0.077 0.501 0.366 0.881 0.64 0.376 0.27 0.684 0.501 0.684 0.511s-0.149 0.477-0.333 1.040c-0.188 0.563-0.332 1.030-0.328 1.035 0.005 0 0.409-0.284 0.896-0.636l0.881-0.645 0.154 0.111c0.082 0.058 0.472 0.342 0.872 0.626 0.395 0.289 0.728 0.506 0.732 0.482 0.010-0.019-0.125-0.462-0.299-0.978s-0.313-0.968-0.308-1.012c0-0.039 0.395-0.356 0.877-0.699l0.872-0.626-1.108-0.015-1.108-0.010-0.342-1.050-0.337-1.045zM37.612 8.127l-0.337 1.035 0.002 0.001-0.342 1.035-2.197 0.048 0.188 0.149c0.106 0.077 0.501 0.366 0.882 0.64 0.376 0.27 0.684 0.501 0.684 0.511s-0.149 0.477-0.333 1.040c-0.188 0.563-0.333 1.031-0.328 1.035 0.005 0 0.41-0.284 0.896-0.636l0.881-0.645 0.154 0.111c0.082 0.058 0.472 0.342 0.872 0.626 0.395 0.289 0.728 0.506 0.732 0.482 0.010-0.019-0.125-0.462-0.299-0.978s-0.313-0.968-0.308-1.012c0-0.039 0.395-0.356 0.877-0.699l0.872-0.626-1.108-0.015-1.108-0.010-0.342-1.050-0.337-1.045zM21.277 13.193l-0.337 1.035 0.002 0.001-0.342 1.035-2.197 0.048 0.188 0.149c0.106 0.077 0.501 0.366 0.881 0.64 0.376 0.27 0.684 0.501 0.684 0.511s-0.149 0.477-0.333 1.040c-0.188 0.563-0.332 1.031-0.328 1.035 0.005 0 0.409-0.284 0.896-0.636l0.881-0.645 0.154 0.111c0.082 0.058 0.472 0.342 0.872 0.626 0.395 0.289 0.728 0.506 0.732 0.482 0.010-0.019-0.125-0.462-0.299-0.978s-0.313-0.968-0.308-1.012c0-0.039 0.395-0.356 0.877-0.699l0.872-0.626-1.108-0.015-1.108-0.010-0.342-1.050-0.337-1.045zM5.408 17.816l-0.338 1.035 0.002 0.001-0.342 1.035-2.197 0.049 0.188 0.149c0.106 0.077 0.501 0.366 0.881 0.64 0.376 0.27 0.684 0.501 0.684 0.511s-0.149 0.477-0.333 1.040c-0.188 0.563-0.332 1.031-0.328 1.035 0.005 0 0.409-0.284 0.896-0.636l0.881-0.645 0.154 0.111c0.082 0.058 0.472 0.342 0.872 0.626 0.395 0.289 0.728 0.506 0.732 0.482 0.010-0.019-0.125-0.462-0.299-0.978s-0.313-0.968-0.308-1.012c0-0.039 0.395-0.356 0.877-0.699l0.872-0.626-1.108-0.014-1.108-0.010-0.342-1.050-0.337-1.045zM37.612 17.816l-0.337 1.035 0.002 0.001-0.342 1.035-2.197 0.049 0.188 0.149c0.106 0.077 0.501 0.366 0.882 0.64 0.376 0.27 0.684 0.501 0.684 0.511s-0.149 0.477-0.333 1.040c-0.188 0.563-0.333 1.031-0.328 1.035 0.005 0 0.41-0.284 0.896-0.636l0.881-0.645 0.154 0.111c0.082 0.058 0.472 0.342 0.872 0.626 0.395 0.289 0.728 0.506 0.732 0.482 0.010-0.019-0.125-0.462-0.299-0.978s-0.313-0.968-0.308-1.012c0-0.039 0.395-0.356 0.877-0.699l0.872-0.626-1.108-0.014-1.108-0.010-0.342-1.050-0.337-1.045z"></path>
</svg>
