<!-- Generated by IcoMoon.io -->
<svg version="1.1" xmlns="http://www.w3.org/2000/svg" width="32" height="32" viewBox="0 0 32 32">
<title>il</title>
<path d="M2.144 8h9.238l4.618-8 4.619 8h9.237l-4.618 8 4.619 8h-9.237l-4.619 8-4.619-8h-9.237l4.619-8-4.619-8zM16 4.239l-2.171 3.761h4.343l-2.171-3.761zM21.843 10.12l2.171 3.761 2.171-3.761h-4.342zM24.014 18.12l-2.171 3.761h4.342l-2.171-3.761zM13.829 24l2.171 3.761 2.171-3.761h-4.343zM7.986 13.88l2.171-3.761h-4.343l2.171 3.761zM9.21 16l3.395 5.881h6.79l3.395-5.881-3.395-5.88h-6.79l-3.395 5.88zM7.986 18.12l-2.171 3.761h4.343l-2.171-3.761z"></path>
</svg>
