<!-- Generated by IcoMoon.io -->
<svg version="1.1" xmlns="http://www.w3.org/2000/svg" width="43" height="32" viewBox="0 0 43 32">
<title>im</title>
<path d="M18.161 1.116c-0.339-0.002-0.671 0.049-0.997 0.080-0.321 0.062-0.597 0.241-0.749 0.49-0.074 0.106-0.14 0.184-0.202 0.249l-0.003-0.017c0 0-0 0.020-0 0.021-0.232 0.245-0.392 0.258-0.588 0.434-2.006 0.312-3.906 1.347-5.35 2.051-0.217 0.163-0.463 0.321-0.72 0.461l-0.032 0.016-1.941 0.236-0.003 0.005c-0.275-0.105-0.512-0.239-0.726-0.403l0.007 0.005-2.773-2.523c-0.803-0.597-0.999 0.268-0.847 0.401 0.268 0.571-0.312 0.918 1.891 2.996l0.829 1.712c0 0-0.045 0.464 0 0.482 0.223 0.546 0.525 0.705 0.801 0.691l-0.177 0.459c0 0-0.954 0.312-0.936 0.321l1.097 0.392 0.196 0.909 0.874-0.696 1.293 0.107c-0.018-0.009-0.696-0.829-0.731-0.847s0.642-0.829 0.66-0.847c0.018-0.018-1.213 0.268-1.231 0.285s-0.465-0.261-0.526-0.306c0.002-0.002 0.005-0.004 0.007-0.006h0.002c-0 0-0.002-0-0.002-0 0.003-0.003 0.007-0.006 0.011-0.009l0.651-0.598c0 0 1.293-0.41 1.311-0.446 0.489 0.072 1.25 0.034 2.056-0.057 0.002 0.011 0.005 0.008 0.010-0.001 0.001-0 0.002-0 0.003-0l-0.001 0.005 0.002-0.005c1.482-0.168 3.114-0.515 3.494-0.7 0.080-0.044 0.147-0.075 0.208-0.098 0.020 0.013 0.038 0.023 0.051 0.027l-0.029-0.035c0.326-0.121 0.41-0.001 0.796-0.313 0.383-0.259 0.178-0.053 0.892-0.704 0.214-0.178 0.383 0.116 0.428 0.33 0.033 1.883 0.297 3.521 0.484 5.362-0.026-0.005-0.042-0.006-0.029 0.006v-0.009c0.053 0.25-0.045 0.508-0.178 0.598l0.008 0.004c-0.020 0.017-0.041 0.034-0.061 0.050-0.687 0.357-3.299 3.344-3.656 3.807-0.383 0.812-0.886 1.503-1.495 2.084l-0.003 0.003c-0.651 0.49-1.008 1.159-0.919 1.783 0 0.803 0.437 1.338 0.785 1.881 0.205 0.259 0.49 0.419 0.785 0.446 0.122 0.014 0.217 0.034 0.301 0.057l-0.007 0.006c0 0 0.010-0.005 0.010-0.005 0.338 0.090 0.427 0.232 0.676 0.317 1.195 1.641 2.996 2.853 4.28 3.807 0.294 0.144 0.543 0.289 0.779 0.451l-0.021-0.014 1.114 1.632h0.011c0.033 0.34-0.001 0.629-0.029 0.82l-0.954 3.62c-0.169 0.981 0.696 0.767 0.74 0.571 0.383-0.508 0.963-0.152 1.783-3.058l1.141-1.525c0 0 0.437-0.178 0.437-0.223 0.375-0.45 0.38-0.788 0.244-1.024l0.487-0.055c0 0 0.713 0.704 0.713 0.678l-0.152-1.159 0.713-0.598-1.025-0.446-0.499-1.204c0 0.018-0.419 1.008-0.419 1.043s-1.034-0.196-1.052-0.196c-0.018 0 0.803 0.972 0.82 0.972s-0.016 0.525-0.034 0.597c-0.006-0.003-0.013-0.006-0.019-0.008l-0.82-0.303c0 0-0.963-0.963-1.008-0.963-0.16-0.468-0.544-1.122-0.995-1.79 0.005-0.006 0.002-0.009-0.006-0.010-0.828-1.225-1.883-2.494-2.217-2.748-0.076-0.082-0.141-0.149-0.205-0.213-0-0.006 0-0.015-0-0.019l-0.005 0.013c-0.23-0.231-0.399-0.363-0.663-0.53-0.526-0.25-0.696-0.339-1.017-0.464-0.268-0.107-0.080-0.401 0.089-0.535 1.758-0.958 3.145-2.012 4.815-3.084 0.017 0.022 0.035 0.043 0.053 0.061 0 0.011 0.206 0.009 0.393 0.005 0.056 0.022 0.112 0.043 0.169 0.066h0.009c0.633 0.419 4.521 1.239 5.109 1.32 0.157-0.013 0.34-0.020 0.525-0.020 0.723 0 1.419 0.112 2.074 0.319l-0.049-0.013c0.74 0.321 1.498 0.303 2.006-0.089 0.696-0.375 0.945-1.017 1.248-1.605 0.061-0.131 0.097-0.284 0.097-0.446s-0.036-0.315-0.1-0.452l0.003 0.007c-0.048-0.118-0.077-0.214-0.098-0.301l0.018 0.007c-0-0-0.018-0.012-0.019-0.014-0.078-0.328-0.001-0.474-0.043-0.727 0.838-1.855 1.017-4.013 1.213-5.609-0.006-0.321 0.002-0.613 0.019-0.873l0.873-1.766-0.006-0.010c0.207-0.15 0.445-0.276 0.7-0.367l0.020-0.006 3.629-0.945c0.945-0.339 0.33-0.981 0.134-0.927-0.624-0.089-0.606-0.767-3.54-0.062l-1.89-0.241c0 0-0.357-0.294-0.401-0.268-0.571-0.104-0.868 0.054-1.010 0.285l-0.283-0.391c0 0 0.259-0.972 0.241-0.963l-0.936 0.713-0.874-0.339 0.116 1.115-0.803 1.026c0.009-0.009 1.079-0.134 1.106-0.152 0.036-0.018 0.339 1.007 0.348 1.025 0.009 0.009 0.446-1.186 0.437-1.195-0.009-0.017 0.463-0.249 0.542-0.265 0.001 0.005 0.001 0.010 0.001 0.015l0.143 0.874c0 0-0.366 1.302-0.348 1.338-0.33 0.37-0.714 1.030-1.078 1.755-0.006-0.001-0.007 0.003-0.005 0.009-0.669 1.333-1.267 2.889-1.325 3.31-0.007 0.091-0.018 0.164-0.031 0.228-0.023 0.011-0.040 0.022-0.049 0.031l0.044-0.006c-0.076 0.333-0.222 0.339-0.178 0.835 0 0.464-0.054 0.178 0.098 1.124 0.045 0.285-0.312 0.268-0.508 0.178-1.712-1.070-3.335-1.774-5.127-2.72l-0.118-0.061c0.052-0.042 0.102-0.084 0.154-0.126-0.205-0.098-0.285-0.553-0.303-0.731 0 0-0.075 0.063-0.095 0.079-0.148-1.029-1.445-4.344-1.68-4.84-0.505-0.651-0.902-1.414-1.147-2.243l-0.012-0.049c-0.134-0.803-0.562-1.427-1.159-1.641-0.352-0.183-0.698-0.239-1.037-0.241z"></path>
</svg>
