<!-- Generated by IcoMoon.io -->
<svg version="1.1" xmlns="http://www.w3.org/2000/svg" width="32" height="32" viewBox="0 0 32 32">
<title>in</title>
<path d="M14.151 0.133c-2.234 0.346-3.751 0.825-5.559 1.756-4.216 2.155-7.262 6.171-8.286 10.933-0.186 0.825-0.239 1.689-0.239 3.192 0 2.953 0.426 4.788 1.756 7.355 2.155 4.216 6.171 7.262 10.933 8.286 1.569 0.346 4.815 0.346 6.384 0 6.291-1.357 11.092-6.171 12.449-12.449 0.346-1.569 0.346-4.815 0-6.384-1.343-6.211-6.038-10.986-12.183-12.382-1.104-0.253-4.349-0.439-5.254-0.306zM17.17 2.447c0.279 0.479 0.692 0.519 1.131 0.106l0.306-0.279 0.958 0.253c0.851 0.239 0.971 0.306 1.051 0.652 0.173 0.599 0.745 0.798 1.184 0.399 0.186-0.173 0.306-0.133 1.104 0.346 0.825 0.492 0.891 0.572 0.891 0.998 0 0.572 0.505 0.891 0.958 0.598 0.253-0.16 0.346-0.093 1.037 0.585 0.705 0.692 0.758 0.798 0.638 1.077-0.239 0.519 0.053 0.984 0.612 0.984 0.426 0 0.505 0.066 0.997 0.891 0.479 0.798 0.519 0.918 0.346 1.104-0.399 0.439-0.2 1.011 0.399 1.184 0.346 0.080 0.412 0.2 0.652 1.051l0.253 0.971-0.293 0.266c-0.399 0.372-0.332 0.931 0.16 1.157 0.346 0.173 0.359 0.213 0.359 1.197 0 0.997-0.013 1.024-0.399 1.25-0.479 0.266-0.532 0.785-0.133 1.131 0.332 0.279 0.332 0.346 0 1.397-0.226 0.758-0.306 0.865-0.692 0.971-0.346 0.106-0.452 0.213-0.479 0.505-0.027 0.213 0.040 0.479 0.16 0.612 0.186 0.2 0.16 0.306-0.332 1.117-0.492 0.825-0.572 0.891-0.997 0.891-0.559 0-0.851 0.465-0.612 0.984 0.12 0.279 0.067 0.386-0.612 1.051-0.678 0.652-0.798 0.718-1.064 0.585-0.492-0.226-0.958 0.067-0.958 0.625 0 0.426-0.067 0.505-0.891 0.997-0.811 0.492-0.918 0.519-1.117 0.332-0.133-0.12-0.399-0.186-0.612-0.16-0.293 0.027-0.399 0.133-0.505 0.479-0.106 0.386-0.213 0.465-0.971 0.692-1.051 0.332-1.117 0.332-1.397 0-0.346-0.399-0.865-0.346-1.131 0.133-0.226 0.386-0.253 0.399-1.25 0.399-0.984 0-1.024-0.013-1.197-0.372-0.226-0.479-0.785-0.545-1.157-0.146l-0.266 0.293-0.971-0.253c-0.851-0.239-0.971-0.306-1.051-0.652-0.173-0.598-0.745-0.798-1.184-0.399-0.186 0.173-0.306 0.133-1.104-0.346-0.825-0.492-0.891-0.572-0.891-0.997 0-0.559-0.465-0.851-0.984-0.612-0.279 0.12-0.386 0.067-1.077-0.638-0.678-0.692-0.745-0.785-0.585-1.037 0.279-0.452-0.013-0.931-0.625-0.984-0.439-0.040-0.532-0.12-0.998-0.891s-0.492-0.878-0.319-1.077c0.399-0.439 0.2-1.011-0.399-1.184-0.346-0.080-0.412-0.2-0.652-1.051l-0.253-0.958 0.279-0.306c0.412-0.439 0.372-0.851-0.106-1.13-0.386-0.226-0.399-0.253-0.399-1.25 0-0.984 0.013-1.024 0.372-1.197 0.479-0.226 0.545-0.785 0.146-1.157l-0.293-0.266 0.253-0.971c0.239-0.851 0.306-0.971 0.652-1.051 0.599-0.173 0.798-0.745 0.399-1.184-0.173-0.2-0.146-0.306 0.319-1.077 0.452-0.745 0.572-0.865 1.011-0.931 0.665-0.106 0.891-0.492 0.612-1.037-0.106-0.186 0.013-0.386 0.625-0.984 0.572-0.572 0.811-0.718 0.958-0.625 0.505 0.319 0.944 0.066 1.051-0.598 0.067-0.439 0.186-0.559 0.931-1.011 0.771-0.465 0.878-0.492 1.077-0.319 0.439 0.399 1.011 0.2 1.184-0.399 0.080-0.346 0.2-0.412 1.051-0.652l0.971-0.253 0.266 0.293c0.372 0.399 0.931 0.332 1.157-0.16 0.173-0.346 0.213-0.359 1.197-0.359 0.997 0 1.024 0.013 1.25 0.399z"></path>
<path d="M12.542 3.511c0.040 0.186 0.399 1.915 0.798 3.857 0.532 2.554 0.865 3.83 1.21 4.642 0.439 1.051 0.505 1.476 0.226 1.476-0.066 0-0.359-0.559-0.638-1.237-0.332-0.798-1.224-2.314-2.554-4.349-1.13-1.716-2.101-3.192-2.181-3.259-0.067-0.080 0.625 1.397 1.556 3.259 1.144 2.288 1.968 3.764 2.554 4.549 0.758 1.024 0.931 1.436 0.598 1.436-0.053 0-0.479-0.492-0.958-1.104-0.732-0.944-2.74-2.846-6.158-5.812l-0.692-0.599 0.598 0.692c2.966 3.418 4.868 5.426 5.825 6.158 0.598 0.479 1.091 0.904 1.091 0.958 0 0.332-0.412 0.16-1.436-0.598-0.785-0.585-2.261-1.41-4.549-2.554-1.862-0.931-3.325-1.623-3.259-1.556 0.080 0.080 1.543 1.051 3.259 2.181 2.035 1.33 3.551 2.221 4.362 2.553 0.665 0.279 1.224 0.572 1.224 0.638 0 0.279-0.426 0.213-1.476-0.226-0.811-0.346-2.088-0.678-4.642-1.21-1.942-0.399-3.671-0.758-3.857-0.798-0.186-0.027 1.317 0.505 3.338 1.197 2.899 0.984 3.95 1.277 5.014 1.41 1.157 0.146 1.357 0.213 1.357 0.412 0 0.266 0.12 0.266-1.929 0.013-0.851-0.106-8.047 0.226-8.047 0.372 0 0.053 1.636 0.173 3.631 0.279 2.966 0.16 3.844 0.16 4.881 0.027 0.692-0.093 1.303-0.16 1.37-0.173 0.053 0 0.093 0.106 0.093 0.239 0 0.213-0.186 0.279-1.357 0.426-1.064 0.133-2.115 0.426-5.014 1.41-2.022 0.692-3.525 1.224-3.338 1.184 3.95-0.732 7.155-1.49 8.339-1.942 1.237-0.492 1.636-0.559 1.636-0.266 0 0.067-0.559 0.346-1.224 0.625-0.811 0.332-2.328 1.224-4.362 2.554-1.716 1.131-3.179 2.101-3.259 2.181-0.066 0.067 1.397-0.625 3.259-1.556 2.288-1.144 3.764-1.968 4.549-2.554 1.011-0.745 1.436-0.931 1.436-0.599 0 0.053-0.492 0.479-1.104 0.944-0.944 0.745-2.846 2.766-5.812 6.171l-0.598 0.692 0.692-0.599c3.498-3.046 5.413-4.868 6.158-5.825 0.479-0.598 0.904-1.091 0.958-1.091 0.332 0 0.16 0.412-0.599 1.436-0.585 0.785-1.41 2.261-2.554 4.549-0.931 1.862-1.623 3.325-1.556 3.259 0.080-0.080 1.051-1.543 2.181-3.259 1.33-2.035 2.221-3.551 2.554-4.362 0.279-0.665 0.572-1.224 0.638-1.224 0.279 0 0.213 0.399-0.226 1.45-0.399 0.958-1.436 5.32-2.008 8.525-0.027 0.186 0.505-1.317 1.197-3.338 0.984-2.899 1.277-3.95 1.41-5.014 0.146-1.157 0.213-1.357 0.412-1.357 0.266 0 0.266-0.12 0.013 1.929-0.106 0.851 0.226 8.047 0.373 8.047 0.053 0 0.173-1.636 0.279-3.631 0.16-2.966 0.16-3.844 0.027-4.881-0.093-0.692-0.16-1.303-0.173-1.37 0-0.053 0.106-0.093 0.239-0.093 0.213 0 0.279 0.186 0.426 1.357 0.133 1.064 0.426 2.115 1.41 5.014 0.692 2.022 1.224 3.524 1.184 3.338-0.732-3.95-1.49-7.155-1.942-8.339-0.492-1.237-0.559-1.636-0.266-1.636 0.066 0 0.346 0.559 0.625 1.224 0.332 0.811 1.224 2.328 2.554 4.362 1.13 1.716 2.101 3.179 2.181 3.259 0.066 0.067-0.625-1.397-1.556-3.259-1.144-2.288-1.968-3.764-2.554-4.549-0.745-1.011-0.931-1.436-0.599-1.436 0.053 0 0.479 0.492 0.944 1.104 0.745 0.944 2.766 2.846 6.171 5.812l0.692 0.598-0.599-0.692c-3.046-3.485-4.868-5.426-5.812-6.171-0.612-0.465-1.104-0.891-1.104-0.944 0-0.332 0.426-0.146 1.436 0.599 0.785 0.585 2.261 1.41 4.549 2.554 1.862 0.931 3.338 1.623 3.259 1.556-0.066-0.080-1.543-1.051-3.259-2.181-2.035-1.33-3.551-2.221-4.349-2.554-0.678-0.279-1.237-0.559-1.237-0.625 0-0.293 0.399-0.226 1.636 0.266 1.184 0.452 4.389 1.21 8.339 1.942 0.186 0.040-1.317-0.492-3.338-1.184-2.899-0.984-3.95-1.277-5.014-1.41-1.17-0.146-1.357-0.213-1.357-0.426 0-0.133 0.040-0.239 0.106-0.239 0.053 0.013 0.665 0.080 1.357 0.173 1.037 0.133 1.915 0.133 4.894-0.027 1.982-0.106 3.618-0.226 3.618-0.279 0-0.146-7.195-0.479-8.047-0.373-2.048 0.253-1.928 0.253-1.928-0.013 0-0.2 0.2-0.266 1.357-0.412 1.064-0.133 2.115-0.426 5.014-1.41 2.022-0.692 3.524-1.224 3.338-1.197-3.205 0.572-7.568 1.609-8.525 2.008-1.051 0.439-1.45 0.505-1.45 0.226 0-0.066 0.559-0.359 1.224-0.638 0.811-0.332 2.328-1.224 4.362-2.554 1.716-1.13 3.192-2.101 3.259-2.181 0.080-0.067-1.397 0.625-3.259 1.556-2.288 1.144-3.764 1.968-4.549 2.554-1.024 0.758-1.436 0.931-1.436 0.599 0-0.053 0.492-0.479 1.104-0.958 0.944-0.745 2.766-2.66 5.812-6.158l0.599-0.692-0.692 0.598c-3.405 2.966-5.426 4.868-6.171 5.812-0.465 0.612-0.891 1.104-0.944 1.104-0.332 0-0.146-0.426 0.599-1.436 0.585-0.785 1.41-2.261 2.554-4.549 0.931-1.862 1.623-3.338 1.556-3.259-0.080 0.067-1.051 1.543-2.181 3.259-1.33 2.035-2.221 3.551-2.554 4.349-0.279 0.678-0.559 1.237-0.625 1.237-0.293 0-0.226-0.399 0.266-1.636 0.452-1.184 1.21-4.389 1.942-8.339 0.040-0.186-0.492 1.317-1.184 3.338-0.984 2.899-1.277 3.95-1.41 5.014-0.146 1.17-0.213 1.357-0.426 1.357-0.133 0-0.239-0.040-0.239-0.106 0.013-0.053 0.080-0.665 0.173-1.357 0.133-1.037 0.133-1.915-0.027-4.894-0.106-1.982-0.226-3.618-0.279-3.618-0.146 0-0.479 7.195-0.372 8.047 0.253 2.048 0.253 1.929-0.013 1.929-0.2 0-0.266-0.2-0.412-1.357-0.133-1.064-0.426-2.115-1.41-5.014-0.692-2.022-1.224-3.525-1.197-3.338z"></path>
</svg>
