<!-- Generated by IcoMoon.io -->
<svg version="1.1" xmlns="http://www.w3.org/2000/svg" width="32" height="32" viewBox="0 0 32 32">
<title>iq</title>
<path d="M15.867 15.223l0.027 4.179 1.396 0.026c0.998 0.018 1.387-0.009 1.387-0.079 0-0.106-0.627-2.12-0.68-2.191-0.009-0.018-0.124 0.071-0.238 0.194-0.221 0.239-0.433 0.292-0.707 0.186-0.124-0.044-0.141-0.353-0.141-2.5 0-2.279 0.009-2.456 0.177-2.73 0.23-0.38 0.23-0.415-0.106-0.557-0.15-0.062-0.468-0.247-0.707-0.406l-0.424-0.291 0.018 4.17zM29.084 11.167c-0.026 0.053-0.026 1.944 0 4.196l0.035 4.082h1.414c1.096 0 1.405-0.026 1.369-0.115-0.018-0.053-0.186-0.565-0.371-1.122-0.177-0.557-0.336-1.025-0.353-1.043-0.009-0.018-0.133 0.079-0.256 0.203-0.159 0.159-0.309 0.221-0.477 0.203l-0.239-0.026-0.026-2.544c-0.018-2.447-0.018-2.562 0.159-2.801l0.186-0.256-0.433-0.221c-0.238-0.124-0.557-0.318-0.707-0.442-0.177-0.159-0.274-0.194-0.3-0.115zM9.002 13.721l-2.474 2.562v0.91l3.251 0.026c2.085 0.009 3.313-0.009 3.419-0.071 0.124-0.071 0.177-0.203 0.194-0.548s0.062-0.477 0.168-0.495c0.115-0.018 0.159 0.080 0.203 0.424 0.035 0.247 0.035 0.583 0 0.751l-0.053 0.309h-8.464v-0.839c0-0.963-0.097-1.113-0.512-0.733-0.133 0.124-0.371 0.309-0.539 0.424-0.3 0.212-0.3 0.212-0.115 0.336 0.141 0.097 0.194 0.221 0.194 0.468v0.345h-2.023l-0.186-0.265c-0.124-0.168-0.177-0.362-0.159-0.539 0.018-0.159-0.018-0.3-0.071-0.318-0.106-0.035-1.184 0.822-1.184 0.945 0 0.035 0.115 0.194 0.256 0.345 0.477 0.512 0.592 1.74 0.203 2.279-0.106 0.141-0.362 0.362-0.592 0.477-0.512 0.274-0.521 0.433-0.018 0.433 0.866 0 1.546-0.442 1.793-1.166l0.097-0.291 12.581-0.044-0.027-1.802c-0.027-2.067-0.018-2.032-0.91-2.509l-0.451-0.247-0.557 0.318c-0.539 0.309-0.795 0.592-0.804 0.901 0 0.15-0.168 0.159-2.173 0.159h-2.173l1.617-1.688c1.829-1.899 2.050-2.103 2.5-2.173 0.177-0.027 0.318-0.062 0.318-0.088 0-0.018-0.141-0.15-0.309-0.3-0.186-0.168-0.327-0.38-0.362-0.574-0.027-0.168-0.080-0.3-0.115-0.292-0.027 0-1.166 1.157-2.527 2.571zM27.29 12.069l-0.53 0.521 0.035 2.5 0.027 2.5h-0.636v-4.426l-0.327 0.345c-0.186 0.186-0.415 0.389-0.512 0.442-0.168 0.088-0.177 0.212-0.221 1.838-0.035 1.528-0.062 1.749-0.194 1.838-0.115 0.071-0.203 0.071-0.309 0-0.141-0.088-0.159-0.274-0.186-1.484-0.009-0.804-0.053-1.378-0.106-1.378-0.141 0-1.14 0.742-1.14 0.848-0.009 0.062 0.053 0.124 0.124 0.159 0.079 0.026 0.133 0.168 0.133 0.362v0.309h-0.442c-0.557 0-0.972 0.168-1.228 0.495-0.177 0.221-0.186 0.327-0.168 1.352l0.026 1.113 3.074 0.026c2.412 0.018 3.083 0 3.11-0.088 0.026-0.062 0.035-1.846 0.026-3.958l-0.026-3.843-0.53 0.53zM25.85 12.113c-0.186 0.415-0.424 0.504-0.742 0.265l-0.265-0.194-0.265 0.318c-0.3 0.371-0.61 0.415-0.813 0.124-0.115-0.159-0.141-0.168-0.186-0.044-0.239 0.601 0.601 0.839 1.157 0.318 0.159-0.15 0.239-0.168 0.495-0.097 0.592 0.168 1.078-0.247 0.91-0.769-0.080-0.256-0.159-0.23-0.292 0.079z"></path>
</svg>
