<!-- Generated by IcoMoon.io -->
<svg version="1.1" xmlns="http://www.w3.org/2000/svg" width="32" height="32" viewBox="0 0 32 32">
<title>ir-line</title>
<path d="M0 10.963v0.889h15.111v-1.778h-15.111v0.889zM16.889 10.963v0.889h15.111v-1.778h-15.111v0.889zM0 14.222v0.889h21.926v-1.778h-21.926v0.889z"></path>
<path d="M23.615 13.511c-0.119 0.118-0.207 0.918-0.207 1.807v1.57h-6.518v5.037h5.037v-0.889c0-0.889-0.030-0.889-1.63-0.889-1.541 0-1.63-0.030-1.63-0.741 0-0.741 0.030-0.741 2.37-0.741h2.37v3.259h8.593v-8.593h-1.778v6.815h-1.481v-6.815h-1.778v6.815h-0.741c-0.711 0-0.711 0-0.8-3.348-0.089-3.319-0.089-3.319-0.83-3.407-0.415-0.059-0.859 0-0.978 0.118zM0 19.407v2.518h0.889c0.889 0 0.889-0.030 0.889-1.63v-1.63h4.741v3.259h8.593v-5.037h-5.037v0.889c0 0.889 0.030 0.889 1.63 0.889 1.541 0 1.63 0.030 1.63 0.741 0 0.741-0.030 0.741-2.37 0.741h-2.37v-3.259h-8.593v2.518z"></path>
</svg>
