<!-- Generated by IcoMoon.io -->
<svg version="1.1" xmlns="http://www.w3.org/2000/svg" width="32" height="32" viewBox="0 0 32 32">
<title>ir</title>
<path d="M11.168 0.902c-0.249 1.041 0.373 2.299 1.382 2.796 0.963 0.45 1.988 0.264 2.796-0.497l0.419-0.404 0.435 0.404c0.792 0.761 1.817 0.947 2.78 0.497 1.010-0.497 1.631-1.755 1.382-2.796l-0.109-0.419-0.264 0.528c-0.14 0.28-0.497 0.683-0.792 0.87-1.010 0.683-2.703 0.326-3.153-0.652-0.217-0.482-0.342-0.482-0.559 0-0.45 0.979-2.143 1.336-3.153 0.652-0.295-0.186-0.652-0.59-0.792-0.87l-0.264-0.528-0.109 0.419zM8.124 4.164c-3.728 1.289-6.524 4.256-7.766 8.17-0.311 1.010-0.357 1.476-0.357 3.417 0.016 2.128 0.031 2.33 0.513 3.728 0.885 2.578 2.423 4.706 4.442 6.12 1.662 1.18 1.771 1.18 0.963 0.047-0.994-1.382-2.035-3.65-2.454-5.328-0.497-1.973-0.497-5.436 0-7.44 0.73-2.967 2.842-6.353 5.079-8.17 0.559-0.45 1.010-0.839 1.010-0.87 0-0.109-0.45-0.016-1.429 0.326zM21.979 3.838c0 0.031 0.45 0.419 1.010 0.87 2.237 1.817 4.349 5.203 5.079 8.17 0.497 2.004 0.497 5.468 0 7.44-0.419 1.677-1.46 3.945-2.454 5.328-0.808 1.134-0.699 1.134 0.963-0.047 2.019-1.413 3.557-3.541 4.442-6.12 0.482-1.398 0.497-1.6 0.513-3.728 0-1.942-0.047-2.408-0.357-3.417-1.243-3.945-4.070-6.912-7.828-8.17-1.041-0.357-1.367-0.435-1.367-0.326z"></path>
<path d="M15.253 4.273c-0.14 0.078-0.559 0.202-0.932 0.264l-0.652 0.124 0.047 2.004c0.031 1.118 0.155 5.483 0.28 9.708 0.264 9.195 0.264 9.32 0.062 9.32-0.28 0-2.734-2.547-3.402-3.557-0.979-1.445-1.973-3.635-2.376-5.235-0.28-1.134-0.342-1.817-0.342-3.79 0-3.075 0.326-4.52 1.615-7.083l0.901-1.802-0.699 0.683c-1.615 1.569-3.231 4.349-3.821 6.57-1.6 5.949 1.025 12.721 6.135 15.874 0.497 0.311 0.901 0.606 0.901 0.668 0 0.295-3.277 0.916-5.017 0.948l-0.808 0.016 1.165 0.311c1.227 0.326 4.753 0.466 5.638 0.233 0.342-0.093 0.419-0.062 0.419 0.155 0.016 0.155 0.326 0.621 0.699 1.056l0.699 0.777 0.699-0.777c0.373-0.435 0.683-0.901 0.699-1.056 0-0.217 0.078-0.248 0.435-0.155 0.87 0.233 4.396 0.093 5.623-0.233l1.165-0.311-0.808-0.016c-1.74-0.031-5.017-0.652-5.017-0.948 0-0.062 0.404-0.357 0.901-0.668 5.095-3.138 7.735-9.956 6.151-15.874-0.606-2.221-2.221-5.001-3.837-6.57l-0.699-0.683 0.901 1.802c1.289 2.563 1.615 4.007 1.615 7.083 0 1.973-0.062 2.656-0.342 3.79-0.404 1.6-1.398 3.79-2.377 5.234-0.668 1.010-3.122 3.557-3.402 3.557-0.202 0-0.202-0.078 0.078-9.475 0.124-4.318 0.233-8.683 0.264-9.708l0.047-1.848-0.652-0.124c-0.357-0.062-0.792-0.186-0.963-0.264-0.373-0.202-0.637-0.202-0.994 0z"></path>
</svg>
