<!-- Generated by IcoMoon.io -->
<svg version="1.1" xmlns="http://www.w3.org/2000/svg" width="32" height="32" viewBox="0 0 32 32">
<title>kg</title>
<path d="M16.037 0.594c0.067 0.802-0.059 1.819-0.416 3.408-0.163 0.728-0.319 1.529-0.342 1.782l-0.052 0.453-0.089-0.52c-0.052-0.29-0.149-1.054-0.215-1.708-0.134-1.351-0.297-2.057-0.661-2.769-0.238-0.468-0.846-1.24-0.757-0.958 0.29 0.921 0.349 2.034 0.238 4.544l-0.067 1.559-0.215-0.631c-0.119-0.349-0.319-1.047-0.438-1.552-0.252-1.002-0.527-1.73-0.846-2.235-0.223-0.356-0.988-1.188-1.084-1.188-0.030 0 0.030 0.193 0.134 0.423 0.319 0.728 0.527 1.723 0.69 3.334 0.089 0.854 0.186 1.685 0.223 1.849s0.067 0.327 0.067 0.371c0 0.163-0.535-0.876-0.928-1.804-0.661-1.552-1.158-2.279-1.975-2.881-0.535-0.386-0.653-0.416-0.438-0.089 0.549 0.839 0.876 1.678 1.351 3.497 0.201 0.765 0.416 1.515 0.475 1.663s0.096 0.282 0.082 0.297c-0.045 0.045-0.832-1.054-1.329-1.871-0.735-1.195-1.648-2.057-2.606-2.45l-0.282-0.119 0.2 0.245c0.802 0.987 1.21 1.7 1.901 3.296 0.2 0.483 0.505 1.129 0.661 1.433l0.29 0.557-0.52-0.52c-0.29-0.282-0.794-0.824-1.129-1.21-1.010-1.166-1.878-1.789-2.873-2.049-0.223-0.059-0.408-0.096-0.416-0.089-0.015 0.007 0.163 0.171 0.386 0.349 0.223 0.186 0.587 0.55 0.817 0.817 0.394 0.468 0.572 0.713 1.76 2.524 0.312 0.468 0.624 0.935 0.698 1.039 0.171 0.23-0.49-0.223-1.359-0.928-0.98-0.817-1.455-1.158-1.916-1.388-0.483-0.245-1.418-0.505-1.819-0.505h-0.26l0.416 0.252c0.943 0.564 1.567 1.143 3.014 2.799 0.416 0.475 0.846 0.921 0.95 0.995 0.104 0.067 0.178 0.141 0.156 0.156-0.052 0.052-0.995-0.431-1.923-0.988-0.95-0.572-1.663-0.883-2.346-1.025-0.572-0.126-1.262-0.141-1.425-0.037-0.096 0.059-0.096 0.074 0 0.074 0.2 0 1.455 0.661 2.005 1.054 0.304 0.215 0.973 0.742 1.485 1.173 0.512 0.423 1.077 0.861 1.255 0.98 0.186 0.111 0.312 0.208 0.282 0.208-0.134 0-1.381-0.431-2.175-0.75-0.497-0.2-1.128-0.416-1.411-0.483-0.616-0.149-1.722-0.163-2.183-0.030l-0.334 0.096 0.653 0.171c0.787 0.215 1.485 0.512 2.302 0.988 1.567 0.906 2.19 1.255 2.413 1.344 0.134 0.052 0.23 0.104 0.215 0.119-0.045 0.045-1.678-0.245-2.354-0.416-0.876-0.223-2.19-0.282-2.799-0.126-0.252 0.067-0.587 0.178-0.743 0.245l-0.282 0.126 0.601 0.059c0.928 0.089 1.774 0.319 3.133 0.854 0.683 0.275 1.478 0.572 1.76 0.668l0.52 0.178-1.374-0.059c-0.757-0.030-1.7-0.045-2.094-0.037-1.002 0.015-2.034 0.312-2.547 0.728-0.141 0.111-0.111 0.111 0.445 0.074 0.787-0.067 1.819 0.059 3.267 0.386 0.653 0.148 1.455 0.304 1.782 0.349l0.594 0.089-0.854 0.126c-0.468 0.067-1.24 0.156-1.708 0.2-1.017 0.096-1.76 0.282-2.435 0.624-0.468 0.238-1.24 0.846-0.958 0.757 0.921-0.29 2.034-0.349 4.544-0.238l1.559 0.067-0.631 0.215c-0.349 0.119-1.047 0.319-1.552 0.438-1.002 0.252-1.73 0.527-2.235 0.846-0.356 0.223-1.188 0.988-1.188 1.084 0 0.030 0.193-0.030 0.431-0.134 0.72-0.319 1.715-0.527 3.326-0.69 0.854-0.089 1.685-0.186 1.849-0.223s0.334-0.074 0.371-0.074c0.163 0-0.802 0.505-1.812 0.943-1.633 0.713-2.264 1.143-2.881 1.975-0.379 0.527-0.401 0.638-0.074 0.431 0.832-0.549 1.671-0.876 3.49-1.351 0.765-0.2 1.515-0.416 1.663-0.475s0.282-0.096 0.297-0.082c0.045 0.045-1.054 0.832-1.871 1.329-1.195 0.735-2.057 1.648-2.45 2.606l-0.119 0.282 0.245-0.2c0.987-0.802 1.7-1.21 3.296-1.901 0.483-0.2 1.129-0.505 1.433-0.661l0.557-0.29-0.52 0.52c-0.282 0.29-0.824 0.794-1.21 1.129-1.166 1.010-1.789 1.878-2.049 2.873-0.059 0.223-0.096 0.408-0.089 0.416 0.007 0.015 0.171-0.163 0.349-0.386 0.186-0.223 0.55-0.587 0.817-0.817 0.468-0.394 0.713-0.572 2.524-1.76 0.468-0.312 0.935-0.624 1.039-0.698 0.23-0.171-0.223 0.49-0.928 1.359-0.817 0.98-1.158 1.455-1.388 1.916-0.245 0.483-0.505 1.418-0.505 1.819v0.26l0.267-0.445c0.549-0.921 0.987-1.396 2.524-2.747 0.616-0.542 1.181-1.077 1.247-1.18 0.074-0.111 0.149-0.186 0.163-0.163 0.052 0.052-0.431 0.995-0.935 1.834-0.579 0.958-0.772 1.359-0.958 1.968-0.178 0.572-0.275 1.47-0.2 1.789 0.052 0.186 0.074 0.163 0.297-0.356 0.423-0.965 0.809-1.537 2.079-3.066 0.408-0.49 0.832-1.039 0.95-1.218 0.111-0.186 0.208-0.312 0.208-0.29 0 0.134-0.364 1.195-0.713 2.071-0.215 0.557-0.453 1.24-0.52 1.522-0.149 0.616-0.163 1.723-0.030 2.183l0.097 0.334 0.171-0.653c0.215-0.787 0.512-1.485 0.988-2.302 0.906-1.567 1.255-2.19 1.344-2.413 0.052-0.134 0.104-0.23 0.119-0.215 0.045 0.045-0.245 1.678-0.416 2.354-0.223 0.876-0.282 2.19-0.126 2.799 0.067 0.252 0.178 0.587 0.245 0.742l0.126 0.282 0.059-0.601c0.089-0.928 0.319-1.774 0.854-3.133 0.275-0.683 0.572-1.477 0.668-1.76l0.178-0.52-0.059 1.374c-0.030 0.757-0.045 1.7-0.037 2.094 0.015 1.002 0.312 2.034 0.728 2.547 0.111 0.141 0.111 0.111 0.074-0.445-0.067-0.787 0.059-1.819 0.386-3.267 0.149-0.653 0.304-1.455 0.349-1.782l0.089-0.594 0.126 0.854c0.067 0.468 0.156 1.24 0.2 1.708 0.096 1.017 0.282 1.76 0.624 2.435 0.238 0.468 0.846 1.24 0.757 0.958-0.29-0.921-0.349-2.034-0.238-4.544l0.067-1.559 0.215 0.631c0.119 0.349 0.319 1.047 0.438 1.552 0.252 1.002 0.527 1.73 0.846 2.235 0.223 0.356 0.988 1.188 1.084 1.188 0.030 0-0.030-0.193-0.134-0.431-0.319-0.72-0.527-1.715-0.69-3.326-0.089-0.854-0.186-1.685-0.223-1.849s-0.067-0.334-0.067-0.371c0-0.163 0.535 0.876 0.928 1.804 0.661 1.552 1.158 2.279 1.975 2.881 0.535 0.386 0.653 0.416 0.438 0.082-0.549-0.832-0.876-1.671-1.351-3.49-0.201-0.765-0.416-1.515-0.475-1.663s-0.097-0.282-0.082-0.297c0.044-0.045 0.832 1.054 1.329 1.871 0.735 1.195 1.648 2.057 2.606 2.45l0.282 0.119-0.2-0.245c-0.802-0.988-1.21-1.7-1.901-3.296-0.2-0.483-0.505-1.129-0.661-1.433l-0.29-0.557 0.52 0.52c0.29 0.282 0.794 0.824 1.129 1.21 1.010 1.166 1.878 1.789 2.873 2.049 0.223 0.059 0.408 0.096 0.416 0.089 0.015-0.007-0.163-0.171-0.386-0.349-0.223-0.186-0.587-0.549-0.817-0.817-0.393-0.468-0.572-0.713-1.76-2.524-0.312-0.468-0.624-0.936-0.698-1.039-0.171-0.23 0.49 0.223 1.359 0.928 0.98 0.817 1.455 1.158 1.916 1.388 0.483 0.245 1.418 0.505 1.819 0.505h0.26l-0.416-0.252c-0.943-0.564-1.567-1.143-3.014-2.799-0.416-0.475-0.846-0.921-0.95-0.995-0.104-0.067-0.178-0.141-0.156-0.156 0.052-0.052 0.995 0.431 1.834 0.936 0.958 0.579 1.359 0.772 1.968 0.958 0.572 0.178 1.47 0.275 1.789 0.2 0.186-0.052 0.163-0.074-0.356-0.297-0.965-0.423-1.537-0.809-3.066-2.079-0.49-0.408-1.039-0.832-1.218-0.95-0.186-0.111-0.312-0.208-0.29-0.208 0.134 0 1.195 0.364 2.071 0.713 0.557 0.215 1.24 0.453 1.522 0.52 0.616 0.148 1.723 0.163 2.183 0.030l0.334-0.096-0.653-0.171c-0.787-0.215-1.485-0.512-2.302-0.988-1.567-0.906-2.19-1.255-2.413-1.344-0.134-0.052-0.23-0.104-0.215-0.119 0.045-0.045 1.678 0.245 2.354 0.416 0.876 0.223 2.19 0.282 2.799 0.126 0.252-0.067 0.587-0.178 0.742-0.245l0.282-0.126-0.601-0.059c-0.928-0.089-1.774-0.319-3.133-0.854-0.683-0.275-1.47-0.572-1.76-0.668l-0.52-0.178 1.374 0.059c0.757 0.030 1.7 0.045 2.094 0.037 1.002-0.015 2.034-0.312 2.547-0.728 0.141-0.111 0.111-0.111-0.445-0.074-0.802 0.067-1.819-0.059-3.408-0.416-0.728-0.163-1.529-0.319-1.782-0.342l-0.453-0.052 0.52-0.089c0.29-0.052 1.054-0.149 1.708-0.215 1.351-0.134 2.057-0.297 2.769-0.661 0.468-0.238 1.24-0.846 0.958-0.757-0.921 0.29-2.034 0.349-4.544 0.238l-1.559-0.067 0.631-0.215c0.349-0.119 1.047-0.319 1.552-0.438 1.002-0.252 1.73-0.527 2.235-0.846 0.356-0.223 1.188-0.988 1.188-1.084 0-0.030-0.193 0.030-0.423 0.134-0.728 0.319-1.723 0.527-3.334 0.69-0.854 0.089-1.685 0.186-1.849 0.223s-0.327 0.074-0.371 0.074c-0.163 0 0.802-0.505 1.812-0.943 1.633-0.713 2.265-1.143 2.881-1.975 0.379-0.527 0.401-0.639 0.082-0.431-0.839 0.549-1.678 0.876-3.497 1.351-0.765 0.2-1.515 0.416-1.663 0.475s-0.282 0.097-0.297 0.082c-0.044-0.045 1.054-0.832 1.871-1.329 1.195-0.735 2.057-1.648 2.45-2.606l0.119-0.282-0.245 0.2c-0.988 0.802-1.7 1.21-3.297 1.901-0.483 0.2-1.129 0.505-1.433 0.661l-0.557 0.29 0.52-0.52c0.282-0.29 0.824-0.794 1.21-1.129 1.166-1.010 1.789-1.878 2.049-2.873 0.059-0.223 0.096-0.408 0.089-0.416-0.007-0.015-0.171 0.163-0.349 0.386-0.186 0.223-0.549 0.587-0.817 0.817-0.468 0.393-0.713 0.572-2.524 1.76-0.468 0.312-0.936 0.624-1.039 0.698-0.23 0.171 0.223-0.49 0.928-1.359 0.817-0.98 1.158-1.455 1.388-1.916 0.245-0.483 0.505-1.418 0.505-1.819v-0.26l-0.252 0.416c-0.564 0.943-1.143 1.567-2.799 3.014-0.475 0.416-0.921 0.846-0.995 0.95-0.067 0.104-0.141 0.178-0.156 0.156-0.052-0.052 0.431-0.995 0.988-1.923 0.572-0.95 0.883-1.663 1.025-2.346 0.126-0.572 0.141-1.262 0.037-1.425-0.059-0.097-0.074-0.097-0.074 0 0 0.2-0.661 1.455-1.054 2.005-0.215 0.304-0.742 0.973-1.173 1.485-0.423 0.512-0.861 1.077-0.98 1.255-0.111 0.186-0.208 0.312-0.208 0.282 0-0.134 0.431-1.381 0.75-2.175 0.2-0.497 0.416-1.129 0.483-1.411 0.148-0.616 0.163-1.722 0.030-2.183l-0.096-0.334-0.171 0.653c-0.215 0.787-0.512 1.485-0.988 2.302-0.906 1.567-1.255 2.19-1.344 2.413-0.052 0.134-0.104 0.23-0.119 0.215-0.045-0.045 0.245-1.678 0.416-2.354 0.223-0.876 0.282-2.19 0.126-2.799-0.067-0.252-0.178-0.587-0.245-0.743l-0.126-0.282-0.059 0.601c-0.089 0.928-0.319 1.774-0.854 3.133-0.275 0.683-0.572 1.47-0.668 1.76l-0.178 0.52 0.059-1.374c0.030-0.757 0.045-1.7 0.037-2.094-0.015-1.002-0.312-2.034-0.728-2.547-0.111-0.141-0.111-0.111-0.074 0.445zM17.968 6.608c3.772 0.839 6.615 3.697 7.439 7.477 0.186 0.869 0.186 2.962 0 3.831-0.527 2.391-1.916 4.522-3.853 5.902-1.032 0.735-2.51 1.366-3.809 1.619-0.78 0.156-2.881 0.134-3.66-0.030-2.383-0.52-4.522-1.916-5.902-3.853-0.735-1.032-1.366-2.51-1.619-3.809-0.134-0.69-0.134-2.799 0-3.49 0.795-4.054 3.98-7.113 8.063-7.759 0.631-0.097 2.717-0.030 3.341 0.111z"></path>
<path d="M14.441 7.61c-0.921 0.193-1.826 0.549-2.532 0.988l-0.624 0.379 0.817 0.089c1.329 0.141 3.022 0.549 3.683 0.891 0.178 0.089 0.267 0.074 0.906-0.156 1.21-0.431 2.873-0.78 3.772-0.78h0.327l-0.186-0.149c-0.304-0.245-1.463-0.817-2.027-1.010-1.21-0.416-2.91-0.52-4.136-0.252zM10.521 9.637c-0.089 0.097-0.163 0.193-0.163 0.215s0.29 0.059 0.653 0.089c0.846 0.067 1.871 0.282 2.792 0.594l0.742 0.26 0.29-0.171 0.29-0.178-0.624-0.223c-0.995-0.356-2.131-0.601-3.371-0.72-0.401-0.037-0.46-0.022-0.609 0.134zM20.455 9.548c-0.854 0.097-1.663 0.282-2.524 0.557-1.032 0.334-1.054 0.349-0.698 0.535l0.29 0.149 0.861-0.29c0.898-0.297 2.346-0.586 2.97-0.586 0.408 0 0.438-0.052 0.193-0.282-0.186-0.178-0.238-0.178-1.091-0.082zM9.741 10.491c-0.141 0.149-0.134 0.156 0.149 0.2 1.032 0.156 2.019 0.379 2.68 0.601l0.765 0.26 0.23-0.141c0.252-0.163 0.304-0.134-0.668-0.468-0.742-0.252-1.789-0.483-2.502-0.549-0.468-0.044-0.535-0.037-0.653 0.097zM21.049 10.469c-0.987 0.171-2.509 0.609-2.695 0.78-0.030 0.030 0.030 0.111 0.141 0.186 0.2 0.126 0.215 0.126 0.995-0.141 0.824-0.275 2.079-0.564 2.48-0.564 0.334 0 0.468-0.104 0.349-0.252-0.119-0.141-0.483-0.141-1.27-0.007zM22.534 11.152c-0.846 0.111-2.925 0.698-3.096 0.869-0.022 0.022 0.312 0.379 0.735 0.802 1.448 1.425 2.636 3.267 3.259 5.049 0.052 0.156 0.119 0.26 0.149 0.223 0.171-0.171 0.379-1.314 0.416-2.264 0.059-1.537-0.163-2.651-0.817-3.972-0.334-0.683-0.386-0.735-0.646-0.705zM9.066 11.486c-0.906 1.552-1.277 3.705-0.928 5.405 0.141 0.683 0.312 1.27 0.364 1.21 0.030-0.030 0.126-0.26 0.223-0.505 0.705-1.826 1.893-3.586 3.319-4.937 0.349-0.327 0.624-0.609 0.609-0.624-0.045-0.037-1.017-0.386-1.44-0.52-0.46-0.149-1.463-0.342-1.745-0.342-0.178 0-0.252 0.059-0.401 0.312zM12.911 13.119c-1.567 1.515-2.636 3.222-3.289 5.227-0.438 1.344-0.438 1.337-0.067 1.849l0.312 0.438 0.171-0.817c0.483-2.316 1.574-4.358 3.252-6.11l0.846-0.876-0.297-0.163-0.297-0.171-0.631 0.624zM18.176 12.666c-0.134 0.089-0.245 0.163-0.245 0.178s0.223 0.238 0.49 0.497c1.789 1.708 3.111 4.084 3.593 6.445 0.082 0.401 0.149 0.75 0.149 0.78 0 0.059 0.275-0.267 0.505-0.601l0.156-0.23-0.178-0.676c-0.49-1.834-1.366-3.512-2.613-5.004-0.453-0.542-1.47-1.544-1.574-1.544-0.022 0-0.156 0.074-0.282 0.156zM14.641 13.632c-0.149 0.119-0.527 0.527-0.839 0.906-1.619 1.93-2.584 4.15-2.836 6.534l-0.059 0.579 0.297 0.215c0.163 0.126 0.319 0.223 0.342 0.223 0.030 0 0.074-0.282 0.104-0.631 0.193-2.584 1.344-5.197 3.103-7.053 0.512-0.542 0.579-0.646 0.498-0.75-0.208-0.245-0.327-0.252-0.609-0.022zM16.876 13.58l-0.2 0.178 0.156 0.134c0.334 0.297 1.233 1.374 1.581 1.886 1.121 1.678 1.76 3.467 1.975 5.509 0.037 0.423 0.089 0.772 0.104 0.787s0.163-0.067 0.327-0.178c0.349-0.252 0.364-0.356 0.2-1.374-0.401-2.443-1.485-4.655-3.148-6.385-0.386-0.408-0.72-0.735-0.75-0.735-0.022 0-0.134 0.082-0.245 0.178z"></path>
<path d="M15.666 14.745c-1.789 1.908-2.806 4.366-2.977 7.187l-0.052 0.794 0.371 0.163c1.077 0.46 2.561 0.683 3.749 0.549 0.832-0.089 1.693-0.297 2.242-0.527l0.342-0.148v-0.728c0-2.532-1.121-5.316-2.94-7.291l-0.364-0.393-0.371 0.393z"></path>
</svg>
