<!-- Generated by IcoMoon.io -->
<svg version="1.1" xmlns="http://www.w3.org/2000/svg" width="43" height="32" viewBox="0 0 43 32">
<title>kh</title>
<path d="M21.333 2.392c-0.396 0.017-0.38 0.694-0.38 0.694h0.743c0 0 0.017-0.694-0.363-0.694zM20.574 3.102l0.050 0.429h1.42l0.017-0.429h-1.486zM20.21 3.548l0.033 0.413h2.147l0.049-0.413h-2.229zM20.012 3.977l0.066 0.512h-0.182l0.132 0.727c-0.017 0.198-0.215 0.215-0.38-0.099-0.165 0.165-0.182 0.38-0.033 0.545 0.231 0.231 0.264 0.512 0.066 0.561-0.165 0.050-0.198 0.016-0.33-0.429 0 0-0.264 0.38-0.165 0.561 0.099 0.165 0.545 0.809 0.099 0.958-0.215 0-0.198-0.198-0.281-0.694-0.146 0.149-0.237 0.353-0.237 0.579 0 0.107 0.020 0.209 0.057 0.302l-0.002-0.006c0.116 0.297 0.33 0.463 0.33 0.793 0 0.248-0.099 0.33-0.231 0.33-0.215 0-0.297-0.248-0.363-0.743-0.165 0.215-0.248 0.792-0.116 0.974 0.38 0.578 0.545 0.809 0.545 1.040 0 0.281-0.314 0.396-0.495-0.264-0.132 0.231-0.066 0.727-0.066 0.727 0 0.33 0.462 0.363 0.462 0.826v0.892l-0.231-0.001c0-0.776 0-1.106-0.297-1.106v0.793c0-0.925-0.809-1.024-0.809-1.024v0.826c0.314-0.017 0.462 0.264 0.462 0.66 0 0.413-0.248 0.413-0.248 0.413v0.017h-0.495v-0.446c0 0-0.097-0.319-0.446-0.455v2.354h-4.063v-0.181c-0.099-0.050-0.248-0.066-0.33 0v0.181h-0.826v-2.609c-0.198 0-0.231 0.694-0.694 0.694-0.248 0-0.215-0.297-0.082-0.528 0.116-0.215 0.264-0.495 0.066-1.040-0.149 0.413-0.512 0.545-0.446 0.297 0.116-0.446 0.462-0.528 0.198-1.206-0.083 0.562-0.446 0.545-0.363 0.215 0.099-0.38 0.314-0.545 0.049-1.074-0.149 0.611-0.33 0.578-0.33 0.198 0-0.545 0.016-1.156-0.694-1.371 0 0-0.050-0.495-0.297-0.495-0.264 0-0.314 0.495-0.314 0.495-0.694 0.215-0.694 0.809-0.694 1.371 0 0.38-0.181 0.413-0.33-0.198-0.264 0.528-0.050 0.694 0.049 1.074 0.083 0.33-0.281 0.347-0.363-0.215-0.264 0.677 0.083 0.76 0.198 1.206 0.066 0.248-0.297 0.116-0.446-0.297-0.198 0.545-0.050 0.826 0.066 1.040 0.149 0.231 0.165 0.528-0.082 0.528-0.462 0-0.495-0.71-0.694-0.71v1.486h-0.71v2.273c-0.006-0.004-0.011-0.008-0.017-0.012v-2.576c-0.149-0.083-0.281-0.083-0.413 0v1.235c-0.039-0.093-0.227-0.492-0.594-0.492v3.171c0.264 0.066 0.644 0.462 0.76 0.892v3.369h-0.017c-0.119 0.359-0.357 0.652-0.666 0.839l-0.007 0.004h-0.896v1.024h-0.628v1.338h-1.057v1.75h5.483v0.017h-6.556v2.064h-1.074v2.064h42.657v-2.064h-1.074v-2.064h-6.573v-0.017h5.516v-1.75h-1.090v-1.338h-0.595v-1.024h-0.882c-0.315-0.191-0.551-0.484-0.667-0.832l-0.003-0.011h-0.049v-3.369c0.116-0.429 0.495-0.826 0.76-0.892v-3.171c-0.368 0-0.556 0.401-0.595 0.492v-1.235c-0.132-0.083-0.264-0.083-0.413 0v2.576c-0.006 0.004-0.011 0.008-0.016 0.011v-2.273h-0.71v-1.486c-0.198 0-0.231 0.71-0.694 0.71-0.248 0-0.231-0.297-0.083-0.528 0.116-0.215 0.264-0.495 0.066-1.040-0.149 0.413-0.512 0.545-0.446 0.297 0.116-0.446 0.462-0.528 0.198-1.206-0.083 0.562-0.446 0.545-0.363 0.215 0.099-0.38 0.314-0.545 0.049-1.074-0.149 0.611-0.33 0.578-0.33 0.198 0-0.562 0-1.156-0.694-1.371 0 0-0.050-0.495-0.314-0.495-0.248 0-0.297 0.495-0.297 0.495-0.71 0.215-0.694 0.826-0.694 1.371 0 0.38-0.182 0.413-0.33-0.198-0.264 0.528-0.050 0.694 0.049 1.074 0.083 0.33-0.281 0.347-0.363-0.215-0.264 0.677 0.083 0.76 0.198 1.206 0.066 0.248-0.297 0.116-0.446-0.297-0.198 0.545-0.049 0.826 0.066 1.040 0.132 0.231 0.165 0.528-0.082 0.528-0.462 0-0.496-0.694-0.694-0.694v2.609h-0.826v-0.181c-0.083-0.066-0.231-0.050-0.33 0v0.181h-4.178v-2.362c-0.209 0.078-0.367 0.247-0.428 0.458l-0.001 0.005v0.429h-0.446c0 0-0.248 0-0.248-0.413 0-0.396 0.149-0.677 0.462-0.66v-0.826c0 0-0.809 0.099-0.809 1.024v-0.776c-0.248 0-0.281 0.297-0.281 1.107l-0.215-0.001v-0.907c0.017-0.462 0.462-0.495 0.462-0.826 0 0 0.066-0.496-0.082-0.727-0.165 0.661-0.495 0.545-0.495 0.264 0-0.231 0.182-0.462 0.561-1.024 0.132-0.198 0.049-0.776-0.116-0.991-0.066 0.512-0.148 0.743-0.363 0.743-0.132 0-0.248-0.082-0.248-0.33 0-0.33 0.231-0.496 0.33-0.793 0.038-0.091 0.060-0.197 0.060-0.309 0-0.219-0.086-0.419-0.225-0.567l0 0c-0.083 0.495-0.066 0.694-0.281 0.694-0.446-0.132 0-0.793 0.099-0.958 0.083-0.314-0.165-0.561-0.165-0.561-0.132 0.429-0.165 0.479-0.33 0.429-0.198-0.050-0.165-0.33 0.066-0.561 0.149-0.149 0.132-0.38-0.033-0.545-0.165 0.33-0.429 0.281-0.396 0.082l0.149-0.71h-0.198l0.066-0.512h-2.626zM16.825 11.747v-0.008h-0.016c0.006 0.002 0.011 0.005 0.016 0.008zM11.606 16.248h0.007c-0.002 0.011-0.005 0.021-0.007 0.033h0.429v0.033h-0.645l0.017-0.016h-0.826v-0.033h1.024v-0.016zM31.070 16.248h0.007v0.016h1.024v0.033h-0.826l0.017 0.016h-0.463v-0.033h0.248c-0.002-0.011-0.005-0.022-0.007-0.033zM6.446 16.264h0.916v0.033h-0.842l0.017 0.016h-0.711l-0.004-0.016h0.631c-0.002-0.011-0.005-0.022-0.008-0.033zM35.321 16.264h0.916c-0.002 0.011-0.005 0.022-0.008 0.033h0.632l-0.004 0.016h-0.711l0.017-0.016h-0.842v-0.033zM10.285 25.777h9.678v0.017h-9.678v-0.017zM22.605 25.777h9.777v0.017h-9.777v-0.017z"></path>
</svg>
