<!-- Generated by IcoMoon.io -->
<svg version="1.1" xmlns="http://www.w3.org/2000/svg" width="43" height="32" viewBox="0 0 43 32">
<title>km</title>
<path d="M24.466 1.468c-10.072 0.015-14.693 8.271-14.681 14.697-0.025 7.849 7.419 14.305 14.28 13.926-3.696-1.747-8.229-6.671-8.254-13.963-0.038-6.596 3.734-12.343 9.66-14.634h-0.013c-0.336-0.017-0.667-0.025-0.992-0.025zM24.547 3.062l-1.14 1.557-1.924-0.076 1.114 1.57-0.659 1.823 1.849-0.582 1.519 1.178 0.013-1.924 1.595-1.076-1.823-0.607-0.544-1.861zM24.521 9.658l-1.14 1.545-1.937-0.063 1.126 1.57-0.671 1.81 1.849-0.582 1.519 1.19 0.013-1.924 1.608-1.076-1.836-0.621-0.532-1.849zM24.547 16.317l-1.14 1.545-1.924-0.063 1.114 1.57-0.659 1.81 1.836-0.582 1.519 1.19 0.025-1.924 1.595-1.088-1.823-0.607-0.544-1.849zM24.509 23.026l-1.14 1.557-1.937-0.076 1.126 1.57-0.671 1.823 1.861-0.582 1.519 1.178v-1.924l1.608-1.076-1.836-0.607-0.532-1.861z"></path>
</svg>
