<!-- Generated by IcoMoon.io -->
<svg version="1.1" xmlns="http://www.w3.org/2000/svg" width="32" height="32" viewBox="0 0 32 32">
<title>kr</title>
<path d="M2.118 6.769l-2.118 3.179 0.533 0.354 0.533 0.359 2.128-3.2 2.133-3.195-0.513-0.338c-0.277-0.185-0.523-0.338-0.544-0.338-0.026 0-0.995 1.431-2.154 3.179z"></path>
<path d="M27.169 3.933l-0.497 0.333 1.949 2.923 0.138-0.092c0.077-0.051 0.318-0.21 0.533-0.354l0.395-0.262-0.959-1.446c-0.528-0.795-0.979-1.441-1.010-1.441-0.026 0-0.277 0.154-0.549 0.338z"></path>
<path d="M3.728 7.821l-2.133 3.195 0.513 0.338c0.277 0.185 0.523 0.338 0.544 0.338 0.031-0.005 3.723-5.477 4.185-6.205l0.092-0.149-0.533-0.359-0.538-0.359-2.128 3.2z"></path>
<path d="M25.6 4.985l-0.528 0.354 0.087 0.138c0.949 1.456 4.154 6.215 4.185 6.215 0.021 0 0.272-0.154 0.549-0.338l0.513-0.338-2.108-3.164c-1.159-1.738-2.118-3.174-2.138-3.19-0.015-0.021-0.267 0.123-0.559 0.323z"></path>
<path d="M5.359 8.856c-1.154 1.733-2.108 3.174-2.118 3.2-0.026 0.067 1.010 0.738 1.062 0.682 0.072-0.072 4.164-6.231 4.19-6.292 0.015-0.051-0.215-0.221-0.897-0.662l-0.133-0.082-2.103 3.154z"></path>
<path d="M24.010 6.041c-0.287 0.19-0.523 0.354-0.523 0.369s0.436 0.677 0.964 1.472l0.964 1.446 0.523-0.344c0.287-0.19 0.523-0.354 0.523-0.369s-0.436-0.677-0.964-1.472l-0.964-1.446-0.523 0.344z"></path>
<path d="M29.538 7.359c-0.267 0.174-0.492 0.349-0.503 0.374-0.010 0.031 0.415 0.697 0.944 1.492l0.954 1.436 0.533-0.359 0.533-0.354-0.974-1.462c-0.538-0.805-0.979-1.462-0.99-1.456-0.005 0-0.231 0.149-0.497 0.328z"></path>
<path d="M26.292 9.513c-0.272 0.185-0.497 0.349-0.497 0.359 0 0.031 1.836 2.795 1.903 2.867 0.036 0.041 0.985-0.538 1.051-0.641 0.026-0.041-1.872-2.918-1.923-2.918-0.015 0-0.256 0.149-0.533 0.333z"></path>
<path d="M3.728 19.564c-0.272 0.185-0.497 0.344-0.497 0.359s0.954 1.456 2.118 3.205l2.118 3.174 0.513-0.338c0.277-0.185 0.518-0.344 0.528-0.354 0.026-0.026-4.205-6.379-4.246-6.379-0.015 0-0.256 0.149-0.533 0.333z"></path>
<path d="M26.749 20.672c-0.528 0.795-0.944 1.462-0.918 1.482 0.179 0.164 1.010 0.667 1.041 0.631 0.067-0.072 1.897-2.831 1.897-2.862 0-0.026-0.892-0.631-0.99-0.672-0.046-0.015-0.415 0.497-1.031 1.421z"></path>
<path d="M2.092 20.651l-0.497 0.333 0.974 1.456c0.651 0.979 0.995 1.446 1.036 1.426 0.067-0.041 0.969-0.641 1-0.667 0.036-0.026-1.913-2.892-1.964-2.887-0.026 0-0.277 0.154-0.549 0.338z"></path>
<path d="M28.338 21.749c-0.528 0.795-0.954 1.446-0.944 1.456 0.031 0.021 0.938 0.626 1 0.662 0.041 0.021 0.385-0.446 1.036-1.426l0.974-1.456-0.513-0.338c-0.277-0.185-0.528-0.338-0.549-0.338-0.026 0-0.477 0.646-1.005 1.441z"></path>
<path d="M0.528 21.697l-0.528 0.354 2.118 3.179c1.159 1.749 2.128 3.179 2.154 3.179 0.021 0 0.267-0.154 0.544-0.338l0.513-0.338-2.108-3.164c-1.159-1.738-2.118-3.174-2.138-3.19-0.015-0.021-0.267 0.123-0.554 0.318z"></path>
<path d="M29.979 22.774c-0.523 0.785-0.954 1.451-0.954 1.472 0 0.026 0.231 0.2 0.513 0.385l0.513 0.344 1.949-2.923-0.533-0.354-0.533-0.359-0.954 1.436z"></path>
<path d="M24.441 24.128c-0.533 0.805-0.959 1.472-0.949 1.482s0.251 0.169 0.528 0.354l0.513 0.338 0.964-1.446c0.528-0.795 0.964-1.456 0.964-1.472-0.005-0.026-0.949-0.682-1.021-0.703-0.015-0.005-0.467 0.646-1 1.446z"></path>
<path d="M4.446 24.082c-0.272 0.185-0.497 0.359-0.497 0.385s0.431 0.692 0.954 1.477l0.954 1.436 0.538-0.359 0.533-0.359-0.092-0.144c-0.426-0.672-1.841-2.774-1.867-2.774-0.015 0-0.251 0.154-0.523 0.338z"></path>
<path d="M26.128 25.056c-0.477 0.723-0.913 1.379-0.964 1.462l-0.092 0.144 0.533 0.359 0.538 0.359 0.954-1.436c0.523-0.785 0.954-1.451 0.954-1.472 0-0.036-0.995-0.733-1.036-0.728-0.010 0-0.405 0.595-0.887 1.313z"></path>
<path d="M27.646 26.272l-0.974 1.462 0.513 0.338c0.277 0.185 0.523 0.338 0.544 0.338 0.026 0 0.472-0.651 1-1.446l0.959-1.446-0.395-0.262c-0.215-0.144-0.456-0.303-0.533-0.354l-0.138-0.092-0.974 1.462z"></path>
</svg>
