<!-- Generated by IcoMoon.io -->
<svg version="1.1" xmlns="http://www.w3.org/2000/svg" width="22" height="16" viewBox="0 0 22 16">
<title>kv-bottom</title>
<path fill="#d0a650" d="M10.967 0.882c0.157 0.183 0.262 0.367 0.262 0.59-0.132 0.065-0.314 0.092-0.42 0.21 0.655-0.092 0.786 0.668 1.52 0.38 0.027 0.105 0.132 0.197 0.262 0.157l0.079-0.209c0.288-0.079 0.209 0.393 0.525 0.301 0.157 0.131 0.052 0.354 0.157 0.512 0 0.183 0.079 0.34 0.157 0.497 0.079-0.091 0.131-0.222 0.314-0.183 0.131 0.144 0.236 0.275 0.262 0.432-0.053 0.302-0.132 0.563 0.182 0.721v0.092c0.211 0.092 0.682-0.092 0.682 0.275-0.027 0.131 0.13 0.013 0.184 0.092 0.131-0.053 0.314-0.026 0.471-0.026 0.131 0.275-0.157 0.471-0.236 0.721 0.13 0.131 0.079 0.367 0.052 0.523l-0.079 0.039c0.209 0.039 0.471-0.025 0.655 0.093l0.341 0.13c0.157-0.091 0.34-0.105 0.55-0.091 0.157 0.118-0.053 0.314 0.079 0.406 0.184 0 0.341 0.027 0.366 0.184l0.027 0.052c0.131-0.236 0.498-0.079 0.655-0.248 0.262 0 0.314 0.288 0.445 0.445 0.053 0.407-0.445 0.591-0.288 0.996-0.105 0.196-0.314 0.354-0.471 0.537 0.052 0.027 0.025 0.091 0.025 0.13-0.157 0.093-0.025 0.368-0.236 0.393-0.025 0.171-0.34 0.105-0.236 0.289 0.211 0.275-0.104 0.445-0.104 0.695-0.132 0.145-0.394-0.132-0.394 0.145-0.157 0.039-0.314-0.145-0.418 0.013-0.053 0.184 0.104 0.248 0.079 0.432 0.261-0.027 0.34 0.236 0.445 0.393l0.262 0.262c-0.262 0.209-0.603-0.027-0.918 0.091-0.079-0.039 0-0.143-0.079-0.182-0.079-0.093-0.236-0.093-0.366-0.118 0.025 0.118-0.211 0.157-0.105 0.3 0 0.039 0.052 0.157-0.052 0.157-0.211 0.066-0.184-0.182-0.368-0.091-0.236 0.091-0.052 0.445-0.393 0.406 0.052 0.316-0.523 0.525-0.131 0.8 0.052 0.052 0.025 0.157 0.025 0.236-0.236 0.211-0.654 0.132-0.916 0.053-0.211-0.053-0.079-0.316-0.157-0.459-0.079-0.132-0.314-0.223-0.314-0.407-0.157-0.065-0.289-0.105-0.394-0.236-0.366 0.354-0.812 0.695-1.336 0.707-0.236 0.118-0.368 0.591-0.734 0.394-0.144 0.236-0.577 0-0.603 0.34-0.17 0.066-0.092 0.289-0.196 0.393-0.039 0.262 0 0.486 0.222 0.643 0.092 0.196-0.196 0.196-0.079 0.38 0.027 0.065 0 0.157-0.039 0.184-0.079 0.039-0.104 0.079-0.079 0.157-0.065 0-0.092 0.039-0.144 0.091-0.066 0.131-0.275 0.196-0.42 0.288-0.144 0.039-0.249-0.065-0.34-0.157-0.027 0.145-0.145 0.223-0.288 0.223-0.21 0-0.17-0.184-0.328-0.262 0.065-0.236-0.145-0.34-0.079-0.55 0.17-0.13 0.458-0.223 0.38-0.498-0.183-0.222-0.118-0.55-0.301-0.813-0.118-0.104-0.314-0.261-0.249-0.511 0.17-0.196 0-0.432-0.092-0.641-0.039-0.171-0.144-0.328-0.144-0.525-0.288-0.17-0.302-0.616-0.708-0.655-0.288 0-0.34-0.366-0.629-0.341-0.027-0.052-0.092-0.091-0.145-0.143-0.209 0.143-0.471-0.039-0.733 0.025-0.17-0.288 0.144-0.681-0.315-0.852v-0.182c0.053 0.025 0.079-0.027 0.092-0.053 0.026-0.196-0.328-0.222-0.183-0.445-0.079-0.066-0.17-0.093-0.118-0.223-0.197-0.406-0.787-0.366-0.918-0.773 0.105-0.091 0.105-0.184 0.145-0.262-0.092-0.157-0.118-0.327-0.092-0.497 0.092-0.027 0.144-0.145 0.196-0.237-0.118-0.079-0.262-0.196-0.393-0.157-0.236-0.039-0.406-0.222-0.616-0.327-0.053-0.052-0.026-0.145-0.026-0.209 0.288-0.093-0.039-0.499 0.314-0.446 0.092-0.118 0.288-0.157 0.432-0.249 0.145-0.026 0.262 0.027 0.406 0.066 0.118 0.156 0.328 0.091 0.445 0.222 0.118-0.027 0.262-0.092 0.406-0.027 0-0.222 0.105-0.354 0.262-0.511 0.026-0.091 0.17-0.157 0.288-0.209 0.223 0.052 0.485 0.052 0.643-0.105 0.105 0.066 0.196-0.065 0.314-0.065 0.144-0.027 0.262 0.013 0.367 0.079 0.013-0.262 0.471-0.039 0.563-0.354 0.105-0.21-0.288-0.288-0.262-0.472-0.065-0.21 0.092-0.314 0.17-0.458 0.092-0.039 0.196-0.092 0.314-0.066 0.302-0.105 0.066-0.721 0.551-0.497 0 0.065-0.027 0.144 0.013 0.157 0.17 0 0.197-0.197 0.315-0.262 0.052-0.183-0.066-0.406 0.091-0.55 0.079-0.013 0.145-0.039 0.196-0.105 0-0.144-0.079-0.222-0.196-0.314-0.039 0.065-0.144 0.013-0.21 0.039 0-0.157-0.091-0.262-0.118-0.406-0.079-0.039-0.118-0.104-0.091-0.196 0.118-0.118 0-0.406 0.275-0.341 0.105-0.091 0.288-0.026 0.393-0.183 0.275-0.157 0.642-0.157 0.852-0.445 0.092 0.013 0.196-0.079 0.288 0 0.026 0.17 0.275 0.104 0.275 0.262z"></path>
</svg>
