<!-- Generated by IcoMoon.io -->
<svg version="1.1" xmlns="http://www.w3.org/2000/svg" width="22" height="16" viewBox="0 0 22 16">
<title>kv-top</title>
<path fill="#fff" d="M3.756 5.996l-0.31-0.948-0.306 0.948h-1.001l0.81 0.588-0.31 0.951 0.806-0.588 0.81 0.588-0.31-0.951 0.81-0.588zM6.759 4.903l-0.306-0.948-0.31 0.948h-1.001l0.81 0.588-0.31 0.951 0.81-0.588 0.806 0.588-0.31-0.951 0.81-0.588zM9.907 4.349l-0.306-0.951-0.31 0.951h-1.001l0.81 0.588-0.31 0.951 0.81-0.588 0.806 0.588-0.31-0.951 0.81-0.588zM19.257 5.996l-0.306-0.948-0.31 0.948h-1.001l0.81 0.588-0.31 0.951 0.81-0.588 0.806 0.588-0.31-0.951 0.81-0.588zM16.254 4.903l-0.31-0.948-0.306 0.948h-1.001l0.81 0.588-0.31 0.951 0.806-0.588 0.81 0.588-0.31-0.951 0.81-0.588zM13.105 4.349l-0.31-0.951-0.306 0.951h-1.001l0.81 0.588-0.31 0.951 0.806-0.588 0.81 0.588-0.31-0.951 0.81-0.588z"></path>
</svg>
