<!-- Generated by IcoMoon.io -->
<svg version="1.1" xmlns="http://www.w3.org/2000/svg" width="32" height="32" viewBox="0 0 32 32">
<title>kz-line</title>
<path d="M0.566 0.414c0.096 0.313 0.096 0.566-0.012 0.964-0.193 0.711-0.181 1.024 0.048 1.349 0.096 0.144 0.12 0.265 0.060 0.265-0.072 0-0.133 0.084-0.133 0.181s0.060 0.181 0.12 0.181c0.072 0 0.036 0.132-0.072 0.313-0.181 0.265-0.193 0.385-0.048 1.156 0.12 0.626 0.132 0.928 0.036 1.192-0.072 0.193-0.096 0.349-0.048 0.349 0.169 0 0.494-0.434 0.494-0.638 0-0.108 0.060-0.205 0.12-0.205 0.072 0 0.12-0.072 0.108-0.157-0.036-0.313 0.024-0.434 0.253-0.506 0.301-0.096 0.446-0.602 0.241-0.843-0.301-0.361-0.783-0.145-0.638 0.277 0.048 0.12 0.096 0.12 0.229 0.012 0.229-0.193 0.361-0.048 0.169 0.193-0.229 0.277-0.626 0.012-0.578-0.385s0.325-0.578 0.735-0.47c0.554 0.132 0.434 0.675-0.578 2.734-0.964 1.975-1.072 2.469-0.662 2.879 0.132 0.133 0.289 0.241 0.349 0.241s-0.048 0.157-0.241 0.349c-0.217 0.229-0.349 0.482-0.349 0.699 0 0.181 0.409 1.204 0.903 2.252s0.903 2.060 0.903 2.24c0 0.458-0.289 0.675-0.699 0.53-0.265-0.096-0.325-0.193-0.325-0.53 0-0.313 0.060-0.434 0.229-0.458 0.265-0.060 0.494 0.145 0.373 0.337-0.060 0.096-0.12 0.096-0.241 0-0.108-0.096-0.169-0.084-0.205 0.024-0.12 0.301 0.024 0.434 0.361 0.349 0.434-0.12 0.47-0.735 0.060-0.915-0.241-0.108-0.337-0.289-0.289-0.578 0-0.048-0.036-0.084-0.096-0.084s-0.133-0.157-0.169-0.349c-0.048-0.205-0.181-0.422-0.313-0.482-0.217-0.12-0.217-0.108-0.096 0.217 0.096 0.265 0.084 0.566-0.036 1.192-0.084 0.494-0.108 0.94-0.048 1.072 0.144 0.337 0.157 0.903 0.012 1.204-0.084 0.205-0.084 0.518 0.036 1.132 0.12 0.638 0.132 0.94 0.036 1.204-0.12 0.325-0.12 0.337 0.096 0.217 0.133-0.060 0.265-0.277 0.313-0.482 0.036-0.193 0.108-0.349 0.169-0.349s0.096-0.036 0.096-0.096c-0.048-0.277 0.048-0.458 0.289-0.566 0.409-0.181 0.373-0.795-0.060-0.915-0.325-0.084-0.47 0.048-0.373 0.349 0.048 0.108 0.096 0.12 0.217 0.024 0.108-0.096 0.181-0.096 0.241 0 0.108 0.181-0.036 0.361-0.301 0.361-0.253 0-0.446-0.47-0.325-0.783 0.096-0.241 0.65-0.361 0.867-0.181 0.325 0.277 0.193 0.783-0.723 2.722-0.494 1.048-0.903 2.072-0.903 2.253 0 0.229 0.12 0.47 0.373 0.699s0.313 0.349 0.193 0.349c-0.277 0-0.566 0.47-0.566 0.903 0 0.217 0.373 1.144 0.903 2.216 0.891 1.807 1.048 2.349 0.759 2.638-0.181 0.181-0.614 0.181-0.795 0-0.205-0.205-0.181-0.638 0.048-0.819 0.145-0.133 0.217-0.12 0.373 0.036 0.241 0.229 0.12 0.422-0.133 0.217-0.12-0.108-0.181-0.108-0.217 0.012-0.157 0.422 0.325 0.638 0.626 0.277 0.205-0.241 0.060-0.747-0.241-0.843-0.229-0.072-0.289-0.193-0.253-0.518 0.012-0.072-0.036-0.145-0.108-0.145-0.060 0-0.12-0.108-0.12-0.229 0-0.241-0.289-0.614-0.482-0.614-0.048 0-0.036 0.157 0.036 0.349 0.096 0.265 0.084 0.566-0.036 1.192-0.145 0.771-0.133 0.891 0.048 1.156 0.108 0.181 0.145 0.313 0.072 0.313-0.060 0-0.12 0.084-0.12 0.181s0.060 0.181 0.12 0.181c0.072 0 0.036 0.133-0.072 0.313-0.181 0.265-0.193 0.398-0.048 1.12 0.108 0.614 0.12 0.927 0.024 1.204-0.072 0.205-0.084 0.373-0.024 0.373 0.181 0 0.482-0.373 0.482-0.614 0-0.12 0.048-0.229 0.12-0.229 0.060 0 0.084-0.072 0.048-0.169s0.024-0.241 0.133-0.325c0.482-0.422 0.554-0.518 0.518-0.747-0.048-0.337-0.59-0.626-0.723-0.385-0.133 0.229 0.024 0.626 0.157 0.398 0.072-0.12 0.133-0.12 0.241-0.012 0.12 0.12 0.108 0.169-0.048 0.229-0.313 0.12-0.566-0.036-0.566-0.349 0-0.385 0.265-0.59 0.687-0.542 0.47 0.048 0.506 0.554 0.096 1.457-0.337 0.771-0.373 0.988-0.157 1.12s1.325 0.157 1.578 0.024c0.277-0.144 0.265-0.325-0.096-1.144-0.409-0.903-0.373-1.409 0.096-1.457 0.422-0.048 0.687 0.157 0.687 0.542 0 0.313-0.253 0.47-0.566 0.349-0.157-0.060-0.169-0.108-0.048-0.229 0.108-0.108 0.169-0.108 0.241 0.012 0.132 0.229 0.289-0.169 0.157-0.398-0.132-0.241-0.675 0.048-0.723 0.385-0.036 0.229 0.036 0.325 0.518 0.747 0.108 0.084 0.169 0.229 0.132 0.325s-0.012 0.169 0.048 0.169c0.072 0 0.12 0.108 0.12 0.229 0 0.241 0.301 0.614 0.482 0.614 0.060 0 0.048-0.169-0.024-0.373-0.096-0.277-0.084-0.59 0.024-1.204 0.145-0.723 0.133-0.855-0.048-1.12-0.108-0.181-0.145-0.313-0.072-0.313 0.060 0 0.12-0.084 0.12-0.181s-0.060-0.181-0.12-0.181c-0.072 0-0.036-0.133 0.072-0.313 0.181-0.265 0.193-0.385 0.048-1.156-0.12-0.626-0.133-0.927-0.036-1.192 0.072-0.193 0.084-0.349 0.036-0.349-0.193 0-0.482 0.373-0.482 0.614 0 0.12-0.060 0.229-0.12 0.229-0.072 0-0.12 0.072-0.108 0.145 0.036 0.325-0.024 0.446-0.253 0.518-0.301 0.096-0.446 0.602-0.241 0.843 0.301 0.361 0.843 0.096 0.602-0.289-0.060-0.108-0.12-0.12-0.169-0.024-0.12 0.193-0.313 0.169-0.313-0.036 0-0.229 0.361-0.349 0.554-0.181 0.373 0.301 0.12 0.952-0.373 0.952-0.819-0.012-0.759-0.506 0.349-2.77 0.518-1.048 0.915-2.023 0.915-2.228 0-0.434-0.289-0.903-0.566-0.903-0.12 0-0.060-0.12 0.193-0.349s0.373-0.458 0.373-0.699c0-0.181-0.385-1.156-0.855-2.144-1.072-2.276-1.108-2.397-0.843-2.722 0.169-0.205 0.289-0.241 0.542-0.181 0.373 0.096 0.494 0.313 0.385 0.735-0.072 0.301-0.47 0.422-0.614 0.181-0.12-0.205 0.060-0.398 0.241-0.241 0.108 0.096 0.169 0.084 0.217-0.036 0.12-0.313-0.084-0.47-0.446-0.325-0.265 0.096-0.325 0.181-0.289 0.458 0.024 0.193 0.145 0.373 0.301 0.446 0.241 0.108 0.337 0.289 0.289 0.566 0 0.060 0.036 0.096 0.096 0.096s0.132 0.145 0.157 0.313c0.024 0.181 0.169 0.41 0.325 0.518 0.277 0.181 0.289 0.181 0.157-0.072-0.181-0.325-0.181-0.819-0.012-1.578 0.084-0.349 0.096-0.699 0.048-0.819-0.157-0.349-0.169-0.915-0.024-1.229 0.084-0.193 0.084-0.434-0.012-0.879-0.181-0.771-0.181-1.253 0-1.59 0.133-0.253 0.12-0.253-0.157-0.072-0.157 0.108-0.301 0.337-0.325 0.518-0.024 0.169-0.096 0.313-0.157 0.313-0.072 0-0.084 0.060-0.048 0.12 0.036 0.072-0.096 0.277-0.301 0.47-0.47 0.422-0.458 0.855 0.024 0.988 0.325 0.084 0.47-0.048 0.373-0.349-0.048-0.108-0.096-0.12-0.217-0.024-0.181 0.145-0.361-0.036-0.241-0.241 0.132-0.205 0.518-0.133 0.602 0.12 0.205 0.65-0.506 1.12-0.915 0.614-0.277-0.337-0.229-0.458 0.843-2.722 0.47-1 0.855-1.963 0.855-2.144 0-0.217-0.133-0.47-0.349-0.699-0.193-0.193-0.301-0.349-0.241-0.349s0.217-0.108 0.349-0.241c0.422-0.422 0.301-0.903-0.675-2.891-1.108-2.265-1.168-2.758-0.337-2.771 0.506 0 0.747 0.723 0.325 0.94-0.265 0.145-0.518 0.060-0.518-0.169 0-0.205 0.193-0.229 0.313-0.036 0.048 0.096 0.108 0.084 0.169-0.024 0.241-0.385-0.301-0.65-0.602-0.289-0.205 0.241-0.060 0.747 0.241 0.843 0.229 0.072 0.289 0.193 0.253 0.506-0.012 0.084 0.036 0.157 0.108 0.157 0.060 0 0.12 0.096 0.12 0.217 0 0.205 0.349 0.626 0.506 0.626 0.048 0 0.012-0.157-0.060-0.349-0.096-0.265-0.084-0.566 0.036-1.192 0.145-0.771 0.133-0.891-0.048-1.156-0.108-0.181-0.145-0.313-0.072-0.313 0.060 0 0.12-0.084 0.12-0.181s-0.060-0.181-0.12-0.181c-0.072 0-0.036-0.132 0.072-0.313 0.181-0.265 0.193-0.397 0.048-1.12-0.108-0.614-0.12-0.927-0.024-1.204 0.072-0.205 0.084-0.373 0.024-0.373-0.181 0-0.482 0.373-0.482 0.614 0 0.12-0.048 0.229-0.12 0.229-0.060 0-0.084 0.072-0.048 0.169 0.060 0.169-0.241 0.554-0.446 0.554-0.181 0-0.265 0.59-0.108 0.783 0.169 0.205 0.554 0.241 0.65 0.072 0.048-0.060 0.036-0.205 0-0.313-0.060-0.157-0.096-0.169-0.181-0.036-0.072 0.12-0.132 0.12-0.241 0.012-0.12-0.12-0.108-0.169 0.048-0.229 0.313-0.12 0.566 0.036 0.566 0.349 0 0.385-0.265 0.59-0.687 0.542-0.47-0.048-0.506-0.554-0.096-1.457 0.169-0.385 0.301-0.771 0.301-0.867-0-0.265-0.349-0.385-1.072-0.373-0.903 0.012-1 0.193-0.566 1.192 0.422 0.988 0.385 1.457-0.084 1.506-0.422 0.048-0.687-0.157-0.687-0.542 0-0.313 0.253-0.47 0.566-0.349 0.157 0.060 0.169 0.108 0.048 0.229-0.108 0.108-0.169 0.108-0.241-0.012-0.157-0.253-0.289 0.181-0.133 0.434 0.060 0.12 0.12 0.145 0.12 0.060s0.072-0.12 0.157-0.084c0.253 0.096 0.482-0.265 0.397-0.614-0.048-0.169-0.12-0.301-0.181-0.301-0.205 0-0.506-0.385-0.446-0.554 0.036-0.096 0.012-0.169-0.048-0.169-0.072 0-0.12-0.108-0.12-0.229 0-0.241-0.289-0.614-0.482-0.614-0.048 0-0.036 0.193 0.036 0.434zM3.228 6.545c0.831 1.771 0.927 2.264 0.542 2.505-0.289 0.181-0.831 0-0.831-0.277 0-0.313 0.253-0.434 0.422-0.205 0.12 0.169 0.157 0.169 0.337-0.048 0.193-0.217 0.193-0.241 0-0.47-0.12-0.133-0.241-0.181-0.277-0.12-0.048 0.072-0.253 0.181-0.47 0.241l-0.385 0.108 0.036-0.566c0.036-0.482 0.072-0.566 0.313-0.602 0.349-0.048 0.337-0.241-0.012-0.397-0.205-0.096-0.277-0.205-0.241-0.385 0.024-0.145-0.036-0.373-0.132-0.506l-0.193-0.241-0.193 0.241c-0.096 0.133-0.157 0.361-0.132 0.506 0.036 0.181-0.036 0.289-0.241 0.385-0.349 0.157-0.361 0.349 0 0.397 0.229 0.036 0.265 0.12 0.301 0.602l0.036 0.566-0.385-0.108c-0.217-0.060-0.422-0.169-0.47-0.241-0.036-0.060-0.157-0.012-0.277 0.12-0.193 0.229-0.193 0.253 0 0.47 0.181 0.217 0.217 0.217 0.337 0.048 0.169-0.229 0.422-0.108 0.422 0.205 0 0.277-0.542 0.458-0.831 0.277-0.397-0.253-0.289-0.747 0.542-2.517 0.446-0.952 0.855-1.734 0.891-1.734s0.446 0.783 0.891 1.747zM1.506 10.098c0.277 0.157 0.313 0.602 0.048 0.602-0.108 0-0.217-0.084-0.253-0.181-0.060-0.144-0.108-0.133-0.289 0.084-0.193 0.241-0.193 0.289-0.036 0.542 0.157 0.229 0.205 0.253 0.325 0.108 0.072-0.084 0.277-0.193 0.47-0.241 0.313-0.072 0.325-0.060 0.325 0.458 0 0.53-0.217 0.783-0.506 0.602-0.072-0.048-0.108-0.012-0.072 0.084s0.157 0.217 0.289 0.289c0.133 0.072 0.217 0.217 0.193 0.361-0.012 0.133 0.048 0.349 0.157 0.482 0.181 0.241 0.181 0.241 0.361 0 0.108-0.133 0.169-0.349 0.157-0.482-0.024-0.145 0.060-0.289 0.193-0.361s0.253-0.193 0.289-0.289c0.036-0.096 0-0.133-0.072-0.084-0.289 0.181-0.506-0.072-0.506-0.602 0-0.518 0.012-0.53 0.337-0.458 0.181 0.048 0.385 0.157 0.458 0.241 0.12 0.145 0.169 0.12 0.325-0.108 0.157-0.253 0.157-0.301-0.036-0.542-0.181-0.217-0.229-0.229-0.289-0.084-0.096 0.265-0.434 0.217-0.434-0.060 0-0.145 0.12-0.301 0.289-0.373 0.409-0.193 0.795 0.036 0.795 0.482 0 0.325-1.542 3.854-1.686 3.866-0.132 0-1.686-3.541-1.686-3.854 0-0.494 0.397-0.723 0.855-0.482zM3.216 19.313c0.879 1.903 0.976 2.397 0.518 2.602-0.361 0.169-0.795-0.036-0.795-0.373 0-0.277 0.337-0.325 0.434-0.060 0.060 0.144 0.108 0.133 0.289-0.084 0.193-0.241 0.193-0.289 0.036-0.542-0.157-0.229-0.205-0.253-0.325-0.108-0.072 0.084-0.277 0.193-0.458 0.241-0.325 0.072-0.337 0.060-0.337-0.458 0-0.53 0.217-0.783 0.506-0.602 0.072 0.048 0.108 0.012 0.072-0.084s-0.157-0.229-0.289-0.289c-0.132-0.072-0.217-0.217-0.193-0.361 0.012-0.133-0.048-0.349-0.157-0.482-0.181-0.241-0.181-0.241-0.361 0-0.108 0.133-0.169 0.349-0.157 0.482 0.024 0.145-0.060 0.289-0.193 0.361-0.133 0.060-0.253 0.193-0.289 0.289s0 0.133 0.072 0.084c0.289-0.181 0.506 0.072 0.506 0.602 0 0.518-0.012 0.53-0.325 0.458-0.193-0.048-0.397-0.157-0.47-0.241-0.12-0.145-0.169-0.12-0.325 0.108-0.157 0.253-0.157 0.301 0.036 0.542 0.181 0.217 0.229 0.229 0.289 0.084 0.096-0.265 0.434-0.217 0.434 0.060 0 0.337-0.434 0.542-0.795 0.373-0.205-0.096-0.289-0.229-0.289-0.482 0-0.325 1.542-3.866 1.686-3.866 0.036 0.012 0.422 0.795 0.879 1.747zM1.542 22.938c0.205 0.084 0.265 0.47 0.084 0.59-0.060 0.036-0.193-0.012-0.289-0.108-0.145-0.145-0.193-0.145-0.361 0.060-0.193 0.217-0.193 0.241 0 0.47 0.12 0.133 0.241 0.181 0.277 0.12 0.048-0.072 0.253-0.181 0.47-0.241l0.385-0.108-0.036 0.566c-0.036 0.482-0.072 0.566-0.301 0.602-0.361 0.048-0.349 0.241 0 0.398 0.205 0.096 0.277 0.205 0.241 0.385-0.024 0.145 0.036 0.373 0.132 0.506l0.193 0.241 0.193-0.241c0.096-0.133 0.157-0.361 0.132-0.506-0.036-0.181 0.036-0.289 0.241-0.385 0.349-0.157 0.361-0.349 0.012-0.398-0.241-0.036-0.277-0.12-0.313-0.602l-0.036-0.566 0.385 0.108c0.217 0.060 0.422 0.169 0.47 0.241 0.036 0.060 0.157 0.012 0.277-0.12 0.193-0.229 0.193-0.265-0.012-0.494-0.205-0.205-0.253-0.217-0.385-0.048-0.181 0.217-0.361 0.133-0.361-0.181 0-0.277 0.542-0.458 0.831-0.277 0.385 0.241 0.289 0.735-0.542 2.505-0.446 0.964-0.855 1.747-0.891 1.747-0.145 0-1.686-3.433-1.686-3.746 0-0.494 0.373-0.711 0.891-0.518z"></path>
</svg>
