<!-- Generated by IcoMoon.io -->
<svg version="1.1" xmlns="http://www.w3.org/2000/svg" width="32" height="32" viewBox="0 0 32 32">
<title>kz</title>
<path d="M15.836 2.043c-0.306 1.23-0.32 1.595-0.087 1.849 0.43 0.459 0.925 0.066 0.852-0.684-0.036-0.4-0.379-1.849-0.473-2.024-0.036-0.058-0.16 0.313-0.291 0.859zM13.914 1.642c-0.029 0.189-0.051 0.757-0.051 1.252v0.91l0.248 0.248c0.291 0.291 0.328 0.298 0.575 0.102 0.4-0.313 0.299-0.823-0.437-2.293l-0.291-0.568-0.044 0.35zM17.969 1.861c-0.706 1.369-0.83 1.937-0.502 2.264 0.218 0.218 0.422 0.189 0.67-0.087 0.233-0.255 0.262-0.553 0.189-1.726l-0.058-1.034-0.298 0.583zM11.897 2.101c0 0.233 0.211 1.587 0.299 1.959 0.095 0.349 0.415 0.677 0.677 0.677 0.248 0 0.43-0.24 0.43-0.568 0-0.306-0.16-0.597-0.845-1.507-0.568-0.757-0.561-0.75-0.561-0.561zM19.724 2.698c-0.633 0.859-0.837 1.223-0.837 1.507 0 0.306 0.189 0.532 0.437 0.532 0.328 0 0.568-0.262 0.684-0.764 0.131-0.517 0.342-1.944 0.299-1.988-0.015-0.015-0.277 0.306-0.582 0.714zM10.004 3.047c0 0.124 0.43 1.318 0.662 1.82 0.168 0.371 0.255 0.473 0.459 0.561 0.146 0.058 0.291 0.109 0.335 0.109 0.153 0 0.364-0.298 0.364-0.524 0-0.313-0.255-0.662-0.932-1.267-0.837-0.743-0.888-0.786-0.888-0.699zM21.42 3.659c-0.917 0.845-1.041 1.005-1.041 1.376 0 0.706 0.757 0.655 1.129-0.073 0.167-0.328 0.735-1.973 0.684-1.973-0.022 0-0.364 0.306-0.772 0.67zM8.54 4.78c0.466 0.823 1.019 1.602 1.209 1.689 0.233 0.109 0.437 0.109 0.626 0.015 0.102-0.058 0.138-0.153 0.138-0.379 0-0.255-0.044-0.342-0.277-0.568-0.262-0.24-1.478-1.012-1.798-1.136-0.117-0.044-0.095 0.015 0.102 0.379zM22.985 4.853c-1.201 0.721-1.449 1.005-1.289 1.478 0.058 0.153 0.124 0.197 0.364 0.211 0.473 0.036 0.684-0.182 1.471-1.536 0.211-0.349 0.349-0.633 0.313-0.633-0.029 0-0.422 0.218-0.859 0.481zM15.392 4.882c-3.051 0.299-5.577 2.475-6.378 5.497-0.168 0.626-0.197 0.874-0.197 1.784s0.029 1.158 0.197 1.784c0.35 1.332 0.983 2.446 1.929 3.393 2.825 2.818 7.31 2.869 10.186 0.109 1.012-0.968 1.602-1.951 2.031-3.356 0.182-0.604 0.197-0.75 0.197-1.929 0-1.172-0.015-1.325-0.197-1.929-0.408-1.354-1.085-2.468-2.068-3.393-0.888-0.837-1.813-1.369-2.949-1.696-0.517-0.146-1.966-0.364-2.162-0.328-0.022 0.007-0.291 0.036-0.59 0.066zM7.004 6.084c0.16 0.298 1.456 1.595 1.675 1.689 0.481 0.197 0.874-0.044 0.779-0.481-0.087-0.393-0.364-0.568-1.66-1.019-0.604-0.211-0.837-0.262-0.794-0.189zM24.187 6.375c-1.048 0.393-1.267 0.51-1.405 0.808-0.146 0.306-0.138 0.364 0.036 0.539 0.189 0.189 0.532 0.189 0.837 0 0.197-0.124 1.143-1.107 1.485-1.551 0.146-0.189 0.022-0.16-0.954 0.204zM6.145 8.086c0.575 0.517 1.609 1.18 1.893 1.216 0.772 0.109 0.903-0.721 0.16-1.019-0.153-0.058-0.633-0.16-1.070-0.233-0.444-0.065-0.896-0.131-1.019-0.153l-0.218-0.036 0.255 0.226zM25.039 8.079c-0.4 0.073-0.852 0.168-1.005 0.218-0.481 0.16-0.714 0.648-0.43 0.903 0.197 0.182 0.48 0.218 0.75 0.102 0.24-0.102 1.245-0.794 1.704-1.172l0.218-0.182h-0.255c-0.138 0-0.582 0.066-0.983 0.131zM5.948 9.884c-0.335 0.015-0.604 0.051-0.604 0.087 0 0.073 1.522 0.801 1.922 0.917 0.794 0.233 1.303-0.459 0.655-0.881-0.204-0.138-0.852-0.175-1.973-0.124zM24.383 9.972c-0.168 0.073-0.357 0.277-0.422 0.466-0.066 0.182 0.313 0.561 0.553 0.561 0.255 0 0.706-0.167 1.609-0.604l0.794-0.379-0.357-0.051c-0.51-0.066-2.002-0.058-2.177 0.007zM6.087 11.828c-0.532 0.131-0.983 0.262-1.005 0.277-0.058 0.066 1.886 0.524 2.242 0.524 0.692 0.015 0.983-0.648 0.415-0.939-0.291-0.153-0.561-0.131-1.653 0.138zM24.565 11.668c-0.699 0.262-0.517 1.005 0.247 1.005 0.328 0 2.082-0.408 2.177-0.502 0.036-0.036-0.357-0.16-0.874-0.284-1.216-0.284-1.332-0.306-1.551-0.218zM1.886 13.364c-0.226 0.218-0.233 0.546-0.036 1.456 0.197 0.888 0.459 1.645 0.801 2.323 0.248 0.502 0.262 0.553 0.102 0.4-0.095-0.095-0.379-0.466-0.626-0.83-0.699-1.019-1.056-1.471-1.216-1.514-0.182-0.044-0.517 0.197-0.517 0.379 0 0.291 1.107 2.046 1.944 3.080l0.466 0.582-0.306-0.175c-0.167-0.087-0.67-0.553-1.114-1.027-0.619-0.648-0.852-0.852-0.99-0.852-0.277 0-0.393 0.102-0.342 0.313 0.080 0.306 2.111 2.548 2.636 2.905 0.583 0.386 0.102 0.342-0.575-0.058-0.473-0.284-0.845-0.393-0.845-0.255 0 0.466 1.274 1.485 2.417 1.944 0.197 0.073 0.35 0.168 0.35 0.197 0 0.036-0.328 0.036-0.728 0.015-0.626-0.051-0.728-0.036-0.728 0.058 0 0.168 0.546 0.393 1.267 0.517 0.91 0.16 0.932 0.218 0.146 0.379-0.269 0.058-0.51 0.124-0.532 0.138-0.124 0.131 0.677 0.393 1.23 0.408l0.255 0.007-0.342 0.146c-0.197 0.080-0.35 0.189-0.35 0.24 0 0.109 0.43 0.284 1.056 0.43l0.437 0.102-0.342 0.087c-0.197 0.051-0.35 0.109-0.35 0.138 0 0.022 0.714 0.349 1.58 0.728 1.704 0.735 2.694 1.027 3.4 1.019h0.444l-0.655-0.182c-0.75-0.204-2.49-0.881-3.123-1.216-0.364-0.197-0.408-0.24-0.298-0.306 0.233-0.138 0.473-0.335 0.473-0.393 0-0.036-0.146-0.080-0.328-0.102-0.182-0.029-0.495-0.116-0.699-0.204l-0.364-0.16 0.233-0.197c0.262-0.218 0.262-0.218-0.277-0.393-0.415-0.138-0.481-0.255-0.24-0.459 0.197-0.175 0.182-0.226-0.087-0.298-0.218-0.051-0.24-0.087-0.262-0.35-0.022-0.277-0.036-0.299-0.335-0.379-0.175-0.044-0.488-0.218-0.706-0.393l-0.393-0.313 0.626-0.044-0.481-0.517c-0.262-0.284-0.473-0.539-0.473-0.575s0.146-0.066 0.328-0.066c0.262 0 0.328-0.022 0.328-0.131-0.007-0.182-0.313-0.903-0.502-1.172l-0.16-0.226h0.189c0.102 0 0.248 0.029 0.32 0.073 0.109 0.051 0.146 0.029 0.218-0.116 0.066-0.153 0.102-0.168 0.233-0.095 0.32 0.168 1.434 1.362 1.937 2.068 0.772 1.092 1.58 1.798 2.381 2.068 0.655 0.233 0.845 0.364 1.602 1.129 0.437 0.43 0.874 0.801 1.078 0.903 0.328 0.16 0.903 0.255 2.621 0.444 0.721 0.080 1.434 0.299 1.587 0.481 0.051 0.058 0.117 0.109 0.146 0.109 0.051 0 0.437-0.91 0.437-1.027 0-0.022-0.32-0.066-0.706-0.087-3.094-0.175-6.393-1.849-8.431-4.288-1.325-1.573-2.279-3.466-2.687-5.315-0.131-0.59-0.24-0.75-0.466-0.684-0.313 0.102-0.364 0.488-0.204 1.573 0.058 0.379 0.095 0.706 0.073 0.721-0.087 0.087-0.488-1.056-0.684-1.966-0.306-1.398-0.444-1.595-0.837-1.194z"></path>
<path d="M29.706 13.342c-0.058 0.095-0.204 0.641-0.335 1.216-0.197 0.91-0.597 2.053-0.684 1.966-0.022-0.015 0.015-0.342 0.073-0.721 0.16-1.085 0.109-1.471-0.204-1.573-0.226-0.066-0.335 0.095-0.466 0.684-0.655 2.971-2.585 5.796-5.162 7.528-1.638 1.099-3.276 1.718-5.359 2.024-0.546 0.080-1.005 0.182-1.114 0.255-0.102 0.073-0.357 0.335-0.553 0.582-0.444 0.553-1.23 1.303-1.551 1.463-0.124 0.066-0.604 0.284-1.063 0.473-0.903 0.386-1.099 0.517-1.099 0.75 0 0.102-0.073 0.189-0.211 0.247-0.116 0.051-0.262 0.204-0.335 0.349-0.102 0.211-0.102 0.299-0.029 0.517 0.073 0.233 0.095 0.247 0.16 0.124 0.124-0.226 0.364-0.342 0.32-0.16-0.007 0.051 0.036 0.080 0.095 0.066 0.845-0.226 1.070-0.247 3.058-0.262 2.454-0.022 2.315-0.007 2.199-0.124-0.051-0.051-0.408-0.095-0.976-0.102-0.495-0.007-0.976-0.051-1.078-0.087s-0.371-0.051-0.597-0.029c-0.233 0.015-0.422 0.007-0.422-0.022s0.066-0.131 0.146-0.233c0.102-0.138 0.124-0.211 0.073-0.277-0.058-0.066-0.015-0.146 0.146-0.284l0.233-0.189h-0.248c-0.131 0.007-0.422 0.066-0.641 0.146-0.531 0.189-0.794 0.182-0.364-0.007 0.466-0.204 1.682-1.048 2.206-1.529 0.248-0.226 0.561-0.459 0.684-0.532 0.342-0.175 1.536-0.48 1.878-0.48 0.16 0 0.743-0.080 1.303-0.175 0.801-0.138 1.027-0.197 1.085-0.306 0.24-0.444 1.063-1.005 2.905-1.988l1.281-0.692 0.211-0.437c0.306-0.655 1.427-1.777 2.075-2.082 0.364-0.175 0.568-0.218 0.816-0.204l0.328 0.022-0.131 0.386c-0.073 0.211-0.233 0.51-0.364 0.67-0.124 0.153-0.226 0.299-0.226 0.313 0 0.036 0.473-0.058 0.75-0.138 0.255-0.080 0.124 0.255-0.277 0.684l-0.4 0.437 0.255 0.044c0.138 0.029 0.255 0.073 0.255 0.102s-0.328 0.262-0.728 0.517c-0.4 0.255-0.728 0.495-0.728 0.517 0 0.029 0.073 0.080 0.167 0.102 0.146 0.044 0.124 0.066-0.204 0.233-0.502 0.262-0.641 0.393-0.539 0.51 0.116 0.138 0.036 0.218-0.357 0.364-0.459 0.168-0.502 0.218-0.357 0.379 0.109 0.124 0.117 0.153 0.022 0.226-0.066 0.051-0.24 0.109-0.4 0.131-0.269 0.036-0.284 0.051-0.218 0.218 0.109 0.299 0.087 0.342-0.495 0.728-0.976 0.648-1.791 0.961-2.497 0.968-0.189 0-0.226 0.022-0.146 0.073 0.262 0.168 1.98-0.007 2.767-0.277s1.893-0.918 1.769-1.034c-0.029-0.029-0.211-0.109-0.4-0.182-0.197-0.073-0.349-0.153-0.349-0.189 0-0.058 0.451-0.16 1.274-0.284 0.284-0.044 0.561-0.109 0.612-0.138 0.168-0.109 0.015-0.218-0.364-0.269-0.451-0.058-0.393-0.124 0.226-0.24 1.012-0.197 1.485-0.59 0.713-0.59-0.211 0-0.466-0.022-0.561-0.051-0.146-0.036-0.116-0.058 0.211-0.146 0.211-0.051 0.655-0.204 0.976-0.335 0.466-0.182 0.59-0.262 0.59-0.379 0-0.131-0.044-0.146-0.4-0.131-0.218 0.015-0.444 0.007-0.502-0.015s0.262-0.277 0.764-0.612c1.165-0.772 1.704-1.332 1.704-1.762 0-0.146-0.444-0.022-0.91 0.247-0.684 0.408-1.165 0.459-0.582 0.066 0.524-0.357 2.556-2.599 2.636-2.905 0.051-0.211-0.066-0.313-0.342-0.313-0.138 0-0.371 0.204-0.99 0.852-0.444 0.473-0.947 0.939-1.114 1.027l-0.306 0.175 0.466-0.582c0.837-1.034 1.944-2.789 1.944-3.080 0-0.182-0.335-0.422-0.517-0.379-0.16 0.044-0.517 0.495-1.216 1.514-0.247 0.364-0.532 0.735-0.626 0.83-0.16 0.153-0.146 0.102 0.102-0.4 0.342-0.677 0.604-1.434 0.801-2.323 0.197-0.91 0.189-1.238-0.036-1.456-0.218-0.226-0.364-0.233-0.502-0.022zM7.128 13.393c-0.197 0.073-0.706 0.291-1.121 0.488-0.917 0.43-0.888 0.451 0.662 0.459 1.034 0.007 1.070 0 1.281-0.175 0.291-0.24 0.328-0.437 0.138-0.655-0.218-0.248-0.524-0.284-0.961-0.116zM24.223 13.401c-0.386 0.16-0.357 0.619 0.066 0.874 0.197 0.124 0.357 0.146 0.932 0.138 0.379-0.007 0.925-0.029 1.201-0.058l0.51-0.044-0.364-0.197c-0.684-0.357-1.762-0.786-1.973-0.779-0.116 0-0.284 0.029-0.371 0.066zM7.485 15.155c-0.466 0.291-1.558 1.107-1.558 1.165 0 0.022 0.073 0.036 0.168 0.022 0.087-0.015 0.502-0.080 0.925-0.138 1.019-0.153 1.289-0.24 1.5-0.495 0.531-0.626-0.248-1.048-1.034-0.553z"></path>
<path d="M23.692 15.024c-0.131 0.066-0.189 0.16-0.204 0.328-0.036 0.335 0.277 0.626 0.786 0.735 0.597 0.131 1.9 0.313 1.937 0.277 0.022-0.015-0.255-0.248-0.604-0.51-1.26-0.925-1.507-1.034-1.915-0.83zM8.657 16.459c-0.262 0.102-1.813 1.747-1.653 1.747 0.138 0 1.573-0.524 1.929-0.699 0.255-0.131 0.386-0.255 0.459-0.43 0.131-0.328 0.131-0.371-0.044-0.546-0.153-0.153-0.437-0.182-0.692-0.073zM22.942 16.473c-0.393 0.138-0.299 0.757 0.153 1.019 0.24 0.138 2.060 0.801 2.097 0.765 0.044-0.044-1.311-1.536-1.507-1.66-0.247-0.168-0.51-0.204-0.743-0.124zM9.618 17.842c-0.182 0.146-0.706 0.917-1.15 1.711l-0.24 0.43 0.269-0.16c0.146-0.087 0.393-0.233 0.546-0.32 1.136-0.67 1.471-0.983 1.471-1.398 0-0.393-0.524-0.553-0.896-0.262zM21.777 17.806c-0.073 0.066-0.124 0.233-0.124 0.379 0 0.218 0.058 0.32 0.313 0.561 0.306 0.291 1.806 1.23 1.864 1.165 0.051-0.051-0.888-1.558-1.158-1.864-0.299-0.335-0.699-0.444-0.896-0.24zM11.045 18.861c-0.131 0.073-0.299 0.262-0.371 0.415-0.211 0.408-0.75 1.988-0.684 1.988 0.036 0 0.422-0.342 0.866-0.765 0.983-0.932 1.15-1.296 0.779-1.675-0.153-0.146-0.313-0.138-0.59 0.036zM20.415 18.927c-0.109 0.218-0.087 0.532 0.066 0.779 0.175 0.284 1.631 1.609 1.66 1.514 0.015-0.044-0.131-0.502-0.32-1.019-0.393-1.092-0.641-1.413-1.070-1.413-0.182 0-0.277 0.044-0.335 0.138zM12.537 19.626c-0.291 0.16-0.459 0.75-0.67 2.366l-0.044 0.328 0.255-0.284c0.146-0.16 0.459-0.59 0.714-0.947 0.4-0.59 0.451-0.699 0.451-1.012 0-0.517-0.269-0.684-0.706-0.451zM19.039 19.648c-0.247 0.197-0.233 0.648 0.029 1.048 0.524 0.808 1.165 1.609 1.187 1.493 0.036-0.175-0.189-1.573-0.32-2.009-0.16-0.561-0.568-0.801-0.896-0.532zM14.045 20.201c-0.24 0.247-0.284 0.568-0.211 1.74l0.066 1.034 0.306-0.59c0.655-1.267 0.808-1.857 0.561-2.199-0.153-0.218-0.495-0.211-0.721 0.015zM17.408 20.157c-0.306 0.335-0.197 0.823 0.481 2.162l0.328 0.655 0.051-0.473c0.029-0.262 0.036-0.845 0.022-1.289-0.022-0.743-0.036-0.83-0.197-0.997-0.211-0.226-0.517-0.247-0.684-0.058zM15.843 20.216c-0.146 0.066-0.306 0.437-0.306 0.699 0 0.255 0.393 1.966 0.495 2.148 0.073 0.131 0.532-1.638 0.546-2.119 0.022-0.517-0.35-0.881-0.735-0.728zM21.071 27.576c-0.459 0.044-0.582 0.095-0.582 0.233 0 0.16-0.218 0.371-0.393 0.371-0.102 0-0.124 0.036-0.087 0.175s-0.007 0.218-0.182 0.364c-0.386 0.328-0.845 0.415-2.556 0.488-2.33 0.095-3 0.277-3.335 0.939-0.182 0.349-0.182 0.408-0.007 0.459 0.189 0.044 0.641-0.124 1.005-0.379l0.313-0.226v0.328c0 0.488 0.233 0.473 0.757-0.022l0.349-0.342-0.036 0.291c-0.095 0.604 0.255 0.619 0.815 0.029 0.335-0.349 0.349-0.357 0.313-0.153-0.080 0.568 0.357 0.699 0.794 0.233 0.298-0.313 0.357-0.342 0.357-0.197 0 0.131 0.233 0.342 0.386 0.342 0.058 0 0.226-0.138 0.371-0.306l0.262-0.298 0.153 0.189c0.211 0.277 0.4 0.247 0.765-0.124l0.32-0.313 0.109 0.168c0.066 0.095 0.175 0.175 0.247 0.175 0.168 0 0.495-0.371 0.561-0.626 0.051-0.211 0.168-0.218 0.481-0.029 0.488 0.299 0.786 0.138 0.896-0.459 0.036-0.197 0.080-0.255 0.138-0.204 0.044 0.036 0.233 0.109 0.415 0.153 0.582 0.146 1.034-0.153 1.136-0.757l0.044-0.262h-0.379c-0.211 0-0.845-0.051-1.413-0.109-1.347-0.138-1.704-0.16-2.017-0.131z"></path>
</svg>
