<!-- Generated by IcoMoon.io -->
<svg version="1.1" xmlns="http://www.w3.org/2000/svg" width="32" height="32" viewBox="0 0 32 32">
<title>lb</title>
<path d="M15.767 0.404c-0.044 0.088-0.106 0.264-0.132 0.387-0.035 0.132-0.202 0.343-0.369 0.466-0.194 0.149-0.405 0.449-0.563 0.783-0.211 0.484-0.686 1.029-0.88 1.029-0.044 0-0.176 0.15-0.299 0.334-0.167 0.264-0.334 0.378-0.739 0.528-0.677 0.246-1.179 0.774-1.003 1.064 0.044 0.070 0.158 0.044 0.422-0.097 0.308-0.167 0.405-0.185 0.862-0.106l0.519 0.079 0.15 0.704c0.211 1.003 0.097 1.108-0.721 0.66-0.264-0.141-0.528-0.264-0.589-0.264s-0.378 0.158-0.695 0.352l-0.581 0.352 0.387 0.167 0.378 0.176-0.431 0.194c-0.246 0.106-0.545 0.194-0.677 0.202-0.281 0.009-0.299 0.070-0.105 0.361 0.132 0.202 0.132 0.22-0.018 0.273-0.51 0.185-1.267 0.563-1.267 0.633 0 0.053 0.325 0.132 0.73 0.194 0.616 0.088 0.8 0.088 1.249-0.026 0.29-0.079 0.739-0.167 0.985-0.202 0.449-0.053 0.466-0.053 0.554 0.185 0.141 0.361 0.308 1.531 0.229 1.601-0.026 0.035-0.176-0.009-0.308-0.088-0.281-0.167-0.756-0.202-0.844-0.062-0.097 0.15-0.572 0.097-0.932-0.105-0.422-0.238-0.713-0.132-0.932 0.325-0.167 0.352-0.308 0.378-0.686 0.132-0.361-0.238-0.651-0.22-0.932 0.053-0.132 0.123-0.431 0.325-0.668 0.44-0.282 0.132-0.361 0.202-0.237 0.211 0.299 0 0.748 0.185 0.712 0.299-0.044 0.132-0.563 0.308-0.959 0.308-0.237 0.009-0.607 0.167-1.337 0.581-1.179 0.677-1.293 0.783-1.056 0.968 0.255 0.193 0.387 0.158 0.449-0.141 0.062-0.325 0.237-0.413 0.457-0.22 0.194 0.176 0.352 0.176 0.572 0.009 0.097-0.079 0.361-0.132 0.598-0.132 0.264 0 0.572-0.070 0.792-0.185 0.343-0.176 0.378-0.176 0.721-0.044 0.343 0.141 0.369 0.132 0.607-0.044 0.158-0.114 0.325-0.167 0.44-0.132 1.117 0.281 1.275 0.352 1.328 0.589 0.026 0.132 0.070 0.343 0.106 0.475 0.062 0.246 0.053 0.246-0.273 0.194-0.281-0.044-0.352-0.018-0.572 0.211-0.238 0.264-0.255 0.264-0.466 0.132-0.29-0.194-0.581-0.114-1.1 0.308-0.22 0.194-0.475 0.343-0.545 0.343-0.079 0-0.325-0.114-0.554-0.264l-0.413-0.264-0.106 0.22-0.097 0.22-0.132-0.185c-0.123-0.185-0.132-0.176-0.545 0.229l-0.413 0.413-0.176-0.238-0.167-0.238-0.325 0.501c-0.352 0.528-0.537 0.66-0.704 0.493-0.176-0.176-0.334-0.106-0.95 0.396-0.528 0.431-0.774 0.677-0.528 0.519 0.088-0.053 1.9-0.396 2.102-0.396 0.185 0-1.126 1.064-1.522 1.24l-0.352 0.158 0.378 0.062c0.466 0.070 0.51 0.149 0.29 0.457-0.141 0.202-0.229 0.246-0.449 0.211-0.185-0.026-0.369 0.026-0.598 0.185-0.176 0.123-0.484 0.246-0.677 0.282-0.572 0.097-0.836 0.273-0.836 0.572 0 0.352 0.29 0.44 0.607 0.185 0.123-0.106 0.396-0.273 0.598-0.361 0.299-0.141 0.413-0.158 0.616-0.079 0.141 0.053 0.396 0.070 0.598 0.035 0.194-0.035 0.51-0.079 0.695-0.097 0.194-0.018 0.519-0.097 0.73-0.176 0.396-0.158 0.642-0.079 0.642 0.202 0 0.097 0.114 0.106 0.598 0.062 0.493-0.053 0.625-0.097 0.774-0.29 0.185-0.211 0.211-0.22 0.51-0.114 0.281 0.106 0.352 0.097 0.537-0.018 0.114-0.079 0.238-0.141 0.264-0.141 0.018 0 0.229 0.273 0.449 0.607 0.387 0.589 0.396 0.625 0.264 0.818-0.079 0.106-0.141 0.317-0.141 0.466 0 0.299-0.132 0.484-0.361 0.484-0.079 0-0.334 0.079-0.563 0.185-0.352 0.158-0.475 0.167-0.783 0.097-0.668-0.176-0.774-0.185-0.985-0.106-0.123 0.053-0.211 0.158-0.211 0.255 0 0.229-0.237 0.422-0.369 0.29-0.167-0.167-0.237-0.123-0.317 0.176-0.079 0.317-0.281 0.457-0.888 0.607-0.211 0.053-0.475 0.194-0.58 0.308-0.123 0.132-0.229 0.185-0.264 0.123-0.026-0.044-0.369-0.088-0.792-0.088-0.73 0-0.748 0.009-1.047 0.308-0.352 0.352-0.457 0.343-0.959-0.106-0.176-0.158-0.361-0.29-0.405-0.29-0.114 0-0.449 0.431-0.449 0.572 0 0.062 0.132 0.132 0.29 0.158 0.15 0.018 0.528 0.132 0.827 0.246 0.457 0.176 0.572 0.194 0.748 0.097 0.194-0.106 0.264-0.079 0.809 0.281 0.756 0.51 0.976 0.519 1.407 0.053 0.369-0.405 0.457-0.422 0.932-0.176s0.66 0.22 1.152-0.141c0.387-0.281 0.449-0.299 0.73-0.22 0.281 0.070 0.352 0.053 0.677-0.194 0.202-0.158 0.44-0.334 0.519-0.396 0.141-0.097 0.167-0.070 0.255 0.308 0.15 0.572 0.449 1.064 0.915 1.504 0.51 0.457 1.399 0.915 1.671 0.853 0.106-0.035 0.317 0.009 0.457 0.079 0.15 0.079 0.369 0.141 0.493 0.141 0.334 0 0.642 0.282 0.871 0.8 0.158 0.387 0.185 0.581 0.158 1.223-0.026 0.669-0.053 0.792-0.264 1.038-0.123 0.15-0.255 0.396-0.29 0.545-0.044 0.194-0.123 0.281-0.308 0.325-0.132 0.044-0.396 0.255-0.581 0.493-0.334 0.422-0.616 0.581-1.75 1.003-0.422 0.158-0.572 0.273-0.572 0.449 0 0.106 0.141 0.123 0.994 0.062 0.642-0.035 1.029-0.106 1.126-0.185 0.185-0.167 0.29-0.158 0.475 0.053 0.211 0.229 1.135 0.255 1.381 0.035 0.123-0.123 0.176-0.132 0.29-0.035s0.176 0.079 0.352-0.088l0.22-0.202 0.185 0.229c0.229 0.299 0.405 0.299 0.537 0.026l0.097-0.22 0.15 0.185c0.123 0.158 0.176 0.167 0.343 0.079 0.149-0.079 0.264-0.088 0.466-0.018 0.501 0.176 1.531 0.044 1.75-0.22 0.185-0.22 0.721-0.15 0.985 0.123 0.229 0.238 0.273 0.246 0.712 0.185 0.255-0.035 0.554-0.105 0.668-0.167 0.15-0.079 0.246-0.070 0.493 0.044 0.167 0.079 0.554 0.141 0.888 0.15 0.915 0.026 1.143-0.106 0.985-0.537-0.070-0.167-0.106-0.185-0.211-0.097-0.15 0.123-0.422-0.035-1.258-0.748-0.369-0.317-0.51-0.387-0.686-0.343-0.273 0.070-0.563-0.167-0.563-0.466 0-0.211-0.299-0.871-0.677-1.469-0.202-0.317-0.22-0.396-0.158-1.012 0.114-1.214 0.431-1.715 1.407-2.234 0.66-0.352 1.46-1.003 1.566-1.293 0.044-0.114 0.070-0.114 0.167 0.018 0.062 0.079 0.176 0.264 0.264 0.405 0.22 0.405 0.484 0.528 1.293 0.616 0.704 0.070 0.748 0.062 0.994-0.141l0.246-0.211 0.572 0.29c0.484 0.255 0.589 0.281 0.721 0.185 0.431-0.299 0.554-0.317 0.976-0.158 1.267 0.493 2.648 0.642 3.316 0.369 0.158-0.070 0.369-0.106 0.457-0.088s0.299-0.044 0.466-0.15l0.308-0.194-0.281-0.097c-0.149-0.053-0.308-0.123-0.343-0.167-0.035-0.035-0.255-0.062-0.484-0.062-0.51 0-0.844-0.114-1.144-0.405l-0.22-0.211-0.29 0.352c-0.149 0.194-0.317 0.352-0.352 0.352-0.044 0-0.158-0.246-0.273-0.537l-0.194-0.545-0.493 0.053c-0.422 0.044-0.528 0.026-0.686-0.123s-0.229-0.167-0.369-0.088c-0.299 0.158-0.431 0.114-0.695-0.255-0.211-0.299-0.281-0.343-0.484-0.299-0.202 0.035-0.308-0.018-0.598-0.317-0.255-0.264-0.405-0.352-0.51-0.308-0.299 0.123-0.405 0.079-0.695-0.334l-0.308-0.413h0.229c0.123 0 0.361 0.062 0.528 0.141 0.229 0.114 0.361 0.123 0.554 0.062 0.202-0.079 0.29-0.062 0.457 0.070 0.158 0.132 0.238 0.15 0.325 0.070 0.176-0.141 0.774-0.044 1.363 0.229 0.273 0.123 1.047 0.361 1.706 0.537 1.064 0.273 1.258 0.299 1.592 0.22 0.211-0.053 0.651-0.097 0.985-0.097 0.378 0 0.66-0.044 0.774-0.123 0.273-0.211 0.035-0.334-0.774-0.405-0.405-0.035-0.906-0.132-1.126-0.202-0.22-0.079-0.616-0.202-0.88-0.273-0.264-0.079-0.545-0.185-0.616-0.229-0.194-0.132 0.044-0.29 0.818-0.528 0.352-0.114 0.669-0.229 0.704-0.264s-0.246-0.167-0.642-0.299l-0.712-0.229-0.343 0.273c-0.334 0.264-0.361 0.273-0.51 0.141-0.202-0.185-0.572-0.194-0.721-0.026-0.079 0.106-0.15 0.114-0.317 0.035-0.22-0.106-0.317-0.053-0.413 0.229-0.053 0.158-0.229-0.044-0.44-0.51-0.264-0.563-0.695-0.888-1.337-1.012-0.29-0.053-0.501-0.158-0.633-0.308-0.29-0.343-0.827-0.325-1.082 0.044-0.176 0.246-0.229 0.264-0.537 0.211-0.352-0.062-0.422-0.035-1.249 0.44-0.229 0.132-0.44 0.22-0.466 0.194-0.062-0.053 0.317-2.542 0.396-2.63 0.035-0.044 0.299-0.097 0.589-0.123 0.475-0.053 0.581-0.026 1.064 0.22 0.299 0.15 0.563 0.308 0.598 0.361 0.088 0.15 0.202 0.097 0.255-0.123 0.088-0.343 0.299-0.343 0.853-0.018 0.537 0.317 0.607 0.299 0.607-0.158 0-0.194 0.018-0.202 0.51-0.123 0.273 0.035 0.686 0.132 0.915 0.202s0.66 0.132 0.968 0.132c0.361 0 0.686 0.062 0.932 0.176 0.44 0.194 0.44 0.185 0.018-0.369-0.29-0.396-0.334-0.413-0.73-0.422-0.475 0-0.607-0.062-1.188-0.501-0.361-0.273-0.449-0.299-0.783-0.255-0.361 0.044-0.387 0.035-0.581-0.255-0.15-0.238-0.238-0.29-0.396-0.246-0.299 0.070-0.581-0.035-0.985-0.369s-0.581-0.378-0.844-0.176c-0.273 0.211-0.475 0.167-0.484-0.114 0-0.238-0.009-0.238-0.097-0.044-0.132 0.273-0.387 0.255-0.563-0.044-0.079-0.132-0.264-0.413-0.405-0.625s-0.238-0.396-0.22-0.422c0.026-0.018 0.334 0.105 0.686 0.281 0.598 0.308 0.66 0.317 0.968 0.22 0.185-0.062 0.457-0.088 0.616-0.053 0.229 0.044 0.308 0.018 0.413-0.132 0.123-0.176 0.185-0.185 0.827-0.141 0.537 0.044 0.686 0.035 0.686-0.062 0-0.079 0.141-0.114 0.484-0.114 0.387 0 0.51 0.035 0.669 0.202 0.22 0.238 0.343 0.273 0.343 0.088 0-0.141-0.51-0.607-0.862-0.792-0.132-0.062-0.422-0.141-0.651-0.176s-0.431-0.114-0.457-0.185c-0.026-0.070-0.158-0.132-0.29-0.132-0.343 0-0.457-0.097-0.721-0.581-0.264-0.493-0.519-0.581-0.976-0.343-0.361 0.185-0.651 0.114-0.897-0.22-0.194-0.264-0.449-0.343-0.554-0.176-0.097 0.158-0.308 0.088-0.361-0.123-0.026-0.123-0.123-0.281-0.211-0.361-0.15-0.141-0.185-0.141-0.449-0.009-0.158 0.079-0.308 0.141-0.343 0.141-0.044 0 0.581-1.979 0.66-2.093 0.009-0.009 0.352 0.062 0.756 0.158 1.548 0.369 2.454 0.079 1.372-0.449-0.273-0.132-0.475-0.334-0.712-0.704-0.185-0.29-0.378-0.545-0.422-0.572-0.044-0.035-0.405 0.097-0.783 0.273-0.387 0.185-0.73 0.308-0.756 0.273-0.079-0.079 0.106-0.431 0.413-0.783 0.29-0.334 0.29-0.501 0-0.501-0.088 0-0.22-0.070-0.282-0.158-0.176-0.246-0.317-0.299-0.501-0.202-0.123 0.070-0.194 0.062-0.281-0.044-0.255-0.308-0.413-0.317-1.064-0.035-0.668 0.281-0.906 0.317-0.994 0.176-0.053-0.088 0.070-0.915 0.229-1.504l0.079-0.317 0.457 0.114c0.255 0.070 0.748 0.123 1.091 0.123h0.633l-0.545-0.563c-0.29-0.308-0.677-0.633-0.844-0.712-0.167-0.088-0.396-0.237-0.501-0.334-0.238-0.211-0.739-1.196-0.994-1.953-0.273-0.792-0.748-1.179-0.95-0.774zM16.523 5.233l-0.026 0.853-0.396 0.114c-0.211 0.062-0.405 0.097-0.422 0.079-0.026-0.018 0.044-0.413 0.15-0.862 0.15-0.66 0.229-0.845 0.387-0.924 0.106-0.053 0.229-0.097 0.264-0.097 0.035-0.009 0.053 0.369 0.044 0.836zM15.046 4.609c0.29 0.15 0.299 0.211 0.202 1.205-0.044 0.554-0.070 0.598-0.255 0.598-0.114 0-0.246-0.070-0.29-0.158-0.141-0.264-0.457-1.601-0.405-1.689 0.079-0.132 0.457-0.106 0.748 0.044zM16.259 8.848c-0.026 0.378-0.062 0.765-0.062 0.862-0.009 0.158-0.062 0.176-0.422 0.176l-0.422-0.009-0.062-0.484c-0.141-1.188-0.132-1.196 0.633-1.214l0.405-0.009-0.070 0.677zM14.597 8.866c0.097 0.281 0.185 0.642 0.185 0.8 0 0.255-0.018 0.282-0.211 0.229-0.158-0.035-0.29 0.009-0.484 0.176l-0.273 0.229v-0.299c0-0.158-0.070-0.554-0.158-0.88l-0.167-0.581 0.361-0.088c0.202-0.044 0.405-0.088 0.457-0.097 0.053 0 0.185 0.22 0.29 0.51zM17.983 8.883c-0.009 0.114-0.070 0.519-0.132 0.888-0.132 0.756-0.22 0.827-0.66 0.537-0.22-0.141-0.229-0.167-0.167-0.721 0.026-0.317 0.070-0.704 0.097-0.853l0.053-0.273 0.405 0.106c0.352 0.097 0.413 0.141 0.405 0.317zM19.822 8.778c0.062 0.062-0.475 1.715-0.589 1.83-0.018 0.018-0.158-0.026-0.308-0.106-0.317-0.158-0.343-0.378-0.176-1.346l0.097-0.563 0.457 0.053c0.246 0.035 0.484 0.097 0.519 0.132zM14.386 12.762c0.026 0.158 0.062 0.528 0.070 0.818l0.018 0.528-0.466-0.009c-0.264-0.009-0.501-0.053-0.545-0.088-0.035-0.044-0.097-0.299-0.123-0.563l-0.053-0.484 0.369-0.238c0.51-0.325 0.668-0.317 0.73 0.035zM15.925 12.824c0.211 0.158 0.273 0.334 0.396 1.179l0.053 0.422-0.405-0.317c-0.229-0.167-0.484-0.308-0.581-0.308-0.202 0-0.22-0.053-0.29-0.739l-0.053-0.51 0.325 0.053c0.185 0.035 0.431 0.132 0.554 0.22zM17.755 13.026c0.273 0.167 0.281 0.194 0.281 0.739v0.563l-0.352 0.176c-0.501 0.255-0.589 0.229-0.651-0.202-0.202-1.46-0.185-1.61 0.194-1.513 0.132 0.026 0.369 0.141 0.528 0.238zM19.646 13.237c0.704 0.176 0.704 0.176 0.475 0.422-0.106 0.114-0.281 0.308-0.396 0.44-0.114 0.123-0.352 0.264-0.528 0.317-0.581 0.158-0.589 0.15-0.607-0.537-0.009-0.352 0-0.668 0.026-0.704 0.070-0.114 0.431-0.097 1.029 0.062zM19.796 17.556c0 0.493-0.132 1.592-0.22 1.882-0.035 0.106-0.15 0.141-0.449 0.132l-0.405-0.009 0.053-0.387c0.026-0.211 0.053-0.756 0.053-1.205v-0.818l0.422-0.035c0.229-0.018 0.44-0.035 0.484-0.044 0.035-0.009 0.062 0.211 0.062 0.484zM18.063 17.996c0.062 1.126-0.009 1.557-0.264 1.592-0.105 0.018-0.308-0.035-0.457-0.114-0.317-0.158-0.325-0.273-0.132-1.099 0.281-1.231 0.281-1.231 0.554-1.231h0.246l0.053 0.853zM16.356 17.486c0.193 0.15 0.211 0.202 0.149 0.677-0.097 0.827-0.132 0.897-0.545 1.108-0.211 0.106-0.405 0.167-0.431 0.15-0.079-0.079-0.308-1.091-0.308-1.355 0.009-0.211 0.079-0.308 0.378-0.501 0.44-0.29 0.484-0.29 0.757-0.079zM13.867 17.838c0.044 0.044 0.194 0.097 0.334 0.114 0.255 0.026 0.264 0.044 0.413 0.818 0.238 1.214 0.123 1.381-0.686 1.020-0.413-0.194-0.51-0.422-0.607-1.442l-0.062-0.589h0.264c0.141 0 0.29 0.035 0.343 0.079zM10.56 17.961c0 0.035 0.449 0.035 0.994 0.009l1.003-0.062 0.053 0.422c0.035 0.229 0.062 0.642 0.062 0.924 0 0.493 0 0.493-0.238 0.466-0.141-0.018-0.387 0.044-0.554 0.132-0.299 0.167-0.308 0.167-0.695-0.035-0.44-0.238-0.625-0.264-0.792-0.106-0.097 0.088-0.123 0.088-0.158 0.009-0.018-0.062-0.273-0.475-0.554-0.924-0.299-0.484-0.475-0.844-0.422-0.871 0.132-0.079 1.302-0.053 1.302 0.035zM18.784 22.684c0.062 0.106-0.396 1.671-0.493 1.671-0.132 0-0.537-0.792-0.581-1.126-0.044-0.325-0.035-0.352 0.29-0.484 0.396-0.158 0.704-0.185 0.783-0.062zM20.596 23.353c0.070 0.088 0 0.22-0.281 0.519-0.378 0.413-0.853 0.792-0.915 0.739-0.035-0.044 0.114-1.469 0.185-1.689 0.044-0.141 0.088-0.132 0.484 0.079 0.238 0.132 0.475 0.29 0.528 0.352zM11.888 23.3c0.22 0 0.238 0.035 0.29 0.501 0.026 0.281 0.079 0.704 0.106 0.95 0.053 0.431 0.053 0.44-0.114 0.281-0.097-0.079-0.255-0.15-0.361-0.15-0.246 0-0.334-0.194-0.413-0.836-0.035-0.29-0.079-0.607-0.106-0.695-0.035-0.141-0.009-0.158 0.158-0.114 0.114 0.035 0.317 0.062 0.44 0.062z"></path>
</svg>
