<!-- Generated by IcoMoon.io -->
<svg version="1.1" xmlns="http://www.w3.org/2000/svg" width="43" height="32" viewBox="0 0 43 32">
<title>lk</title>
<path d="M7.112-0.038c-0.338-0-0.42 0.156-0.615 0.186-0.144 0.024-0.479 0.024-0.479 0.024l0.032 0.335c0 0.064-0.526 0.71-0.040 1.196 0.423 0.423 1.38 0.391 1.858 0.742 0.319 0.247 0.606 0.83 0.606 0.83s-0.008-0.399-0.064-0.638c-0.072-0.287-0.183-0.67-0.231-0.957-0.056-0.758-0.016-1.651-0.997-1.715-0.025-0.002-0.049-0.002-0.071-0.002zM33.967-0.038c-0.023 0-0.046 0.001-0.071 0.002-0.981 0.064-0.941 0.957-0.997 1.715-0.048 0.287-0.16 0.67-0.231 0.957-0.056 0.239-0.064 0.638-0.064 0.638s0.287-0.582 0.606-0.83c0.479-0.351 1.436-0.319 1.858-0.742 0.486-0.486-0.040-1.133-0.040-1.196l0.032-0.335c0 0-0.335 0-0.479-0.024-0.194-0.030-0.277-0.186-0.615-0.186zM13.011 7.135c-0.027 0-0.107 0.052-0.258 0.156-0.396 0.278-0.712 0.643-0.926 1.068l-0.008 0.017c-0.495 0.917-0.662 2.153-0.662 4.801 0 1.499 0.008 1.699 0.096 1.834 0.080 0.144 0.080 0.191 0.032 0.335-0.010 0.022-0.018 0.044-0.025 0.066s-0.012 0.042-0.016 0.061c-0.007 0.037-0.007 0.065 0.001 0.073 0.112 0.104 0.909 0.080 1.021-0.040 0.032-0.032 0.016-0.080-0.032-0.112-0.112-0.088-0.104-0.223 0.016-0.375 0.096-0.112 0.104-0.287 0.136-2.002 0.056-2.959 0.279-5.184 0.566-5.726 0.060-0.104 0.086-0.156 0.059-0.156zM24.202 8.145c-0.045-0.001-0.099-0.002-0.152-0.002-0.237 0-0.471 0.015-0.701 0.043l0.027-0.003c-0.51 0.096-1.117 0.391-1.451 0.702-0.582 0.558-0.59 1.3-0.024 1.978l0.16 0.191-0.104 0.175c-0.070 0.111-0.112 0.246-0.112 0.391 0 0.165 0.054 0.317 0.145 0.44l-0.001-0.002c0.040 0.056 0.080 0.106 0.113 0.142 0.016 0.018 0.031 0.032 0.043 0.042s0.022 0.015 0.028 0.015c0.016 0 0.032-0.072 0.040-0.16 0.016-0.215 0.112-0.359 0.271-0.415 0.144-0.056 0.239-0.024 0.893 0.239 0.39 0.153 0.922 0.224 1.528 0.215 0.471-0.007 0.988-0.063 1.519-0.167 0.088-0.022 0.202-0.043 0.317-0.058l0.017-0.002c0.129-0.017 0.279-0.027 0.43-0.027 0.295 0 0.581 0.038 0.854 0.108l-0.024-0.005c0.574 0.239 0.702 0.853 0.287 1.316-0.183 0.207-0.351 0.287-0.933 0.447-0.331 0.091-0.712 0.143-1.104 0.143-0.064 0-0.128-0.001-0.192-0.004l0.009 0c-0.103-0.004-0.195-0.011-0.288-0.021l0.019 0.002c-0.754-0.007-1.086 0.004-1.387 0.055-0.043 0.007-0.085 0.015-0.128 0.024-0.195 0.040-0.351 0.062-0.597 0.071-0.062 0.002-0.129 0.004-0.204 0.004-0.225 0.002-0.519-0.002-0.938-0.011l-1.3-0.032 0.144 0.112c0.073 0.065 0.154 0.126 0.24 0.179l0.007 0.004c0.104 0.056 0.096 0.064-0.048 0.12-0.060 0.024-0.182 0.043-0.304 0.052-0.041 0.003-0.081 0.004-0.119 0.004h-0.263l-0.032 0.223c-0.010 0.048-0.016 0.103-0.016 0.16s0.006 0.112 0.017 0.165l-0.001-0.005c0.032 0.080 0.016 0.096-0.064 0.064-0.056-0.024-0.207-0.064-0.343-0.088-0.152-0.033-0.286-0.077-0.412-0.133l0.014 0.005c-0.152-0.080-0.168-0.080-0.223 0.024-0.048 0.080-0.494 0.415-0.558 0.415-0.032-0.223-0.093-0.424-0.181-0.611l0.006 0.013c-0.080-0.168-0.152-0.359-0.176-0.415-0.024-0.088-0.040-0.096-0.080-0.024-0.024 0.040-0.056 0.159-0.080 0.255-0.030 0.139-0.080 0.261-0.147 0.373l0.003-0.006-0.12 0.175-0.080-0.152c-0.080-0.16-0.207-0.335-0.255-0.335-0.016 0-0.040 0.048-0.056 0.12-0.040 0.128-0.351 0.502-0.431 0.502-0.024 0-0.048-0.104-0.048-0.239 0-0.12-0.024-0.231-0.056-0.231s-0.056 0.040-0.056 0.080c0 0.096-0.263 0.399-0.359 0.399-0.032 0-0.096 0.032-0.136 0.080-0.096 0.104-0.176 0.088-0.136-0.032 0.003-0.023 0.004-0.051 0.004-0.078 0-0.081-0.013-0.158-0.038-0.23l0.002 0.005-0.080-0.255c-0.016-0.040-0.112-0.024-0.319 0.040-0.319 0.104-0.431 0.080-0.263-0.048 0.064-0.048 0.16-0.215 0.207-0.367 0.056-0.16 0.136-0.295 0.175-0.311 0.056-0.016 0.056-0-0.016 0.096-0.044 0.058-0.075 0.128-0.087 0.205l-0 0.003c0 0.040-0.040 0.144-0.080 0.231-0.048 0.080-0.080 0.159-0.072 0.167s0.136-0.040 0.279-0.104l0.255-0.128v0.112c0 0.048 0.018 0.15 0.044 0.255 0.009 0.035 0.018 0.070 0.028 0.104l0.072 0.239 0.175-0.080c0.175-0.080 0.343-0.367 0.343-0.598 0-0.112 0.064-0.096 0.096 0.024 0 0.032 0.048 0.167 0.080 0.295l0.080 0.223 0.12-0.144c0.072-0.080 0.152-0.239 0.183-0.343 0.064-0.191 0.16-0.279 0.16-0.136 0 0.096 0.271 0.463 0.319 0.431 0.032-0.016 0.080-0.152 0.12-0.303 0.080-0.319 0.199-0.526 0.279-0.479 0.032 0.016 0.040 0.048 0.024 0.080-0.016 0.016 0.048 0.223 0.143 0.447-0.433-1.173-0.363-1.007-0.293-0.842l0.501 1.344c0.032 0.080 0.064 0.080 0.263-0.104 0.12-0.112 0.239-0.231 0.247-0.271 0.024-0.064 0.048-0.056 0.16 0.016 0.22 0.118 0.477 0.198 0.75 0.223l0.008 0.001c0.016-0.016 0.032-0.16 0.032-0.319l0.008-0.295 0.16 0.032c0.060 0.018 0.178 0.023 0.291 0.014 0.038-0.003 0.074-0.008 0.108-0.014l0.239-0.032-0.215-0.16c-0.12-0.080-0.239-0.183-0.271-0.231-0.024-0.048-0.136-0.096-0.255-0.104-0.327-0.032-0.909-0.351-0.909-0.51 0-0.032 0.080 0.024 0.175 0.112 0.028 0.025 0.057 0.049 0.087 0.071 0.211 0.156 0.473 0.248 0.71 0.248h0.191l-0.12-0.16c-0.082-0.117-0.138-0.258-0.159-0.41l-0.001-0.005c-0.016-0.239-0.040-0.271-0.287-0.439-0.148-0.106-0.279-0.219-0.398-0.342l-0.001-0.001-0.136-0.152-0.072 0.184c-0.040 0.104-0.080 0.183-0.104 0.183-0.016 0-0.096-0.064-0.16-0.136-0.044-0.051-0.097-0.094-0.157-0.126l-0.003-0.001c-0.024 0-0.080 0.096-0.144 0.215l-0.112 0.215-0.080-0.12c-0.074-0.101-0.152-0.19-0.238-0.27l-0.001-0.001c-0.096-0.080-0.136-0.144-0.104-0.144s0.136 0.080 0.239 0.184l0.175 0.183 0.080-0.136c0.031-0.062 0.049-0.134 0.049-0.211 0-0.033-0.003-0.065-0.010-0.095l0.001 0.003c-0.032-0.144-0.024-0.152 0.024-0.056 0.070 0.091 0.148 0.169 0.236 0.237l0.003 0.002 0.175 0.144 0.12-0.215c0.12-0.223 0.12-0.223 0.168-0.088 0.080 0.168 0.598 0.598 1.037 0.845 0.080 0.040 0.048-0.088-0.080-0.399-0.037-0.094-0.060-0.203-0.064-0.317l-0-0.002c0-0.144-0.040-0.207-0.223-0.351-0.225-0.146-0.378-0.388-0.399-0.667l-0-0.003c-0.024-0.136-0.072-0.279-0.112-0.327-0.048-0.080-0.064-0.032-0.048 0.207 0.016 0.168-0.008 0.375-0.048 0.463l-0.064 0.16-0.048-0.136c-0.032-0.072-0.16-0.199-0.279-0.279s-0.207-0.16-0.191-0.176c0.016-0.016 0.144 0.056 0.279 0.16 0.215 0.168 0.255 0.183 0.287 0.112 0.032-0.080-0-0.447-0.064-0.702-0.032-0.128-0.032-0.128 0.128 0.032 0.112 0.112 0.175 0.255 0.231 0.495 0.064 0.303 0.096 0.359 0.375 0.606 0.168 0.152 0.319 0.263 0.327 0.255 0.016-0.016 0.032-0.399 0.048-0.861 0.004-0.111 0.007-0.211 0.009-0.302 0.012-0.638-0.036-0.833-0.224-1.070l-0.112-0.143 0.175-0.184c0.191-0.183 0.325-0.424 0.374-0.694l0.001-0.008 0.032-0.215-0.191 0.184c-0.16 0.152-0.239 0.183-0.423 0.183s-0.255-0.032-0.375-0.16c-0.181-0.174-0.403-0.306-0.651-0.38l-0.011-0.003c-0.096-0.032-0.128-0.016-0.128 0.048 0 0.048-0.048 0.175-0.112 0.295l-0.112 0.207-0.239-0.239c-0.152-0.136-0.319-0.255-0.455-0.287-0.327-0.080-0.343-0.080-0.343 0.168 0 0.375-0.16 0.447-0.447 0.199-0.223-0.191-0.399-0.239-0.822-0.184l-0.319 0.032 0.056 0.143c0.048 0.12 0.040 0.175-0.064 0.311-0.168 0.223-0.383 0.319-0.718 0.319-0.16 0-0.351 0.032-0.431 0.072s-0.287 0.080-0.455 0.096c-0.16 0.016-0.343 0.048-0.399 0.064-0.080 0.032-0.080 0-0.056-0.175 0.040-0.271-0.16-0.479-0.455-0.479-0.391 0-0.566 0.351-0.415 0.813 0.025 0.075 0.052 0.176 0.075 0.279l0.004 0.024c0.109 0.205 0.248 0.379 0.413 0.525l0.002 0.002c0.207 0.207 0.399 0.423 0.431 0.479 0.064 0.082 0.144 0.15 0.235 0.197l0.004 0.002 0.175 0.096-0.024-0.191c-0.024-0.207 0.016-0.239 0.128-0.088 0.040 0.048 0.144 0.136 0.223 0.184 0.136 0.080 0.16 0.080 0.16 0.016 0-0.048 0.024-0.152 0.056-0.231l0.056-0.143 0.104 0.199c0.056 0.112 0.239 0.359 0.407 0.558 0.327 0.375 0.534 0.797 0.431 0.893-0.048 0.040-0.16 0.040-0.399-0.008-0.175-0.032-0.399-0.056-0.494-0.040-0.183 0.024-0.199-0-0.080-0.144 0.12-0.16 0.096-0.183-0.144-0.183-0.279 0-0.973-0.136-1.244-0.239-0.255-0.104-0.319-0.080-0.399 0.167l-0.136 0.447-0.080 0.239 0.287-0.024c0.166-0.018 0.315-0.046 0.459-0.084l-0.021 0.005c0.045-0.016 0.097-0.025 0.151-0.025 0.008 0 0.017 0 0.025 0.001l-0.001-0c0.016 0.008-0.024 0.104-0.080 0.215l-0.112 0.191 0.176-0.032c0.096-0.024 0.239-0.072 0.319-0.112 0.144-0.064 0.159-0.064 0.271 0.12 0.136 0.215 0.239 0.207 0.263-0.024 0.024-0.239 0.104-0.207 0.255 0.112 0.144 0.303 0.287 0.415 0.319 0.239 0.008-0.064 0.080-0.16 0.168-0.223 0.175-0.12 0.303-0.080 0.375 0.104 0.080 0.199-0.096 0.399-0.59 0.702-0.912 0.511-1.559 1.402-1.728 2.453l-0.003 0.020c-0.152 0.941 0.319 1.914 1.244 2.624 0.447 0.335 1.156 0.686 1.109 0.558-0.191-0.582-0.183-1.675 0.008-1.858 0.032-0.032 0.024 0.080-0.024 0.247-0.14 0.551-0.096 0.999 0.184 1.882 0.040 0.126 0.085 0.261 0.135 0.407 0.351 1.053 0.303 1.507-0.207 1.802-0.16 0.096-0.263 0.112-0.702 0.104-0.479 0-0.534-0-0.686 0.128-0.177 0.181-0.3 0.416-0.342 0.679l-0.001 0.007c0 0.104 0.112 0.088 0.319-0.032h0.008l0.184-0.112 0.080 0.112c0.104 0.144 0.399 0.136 0.59 0l0.152-0.12 0.128 0.112c0.030 0.028 0.065 0.052 0.103 0.069 0.013 0.006 0.026 0.011 0.039 0.016 0.081 0.028 0.173 0.035 0.264 0.021s0.18-0.050 0.255-0.107c0.034-0.024 0.061-0.042 0.083-0.055 0.068-0.039 0.096-0.028 0.156 0.031 0.056 0.048 0.215 0.096 0.351 0.12 0.128 0.016 0.191 0.024 0.241 0 0.012-0.006 0.024-0.014 0.036-0.024 0.035-0.031 0.068-0.083 0.122-0.167 0.128-0.183 0.144-0.255 0.12-0.439-0.020-0.116-0.037-0.261-0.047-0.408l-0.001-0.015c-0.016-0.207-0.008-0.207 0.287-0.319 0.175-0.054 0.318-0.108 0.456-0.17l-0.026 0.010c0.12-0.072 0.455-0.462 0.455-0.542 0-0.016-0.128-0.048-0.287-0.064-0.638-0.080-0.742-0.415-0.327-1.037 0.662-1.037 1.069-2.034 1.069-2.664 0-0.287 0.024-0.383 0.056-0.319 0.152 0.247-0.12 1.308-0.518 2.074l-0.16 0.303 0.152-0.032c0.080-0.024 0.59-0.239 1.117-0.479 1.452-0.654 1.946-0.782 2.887-0.742 0.79 0.032 1.117 0.183 1.675 0.766 0.295 0.319 0.582 0.534 1.101 0.861 1.101 0.686 1.148 0.75 1.204 1.563 0.056 0.821 0.024 0.869-0.598 1.005-0.534 0.12-0.869 0.367-0.957 0.718-0.048 0.175 0.056 0.183 0.319 0.008l0.199-0.128 0.088 0.128c0.12 0.168 0.359 0.168 0.558 0l0.16-0.12 0.16 0.12c0.239 0.199 0.558 0.152 0.654-0.096 0.016-0.040 0.064-0.032 0.16 0.056 0.092 0.080 0.251 0.136 0.394 0.155 0.036 0.005 0.070 0.008 0.102 0.008 0.097 0.001 0.172-0.020 0.19-0.068 0.016-0.048-0.016-0.159-0.080-0.255-0.263-0.399-0.351-0.582-0.351-0.798 0-0.303 0.080-0.455 0.431-0.694 0.415-0.303 0.542-0.686 0.223-0.686-0.191 0-0.391-0.175-0.518-0.455-0.255-0.574-0.199-1.212 0.183-2.281 0.272-0.569 0.431-1.238 0.431-1.943 0-0.023-0-0.047-0.001-0.070l0 0.003c0-0.59-0.016-0.686-0.144-1.013-0.11-0.247-0.232-0.459-0.374-0.657l0.007 0.011-0.223-0.295 0.279-0.239c0.861-0.71 0.686-1.874-0.351-2.321-0.319-0.144-0.399-0.152-0.957-0.152-0.319 0-0.837 0.048-1.117 0.104-0.337 0.056-0.729 0.091-1.128 0.096l-0.005 0c-0.542 0-0.638-0.016-0.845-0.128-0.108-0.056-0.172-0.098-0.213-0.16-0.010-0.015-0.020-0.032-0.028-0.051-0.024-0.055-0.039-0.127-0.054-0.229-0.008-0.053-0.041-0.097-0.087-0.119l-0.001-0c-0.080-0.024-0.415 0.271-0.462 0.399-0.032 0.072-0.048 0.064-0.12-0.024-0.065-0.082-0.119-0.177-0.157-0.28l-0.002-0.007c-0.080-0.263 0.024-0.455 0.335-0.606l0.239-0.112-0.144-0.088c-0.287-0.183-0.782-0.056-0.957 0.239-0.056 0.080-0.112 0.16-0.128 0.16s-0.112-0.080-0.207-0.183c-0.375-0.367-0.247-0.909 0.255-1.069 0.263-0.088 0.503-0.024 0.55 0.16 0.080 0.263 0.303-0.088 0.263-0.415-0.024-0.215-0.024-0.223 0.128-0.223 0.207 0 0.638 0.271 0.782 0.479 0.16 0.247 0.144 0.638-0.032 0.925l-0.136 0.223 0.183-0.032c0.255-0.056 0.51-0.215 0.638-0.415 0.070-0.13 0.111-0.284 0.111-0.448 0-0.138-0.029-0.269-0.082-0.388l0.002 0.006c-0.12-0.215-0.104-0.247 0.072-0.176 0.287 0.12 0.447 0.255 0.558 0.486 0.112 0.207 0.12 0.255 0.064 0.479-0.042 0.146-0.101 0.273-0.178 0.388l0.003-0.005c-0.096 0.128-0.104 0.152-0.024 0.152 0.144 0 0.431-0.136 0.534-0.239 0.056-0.064 0.136-0.199 0.175-0.319l0.080-0.199 0.080 0.16c0.12 0.215 0.359 0.415 0.646 0.542 0.311 0.128 0.439 0.136 0.279 0.016-0.112-0.080-0.319-0.678-0.247-0.734 0.357 0.202 0.664 0.44 0.932 0.717l0.001 0.001c0.455 0.407 0.742 0.542 1.156 0.542 0.534 0 0.846-0.463 0.606-0.901-0.136-0.255-0.447-0.295-0.638-0.080-0.080 0.104-0.104 0.184-0.080 0.295 0.032 0.128 0.024 0.143-0.096 0.143-0.010 0-0.021-0.001-0.032-0.002-0.167-0.024-0.465-0.225-0.973-0.652-0.725-0.626-1.574-1.132-2.504-1.473l-0.056-0.018c-0.33-0.080-0.712-0.131-1.104-0.142l-0.008-0zM14.010 11.451c-0.026 0-0.043 0.007-0.053 0.019-0.128 0.12 0.080 0.399 0.399 0.55 0.43 0.16 0.928 0.266 1.447 0.295l0.013 0.001c0.215 0 0.223-0 0.096 0.183l-0.080 0.128h0.239l0.399 0.048c0.239 0.056 0.239 0.056 0.271 0.008 0.024-0.024-0.016-0.159-0.080-0.287-0.096-0.207-0.136-0.239-0.271-0.239-0.678-0.060-1.3-0.242-1.864-0.524l0.030 0.014c-0.305-0.138-0.467-0.194-0.545-0.194zM12.471 14.943c-0.095 0.008-0.164 0.055-0.213 0.14-0.064 0.112-0.024 0.303 0.056 0.303 0.032 0 0.056 0.040 0.056 0.080 0 0.215-0.814 0.303-1.149 0.136-0.12-0.056-0.159-0.215-0.072-0.215 0.080 0 0.128-0.16 0.088-0.263-0.048-0.16-0.207-0.207-0.423-0.144-0.502 0.128-0.486 0.718 0.024 0.957 0.275 0.104 0.592 0.164 0.923 0.164 0.297 0 0.583-0.048 0.85-0.138l-0.019 0.005c0.542-0.239 0.582-0.837 0.080-0.997-0.078-0.024-0.144-0.033-0.201-0.028zM12.649 16.048l-0.247 0.064c-0.144 0.032-0.311 0.064-0.375 0.064-0.12 0-0.12 0 0.040 0.128l0.16 0.128 0.239-0.128c0.054-0.032 0.095-0.056 0.126-0.072 0.094-0.049 0.103-0.029 0.121 0.048 0.016 0.056-0.016 0.16-0.080 0.231-0.056 0.072-0.088 0.159-0.080 0.183 0.024 0.024-0.032 0.080-0.12 0.128-0.16 0.080-0.279 0.343-0.152 0.343 0.12 0 0.375-0.319 0.343-0.423-0.016-0.056-0-0.112 0.016-0.128 0.104-0.056 0.096 0.191 0 0.319-0.064 0.064-0.096 0.144-0.080 0.176 0.016 0.024-0.040 0.080-0.128 0.128-0.16 0.080-0.279 0.343-0.152 0.343s0.375-0.303 0.351-0.415c-0.016-0.056-0.016-0.12 0.008-0.136 0.072-0.032 0.104 0.159 0.048 0.255-0.014 0.025-0.022 0.056-0.022 0.088s0.008 0.062 0.023 0.089l-0.001-0.001c0.056 0.104 0 0.295-0.104 0.359-0.040 0.024-0.016 0.080 0.096 0.16 0.12 0.084 0.15 0.114 0.157 0.339 0.002 0.075 0.002 0.172 0.002 0.299 0 0.431 0.016 0.542 0.096 0.614 0.050 0.050 0.075 0.069 0.086 0.056 0.007-0.007 0.009-0.026 0.009-0.056 0-0.010 0.002-0.020 0.007-0.031 0.032-0.075 0.167-0.16 0.272-0.16 0.040 0 0.271 0.199 0.518 0.439s0.51 0.455 0.582 0.463l0.176 0.032c0.024 0 0.136-0.024 0.247-0.080v0.008c0.215-0.080 0.678-0.479 0.678-0.566 0-0.032-0.128-0.175-0.287-0.319-0.319-0.287-0.678-0.79-0.774-1.077-0.048-0.16-0.279-0.415-0.933-1.053l-0.869-0.837zM11.311 16.197c-0.114 0.007-0.161 0.056-0.146 0.146 0.016 0.080 0.12 0.136 0.399 0.223 0.471 0.144 0.606 0.144 0.63-0.008 0.016-0.128-0.191-0.239-0.606-0.327-0.117-0.027-0.209-0.038-0.277-0.034zM12.609 16.309c-0.086-0.004-0.32 0.167-0.359 0.297-0.048 0.183 0.040 0.176 0.239-0.024h-0.008c0.088-0.088 0.16-0.191 0.16-0.239 0-0.022-0.012-0.033-0.032-0.034zM11.172 16.541c-0.151 0.008-0.192 0.1-0.102 0.265 0.048 0.088 0.127 0.128 0.311 0.16 0.136 0.016 0.319 0.056 0.407 0.088 0.239 0.080 0.383 0.048 0.399-0.080h0.008c0.016-0.104-0.056-0.143-0.638-0.351-0.165-0.060-0.294-0.086-0.385-0.081zM11.35 17.033c-0.052 0.001-0.091 0.010-0.113 0.028-0.168 0.136-0.056 0.311 0.207 0.343 0.112 0.008 0.255 0.040 0.327 0.072 0.207 0.080 0.399 0.040 0.423-0.080 0.008-0.080-0.040-0.128-0.184-0.199-0.239-0.102-0.505-0.167-0.661-0.164zM11.337 17.479c-0.068 0.005-0.068 0.039-0.068 0.124 0 0.112 0.040 0.16 0.239 0.239 0.303 0.136 0.67 0.12 0.67-0.024 0-0.136-0.287-0.287-0.63-0.319-0.105-0.015-0.17-0.023-0.211-0.021zM12.609 17.531c-0.096 0-0.351 0.223-0.351 0.319 0 0.128 0.048 0.12 0.239-0.048h-0.008c0.144-0.128 0.207-0.271 0.12-0.271zM11.489 17.928c-0.053-0-0.053 0.035-0.053 0.13 0 0.16-0.096 0.191-0.271 0.088-0.144-0.080-0.279-0.016-0.279 0.136 0 0.144 0.136 0.207 0.399 0.191 0.191-0.008 0.199 0.136 0.016 0.343l-0.136 0.16 0.104 0.151c0.16 0.223 0.143 0.598-0.024 0.79l-0.136 0.144-0.088-0.12c-0.128-0.16-0.295-0.152-0.343 0.024-0.024 0.112-0 0.16 0.143 0.287 0.096 0.080 0.239 0.143 0.311 0.143 0.183 0 0.176 0.152-0.016 0.295l-0.16 0.12 0.239 0.032c0.128 0.024 0.239 0.056 0.239 0.080 0 0.104 0.159 0.415 0.207 0.415 0.032 0 0.096-0.056 0.144-0.12v0.008c0.046-0.067 0.076-0.149 0.080-0.238l0-0.001c0-0.080 0.048-0.112 0.255-0.144l0.247-0.032-0.16-0.136c-0.199-0.16-0.223-0.279-0.048-0.279s0.463-0.175 0.51-0.311c0.024-0.064-0-0.143-0.032-0.183-0.090-0.105-0.257-0.097-0.303 0.009-0.003 0.007-0.006 0.015-0.008 0.023-0.015 0.048-0.032 0.078-0.055 0.090-0.039 0.020-0.094-0.010-0.184-0.090-0.199-0.199-0.207-0.606 0-0.846 0.088-0.112 0.088-0.112-0.032-0.231-0.128-0.128-0.223-0.367-0.16-0.431 0.016-0.016 0.12 0 0.223 0.040 0.16 0.048 0.215 0.048 0.279 0 0.183-0.152-0.016-0.343-0.319-0.295-0.128 0.016-0.175 0-0.191-0.064-0.016-0.048-0.12-0.112-0.239-0.144-0.081-0.021-0.131-0.034-0.163-0.034zM23.217 18.241v0.287c0 0.359 0.175 0.71 0.638 1.3 0.526 0.67 0.558 0.774 0.582 1.651l0.024 0.742-0.16 0.144c-0.136 0.128-0.191 0.151-0.638 0.175-0.423 0.024-0.518 0.048-0.638 0.16-0.137 0.101-0.235 0.248-0.27 0.418l-0.001 0.005c-0.024 0.12-0.016 0.143 0.072 0.143 0.056 0 0.192-0.056 0.303-0.128l0.199-0.128 0.136 0.128c0.175 0.168 0.391 0.16 0.558-0.008 0.080-0.080 0.144-0.128 0.152-0.12l0.072 0.128c0.040 0.072 0.128 0.104 0.287 0.12 0.183 0.008 0.239-0 0.319-0.112l0.080-0.136 0.199 0.128c0.542 0.351 0.83-0.016 0.582-0.742-0.12-0.367-0.048-0.574 0.343-1.037 0.168-0.199 0.303-0.415 0.303-0.479 0-0.088-0.032-0.104-0.255-0.096-0.207 0-0.271-0.024-0.383-0.144-0.183-0.199-0.167-0.431 0.032-0.686l0.16-0.199-0.287-0.191c-0.236-0.176-0.445-0.361-0.636-0.564l-0.002-0.002c-0.343-0.403-0.834-0.67-1.388-0.717l-0.008-0.001-0.375-0.040zM8.476 28.649c0 0-0.287 0.582-0.606 0.829-0.479 0.351-1.436 0.319-1.858 0.742-0.487 0.486 0.040 1.133 0.040 1.196l-0.032 0.335c0 0 0.335 0 0.479 0.024 0.207 0.032 0.287 0.207 0.686 0.183 0.981-0.064 0.941-0.957 0.997-1.715 0.048-0.287 0.16-0.67 0.231-0.957 0.056-0.239 0.064-0.638 0.064-0.638zM32.604 28.649c0 0 0.008 0.399 0.064 0.638 0.072 0.287 0.183 0.67 0.231 0.957 0.056 0.758 0.016 1.651 0.997 1.715 0.399 0.024 0.478-0.151 0.686-0.183 0.144-0.024 0.479-0.024 0.479-0.024l-0.032-0.335c0-0.064 0.526-0.71 0.040-1.196-0.423-0.423-1.38-0.391-1.858-0.742-0.319-0.247-0.606-0.829-0.606-0.829z"></path>
</svg>
