<!-- Generated by IcoMoon.io -->
<svg version="1.1" xmlns="http://www.w3.org/2000/svg" width="29" height="32" viewBox="0 0 29 32">
<title>ls</title>
<path d="M13.619 0.345c-0.298 0.203-0.774 0.417-1.060 0.488-2.335 0.62-3.908 2.835-3.908 5.504 0 1.596 0.691 4.348 1.692 6.803l0.488 1.156-0.5 0.631c-1.179 1.489-3.777 4.944-5.099 6.767l-1.418 1.978-0.596-0.214c-0.322-0.131-0.596-0.226-0.62-0.226-0.048 0-2.407 4.789-2.407 4.885 0 0.119 2.776 1.311 4.11 1.787 4.754 1.656 9.984 2.097 15.011 1.251 1.43-0.25 3.562-0.798 4.885-1.251 1.334-0.477 4.11-1.668 4.11-1.787 0-0.095-2.359-4.885-2.407-4.885-0.024 0-0.298 0.095-0.62 0.226l-0.596 0.214-1.418-1.978c-1.322-1.823-3.92-5.278-5.099-6.767l-0.5-0.631 0.488-1.156c1.001-2.454 1.692-5.206 1.692-6.803 0-2.669-1.573-4.885-3.908-5.504-0.286-0.072-0.774-0.286-1.084-0.488-0.322-0.191-0.596-0.346-0.631-0.346-0.024 0-0.298 0.155-0.608 0.345zM12.32 7.351l-0.989 0.989h1.608v3.55l-0.548 0.608c-0.298 0.334-0.596 0.608-0.643 0.608-0.167 0-1.048-2.395-1.37-3.705-0.155-0.667-0.345-1.632-0.417-2.144-0.345-2.49 0.774-4.575 2.776-5.17l0.5-0.143 0.036 2.204 0.024 2.216-0.977 0.989zM16.585 2.442c1.489 0.87 2.24 2.716 1.954 4.813-0.071 0.512-0.262 1.477-0.417 2.145-0.322 1.31-1.203 3.705-1.37 3.705-0.048 0-0.346-0.274-0.643-0.607l-0.548-0.608v-3.55h1.608l-1.966-1.966v-4.444l0.453 0.119c0.238 0.060 0.655 0.238 0.929 0.393zM5.803 25.555c0.822 0.274 0.905 0.334 1.048 0.727 0.083 0.226 0.131 0.441 0.107 0.453-0.071 0.060-1.561 0.548-1.585 0.512-0.012-0.012-0.155-0.405-0.298-0.858-0.155-0.465-0.298-0.905-0.334-0.989-0.071-0.203 0.024-0.191 1.060 0.155zM22.113 26.15c0.083 0.167 0.131 0.31 0.107 0.334s-0.334 0.262-0.679 0.548c-0.346 0.286-0.691 0.488-0.774 0.453-0.071-0.024-0.322-0.298-0.524-0.596l-0.393-0.536 0.929-0.238c1.191-0.31 1.144-0.31 1.334 0.036zM10.378 27.008c0.119 0.214 0.191 0.417 0.167 0.429-0.131 0.095-1.346 0.56-1.477 0.56-0.083 0-0.238-0.203-0.334-0.453-0.107-0.238-0.262-0.631-0.357-0.858l-0.191-0.429 0.989 0.179c0.929 0.155 1.001 0.191 1.203 0.572zM18.694 26.877c0.131 0.167 0.203 0.322 0.179 0.334-0.167 0.143-1.787 1.036-1.811 1.001-0.024-0.012-0.238-0.334-0.477-0.691l-0.429-0.655 1.036-0.131c0.584-0.071 1.108-0.143 1.168-0.143 0.072-0.012 0.214 0.119 0.334 0.286zM14.822 27.068c0.071 0.071 0.143 0.191 0.143 0.274 0 0.179-2.252 1.072-2.383 0.941-0.048-0.060-0.262-0.417-0.477-0.798l-0.393-0.703 1.477 0.083c0.81 0.048 1.549 0.143 1.632 0.203zM23.28 27.687l0.488 0.631-0.858 0.262c-0.477 0.131-0.941 0.25-1.048 0.25-0.179 0-0.667-0.572-0.56-0.643 0.024-0.012 0.346-0.274 0.727-0.584 0.393-0.31 0.715-0.56 0.739-0.56 0.012 0 0.25 0.286 0.512 0.643zM7.745 28.343c0.167 0.417 0.298 0.774 0.274 0.81-0.024 0.024-0.536-0.083-1.132-0.226-0.977-0.238-1.096-0.298-1.203-0.584-0.107-0.322-0.107-0.334 0.739-0.62 0.477-0.167 0.894-0.262 0.929-0.214 0.036 0.036 0.214 0.417 0.393 0.834zM19.897 28.485c0.25 0.334 0.405 0.655 0.346 0.703-0.048 0.060-0.572 0.179-1.168 0.262l-1.072 0.167-0.25-0.357-0.262-0.369 0.917-0.5c0.5-0.286 0.929-0.512 0.965-0.512s0.274 0.274 0.524 0.608zM11.534 28.962c0.238 0.417 0.417 0.774 0.405 0.798-0.024 0.012-0.548-0.024-1.156-0.107-1.132-0.131-1.418-0.274-1.418-0.703 0-0.131 0.25-0.31 0.751-0.5 0.405-0.167 0.786-0.298 0.858-0.286 0.059 0.024 0.31 0.369 0.56 0.798zM16.025 28.902c0.274 0.441 0.477 0.81 0.453 0.846-0.036 0.024-0.691 0.083-1.477 0.119l-1.418 0.071-0.262-0.405c-0.131-0.226-0.214-0.441-0.167-0.488 0.083-0.083 2.156-0.917 2.299-0.929 0.048 0 0.298 0.357 0.572 0.786z"></path>
</svg>
