<!-- Generated by IcoMoon.io -->
<svg version="1.1" xmlns="http://www.w3.org/2000/svg" width="32" height="32" viewBox="0 0 32 32">
<title>ma</title>
<path d="M15.995 0.756l-3.769 11.638-12.226 0.010 9.884 7.192-3.769 11.648c2.547-1.868 7.16-5.217 9.885-7.192l9.895 7.186-3.78-11.638 9.885-7.202h-12.215l-3.79-11.643zM15.995 8.724l1.202 3.669-2.394 0.005 1.192-3.675zM11.423 14.856l-0.735 2.284-3.123-2.273 3.858-0.011zM14.005 14.856h3.989l1.234 3.801-3.228 2.352-3.228-2.352 1.234-3.801zM20.577 14.856h3.853l-3.113 2.284-0.74-2.283zM11.974 21.123l1.942 1.402-3.123 2.273 1.181-3.675zM20.037 21.123l1.181 3.675-3.118-2.268v-0.005l1.937-1.402z"></path>
</svg>
