<!-- Generated by IcoMoon.io -->
<svg version="1.1" xmlns="http://www.w3.org/2000/svg" width="32" height="32" viewBox="0 0 32 32">
<title>mh</title>
<path d="M15.834 0.686c-0.018 0.396-0.144 2.504-0.288 4.684s-0.27 4.233-0.27 4.576c0 0.342-0.036 0.576-0.108 0.522-0.054-0.054-0.576-1.351-1.153-2.864-0.594-1.531-1.063-2.666-1.081-2.558 0 0.126 0.198 1.459 0.45 2.972 0.252 1.495 0.414 2.756 0.378 2.792s-0.847-1.027-1.819-2.378c-0.955-1.333-1.765-2.432-1.801-2.432s0.414 1.081 1.027 2.378c1.405 3.134 1.459 3.26 1.171 3.098-0.108-0.072-1.063-0.829-2.108-1.657-2.828-2.306-2.666-2.18-2.324-1.747 0.144 0.198 0.973 1.207 1.819 2.252 0.829 1.045 1.585 2 1.657 2.108 0.162 0.288 0.036 0.234-3.080-1.171-1.315-0.612-2.396-1.063-2.396-1.027s1.099 0.847 2.432 1.801c1.351 0.973 2.414 1.783 2.378 1.819s-1.297-0.126-2.792-0.378c-1.513-0.252-2.846-0.45-2.972-0.45-0.108 0.018 1.027 0.486 2.558 1.081 1.513 0.576 2.81 1.099 2.864 1.153 0.054 0.072-0.18 0.108-0.522 0.108s-2.396 0.126-4.576 0.27c-2.18 0.144-4.287 0.27-4.684 0.288s-0.594 0.054-0.45 0.090c0.288 0.072 8.773 0.612 9.764 0.612l0.594 0.018-0.45 0.234c-0.252 0.126-1.477 0.631-2.756 1.099-1.261 0.468-2.27 0.901-2.234 0.937s1.315-0.144 2.846-0.378c1.513-0.252 2.792-0.432 2.828-0.396 0.018 0.036-1.045 0.847-2.396 1.819-1.333 0.955-2.432 1.783-2.432 1.819 0 0.018 0.432-0.144 0.955-0.378 3.891-1.747 4.539-2.018 4.612-1.982 0.018 0.036-0.504 0.739-1.189 1.567-1.963 2.378-2.684 3.315-2.306 3.008 0.198-0.144 1.207-0.973 2.252-1.801 1.045-0.847 2-1.603 2.108-1.675 0.288-0.162 0.216 0.018-1.171 3.080-0.612 1.315-1.063 2.396-1.027 2.396s0.847-1.099 1.819-2.432c0.955-1.333 1.783-2.414 1.819-2.378 0.018 0.036-0.144 1.297-0.396 2.792-0.252 1.513-0.45 2.846-0.45 2.972 0.018 0.108 0.486-1.027 1.081-2.558 0.576-1.513 1.099-2.81 1.153-2.864 0.072-0.054 0.108 0.18 0.108 0.522s0.126 2.396 0.27 4.576c0.144 2.18 0.27 4.287 0.288 4.684s0.054 0.594 0.090 0.45c0.072-0.306 0.612-8.863 0.612-9.745 0-0.324 0.054-0.54 0.108-0.486 0.054 0.072 0.576 1.351 1.153 2.882 0.594 1.513 1.063 2.63 1.063 2.486s-0.18-1.477-0.432-2.972c-0.234-1.477-0.414-2.72-0.378-2.738 0.036-0.036 0.847 1.027 1.819 2.378 0.955 1.333 1.765 2.432 1.801 2.432s-0.378-0.991-0.937-2.216c-1.459-3.242-1.513-3.405-1.261-3.26 0.126 0.072 1.063 0.829 2.108 1.657 2.828 2.306 2.666 2.18 2.324 1.747-0.144-0.198-0.973-1.207-1.819-2.252-0.829-1.045-1.585-1.982-1.657-2.108-0.144-0.252 0.018-0.198 3.279 1.261 1.207 0.558 2.198 0.973 2.198 0.937s-1.099-0.847-2.432-1.801c-1.351-0.973-2.414-1.783-2.378-1.819 0.018-0.036 1.261 0.144 2.738 0.378 1.495 0.252 2.828 0.432 2.972 0.432s-0.973-0.468-2.486-1.063c-1.531-0.576-2.81-1.099-2.882-1.153-0.054-0.054 0.162-0.108 0.486-0.108 0.883 0 9.439-0.54 9.745-0.612 0.144-0.036-0.054-0.072-0.45-0.090s-2.504-0.144-4.684-0.288c-2.18-0.144-4.233-0.27-4.576-0.27s-0.576-0.036-0.522-0.108c0.054-0.054 1.351-0.576 2.864-1.153 1.531-0.594 2.666-1.063 2.558-1.081-0.126 0-1.459 0.198-2.972 0.45-1.495 0.252-2.756 0.414-2.792 0.396-0.036-0.036 1.045-0.865 2.378-1.819 1.333-0.973 2.432-1.783 2.432-1.819s-1.081 0.414-2.378 1.027c-3.080 1.387-3.26 1.459-3.098 1.171 0.072-0.108 0.829-1.063 1.675-2.108 0.829-1.045 1.657-2.054 1.801-2.252 0.306-0.378-0.631 0.342-3.008 2.306-0.829 0.685-1.531 1.207-1.567 1.189-0.036-0.072 0.234-0.721 1.982-4.63 0.234-0.504 0.396-0.937 0.378-0.937-0.036 0-0.865 1.099-1.819 2.432-0.973 1.351-1.783 2.414-1.819 2.396-0.036-0.036 0.144-1.315 0.396-2.828 0.234-1.531 0.414-2.81 0.378-2.846s-0.468 0.973-0.937 2.234c-0.468 1.279-0.973 2.504-1.099 2.756l-0.234 0.45-0.018-0.594c0-0.991-0.54-9.475-0.612-9.764-0.036-0.144-0.072 0.054-0.090 0.45z"></path>
</svg>
