<!-- Generated by IcoMoon.io -->
<svg version="1.1" xmlns="http://www.w3.org/2000/svg" width="43" height="32" viewBox="0 0 43 32">
<title>mk</title>
<path d="M0 0l16.768 12.576c0.261-0.347 0.561-0.663 0.893-0.943l-11.261-11.633zM18.667 0l2.008 10.328c0.216-0.025 0.436-0.038 0.658-0.038s0.442 0.013 0.658 0.038l2.008-10.328zM36.267 0l-11.261 11.633c0.332 0.28 0.632 0.596 0.893 0.943l16.768-12.576zM21.419 11.39c-2.546-0-4.744 2.064-4.744 4.61s2.197 4.61 4.744 4.61c2.546 0 4.61-2.064 4.61-4.61s-2.064-4.61-4.61-4.61zM0 12.8v6.4l15.686-2.353c-0.041-0.276-0.063-0.559-0.063-0.847s0.022-0.571 0.063-0.847zM42.667 12.8l-15.686 2.353c0.041 0.276 0.063 0.559 0.063 0.847s-0.022 0.571-0.063 0.847l15.686 2.353zM16.768 19.424l-16.768 12.576h6.4l11.261-11.633c-0.332-0.28-0.632-0.596-0.893-0.943zM25.899 19.424c-0.261 0.347-0.561 0.663-0.893 0.943l11.261 11.633h6.4zM20.675 21.672l-2.008 10.328h5.333l-2.008-10.328c-0.216 0.025-0.436 0.038-0.658 0.038s-0.442-0.013-0.658-0.038z"></path>
</svg>
