<!-- Generated by IcoMoon.io -->
<svg version="1.1" xmlns="http://www.w3.org/2000/svg" width="16" height="32" viewBox="0 0 16 32">
<title>mn</title>
<path d="M7.751 0.289c-0.308 0.326-0.332 0.445-0.19 0.908 0.089 0.308 0.065 0.457-0.142 0.866-0.196 0.392-0.219 0.753-0.065 1.133 0.125 0.32 0.125 0.326 0.012 0.475-0.154 0.208-0.291 0.225-0.463 0.059-0.178-0.166-0.178-0.237 0.012-0.528 0.19-0.285 0.16-0.558-0.071-0.777-0.243-0.225-0.279-0.38-0.142-0.652 0.107-0.202 0.107-0.231 0.024-0.231-0.136 0-0.486 0.368-0.534 0.564-0.024 0.107-0.006 0.267 0.059 0.433 0.095 0.261 0.095 0.273-0.059 0.658-0.492 1.228 0.439 2.521 1.75 2.426 1.246-0.089 1.993-1.293 1.519-2.45-0.142-0.35-0.148-0.362-0.053-0.629 0.065-0.172 0.083-0.338 0.059-0.439-0.047-0.196-0.397-0.564-0.534-0.564-0.083 0-0.083 0.030 0.024 0.231 0.136 0.273 0.101 0.427-0.142 0.652-0.237 0.225-0.261 0.492-0.065 0.789 0.148 0.225 0.16 0.261 0.083 0.392-0.142 0.255-0.267 0.291-0.451 0.148-0.196-0.142-0.196-0.178-0.012-0.854 0.125-0.463 0.13-0.54 0.059-0.842-0.047-0.214-0.172-0.48-0.332-0.718-0.35-0.51-0.368-0.605-0.178-0.985 0.083-0.166 0.142-0.32 0.13-0.332s-0.148 0.107-0.297 0.267z"></path>
<path d="M7.116 6.429c-0.73 0.208-1.269 0.593-1.649 1.163-0.771 1.151-0.623 2.61 0.368 3.589 1.554 1.548 4.111 0.866 4.746-1.269 0.392-1.329-0.397-2.883-1.726-3.387-0.427-0.166-1.335-0.214-1.738-0.095z"></path>
<path d="M11.512 10.516c-0.291 0.623-1.038 1.347-1.726 1.691-0.73 0.356-1.151 0.451-1.958 0.451s-1.228-0.095-1.958-0.451c-0.652-0.326-1.412-1.056-1.738-1.679l-0.214-0.415-0.006 0.368c-0.006 1.542 1.163 2.99 2.847 3.518 1.708 0.54 3.713-0.32 4.538-1.958 0.208-0.409 0.386-1.044 0.427-1.525 0.018-0.237 0.024-0.433 0.012-0.427-0.012 0-0.113 0.19-0.225 0.427z"></path>
<path d="M-0.002 23.43v8.542h3.559v-17.084h-3.559v8.542z"></path>
<path d="M4.364 14.941c0.030 0.024 0.819 0.51 1.762 1.068l1.702 1.020 1.708-1.020c0.937-0.558 1.726-1.044 1.762-1.068 0.030-0.030-1.507-0.053-3.47-0.053s-3.5 0.024-3.464 0.053z"></path>
<path d="M12.099 23.43v8.542h3.559v-17.084h-3.559v8.542z"></path>
<path d="M4.269 18.447v0.712h7.118v-1.424h-7.118v0.712z"></path>
<path d="M6.938 19.96c-1.602 0.451-2.663 1.833-2.669 3.47 0 1.602 1.186 3.102 2.741 3.47 0.807 0.19 1.608 0.089 2.42-0.308 0.581-0.279 1.305-0.997 1.584-1.566 0.54-1.097 0.486-2.42-0.142-3.452-0.409-0.676-1.133-1.264-1.874-1.525-0.486-0.178-1.578-0.219-2.058-0.089zM9.109 20.547c0.332 0.392 0.409 0.617 0.409 1.252 0 0.522-0.018 0.635-0.148 0.884-0.214 0.415-0.486 0.605-1.358 0.949-0.427 0.172-0.89 0.392-1.032 0.492-0.664 0.469-0.753 1.596-0.178 2.266 0.267 0.314 0.077 0.243-0.243-0.089-0.326-0.338-0.469-0.783-0.439-1.388 0.047-0.985 0.344-1.269 1.886-1.845 0.641-0.243 1.008-0.575 1.151-1.056 0.053-0.178 0.095-0.409 0.095-0.51 0-0.35-0.172-0.777-0.427-1.074l-0.255-0.285 0.202 0.119c0.107 0.059 0.261 0.19 0.338 0.285zM8.131 20.909c0.208 0.113 0.409 0.415 0.409 0.623 0 0.332-0.386 0.712-0.724 0.712-0.314 0-0.7-0.392-0.7-0.712s0.386-0.712 0.7-0.712c0.077 0 0.214 0.041 0.314 0.089zM8.125 24.693c0.172 0.089 0.415 0.427 0.415 0.587 0 0.065-0.041 0.208-0.095 0.314-0.255 0.54-0.979 0.54-1.234 0-0.13-0.267-0.119-0.392 0.042-0.629 0.219-0.326 0.552-0.433 0.872-0.273z"></path>
<path d="M4.269 28.413v0.712h7.118v-1.424h-7.118v0.712z"></path>
<path d="M6.037 30.91l1.791 1.080 3.589-2.153h-7.178l1.797 1.074z"></path>
</svg>
