<!-- Generated by IcoMoon.io -->
<svg version="1.1" xmlns="http://www.w3.org/2000/svg" width="32" height="32" viewBox="0 0 32 32">
<title>mo</title>
<path d="M14.947 2.4c-1.2 1.537-1.811 2.611-2.232 4.084-0.505 1.747-0.463 4.463 0.084 6.105 0.547 1.6 0.442 1.768-0.147 0.211-0.947-2.547-0.989-5.453-0.105-7.663 0.295-0.758 0.295-0.842-0.189-1.684l-0.505-0.884-0.442 1.032c-1.221 2.842-1.179 5.916 0.147 8.716 0.316 0.674 0.547 1.221 0.505 1.221-0.021 0-0.505-0.337-1.053-0.779-1.579-1.2-3.453-1.979-5.663-2.337-1.095-0.168-2.042-0.274-2.105-0.21-0.063 0.084 0.042 0.358 0.211 0.653 0.295 0.421 0.589 0.526 1.726 0.653 2.105 0.211 4.8 1.305 6.4 2.611 0.316 0.253-0.147 0.105-1.074-0.358-2.063-0.99-3.326-1.284-5.726-1.284-1.853 0-2.926 0.168-4.189 0.674l-0.589 0.21 0.695 1.305c1.347 2.547 4.126 4.674 6.947 5.284 1.221 0.274 1.242 0.274 0.442 0.295-1.6 0.042-4.063-0.905-5.663-2.168-0.589-0.463-1.011-0.632-1.432-0.589-0.821 0.105-0.653 0.4 0.842 1.558 2.442 1.853 5.495 2.568 8.379 2 1.895-0.4 3.389-1.074 4.8-2.168l0.989-0.779 0.989 0.779c3.937 3.074 9.263 3.137 13.179 0.168 1.495-1.158 1.663-1.453 0.842-1.558-0.421-0.042-0.842 0.126-1.432 0.589-1.6 1.263-4.063 2.211-5.663 2.168-0.8-0.021-0.779-0.021 0.442-0.295 2.821-0.611 5.6-2.737 6.947-5.284l0.695-1.305-0.589-0.211c-1.263-0.505-2.337-0.674-4.232-0.674-2.316 0-4.042 0.4-5.916 1.368-1.179 0.632-1.284 0.653-0.737 0.19 1.432-1.2 4.189-2.316 6.337-2.526 1.074-0.105 1.389-0.232 1.663-0.632 0.168-0.274 0.316-0.547 0.316-0.632 0-0.189-2.484 0.105-3.79 0.484-1.474 0.4-3.032 1.2-4.147 2.084-0.484 0.4-0.905 0.716-0.968 0.716-0.042 0 0.147-0.442 0.4-1.011 1.389-2.821 1.495-6.063 0.274-8.905l-0.463-1.053-0.505 0.884c-0.484 0.842-0.484 0.926-0.168 1.705 0.547 1.411 0.779 3.516 0.526 5.074-0.21 1.389-1.011 3.832-1.179 3.663-0.042-0.042 0.063-0.421 0.232-0.842 0.842-2 0.8-5.116-0.105-7.516-0.442-1.158-2.4-4-2.884-4.147-0.126-0.042-0.632 0.4-1.116 1.011z"></path>
<path d="M14.569 20.189c-2.316 1.6-3.368 1.832-9.137 1.937l-4.989 0.084 0.337 0.505c0.316 0.505 0.337 0.505 4.358 0.505 2.21 0 4.695-0.105 5.495-0.211 1.453-0.211 3.558-1.053 4.737-1.895l0.611-0.442 1.137 0.737c2.295 1.474 3.242 1.663 8.8 1.768l4.947 0.084 0.358-0.526 0.337-0.526-4.989-0.084c-5.768-0.105-6.779-0.337-9.221-1.958-0.779-0.526-1.411-0.926-1.432-0.926 0 0.021-0.611 0.442-1.347 0.947zM2.211 24.484c0.189 0.295 27.39 0.295 27.579 0 0.084-0.147-4.568-0.211-13.79-0.211s-13.874 0.063-13.789 0.21zM4.105 26.168c0.379 0.421 0.653 0.421 11.895 0.421s11.516 0 11.895-0.421c0.379-0.421 0.358-0.421-11.895-0.421s-12.274 0-11.895 0.421zM6.105 27.537c0 0.042 0.379 0.295 0.842 0.526 0.779 0.4 1.221 0.421 9.053 0.421s8.274-0.021 9.053-0.421c0.463-0.232 0.842-0.484 0.842-0.526 0-0.063-4.442-0.105-9.895-0.105s-9.895 0.042-9.895 0.105zM10.611 29.558c3.39 1.095 7.39 1.095 10.779 0l1.242-0.4h-13.263l1.242 0.4z"></path>
</svg>
