<!-- Generated by IcoMoon.io -->
<svg version="1.1" xmlns="http://www.w3.org/2000/svg" width="32" height="32" viewBox="0 0 32 32">
<title>mq</title>
<path d="M15.722 1.324c-0.343 0.091-0.914 0.32-1.268 0.514-0.845 0.446-1.942 1.417-1.942 1.725 0 0.206-0.057 0.217-0.651 0.183-0.366-0.034-1.005-0.149-1.417-0.263-0.468-0.137-0.823-0.183-0.971-0.114-0.183 0.069-0.126 0.114 0.274 0.194 0.537 0.114 0.537 0.263-0.023 0.503-0.309 0.137-0.32 0.149-0.091 0.16 0.149 0 0.423-0.080 0.617-0.183 0.309-0.16 0.446-0.16 1.017-0.046 0.48 0.103 0.754 0.114 1.017 0.023 0.309-0.114 0.411-0.091 0.857 0.194 0.286 0.183 0.743 0.388 1.017 0.468 0.583 0.16 1.851 0.103 2.845-0.126 0.48-0.114 0.72-0.114 0.857-0.034 0.628 0.4 0.88 1.851 0.788 4.445-0.069 1.999-0.308 3.073-1.223 5.656-1.497 4.193-1.942 5.998-1.942 7.918v0.937l-0.606 0.388c-0.32 0.217-1.325 0.96-2.228 1.657-0.891 0.697-2.068 1.531-2.605 1.862-2.159 1.314-2.936 1.417-8.843 1.12l-1.2-0.057 0.743 0.354c0.994 0.468 3.485 1.291 4.684 1.542 1.348 0.286 3.805 0.297 4.742 0.011 2.034-0.606 4.079-1.611 5.461-2.662 0.354-0.274 0.674-0.503 0.697-0.503s0.183 0.229 0.343 0.503c0.937 1.611 3.77 2.971 6.478 3.119 1.931 0.114 4.559-0.48 5.998-1.348 0.903-0.548 1.794-1.542 2.102-2.354 0.72-1.919-0.377-4.102-2.696-5.313-2.582-1.36-6.398-1.554-9.415-0.491l-0.491 0.171 0.069-0.594c0.103-0.857 0.411-1.965 1.337-4.833 1.017-3.142 1.211-3.965 1.382-5.747 0.263-2.765-0.011-5.404-0.72-6.878-0.377-0.766-1.428-1.76-2.205-2.045-0.754-0.286-1.862-0.308-2.788-0.057zM25.056 24.163c0.868 0.206 1.771 0.651 2.011 0.994 0.468 0.674-0.023 1.44-1.245 1.931-0.617 0.24-0.857 0.274-2.342 0.263-1.451 0-1.737-0.034-2.319-0.263-0.983-0.388-1.794-1.188-1.794-1.76 0-0.24 1.223-0.857 2.194-1.108 1.017-0.263 2.502-0.286 3.496-0.057z"></path>
</svg>
