<!-- Generated by IcoMoon.io -->
<svg version="1.1" xmlns="http://www.w3.org/2000/svg" width="32" height="32" viewBox="0 0 32 32">
<title>na</title>
<path d="M15.063 3.272c-0.476 1.787-0.879 3.33-0.908 3.431-0.029 0.115 0.49 0.159 1.845 0.159 1.312 0 1.874-0.058 1.845-0.173-0.533-2.133-1.787-6.688-1.845-6.688-0.043 0-0.461 1.47-0.937 3.272zM7.971 2.234c0.043 0.159 0.49 1.787 0.98 3.632l0.894 3.344 0.591-0.49c0.591-0.476 2.234-1.369 2.523-1.369 0.086 0 0.159-0.043 0.159-0.115 0-0.058-1.168-1.269-2.609-2.696s-2.58-2.465-2.537-2.306zM21.434 4.584c-1.398 1.398-2.551 2.609-2.551 2.667s0.072 0.101 0.159 0.101c0.288 0 1.744 0.75 2.378 1.254 0.36 0.274 0.692 0.461 0.735 0.432 0.087-0.086 1.917-6.919 1.874-6.977-0.029-0.014-1.196 1.11-2.595 2.523zM4.541 10.508c1.427 1.441 2.638 2.609 2.696 2.609 0.072 0 0.115-0.072 0.115-0.159 0-0.303 0.894-1.931 1.384-2.537 0.288-0.346 0.461-0.62 0.418-0.62-0.072 0-5.232-1.355-6.919-1.816-0.159-0.043 0.879 1.081 2.306 2.523zM13.982 8.159c-2.854 0.75-5.103 3.013-5.838 5.896-1.081 4.252 1.6 8.706 5.91 9.802 4.238 1.081 8.706-1.614 9.802-5.91 1.081-4.252-1.6-8.692-5.91-9.802-1.067-0.274-2.912-0.259-3.964 0.014zM26.407 8.865c-1.845 0.504-3.402 0.937-3.431 0.98-0.043 0.043 0.144 0.375 0.418 0.735 0.504 0.634 1.254 2.090 1.254 2.378 0 0.086 0.043 0.159 0.115 0.159 0.058 0 1.268-1.168 2.696-2.595s2.523-2.595 2.45-2.58c-0.087 0-1.658 0.418-3.503 0.923zM3.287 15.049c-1.816 0.476-3.287 0.908-3.287 0.951 0 0.058 4.713 1.355 6.703 1.845 0.115 0.029 0.159-0.49 0.159-1.845 0-1.24-0.043-1.874-0.144-1.859-0.087 0.014-1.629 0.418-3.431 0.908zM25.139 16c0 1.355 0.043 1.874 0.159 1.845 1.989-0.49 6.703-1.787 6.703-1.845s-4.713-1.355-6.703-1.845c-0.115-0.029-0.159 0.49-0.159 1.845zM4.541 21.492c-1.427 1.441-2.465 2.58-2.306 2.523 0.159-0.043 1.787-0.476 3.632-0.966l3.33-0.894-0.533-0.663c-0.288-0.375-0.721-1.11-0.951-1.643-0.245-0.519-0.461-0.966-0.504-0.966s-1.24 1.168-2.667 2.609zM24.649 19.041c0 0.288-0.865 1.903-1.326 2.479-0.231 0.303-0.404 0.591-0.36 0.62 0.058 0.072 6.847 1.931 7.020 1.931 0.043 0-1.096-1.168-2.523-2.595s-2.638-2.595-2.696-2.595c-0.072 0-0.115 0.072-0.115 0.159zM8.951 26.133c-0.49 1.845-0.937 3.474-0.98 3.632s1.096-0.879 2.537-2.306c1.441-1.427 2.609-2.623 2.609-2.667s-0.447-0.259-0.966-0.504c-0.533-0.231-1.268-0.663-1.643-0.966l-0.663-0.519-0.894 3.33zM21.766 23.135c-0.245 0.303-1.686 1.139-2.364 1.384-0.288 0.101-0.519 0.231-0.519 0.274s1.168 1.24 2.609 2.667c1.441 1.427 2.58 2.465 2.537 2.306s-0.447-1.658-0.894-3.315c-1.009-3.762-0.937-3.532-1.067-3.532-0.072 0-0.202 0.101-0.303 0.216zM14.155 25.297c0.49 1.989 1.787 6.703 1.845 6.703s1.355-4.713 1.845-6.703c0.029-0.115-0.49-0.159-1.845-0.159s-1.874 0.043-1.845 0.159z"></path>
</svg>
