<!-- Generated by IcoMoon.io -->
<svg version="1.1" xmlns="http://www.w3.org/2000/svg" width="10" height="32" viewBox="0 0 10 32">
<title>nc</title>
<path d="M4.983 0.365c-0.020 0.176-0.041 0.934-0.041 1.685v1.367l-0.392 0.108c-0.21 0.061-0.494 0.176-0.622 0.264-0.21 0.142-0.244 0.203-0.271 0.528-0.020 0.203-0.088 0.467-0.149 0.582-0.216 0.399 0.115 0.474 0.792 0.189 0.677-0.291 0.643-0.298 0.643 0.115 0 0.758-0.034 0.819-0.521 1.076-0.541 0.277-1.089 0.798-1.299 1.238-0.135 0.277-0.156 0.406-0.129 0.846 0.047 0.805 0.392 1.36 1.082 1.745 0.325 0.176 0.419 0.196 1.001 0.196s0.677-0.020 1.001-0.196c0.69-0.386 1.035-0.94 1.082-1.745 0.027-0.44 0.007-0.568-0.129-0.846-0.21-0.44-0.758-0.961-1.299-1.238-0.501-0.264-0.521-0.304-0.521-1.191 0-0.453 0.014-0.494 0.189-0.609 0.372-0.244 0.771-0.609 1.042-0.961 0.149-0.196 0.264-0.365 0.25-0.379-0.014-0.020-0.345 0.027-0.737 0.101-0.392 0.068-0.717 0.129-0.724 0.129-0.014 0-0.020-0.602-0.020-1.346 0-1.34-0.041-1.969-0.135-1.969-0.027 0-0.068 0.142-0.095 0.311z"></path>
<path d="M2.135 9.086c-0.034 0.183-0.061 0.636-0.061 0.995-0.007 0.562 0.014 0.683 0.135 0.846 0.318 0.44 0.934 0.562 2.869 0.562s2.551-0.122 2.869-0.562c0.129-0.176 0.142-0.277 0.129-0.981-0.007-0.433-0.041-0.88-0.074-0.988-0.047-0.183-0.061-0.156-0.142 0.271-0.041 0.257-0.149 0.602-0.237 0.771-0.311 0.622-0.798 0.771-2.544 0.771-2.124 0-2.49-0.203-2.781-1.515l-0.108-0.507-0.054 0.338z"></path>
<path d="M3.732 12.32c-0.825 0.183-1.197 0.298-1.116 0.325 0.074 0.027 0.656 0.162 1.299 0.304l1.164 0.25 1.17-0.25c0.636-0.142 1.218-0.277 1.292-0.304 0.081-0.027-0.332-0.142-1.184-0.332-0.724-0.156-1.326-0.277-1.346-0.277-0.020 0.007-0.595 0.135-1.279 0.284z"></path>
<path d="M4.679 13.592c-0.683 0.135-1.245 0.582-1.529 1.231-0.162 0.359-0.183 0.467-0.156 0.954 0.034 0.636 0.183 0.981 0.602 1.4 0.426 0.426 0.798 0.568 1.482 0.568s1.055-0.142 1.482-0.568c0.419-0.419 0.568-0.764 0.602-1.4 0.027-0.494 0.007-0.595-0.149-0.947-0.101-0.223-0.264-0.487-0.365-0.595-0.494-0.521-1.285-0.785-1.969-0.643z"></path>
<path d="M3.86 18.618c-0.541 0.122-1.069 0.244-1.184 0.271-0.169 0.047 0.020 0.108 1.103 0.345l1.299 0.284 1.306-0.284c0.792-0.176 1.245-0.298 1.164-0.325-0.365-0.115-2.348-0.521-2.517-0.514-0.101 0-0.629 0.101-1.17 0.223z"></path>
<path d="M3.13 20.154c-0.507 0.088-0.852 0.284-0.967 0.548-0.101 0.244-0.115 1.218-0.027 1.786l0.054 0.331 0.122-0.555c0.23-1.062 0.494-1.306 1.556-1.441 1.116-0.135 2.753-0.047 3.2 0.183 0.467 0.237 0.602 0.453 0.778 1.258l0.122 0.555 0.054-0.331c0.088-0.568 0.074-1.543-0.027-1.786-0.115-0.277-0.453-0.46-1.028-0.555-0.514-0.081-3.329-0.074-3.836 0.007z"></path>
<path d="M4.679 21.236c-0.67 0.129-1.197 0.548-1.502 1.177-0.162 0.338-0.196 0.494-0.196 0.927 0 0.643 0.149 1.062 0.622 1.793 0.419 0.643 0.568 0.967 0.629 1.387l0.047 0.325h1.597l0.047-0.304c0.061-0.419 0.189-0.71 0.589-1.34 0.521-0.805 0.656-1.197 0.663-1.84 0-0.46-0.027-0.602-0.196-0.947-0.311-0.656-0.825-1.042-1.556-1.184-0.203-0.034-0.379-0.068-0.406-0.061-0.020 0.007-0.176 0.034-0.338 0.068z"></path>
<path d="M4.030 27.21c-1.854 0.433-3.288 1.705-3.897 3.471-0.068 0.21-0.129 0.406-0.129 0.44 0 0.129 1.211 0.453 2.503 0.683 0.717 0.122 1.103 0.142 2.571 0.142s1.854-0.020 2.571-0.142c1.292-0.23 2.503-0.555 2.503-0.683 0-0.034-0.061-0.23-0.129-0.44-0.555-1.603-1.779-2.801-3.423-3.335-0.67-0.223-1.921-0.284-2.571-0.135z"></path>
</svg>
