<!-- Generated by IcoMoon.io -->
<svg version="1.1" xmlns="http://www.w3.org/2000/svg" width="20" height="32" viewBox="0 0 20 32">
<title>nf</title>
<path d="M10.020 0.147l-0.068 0.065v2.067l-0.114-0.041c-0.163-0.057-0.46-0.079-0.533-0.041-0.139 0.073-0.027 0.253 0.28 0.451 0.25 0.163 0.351 0.272 0.283 0.315-0.065 0.041-0.169 0.027-0.324-0.046-0.144-0.068-0.34-0.095-0.402-0.054-0.019 0.011-0.033 0.084-0.033 0.163v0.141l0.272 0.185c0.261 0.177 0.408 0.313 0.408 0.378-0.003 0.043-0.082 0.139-0.147 0.174-0.035 0.019-0.087 0.011-0.204-0.035-0.103-0.043-0.207-0.065-0.321-0.065-0.171 0-0.171 0-0.171 0.076 0 0.147 0.133 0.283 0.432 0.438 0.299 0.158 0.392 0.245 0.441 0.411 0.038 0.13 0.016 0.166-0.136 0.218-0.098 0.033-0.114 0.030-0.212-0.030-0.054-0.035-0.207-0.15-0.334-0.256-0.451-0.375-0.634-0.465-0.892-0.441-0.204 0.016-0.359 0.092-0.359 0.171 0 0.092 0.106 0.204 0.267 0.275 0.082 0.035 0.182 0.101 0.22 0.141s0.13 0.098 0.201 0.125c0.073 0.027 0.196 0.095 0.275 0.15 0.125 0.087 0.177 0.103 0.394 0.133 0.253 0.033 0.421 0.092 0.492 0.179 0.049 0.057 0.008 0.087-0.16 0.111-0.179 0.027-0.462-0.046-0.832-0.215-0.533-0.242-0.726-0.28-1.014-0.196-0.128 0.038-0.141 0.052-0.141 0.12 0 0.065 0.014 0.082 0.090 0.095 0.046 0.008 0.253 0.084 0.454 0.169 0.617 0.253 0.721 0.283 1.109 0.324 0.356 0.038 0.514 0.087 0.544 0.171 0.019 0.057-0.313 0.038-0.857-0.052-0.832-0.136-1.188-0.095-1.351 0.16-0.035 0.054-0.073 0.136-0.082 0.177l-0.019 0.079 0.185-0.016c0.101-0.008 0.351-0.022 0.552-0.033 0.702-0.030 1.335 0.13 1.479 0.373 0.071 0.122 0.057 0.133-0.152 0.133-0.158 0-0.253-0.019-0.47-0.098-0.15-0.054-0.394-0.141-0.544-0.196-0.223-0.079-0.31-0.095-0.489-0.098-0.245 0-0.375 0.049-0.53 0.207-0.092 0.090-0.179 0.258-0.15 0.288 0.008 0.008 0.196 0.011 0.416 0.005 0.998-0.033 1.264-0.008 1.501 0.139l0.095 0.060-0.068 0.030c-0.098 0.043-1.746 0.038-2.007-0.005-0.111-0.019-0.275-0.071-0.367-0.12-0.218-0.109-0.31-0.133-0.419-0.114-0.071 0.014-0.092 0.035-0.12 0.111-0.046 0.147-0.016 0.324 0.073 0.419 0.169 0.177 0.296 0.19 1.479 0.16 0.528-0.011 0.642 0.011 0.794 0.163 0.101 0.101 0.103 0.101 0.389 0.12 0.343 0.024 0.544 0.076 0.596 0.16 0.052 0.076 0.079 0.294 0.046 0.343-0.046 0.071-0.25 0.043-0.46-0.063-0.109-0.054-0.269-0.117-0.362-0.136-0.090-0.022-0.193-0.057-0.226-0.082-0.242-0.158-0.759-0.296-1.118-0.299-0.242-0.003-0.288 0.005-0.408 0.068-0.13 0.065-0.275 0.247-0.242 0.302 0.019 0.030 0.677 0.024 0.933-0.003 0.155-0.019 0.215-0.016 0.258 0.011 0.033 0.022 0.169 0.076 0.302 0.122 0.136 0.049 0.288 0.114 0.34 0.15 0.071 0.046 0.163 0.071 0.364 0.092 0.294 0.035 0.484 0.101 0.53 0.19 0.027 0.049 0.022 0.057-0.071 0.073-0.073 0.014-0.174-0.003-0.392-0.068-0.239-0.068-0.34-0.084-0.56-0.084-0.234 0-0.299-0.011-0.538-0.095-0.519-0.185-1.585-0.237-1.958-0.095-0.288 0.109-0.53 0.427-0.53 0.693 0 0.073 0.068 0.101 0.359 0.152 0.201 0.033 0.218 0.065 0.049 0.092-0.095 0.016-0.163 0.073-0.163 0.136 0 0.027 0.114 0.063 0.892 0.275 0.805 0.218 0.938 0.261 1.406 0.457 0.218 0.090 0.337 0.125 0.432 0.125 0.125 0 0.141 0.008 0.28 0.152 0.141 0.144 0.22 0.19 0.5 0.294 0.147 0.052 0.207 0.111 0.242 0.231 0.033 0.117-0.019 0.139-0.315 0.139-0.223 0-0.239-0.005-0.329-0.082-0.212-0.188-0.419-0.256-1.158-0.381-0.577-0.098-0.699-0.136-1.090-0.364-0.666-0.383-0.884-0.465-1.213-0.446-0.16 0.008-0.237 0.030-0.351 0.092l-0.147 0.079 0.016 0.201c0.008 0.109 0.024 0.209 0.038 0.223 0.033 0.033 0.394 0.117 0.737 0.177 0.264 0.046 0.326 0.090 0.125 0.092-0.046 0-0.101 0.019-0.12 0.041-0.030 0.035-0.022 0.057 0.043 0.125 0.169 0.179 0.4 0.247 1.044 0.307 0.413 0.041 0.476 0.054 0.816 0.174 0.373 0.136 0.552 0.215 0.685 0.31 0.041 0.027 0.139 0.057 0.218 0.068 0.111 0.011 0.166 0.035 0.239 0.103 0.158 0.144 0.223 0.177 0.354 0.177 0.19 0 0.247 0.079 0.109 0.15-0.106 0.054-0.212 0.052-0.506-0.014-0.133-0.030-0.277-0.054-0.321-0.054-0.041 0-0.111-0.030-0.152-0.065-0.043-0.035-0.144-0.079-0.223-0.098-0.174-0.041-0.318-0.111-0.489-0.234-0.152-0.111-0.223-0.139-0.462-0.171-0.136-0.019-0.226-0.052-0.348-0.128-0.196-0.12-0.313-0.144-0.756-0.144-0.492-0.003-0.878 0.087-1.158 0.272-0.136 0.092-0.261 0.25-0.261 0.332 0 0.068 0.136 0.117 0.394 0.141 0.12 0.011 0.253 0.038 0.296 0.060 0.076 0.038 0.076 0.043 0.027 0.071-0.027 0.016-0.185 0.071-0.351 0.12-0.163 0.049-0.329 0.111-0.364 0.139-0.084 0.063-0.16 0.166-0.171 0.234-0.008 0.046 0.030 0.057 0.386 0.114 0.691 0.109 1.191 0.25 1.808 0.508 0.283 0.12 0.351 0.16 0.503 0.307 0.218 0.209 0.332 0.261 0.721 0.337 0.465 0.087 0.639 0.133 0.789 0.207 0.073 0.038 0.25 0.092 0.392 0.122 0.139 0.030 0.302 0.079 0.356 0.106 0.117 0.060 0.218 0.174 0.218 0.245 0 0.111-0.615 0.095-0.96-0.024-0.242-0.084-0.479-0.215-0.944-0.528-0.247-0.166-0.549-0.348-0.674-0.405-0.237-0.111-0.617-0.223-0.718-0.207-0.054 0.008-0.063 0.022-0.054 0.114l0.008 0.106-0.111-0.019c-0.139-0.022-0.288-0.095-0.506-0.25-0.237-0.169-0.438-0.256-0.65-0.275-0.152-0.014-0.196-0.008-0.28 0.038-0.054 0.033-0.201 0.071-0.326 0.087-0.122 0.016-0.261 0.049-0.305 0.071-0.082 0.041-0.128 0.141-0.101 0.215 0.030 0.079 0.356 0.204 0.712 0.275 0.462 0.090 0.688 0.16 0.789 0.245l0.082 0.068-0.101 0.084c-0.057 0.046-0.103 0.106-0.103 0.133s0.103 0.152 0.231 0.275c0.136 0.13 0.231 0.247 0.231 0.277 0 0.049-0.014 0.052-0.133 0.038-0.169-0.019-0.256-0.065-0.441-0.223-0.158-0.136-0.242-0.188-0.356-0.215-0.073-0.016-0.076-0.014-0.076 0.079 0 0.054 0.019 0.141 0.041 0.196 0.052 0.122 0.054 0.117-0.030 0.117-0.117 0-0.256-0.082-0.345-0.207-0.103-0.136-0.141-0.147-0.555-0.147-0.302 0-0.313 0.003-0.381 0.073-0.264 0.286-0.326 0.411-0.28 0.585 0.035 0.128 0.063 0.141 0.367 0.199 0.269 0.049 0.375 0.098 0.419 0.196 0.035 0.076 0.022 0.084-0.171 0.095-0.079 0.005-0.139 0.022-0.147 0.043-0.016 0.054 0.166 0.215 0.283 0.247 0.057 0.016 0.253 0.041 0.43 0.057 0.367 0.035 0.503 0.079 0.601 0.196 0.079 0.095 0.090 0.169 0.022 0.147-0.144-0.041-0.487-0.082-0.688-0.082-0.193 0-0.25 0.011-0.345 0.065-0.133 0.073-0.199 0.19-0.199 0.351 0 0.092 0.011 0.111 0.063 0.122 0.125 0.027 1.46 0.179 1.819 0.209 0.364 0.030 0.375 0.033 0.465 0.117 0.133 0.125 0.256 0.155 0.723 0.171 0.378 0.014 0.43 0.022 0.511 0.079 0.133 0.090 0.318 0.12 0.753 0.12 0.443 0 0.617 0.038 0.734 0.16 0.063 0.065 0.106 0.082 0.253 0.098 0.299 0.033 0.408 0.204 0.199 0.313-0.163 0.082-0.313 0.071-0.639-0.054-0.158-0.060-0.345-0.111-0.416-0.117-0.125-0.005-0.128-0.003-0.136 0.082-0.016 0.163-0.049 0.158-0.47-0.073-0.62-0.343-0.832-0.4-1.164-0.315l-0.171 0.044-0.272-0.166c-0.362-0.22-0.59-0.305-0.775-0.291-0.158 0.014-0.307 0.109-0.375 0.239l-0.041 0.082-0.106-0.106c-0.185-0.185-0.514-0.242-0.9-0.152-0.207 0.049-0.696 0.28-0.775 0.367l-0.054 0.060 0.101 0.090c0.179 0.166 0.318 0.188 1.15 0.19 0.723 0.003 0.737 0.003 0.93 0.073 0.62 0.228 0.976 0.528 1.055 0.889l0.019 0.090-0.090-0.019c-0.147-0.030-0.299-0.111-0.517-0.277-0.242-0.182-0.389-0.253-0.579-0.272-0.141-0.014-0.144-0.014-0.174 0.071-0.016 0.046-0.046 0.084-0.065 0.084s-0.144-0.063-0.28-0.139c-0.354-0.199-0.484-0.245-0.742-0.261-0.201-0.014-0.231-0.011-0.286 0.041-0.033 0.030-0.158 0.090-0.277 0.131-0.25 0.087-0.367 0.185-0.367 0.305 0 0.071 0.016 0.087 0.171 0.155 0.288 0.131 0.517 0.177 1.014 0.204 0.473 0.027 0.628 0.057 1.202 0.228 0.122 0.038 0.367 0.087 0.544 0.109 1.387 0.179 1.273 0.158 1.449 0.28 0.106 0.071 0.185 0.103 0.321 0.122 0.329 0.046 0.421 0.079 0.737 0.253 0.381 0.212 0.506 0.258 0.707 0.258 0.196 0 0.315 0.041 0.334 0.114 0.024 0.095-0.027 0.15-0.163 0.182-0.218 0.046-0.261 0.044-0.411-0.041-0.082-0.044-0.185-0.101-0.231-0.125-0.125-0.068-0.362-0.122-0.794-0.185-0.405-0.057-0.443-0.071-1.050-0.402-0.111-0.063-0.256-0.12-0.318-0.131-0.109-0.016-0.114-0.014-0.171 0.084l-0.060 0.101-0.171-0.014c-0.141-0.011-0.231-0.044-0.495-0.177-0.305-0.155-0.62-0.25-0.688-0.207-0.043 0.027-0.024 0.188 0.030 0.269 0.073 0.109 0.068 0.122-0.033 0.122-0.122-0.003-0.348-0.098-0.623-0.267-0.392-0.239-0.555-0.269-0.971-0.169-0.125 0.030-0.296 0.063-0.381 0.071-0.084 0.011-0.163 0.033-0.174 0.049-0.035 0.052-0.024 0.31 0.019 0.416l0.041 0.103h0.212c0.16 0 0.269 0.022 0.468 0.087 0.367 0.12 0.334 0.114 1.006 0.144 0.644 0.027 0.846 0.052 1.074 0.139 0.136 0.052 0.34 0.209 0.34 0.264 0 0.046-0.218-0.016-0.446-0.131-0.171-0.087-0.245-0.109-0.354-0.106-0.234 0.003-0.25 0.016-0.239 0.22 0.008 0.133 0 0.182-0.033 0.209-0.073 0.060-0.343-0.014-0.71-0.196-0.593-0.291-0.87-0.348-1.21-0.242l-0.15 0.049-0.008 0.16c-0.008 0.188 0.057 0.324 0.174 0.37 0.068 0.024 0.071 0.030 0.027 0.076-0.079 0.087-0.054 0.163 0.071 0.22 0.144 0.065 0.25 0.068 0.601 0.011 0.367-0.060 0.604-0.044 0.726 0.044l0.095 0.068h0.862c0.857 0 0.859 0 0.925 0.063 0.065 0.057 0.163 0.084 0.517 0.128 0.147 0.019 0.256 0.092 0.231 0.158-0.027 0.076-0.378 0.345-0.47 0.362-0.12 0.022-0.16 0.005-0.435-0.179-0.334-0.226-0.413-0.247-0.87-0.239l-0.378 0.008-0.063 0.114c-0.054 0.101-0.15 0.171-0.185 0.136-0.008-0.008-0.027-0.073-0.046-0.144-0.033-0.131-0.035-0.133-0.141-0.141-0.060-0.003-0.199-0.052-0.307-0.106-0.239-0.12-0.269-0.111-0.34 0.103-0.073 0.22-0.101 0.237-0.212 0.125-0.052-0.049-0.152-0.114-0.228-0.141-0.073-0.027-0.171-0.073-0.212-0.103-0.043-0.027-0.128-0.054-0.19-0.060s-0.209-0.046-0.326-0.092c-0.242-0.095-0.392-0.109-0.421-0.038-0.008 0.027-0.019 0.101-0.019 0.163 0 0.15 0.090 0.242 0.37 0.389 0.117 0.060 0.234 0.139 0.261 0.171 0.043 0.054 0.073 0.063 0.269 0.060 0.209 0 0.228 0.005 0.503 0.144l0.286 0.144 0.364 0.024c0.386 0.024 0.62 0.073 0.381 0.082-0.207 0.008-0.489 0.068-0.517 0.109-0.014 0.022-0.027 0.095-0.027 0.16v0.122l-0.090-0.084c-0.174-0.166-0.413-0.258-0.995-0.375l-0.334-0.068-0.076 0.082c-0.068 0.073-0.092 0.082-0.245 0.082-0.144 0-0.179-0.011-0.269-0.084-0.193-0.155-0.506-0.201-0.786-0.12l-0.141 0.044v0.155c0 0.084 0.008 0.199 0.016 0.253l0.016 0.095 0.373 0.090c0.204 0.052 0.522 0.141 0.71 0.201 0.31 0.101 0.351 0.122 0.462 0.239 0.068 0.071 0.19 0.171 0.272 0.223 0.084 0.052 0.169 0.114 0.188 0.136 0.030 0.038 0.019 0.046-0.071 0.060-0.163 0.027-0.171 0.035-0.171 0.122 0 0.073 0.011 0.084 0.122 0.111 0.201 0.052 0.188 0.133-0.022 0.133-0.144 0-0.25-0.052-0.454-0.218-0.288-0.234-0.419-0.28-0.802-0.294-0.209-0.005-0.438 0.005-0.634 0.033-0.169 0.024-0.427 0.044-0.577 0.044h-0.269l-0.068 0.087c-0.207 0.275-0.092 0.509 0.438 0.889 0.13 0.095 0.28 0.226 0.329 0.291 0.114 0.155 0.193 0.19 0.5 0.242 0.31 0.049 1.322 0.106 1.482 0.082 0.065-0.008 0.237-0.057 0.383-0.109 0.397-0.139 0.998-0.212 1.977-0.247 0.432-0.014 0.522-0.008 0.775 0.041 0.158 0.033 0.37 0.065 0.473 0.076 0.177 0.016 0.199 0.024 0.386 0.177 0.111 0.090 0.201 0.171 0.201 0.185 0 0.033-0.158 0.082-0.264 0.082-0.13 0-0.362-0.084-0.715-0.256-0.389-0.193-0.468-0.209-0.566-0.117-0.041 0.035-0.188 0.136-0.326 0.223-0.174 0.106-0.275 0.19-0.326 0.264l-0.071 0.111-0.207-0.016c-0.114-0.008-0.343-0.049-0.506-0.090-0.169-0.041-0.383-0.073-0.503-0.076-0.174-0.003-0.226 0.008-0.351 0.073s-0.169 0.073-0.277 0.060c-0.131-0.019-0.131-0.019-0.131 0.063 0 0.109 0.087 0.212 0.247 0.294 0.179 0.090 0.242 0.158 0.242 0.258s-0.016 0.098-0.247-0.060c-0.090-0.060-0.234-0.144-0.318-0.182-0.147-0.071-0.174-0.073-0.563-0.071-0.37 0.003-0.443 0.011-0.775 0.095l-0.367 0.095-0.008 0.185c-0.011 0.228-0.005 0.234 0.362 0.476l0.272 0.179h0.272c0.15 0 0.4-0.016 0.555-0.035 0.19-0.022 0.438-0.027 0.761-0.016 0.568 0.022 0.661 0.005 1.158-0.185 0.315-0.122 0.408-0.144 0.897-0.215 0.514-0.073 0.818-0.136 0.911-0.188 0.027-0.016 0.063-0.005 0.103 0.035 0.052 0.049 0.106 0.063 0.313 0.073l0.247 0.014 0.022 0.087c0.011 0.046 0.063 0.117 0.109 0.158 0.13 0.109 0.305 0.087 0.628-0.079 0.228-0.117 0.253-0.122 0.277-0.079 0.016 0.027 0.068 0.087 0.117 0.136 0.136 0.133 0.264 0.141 0.696 0.038 0.234-0.054 0.424-0.084 0.557-0.084h0.201l-0.019 0.334c-0.046 0.794-0.106 1.403-0.302 3.051-0.065 0.552-0.136 1.156-0.158 1.338l-0.035 0.334h2.238l-0.011-0.073c-0.030-0.258-0.215-1.838-0.294-2.523-0.095-0.835-0.16-1.577-0.193-2.197l-0.019-0.345h0.133c0.166 0 0.283-0.068 0.476-0.283l0.144-0.16 0.196 0.016c0.141 0.011 0.267 0.044 0.438 0.114 0.533 0.223 0.664 0.264 0.889 0.267l0.218 0.005 0.033-0.122c0.019-0.068 0.049-0.174 0.065-0.237 0.049-0.188 0.079-0.204 0.351-0.185l0.237 0.019 0.101-0.163c0.109-0.177 0.22-0.261 0.373-0.291 0.125-0.022 0.226 0.019 0.394 0.16 0.31 0.267 0.487 0.31 1.346 0.34 0.601 0.022 0.683 0.030 0.829 0.090 0.147 0.054 0.204 0.063 0.544 0.060 0.576-0.005 1.022-0.125 1.604-0.427l0.272-0.141 0.008-0.196 0.008-0.193-0.155-0.022c-0.258-0.030-0.734 0.008-1.164 0.095-0.432 0.090-0.533 0.101-0.533 0.057 0-0.052-0.177-0.136-0.288-0.136-0.060 0-0.212 0.030-0.34 0.068-0.125 0.035-0.275 0.068-0.329 0.068-0.057 0-0.239-0.046-0.408-0.103-0.242-0.084-0.364-0.109-0.571-0.122-0.144-0.008-0.302-0.033-0.354-0.057-0.060-0.027-0.193-0.044-0.394-0.049-0.275-0.008-0.31-0.014-0.37-0.071-0.038-0.035-0.073-0.087-0.082-0.117-0.033-0.125 0.421-0.101 1.014 0.054 0.56 0.15 0.775 0.163 1.387 0.084 0.517-0.065 0.644-0.063 1.86 0.016l0.593 0.038 0.060-0.073c0.030-0.038 0.071-0.098 0.090-0.128 0.038-0.063 0.046-0.179 0.016-0.179-0.014 0-0.12-0.073-0.239-0.163-0.348-0.258-0.495-0.267-1.003-0.054-0.136 0.057-0.291 0.111-0.343 0.122-0.052 0.008-0.117 0.024-0.141 0.030-0.033 0.011-0.057-0.014-0.084-0.076-0.111-0.264-0.264-0.296-0.634-0.144-0.239 0.101-0.424 0.122-0.536 0.065-0.033-0.019-0.122-0.092-0.201-0.163-0.114-0.106-0.16-0.133-0.245-0.139-0.182-0.008-0.343 0.008-0.604 0.063-0.326 0.065-0.541 0.065-0.778-0.003-0.106-0.030-0.315-0.073-0.47-0.092-0.283-0.038-0.389-0.082-0.441-0.179-0.024-0.046-0.019-0.054 0.038-0.071 0.038-0.008 0.13 0.005 0.212 0.033 0.128 0.041 0.223 0.044 0.99 0.027 0.919-0.019 1.104-0.005 1.346 0.103 0.283 0.128 0.857 0.155 1.827 0.082 0.315-0.024 0.789-0.044 1.044-0.046 0.258-0.003 0.47-0.011 0.47-0.019 0-0.060-0.071-0.245-0.128-0.329-0.125-0.19-0.402-0.321-0.794-0.375-0.226-0.030-0.245-0.024-0.519 0.16-0.302 0.201-0.432 0.212-0.623 0.044-0.212-0.19-0.37-0.199-0.914-0.044-0.163 0.044-0.345 0.082-0.411 0.082-0.109 0-0.117-0.005-0.174-0.125-0.073-0.158-0.057-0.218 0.079-0.329 0.185-0.152 0.514-0.166 1.126-0.049 0.117 0.022 0.315 0.041 0.441 0.041 0.228 0 0.228 0 0.579-0.179 0.299-0.152 0.381-0.182 0.53-0.193 0.171-0.014 0.177-0.019 0.193-0.098 0.033-0.16 0.022-0.201-0.057-0.223-0.044-0.008-0.16-0.060-0.267-0.111-0.261-0.128-0.411-0.147-1.006-0.139-0.476 0.005-0.533 0-0.737-0.060l-0.22-0.065-0.566 0.267-0.666-0.005c-0.498-0.005-0.721 0.003-0.881 0.033-0.307 0.060-0.642 0.052-0.642-0.016 0-0.014 0.041-0.044 0.090-0.071 0.065-0.035 0.185-0.049 0.498-0.063l0.411-0.016 0.158-0.106c0.147-0.101 0.166-0.109 0.31-0.095 0.421 0.033 0.625 0.011 1.226-0.133 1.006-0.239 1.12-0.272 1.324-0.373 0.215-0.106 0.441-0.324 0.492-0.47 0.033-0.092 0.046-0.090-0.468-0.141-0.528-0.052-0.87 0-1.082 0.169l-0.098 0.079-0.12-0.068c-0.16-0.092-0.34-0.087-0.729 0.016-0.416 0.111-0.394 0.098-0.495 0.269-0.098 0.16-0.204 0.226-0.288 0.174-0.024-0.016-0.073-0.082-0.109-0.141-0.041-0.073-0.090-0.12-0.133-0.131-0.063-0.016-0.095 0.008-0.264 0.19-0.136 0.147-0.226 0.22-0.302 0.247-0.125 0.041-0.15 0.033-0.15-0.049 0.003-0.179 0.201-0.421 0.46-0.56 0.367-0.193 0.737-0.245 1.39-0.196 0.394 0.030 0.394 0.030 0.522-0.038 0.098-0.052 0.171-0.068 0.305-0.068 0.131 0 0.201-0.016 0.291-0.065 0.073-0.041 0.22-0.082 0.381-0.106 0.31-0.049 0.441-0.098 0.5-0.193 0.109-0.163-0.003-0.22-0.511-0.258-0.182-0.014-0.367-0.038-0.408-0.054-0.106-0.041-0.109-0.041-0.166 0.054-0.060 0.101-0.204 0.169-0.307 0.144-0.041-0.011-0.163-0.060-0.269-0.111-0.237-0.109-0.351-0.114-0.476-0.022-0.158 0.117-0.272 0.155-0.528 0.177-0.136 0.014-0.267 0.033-0.291 0.041-0.046 0.019-0.13-0.090-0.13-0.174 0-0.044 0.030-0.057 0.185-0.082 0.101-0.014 0.305-0.035 0.454-0.044 0.345-0.022 0.473-0.052 0.677-0.15 0.201-0.098 0.239-0.101 0.468-0.014 0.234 0.087 0.362 0.084 0.745-0.014 0.171-0.046 0.351-0.082 0.4-0.082 0.109 0 0.111-0.016 0.011-0.152-0.247-0.337-0.568-0.468-1.213-0.492-0.37-0.014-0.386-0.016-0.582-0.114-0.193-0.092-0.218-0.098-0.476-0.098-0.275 0-0.275 0-0.601 0.147-0.261 0.12-0.362 0.152-0.503 0.16-0.15 0.008-0.188 0.003-0.25-0.049-0.087-0.068-0.098-0.131-0.027-0.152 0.024-0.008 0.188-0.084 0.359-0.169l0.313-0.155 0.563-0.005 0.166-0.12c0.144-0.101 0.19-0.12 0.332-0.128 0.090-0.005 0.275 0.008 0.408 0.033 0.495 0.087 0.742 0.041 0.832-0.158 0.027-0.063 0.052-0.158 0.052-0.212 0-0.095-0.008-0.103-0.155-0.174-0.212-0.106-0.514-0.117-0.979-0.044-0.193 0.030-0.5 0.063-0.685 0.071-0.392 0.019-0.519 0.052-0.636 0.16-0.057 0.054-0.12 0.082-0.182 0.084-0.052 0.003-0.144 0.038-0.204 0.076-0.060 0.041-0.141 0.082-0.182 0.090-0.076 0.019-0.076 0.019-0.076-0.117 0-0.12 0.011-0.144 0.090-0.212 0.188-0.16 0.517-0.28 1.284-0.473 0.982-0.247 1.264-0.367 1.512-0.65 0.141-0.158 0.204-0.283 0.256-0.498 0.063-0.267 0.063-0.267-0.101-0.267-0.188 0.003-0.318 0.063-0.563 0.269-0.22 0.185-0.296 0.234-0.324 0.207-0.011-0.011-0.033-0.076-0.046-0.144l-0.027-0.128-0.136 0.003c-0.076 0-0.237 0.008-0.362 0.019-0.201 0.014-0.237 0.024-0.321 0.098-0.052 0.046-0.117 0.084-0.144 0.084-0.030 0-0.228 0.063-0.443 0.139-0.449 0.16-0.669 0.185-0.838 0.095-0.087-0.046-0.090-0.054-0.041-0.073 0.030-0.011 0.087-0.022 0.125-0.022 0.242-0.008 0.824-0.245 1.139-0.468 0.155-0.109 0.163-0.12 0.163-0.226 0-0.136 0.043-0.223 0.144-0.299 0.071-0.052 0.125-0.057 0.571-0.071 0.432-0.011 0.509-0.022 0.604-0.071 0.139-0.073 0.182-0.174 0.106-0.258-0.027-0.033-0.117-0.101-0.193-0.15-0.079-0.052-0.144-0.101-0.144-0.111s0.060-0.082 0.136-0.158c0.131-0.13 0.133-0.141 0.109-0.231-0.016-0.052-0.076-0.147-0.133-0.212l-0.101-0.117-0.557-0.005c-0.351-0.003-0.593 0.008-0.658 0.027-0.092 0.030-0.114 0.024-0.199-0.033-0.158-0.106-0.299-0.114-0.881-0.052-0.166 0.019-0.174 0.016-0.139-0.027 0.054-0.063 0.218-0.144 0.362-0.179 0.063-0.014 0.351-0.038 0.634-0.054 0.609-0.033 0.862-0.079 1.017-0.19 0.122-0.090 0.22-0.256 0.22-0.378 0-0.117-0.139-0.16-0.598-0.193-0.46-0.030-0.582-0.060-0.691-0.171l-0.084-0.087-0.571-0.016c-0.313-0.008-0.576-0.019-0.585-0.022-0.038-0.014 1.139-0.427 1.4-0.492 0.212-0.052 0.302-0.087 0.307-0.117 0.005-0.024-0.016-0.101-0.046-0.171-0.057-0.125-0.054-0.174 0.003-0.174 0.068 0 0.212-0.141 0.237-0.231 0.060-0.218-0.076-0.394-0.343-0.449-0.359-0.076-1.305-0.005-1.534 0.111-0.136 0.068-0.19 0.065-0.522-0.019-0.155-0.038-0.31-0.063-0.354-0.054-0.041 0.008-0.12 0.057-0.171 0.109-0.141 0.139-0.291 0.177-0.84 0.22-0.324 0.024-0.59 0.063-0.786 0.109-0.302 0.073-0.427 0.076-0.574 0.008-0.038-0.016-0.068-0.038-0.068-0.049 0-0.022 0.264-0.141 0.408-0.185 0.169-0.052 0.438-0.090 0.786-0.114 0.288-0.019 0.386-0.038 0.617-0.12 0.348-0.122 0.778-0.196 1.588-0.272l0.639-0.057-0.005-0.13c-0.008-0.247-0.182-0.446-0.538-0.617-0.492-0.234-1.050-0.356-1.645-0.359-0.432-0.003-0.596 0.027-0.944 0.171-0.367 0.155-0.552 0.199-0.683 0.163-0.215-0.060-0.253-0.223-0.079-0.332 0.079-0.052 0.12-0.054 0.495-0.043 0.718 0.019 2.36-0.068 2.466-0.133 0.041-0.024 0.024-0.212-0.027-0.31-0.049-0.087-0.057-0.092-0.185-0.084-0.087 0.003-0.223-0.022-0.402-0.076-0.286-0.090-0.514-0.106-0.71-0.054-0.060 0.016-0.231 0.087-0.381 0.155-0.25 0.117-0.288 0.128-0.476 0.125-0.155 0-0.231-0.014-0.321-0.063-0.128-0.065-0.171-0.13-0.111-0.169 0.046-0.027 0.13-0.008 0.318 0.076 0.223 0.098 0.267 0.090 0.609-0.12 0.144-0.090 0.177-0.098 0.484-0.12 0.348-0.027 0.465-0.065 0.519-0.166 0.027-0.052 0.022-0.068-0.038-0.12-0.103-0.087-0.351-0.174-0.593-0.204-0.362-0.043-0.982 0.054-1.487 0.237-0.106 0.038-0.122 0.038-0.182 0-0.15-0.098-0.144-0.223 0.014-0.288 0.071-0.030 0.128-0.030 0.313 0 0.234 0.035 0.332 0.033 0.789-0.038 0.15-0.024 0.411-0.043 0.579-0.043h0.31l0.348-0.305v-0.228c0-0.443-0.087-0.623-0.375-0.764-0.15-0.073-0.169-0.076-0.563-0.076-0.34 0.003-0.487 0.016-0.876 0.090-0.498 0.092-0.628 0.106-0.547 0.057 0.024-0.014 0.169-0.073 0.318-0.133 0.468-0.185 0.927-0.302 1.43-0.364l0.245-0.030 0.016-0.337-0.144-0.073c-0.19-0.098-0.487-0.12-0.718-0.052-0.087 0.024-0.375 0.147-0.636 0.272-0.261 0.122-0.506 0.231-0.544 0.239-0.169 0.041-0.264-0.345-0.122-0.487 0.068-0.068 0.068-0.068 0.43-0.049 0.356 0.019 0.362 0.016 0.508-0.057 0.136-0.071 0.185-0.079 0.544-0.095 0.421-0.019 0.517-0.046 0.517-0.155 0-0.090-0.144-0.239-0.267-0.275-0.196-0.060-0.46-0.038-0.878 0.065-0.421 0.106-0.691 0.128-0.835 0.068-0.073-0.033-0.087-0.052-0.087-0.13 0-0.087 0.005-0.095 0.063-0.079 0.179 0.057 0.291 0.049 0.576-0.038l0.294-0.090 0.329 0.033c0.364 0.035 0.438 0.041 0.609 0.033l0.114-0.003v-0.117c0-0.188-0.057-0.22-0.441-0.261-0.15-0.014-0.267-0.041-0.313-0.073l-0.076-0.049 0.286-0.057c0.468-0.095 0.435-0.079 0.435-0.218 0-0.065-0.014-0.152-0.033-0.19-0.027-0.060-0.046-0.068-0.177-0.068-0.427 0-0.993 0.106-1.362 0.256l-0.223 0.090-0.016-0.065c-0.027-0.101 0.005-0.266 0.060-0.343 0.030-0.035 0.128-0.125 0.223-0.196 0.215-0.16 0.253-0.231 0.177-0.334-0.041-0.054-0.090-0.079-0.188-0.092-0.073-0.014-0.174-0.027-0.223-0.035-0.052-0.011-0.106-0.043-0.13-0.082-0.038-0.060-0.038-0.073 0.008-0.15 0.027-0.046 0.136-0.155 0.242-0.242 0.193-0.16 0.283-0.294 0.283-0.419 0-0.076-0.043-0.101-0.185-0.103-0.122 0-0.283-0.054-0.296-0.098-0.005-0.016 0.035-0.065 0.090-0.109 0.269-0.204 0.315-0.264 0.329-0.408 0.014-0.139 0.014-0.139-0.073-0.158-0.079-0.016-0.226-0.008-0.413 0.030l-0.076 0.016v-2.048l-0.068-0.065c-0.035-0.038-0.098-0.068-0.136-0.068s-0.101 0.030-0.136 0.068zM11.298 5.3c-0.133 0.147-0.598 0.288-0.772 0.231-0.101-0.030-0.057-0.209 0.060-0.258 0.033-0.014 0.218-0.024 0.411-0.024 0.348-0.003 0.351-0.003 0.302 0.052zM8.797 9.352c0.147 0.046 0.332 0.090 0.411 0.098 0.152 0.019 0.171 0.060 0.049 0.117-0.109 0.049-0.234 0.035-0.364-0.041-0.106-0.060-0.15-0.068-0.326-0.065-0.294 0.011-0.321 0.005-0.381-0.054-0.071-0.071-0.068-0.103 0.008-0.117 0.171-0.033 0.356-0.014 0.604 0.063zM9.169 10.137c0.068 0.057 0.13 0.082 0.253 0.095 0.163 0.019 0.286 0.092 0.286 0.171s-0.299 0.011-0.631-0.147c-0.242-0.114-0.267-0.13-0.223-0.163 0.084-0.060 0.218-0.043 0.315 0.043zM11.562 10.918c0.234 0.041-0.016 0.185-0.421 0.245-0.373 0.054-0.46 0.082-0.547 0.16l-0.071 0.065v-0.457l0.185-0.011c0.348-0.016 0.753-0.019 0.854-0.003zM8.062 12.408c0.054 0.038 0.269 0.125 0.479 0.193 0.402 0.136 0.59 0.242 0.683 0.386l0.054 0.090h-0.12c-0.277 0-0.533-0.095-1.041-0.383-0.179-0.101-0.375-0.19-0.435-0.201-0.128-0.024-0.258-0.087-0.258-0.122 0-0.016 0.114-0.027 0.272-0.027 0.239 0 0.28 0.008 0.367 0.065zM7.271 12.927c0.139 0.098 0.204 0.122 0.46 0.177 0.106 0.022 0.218 0.071 0.332 0.152 0.242 0.163 0.321 0.193 0.789 0.286 0.223 0.043 0.487 0.106 0.582 0.139l0.177 0.057-0.063 0.049c-0.13 0.106-0.59 0.035-0.824-0.125-0.054-0.038-0.117-0.068-0.133-0.068-0.092 0-0.416-0.098-0.623-0.19-0.128-0.057-0.302-0.114-0.389-0.13-0.212-0.041-0.421-0.139-0.563-0.267-0.106-0.095-0.109-0.106-0.065-0.139 0.082-0.060 0.179-0.041 0.321 0.060zM12.057 14.331c-0.027 0.033-0.103 0.087-0.163 0.122-0.095 0.057-0.125 0.063-0.19 0.035-0.109-0.041-0.231-0.016-0.492 0.098-0.28 0.122-0.394 0.125-0.5 0.011-0.043-0.046-0.079-0.101-0.079-0.12s0.049-0.054 0.111-0.079c0.092-0.038 0.199-0.043 0.617-0.038 0.438 0.008 0.519 0.003 0.59-0.038 0.12-0.068 0.171-0.063 0.106 0.008zM8.234 15.097c0.057 0.057 0.177 0.133 0.267 0.169l0.16 0.068h-0.155c-0.133 0-0.158-0.008-0.171-0.057-0.024-0.073-0.171-0.133-0.332-0.133-0.177 0-0.446-0.046-0.481-0.082-0.060-0.060 0.052-0.084 0.329-0.076l0.28 0.008 0.103 0.103zM9.028 15.402c0.315 0.065 0.462 0.12 0.462 0.174 0 0.024 0.016 0.071 0.038 0.101 0.052 0.068 0.008 0.12-0.095 0.12-0.052 0-0.114-0.033-0.185-0.095-0.076-0.068-0.13-0.095-0.196-0.095-0.117 0-0.242-0.076-0.305-0.188l-0.052-0.087 0.065 0.016c0.035 0.008 0.155 0.033 0.267 0.054zM11.978 15.998c0 0.038-0.038 0.060-0.177 0.098-0.098 0.024-0.329 0.092-0.517 0.147-0.239 0.071-0.378 0.098-0.476 0.092l-0.136-0.008 0.098-0.076c0.136-0.103 0.364-0.179 0.647-0.215 0.128-0.016 0.272-0.046 0.315-0.065 0.117-0.052 0.245-0.038 0.245 0.027zM8.552 16.639c0.473 0.065 0.704 0.133 0.843 0.256 0.095 0.079 0.103 0.095 0.071 0.136-0.052 0.063-0.15 0.054-0.239-0.022-0.057-0.049-0.133-0.071-0.307-0.095-0.174-0.022-0.264-0.052-0.362-0.111-0.109-0.068-0.16-0.082-0.302-0.082-0.174 0-0.234-0.030-0.234-0.114 0-0.038 0.016-0.044 0.076-0.035 0.041 0.008 0.245 0.038 0.454 0.068zM11.315 16.9c0.046 0.022 0.079 0.054 0.071 0.073-0.005 0.016-0.073 0.065-0.152 0.106-0.109 0.057-0.182 0.076-0.299 0.076-0.171 0-0.204-0.016-0.226-0.101-0.016-0.065 0.033-0.125 0.141-0.169 0.106-0.041 0.373-0.035 0.465 0.014zM11.385 17.841c0.125 0.019 0.226 0.041 0.226 0.052 0 0.008-0.065 0.046-0.141 0.082-0.114 0.052-0.193 0.063-0.381 0.065-0.128 0-0.242-0.008-0.253-0.016-0.033-0.033 0.049-0.158 0.12-0.185 0.098-0.035 0.169-0.035 0.43 0.003zM13.297 17.991c0 0.049-0.111 0.199-0.196 0.264-0.163 0.122-0.5 0.261-0.818 0.332-0.674 0.155-0.848 0.204-1.017 0.283-0.136 0.063-0.188 0.073-0.228 0.054-0.027-0.016-0.082-0.022-0.12-0.011-0.038 0.008-0.098 0.008-0.136 0-0.065-0.016-0.068-0.027-0.052-0.12 0.043-0.247 0.171-0.315 0.677-0.359 0.411-0.033 0.693-0.098 1.128-0.256 0.449-0.166 0.761-0.242 0.761-0.188zM11.975 19.932c0.12 0.057 0.106 0.101-0.043 0.133-0.076 0.016-0.264 0.079-0.413 0.139-0.16 0.065-0.34 0.117-0.432 0.128l-0.16 0.014 0.011-0.079c0.011-0.101 0.101-0.147 0.302-0.147 0.122 0 0.196-0.019 0.326-0.084 0.15-0.076 0.267-0.125 0.324-0.131 0.011-0.003 0.049 0.011 0.087 0.027zM13.447 20.392c-0.294 0.296-0.525 0.381-0.802 0.296-0.052-0.014-0.199-0.027-0.326-0.027-0.37-0.003-0.644 0.106-0.916 0.364-0.079 0.073-0.098 0.079-0.215 0.063-0.155-0.019-0.256-0.079-0.256-0.15 0-0.041 0.030-0.052 0.169-0.068 0.237-0.024 0.522-0.109 0.906-0.267 0.778-0.321 1.039-0.394 1.414-0.4l0.215-0.003-0.188 0.19zM8.612 21.455c0.041 0.016 0.136 0.076 0.212 0.133 0.073 0.057 0.196 0.12 0.267 0.139 0.114 0.027 0.291 0.144 0.291 0.19 0 0.027-0.136 0.079-0.209 0.079-0.041 0-0.101-0.027-0.136-0.057-0.038-0.038-0.109-0.065-0.193-0.073-0.122-0.011-0.141-0.022-0.193-0.117-0.049-0.084-0.076-0.106-0.139-0.106-0.095 0-0.218-0.052-0.218-0.092 0.003-0.109 0.16-0.155 0.318-0.095zM8.628 23.247c0.476 0.041 0.835 0.147 0.835 0.247 0 0.082-0.109 0.185-0.226 0.218-0.201 0.054-0.522-0.022-0.699-0.163-0.079-0.063-0.13-0.079-0.307-0.092-0.226-0.016-0.487-0.117-0.519-0.196-0.011-0.035 0.033-0.041 0.291-0.041 0.169 0 0.449 0.014 0.625 0.027zM11.78 23.266c0.030 0.027 0.049 0.082 0.049 0.141 0 0.155-0.030 0.179-0.237 0.185-0.106 0.003-0.272 0.033-0.392 0.071l-0.207 0.065-0.049-0.092c-0.049-0.090-0.049-0.092 0.005-0.15 0.057-0.054 0.063-0.054 0.169-0.011 0.237 0.092 0.476 0.016 0.533-0.169 0.027-0.098 0.054-0.106 0.128-0.041zM9.327 24.324l0.109 0.019v0.315l-0.152 0.030c-0.223 0.046-0.462-0.024-0.674-0.201-0.095-0.079-0.079-0.111 0.087-0.166 0.125-0.041 0.367-0.038 0.631 0.003zM11.829 24.49c0 0.024-0.014 0.087-0.033 0.136-0.024 0.068-0.054 0.098-0.13 0.117-0.22 0.063-0.571 0.014-0.721-0.098-0.046-0.035-0.049-0.044-0.014-0.065 0.079-0.052 0.237-0.082 0.547-0.103 0.171-0.014 0.318-0.027 0.332-0.030 0.011 0 0.019 0.019 0.019 0.044z"></path>
</svg>
