<!-- Generated by IcoMoon.io -->
<svg version="1.1" xmlns="http://www.w3.org/2000/svg" width="32" height="32" viewBox="0 0 32 32">
<title>np-top</title>
<path d="M15.993 25.323c8.841 0 16.007-7.166 16.007-16.007-1.406 3.576-3.951 6.537-7.193 8.465l-1.366-1.018 2.679-2.009-3.242-0.83 1.715-2.907-3.349 0.482 0.496-3.322-2.907 1.741-0.83-3.282-2.009 2.679-2.009-2.679-0.844 3.268-2.893-1.715 0.496 3.349-3.349-0.496 1.741 2.907-3.268 0.83 2.679 2.009-1.339 1.031c-3.175-1.875-5.76-4.769-7.206-8.465 0 8.841 7.166 16.007 16.007 16.007z"></path>
</svg>
