<!-- Generated by IcoMoon.io -->
<svg version="1.1" xmlns="http://www.w3.org/2000/svg" width="32" height="32" viewBox="0 0 32 32">
<title>nr</title>
<path d="M14.857 4.082l-0.947 3.951-6.008-6.008 1.11 3.886c0.62 2.122 1.11 3.951 1.11 4.082s-1.731-0.294-3.82-0.882c-2.122-0.62-3.918-1.11-3.984-1.11-0.098 0 1.143 1.306 2.743 2.939 1.992 1.992 2.743 2.971 2.416 3.069-0.261 0.098-1.992 0.555-3.886 1.012-1.894 0.49-3.461 0.914-3.526 0.98-0.065 0.033 1.567 0.49 3.592 0.98s3.82 0.98 3.984 1.078c0.131 0.065-1.045 1.437-2.612 3.037-1.6 1.6-2.808 2.906-2.71 2.906 0.065 0 1.861-0.49 3.984-1.11 2.090-0.588 3.82-1.012 3.82-0.882s-0.49 1.959-1.11 4.082l-1.11 3.886 6.008-6.008 0.947 3.951c0.522 2.155 1.045 3.918 1.143 3.918s0.62-1.763 1.143-3.918l0.947-3.951 6.008 6.008-1.11-3.886c-0.62-2.122-1.11-3.951-1.11-4.082s1.731 0.294 3.82 0.882c2.122 0.62 3.918 1.11 3.984 1.11 0.098 0-1.143-1.306-2.743-2.939-1.992-1.992-2.743-2.971-2.416-3.069 0.261-0.098 1.992-0.555 3.886-1.012 1.894-0.49 3.461-0.914 3.526-0.98 0.065-0.033-1.567-0.49-3.592-0.98s-3.82-0.98-3.984-1.078c-0.131-0.065 1.045-1.437 2.612-3.037 1.6-1.6 2.808-2.906 2.71-2.906-0.065 0-1.861 0.49-3.984 1.11-2.090 0.588-3.82 1.012-3.82 0.882s0.49-1.959 1.11-4.082l1.11-3.886-6.008 6.008-0.947-3.951c-0.522-2.155-1.045-3.918-1.143-3.918s-0.62 1.763-1.143 3.918z"></path>
</svg>
