<!-- Generated by IcoMoon.io -->
<svg version="1.1" xmlns="http://www.w3.org/2000/svg" width="32" height="32" viewBox="0 0 32 32">
<title>pg</title>
<path d="M18.796 0.494c-1.567 0.861-3.063 2.329-3.712 3.656-0.424 0.833-0.452 0.988-0.409 2.117 0.085 2.174 0.056 2.484-0.183 2.936-0.155 0.325-0.339 0.466-0.565 0.466-0.395 0-1.623-0.79-2.216-1.426-0.409-0.438-0.423-0.452-1.369-0.339-1.299 0.155-2.23 0.155-3.035 0.042-0.889-0.141-0.748 0.028 0.424 0.522 0.522 0.212 1.158 0.565 1.383 0.776 0.24 0.198 0.847 0.579 1.383 0.833 1.115 0.536 1.482 0.974 1.256 1.496-0.226 0.48-0.748 0.452-1.948-0.085-1.327-0.607-2.484-0.706-3.345-0.282-0.932 0.452-2.131 1.736-3.007 3.218-1.426 2.414-1.694 3.289-0.72 2.329 0.325-0.325 0.649-0.593 0.706-0.593s0.014 0.226-0.099 0.494c-0.254 0.607-0.113 0.621 0.692 0.071s0.918-0.536 0.819 0.099l-0.085 0.522 0.438-0.325c0.24-0.169 0.48-0.367 0.522-0.438 0.212-0.339 0.311-0.085 0.184 0.424-0.085 0.325-0.113 0.621-0.056 0.663 0.042 0.042 0.423-0.24 0.847-0.635 0.424-0.409 0.819-0.734 0.875-0.734s0.056 0.282 0.014 0.635c-0.056 0.353-0.042 0.635 0.014 0.635s0.423-0.325 0.805-0.706c0.381-0.395 0.748-0.706 0.805-0.706s0.113 0.325 0.113 0.734v0.72l0.353-0.325c0.183-0.169 0.508-0.565 0.72-0.861 0.212-0.311 0.424-0.55 0.48-0.55s0.141 0.367 0.169 0.819c0.127 1.299 0.579 2.16 1.722 3.233 1.285 1.228 2.131 1.891 2.258 1.779 0.042-0.042 0.085-0.311 0.085-0.565v-0.48l0.79 0.635c0.932 0.762 1.101 0.805 0.974 0.226-0.056-0.24-0.042-0.424 0-0.424 0.056 0 0.551 0.424 1.087 0.932 1.355 1.27 2.88 2.216 4.334 2.668l0.339 0.099-0.381-0.663c-0.198-0.381-0.353-0.706-0.325-0.734 0.042-0.028 0.226 0.014 0.438 0.099 0.678 0.254 0.663 0.155-0.127-1.002-0.423-0.621-0.776-1.186-0.776-1.242 0-0.071 0.169-0.085 0.381-0.042 0.452 0.085 0.48 0.155-0.692-1.383-0.776-1.002-0.861-1.327-0.325-1.186l0.353 0.085-0.282-0.819c-0.155-0.438-0.254-0.847-0.212-0.889 0.056-0.042 0.536 0.155 1.101 0.452 0.918 0.466 1.030 0.494 1.186 0.282 0.169-0.212 0.198-0.212 0.494 0.042 1.51 1.27 2.781 2.513 3.515 3.402 0.833 1.059 0.861 1.087 0.762 1.722-0.226 1.524-1.454 3.148-2.851 3.783-0.692 0.325-0.903 0.353-1.99 0.296-0.677-0.042-1.355-0.113-1.51-0.169-0.226-0.085-0.198-0.042 0.099 0.24 0.212 0.198 0.748 0.494 1.2 0.663 1.045 0.395 1.962 0.325 3.204-0.268 1.397-0.678 2.117-1.567 2.724-3.402 0.042-0.127 0.198 0.113 0.353 0.565 0.212 0.565 0.296 1.157 0.311 2.117 0.014 1.256-0.014 1.412-0.452 2.287-0.748 1.51-1.99 2.216-4.051 2.273-0.776 0.028-0.889 0.056-0.692 0.198 0.663 0.494 2.724 0.409 3.797-0.141 1.652-0.833 2.513-2.386 2.513-4.545 0-1.468-0.282-2.4-1.157-3.882-0.381-0.649-0.579-1.157-0.649-1.75-0.141-1.256-0.438-2.103-1.045-3.007-0.565-0.833-0.635-1.115-0.184-0.706 0.254 0.226 0.593 0.325 0.593 0.169 0-0.042-0.099-0.311-0.212-0.593s-0.198-0.536-0.155-0.565c0.028-0.028 0.339 0.169 0.706 0.452 0.79 0.593 0.974 0.621 0.847 0.099-0.155-0.635-0.762-2.188-0.988-2.541-0.212-0.325-0.212-0.339 0.071-0.24 0.169 0.042 0.296 0.042 0.296-0.014 0-0.169-1.51-2.357-1.962-2.851-0.522-0.565-0.522-0.593-0.113-0.593 0.268-0.014 0.24-0.085-0.325-0.593-0.649-0.593-2.019-1.567-2.4-1.708-0.141-0.042 0-0.155 0.395-0.325 0.325-0.127 0.593-0.296 0.593-0.353 0-0.268-1.934-0.72-3.105-0.72-1.129-0.014-1.623 0.099-3.035 0.663-0.155 0.056 0.085-0.24 0.536-0.678 0.438-0.438 0.805-0.847 0.805-0.932 0-0.071-0.141-0.24-0.311-0.367l-0.325-0.226 0.466-0.381c0.536-0.452 0.579-0.734 0.099-0.734-0.424 0-0.438-0.183-0.056-0.72 0.339-0.48 0.268-0.833-0.155-0.833-0.311 0-0.311-0.099-0.028-0.833 0.056-0.141-0.014-0.184-0.296-0.127-0.212 0.042-0.381 0.042-0.381 0.014s0.169-0.367 0.367-0.762c0.522-1.044 0.423-1.186-0.494-0.692zM24.005 16.797c0.819 0.409 1.073 0.438 1.256 0.113 0.113-0.226 0.155-0.212 0.424 0.099 0.663 0.79 1.313 1.877 1.652 2.767l0.353 0.96-1.397-1.355c-0.776-0.734-1.835-1.652-2.343-2.018s-0.903-0.72-0.847-0.79c0.099-0.169 0.113-0.169 0.903 0.226z"></path>
</svg>
