<!-- Generated by IcoMoon.io -->
<svg version="1.1" xmlns="http://www.w3.org/2000/svg" width="32" height="32" viewBox="0 0 32 32">
<title>ph</title>
<path d="M6.28 2.827l0.953 0.84 1.107-0.613-0.493 1.167 0.933 0.867-1.267-0.107-0.54 1.147-0.287-1.233-1.253-0.16 1.087-0.667zM27.867 14.313l0.027 1.267 1.2 0.42-1.2 0.413-0.027 1.267-0.767-1.007-1.213 0.367 0.72-1.040-0.72-1.040 1.213 0.367zM6.98 25.873l0.533 1.147 1.267-0.107-0.927 0.867 0.493 1.167-1.107-0.607-0.96 0.827 0.24-1.247-1.087-0.653 1.26-0.16z"></path>
<path d="M14.593 9.273l-0.413 0.413 0.207 3.133-0.2 0.020-0.38-2.86-0.34 0.333 0.507 2.56c-0.435 0.087-0.819 0.252-1.158 0.48l0.011-0.007-1.447-2.16h-0.48l1.76 2.287c-0.060 0.047-0.112 0.091-0.163 0.136l0.003-0.003-2.073-2.367h-0.587v0.587l2.36 2.067-0.133 0.167-2.287-1.753v0.473l2.167 1.447c-0.227 0.347-0.393 0.733-0.473 1.147l-2.553-0.507-0.34 0.333 2.86 0.38c-0.013 0.067-0.020 0.14-0.020 0.207l-3.133-0.2-0.413 0.413 0.413 0.413 3.133-0.207 0.020 0.207-2.86 0.38 0.333 0.333 2.56-0.507c0.087 0.435 0.252 0.82 0.48 1.158l-0.007-0.011-2.167 1.447v0.48l2.287-1.753c0.047 0.060 0.091 0.112 0.136 0.163l-0.003-0.003-2.36 2.067v0.587h0.593l2.067-2.36 0.167 0.133-1.767 2.287h0.48l1.447-2.167c0.34 0.227 0.733 0.393 1.147 0.473l-0.507 2.56 0.333 0.333 0.38-2.86c0.067 0.013 0.133 0.020 0.207 0.020l-0.2 3.133 0.407 0.413 0.42-0.413-0.207-3.133 0.2-0.020 0.38 2.867 0.34-0.34-0.507-2.56c0.435-0.087 0.82-0.252 1.158-0.48l-0.011 0.007 1.447 2.167h0.48l-1.76-2.287c0.060-0.047 0.112-0.091 0.163-0.136l-0.003 0.003 2.073 2.36h0.587v-0.587l-2.36-2.067 0.133-0.16 2.287 1.753v-0.48l-2.167-1.447c0.227-0.34 0.393-0.733 0.473-1.147l2.553 0.507 0.34-0.333-2.86-0.38c0.013-0.067 0.020-0.133 0.020-0.207l3.133 0.2 0.413-0.407-0.413-0.413-3.133 0.2-0.020-0.2 2.86-0.38-0.333-0.333-2.56 0.5c-0.087-0.435-0.252-0.819-0.48-1.158l0.007 0.011 2.167-1.447v-0.473l-2.287 1.753c-0.047-0.060-0.091-0.112-0.136-0.163l0.003 0.003 2.36-2.067v-0.593h-0.587l-2.067 2.367c-0.049-0.042-0.103-0.086-0.159-0.127l-0.008-0.006 1.76-2.287h-0.48l-1.447 2.16c-0.34-0.227-0.733-0.393-1.147-0.473l0.507-2.553-0.333-0.333-0.38 2.853-0.207-0.020 0.2-3.133z"></path>
</svg>
