<!-- Generated by IcoMoon.io -->
<svg version="1.1" xmlns="http://www.w3.org/2000/svg" width="43" height="32" viewBox="0 0 43 32">
<title>s-cross</title>
<path d="M22.969 29.178l-1.698-1.076-2.272 1.088 0.514-1.937-1.734-1.806 1.997-0.12 1.196-2.201 0.729 1.854 2.476 0.455-1.555 1.268zM27.299 19.73l-0.789-0.359-0.753 0.43 0.12-0.861-0.646-0.586 0.849-0.156 0.359-0.789 0.419 0.765 0.861 0.096-0.598 0.622zM31.126 14.324l-1.734-0.837-1.662 0.933 0.275-1.878-1.411-1.292 1.878-0.335 0.789-1.722 0.909 1.674 1.89 0.215-1.316 1.375zM23.256 6.789l-2.033-1.016-1.973 1.088 0.335-2.224-1.65-1.555 2.236-0.359 0.957-2.033 1.041 1.997 2.248 0.275-1.591 1.603zM15.985 14.611l-2.033-1.196-2.033 1.232 0.514-2.308-1.806-1.555 2.356-0.215 0.921-2.189 0.945 2.177 2.368 0.191-1.782 1.555z"></path>
</svg>
