<!-- Generated by IcoMoon.io -->
<svg version="1.1" xmlns="http://www.w3.org/2000/svg" width="43" height="32" viewBox="0 0 43 32">
<title>s-cross-2</title>
<path d="M19.404 3.598l-0.425 1.296 1.104-0.796 1.094 0.796-0.414-1.296 1.094-0.796h-1.359l-0.414-1.296-0.425 1.296h-1.359zM27.698 9.694l0.913-0.669h-1.137l-0.351-1.073-0.351 1.073h-1.126l0.913 0.669-0.351 1.073 0.913-0.669 0.924 0.669zM12.277 11.075l-0.425-1.296-0.414 1.296h-1.359l1.094 0.796-0.414 1.296 1.094-0.796 1.104 0.796-0.425-1.296 1.104-0.796zM20.572 24.063l-0.488-1.508-0.488 1.508h-1.593l1.285 0.924-0.488 1.519 1.285-0.935 1.285 0.935-0.499-1.519 1.285-0.924z"></path>
</svg>
