<!-- Generated by IcoMoon.io -->
<svg version="1.1" xmlns="http://www.w3.org/2000/svg" width="32" height="32" viewBox="0 0 32 32">
<title>sa</title>
<path d="M29.98 5.62c-0.256 0.185-0.483 0.34-0.506 0.346-0.030 0.006-0.113-0.107-0.197-0.256-0.167-0.316-0.262-0.346-0.477-0.179-0.149 0.119-0.161 0.155-0.161 0.614v0.488l-0.721 0.584c-0.399 0.322-0.733 0.578-0.745 0.566s-0.042-0.214-0.072-0.447c-0.048-0.411-0.048-0.423 0.066-0.363 0.089 0.042 0.131 0.042 0.167-0.018 0.143-0.22-0.346-1.543-0.566-1.543-0.042 0-0.155 0.060-0.244 0.131l-0.167 0.131 0.042 0.768 0.042 0.774-0.292-0.262c-0.334-0.298-0.858-0.625-1.096-0.679-0.143-0.036-0.167-0.018-0.203 0.125-0.042 0.167-0.048 0.161-0.143-0.125-0.060-0.167-0.161-0.417-0.232-0.554-0.113-0.214-0.155-0.256-0.286-0.238-0.083 0.012-0.208 0.089-0.268 0.173-0.119 0.155-0.119 0.173 0.006 1.638 0.072 0.816 0.143 1.602 0.161 1.751 0.036 0.256 0.030 0.268-0.125 0.274-0.322 0.024-2.115 0.983-2.115 1.138 0 0.042 0.030 0.077 0.072 0.077 0.125 0 2.121-1.007 2.15-1.084s0.077 0.149 0.125 0.59l0.024 0.256-0.649 0.572c-0.369 0.316-0.691 0.554-0.733 0.542-0.125-0.048-1.888-1.531-1.912-1.608-0.012-0.042-0.066-0.584-0.119-1.203-0.048-0.625-0.107-1.263-0.131-1.424-0.036-0.274-0.030-0.286 0.083-0.22 0.155 0.077 0.197 0.036 0.197-0.203 0-0.334-0.411-1.34-0.542-1.34-0.030 0-0.113 0.030-0.197 0.066-0.268 0.125-0.28 0.256-0.161 1.99 0.060 0.882 0.101 1.62 0.083 1.638-0.030 0.030-0.578-0.554-0.798-0.852l-0.119-0.161h0.179c0.256 0 0.238-0.125-0.060-0.447-0.304-0.328-0.756-0.62-1.031-0.667-0.185-0.030-0.214-0.018-0.244 0.119-0.095 0.357 0.417 1.12 1.477 2.222l0.685 0.715 0.066 0.828c0.191 2.341 0.322 3.64 0.369 3.693 0.101 0.101 0.22-0.131 0.292-0.578 0.048-0.268 0.066-0.923 0.054-1.835-0.024-1.275-0.012-1.406 0.072-1.346 0.22 0.161 1.245 1.072 1.245 1.108 0 0.018-0.089 0.125-0.203 0.232-0.465 0.447-0.798 1.567-0.554 1.841 0.060 0.066 0.089 0.22 0.089 0.465 0 0.846 0.691 1.614 1.34 1.489 0.328-0.060 0.465-0.25 0.762-1.072 0.238-0.661 0.524-1.001 0.852-1.013 0.226-0.006 0.232 0 0.34 0.316 0.25 0.721 0.488 0.899 1.203 0.917 0.441 0.012 0.518-0.006 0.768-0.155 0.322-0.185 0.536-0.506 0.649-0.965 0.077-0.31 0.012-1.936-0.149-3.634-0.042-0.429-0.066-0.786-0.054-0.798 0.006-0.012 0.197 0.149 0.417 0.357 0.226 0.208 0.578 0.536 0.786 0.727l0.387 0.34 0.131 1.626c0.149 1.787 0.179 2.007 0.268 2.007 0.208 0 0.387-1.358 0.316-2.436l-0.042-0.625 0.25 0.197c0.494 0.393 1.066 1.174 1.293 1.775l0.101 0.262-0.173 0.179c-0.381 0.411-1.745 1.185-2.597 1.489-0.256 0.089-0.286 0.143-0.101 0.191 0.292 0.077 1.322-0.179 1.996-0.488 0.804-0.381 1.239-0.87 1.555-1.775 0.161-0.447 0.167-0.512 0.161-1.567 0-0.608-0.036-1.436-0.077-1.847-0.083-0.852-0.292-2.687-0.334-2.937-0.024-0.149-0.018-0.161 0.095-0.095 0.161 0.083 0.197 0.042 0.185-0.238-0.018-0.417-0.411-1.316-0.578-1.316-0.042 0-0.143 0.054-0.232 0.125-0.137 0.107-0.155 0.161-0.155 0.488 0 0.429 0.095 1.477 0.393 4.319 0.155 1.483 0.203 2.156 0.173 2.436l-0.042 0.393-0.101-0.292c-0.173-0.512-0.661-1.108-1.567-1.918-0.262-0.232-0.286-0.274-0.286-0.524 0-0.298-0.22-3.056-0.268-3.318-0.024-0.149-0.018-0.161 0.095-0.095 0.167 0.083 0.244-0.024 0.197-0.28-0.030-0.161-0.006-0.208 0.149-0.316 0.346-0.25 0.905-1.078 0.727-1.078-0.030 0-0.262 0.149-0.512 0.328zM25.644 7.806c0.381 0.381 0.685 0.709 0.673 0.727-0.018 0.012-0.351 0.298-0.745 0.625l-0.715 0.608-0.042-0.256c-0.024-0.143-0.083-0.673-0.137-1.179s-0.113-1.025-0.131-1.15c-0.036-0.22-0.030-0.226 0.125-0.185 0.131 0.030 0.155 0.018 0.161-0.101 0.006-0.125 0.012-0.125 0.060 0.036 0.030 0.101 0.34 0.465 0.751 0.876zM28.795 8.622c0.054 0.727 0.077 1.34 0.060 1.358-0.030 0.036-0.614-0.465-1.311-1.126-0.226-0.22-0.34-0.363-0.304-0.399 0.155-0.143 1.43-1.185 1.442-1.173 0.006 0.006 0.060 0.608 0.113 1.34zM26.728 9.998c0.042 0.441 0.155 1.501 0.244 2.347 0.119 1.090 0.155 1.579 0.113 1.656-0.113 0.214-0.417 0.345-0.798 0.345-0.524 0-0.685-0.119-0.977-0.733-0.262-0.554-0.346-0.608-0.739-0.524-0.465 0.107-0.846 0.572-1.233 1.501-0.191 0.459-0.459 0.768-0.649 0.768-0.274 0-0.631-0.506-0.751-1.060-0.036-0.185-0.036-0.191 0.161-0.191 0.31 0 0.888-0.167 1.138-0.334 0.584-0.381 0.673-1.12 0.203-1.716l-0.185-0.232 0.238-0.203c0.125-0.113 0.357-0.304 0.506-0.435l0.274-0.232 0.095 0.816c0.060 0.447 0.125 0.834 0.155 0.864 0.083 0.083 0.238-0.197 0.304-0.548 0.030-0.179 0.060-0.62 0.060-0.989v-0.673l0.852-0.715c0.667-0.566 0.852-0.697 0.882-0.62 0.018 0.060 0.066 0.465 0.107 0.905zM22.963 12.393c0.328 0.363 0.31 0.584-0.060 0.768-0.304 0.161-0.935 0.226-0.935 0.107 0-0.161 0.679-1.007 0.804-1.007 0.036 0 0.125 0.060 0.191 0.131z"></path>
<path d="M25.793 11.261c-0.089 0.089-0.089 0.345-0.006 0.566 0.060 0.155 0.042 0.185-0.208 0.417-0.155 0.137-0.435 0.31-0.643 0.387-0.494 0.191-0.536 0.316-0.089 0.268 0.399-0.042 0.882-0.268 1.174-0.554 0.119-0.113 0.274-0.203 0.346-0.203 0.191 0 0.387-0.214 0.334-0.375-0.077-0.25-0.506-0.578-0.762-0.578-0.036 0-0.101 0.030-0.143 0.072z"></path>
<path d="M6.481 5.442c-0.125 0.155-0.137 0.536-0.030 0.87 0.060 0.179 0.25 0.614 0.429 0.971 0.346 0.709 0.393 0.971 0.197 1.168-0.191 0.191-0.679 0.167-1.019-0.048-0.405-0.262-0.59-0.655-0.649-1.37-0.066-0.846-0.256-1.501-0.429-1.501-0.089 0-0.346 0.31-0.346 0.423 0 0.060 0.066 0.31 0.149 0.554 0.203 0.602 0.203 1.144 0 1.555-0.197 0.405-0.405 0.631-0.661 0.709-0.119 0.036-0.125 0.006-0.197-0.661-0.036-0.387-0.083-0.816-0.101-0.947-0.036-0.238-0.030-0.244 0.119-0.22 0.143 0.030 0.155 0.018 0.155-0.173 0-0.232-0.155-0.727-0.351-1.114-0.113-0.208-0.155-0.25-0.286-0.232-0.083 0.012-0.208 0.089-0.268 0.173-0.113 0.149-0.113 0.173 0.006 1.668 0.066 0.828 0.107 1.519 0.095 1.531s-0.119-0.024-0.238-0.077c-0.453-0.22-0.518-0.751-0.238-1.847 0.089-0.351 0.149-0.643 0.131-0.661-0.054-0.054-0.375 0.107-0.566 0.292-0.268 0.256-0.423 0.572-0.756 1.579-0.244 0.739-0.298 0.858-0.447 0.935-0.232 0.119-0.369 0.113-0.554-0.030-0.292-0.226-0.381-1.334-0.131-1.608 0.131-0.143 0.054-0.155-0.143-0.024-0.203 0.143-0.304 0.441-0.304 0.899 0 0.542 0.089 0.834 0.328 1.072 0.173 0.173 0.232 0.197 0.524 0.197 0.56 0 0.709-0.203 1.132-1.555 0.119-0.381 0.256-0.727 0.304-0.762 0.071-0.066 0.071-0.036 0 0.208-0.119 0.405-0.107 1.126 0.030 1.424 0.137 0.31 0.423 0.554 0.751 0.637l0.256 0.072 0.036 0.328c0.018 0.185 0.101 1.031 0.191 1.882 0.083 0.852 0.173 1.573 0.203 1.602 0.077 0.077 0.232-0.214 0.304-0.596 0.066-0.345 0.036-2.835-0.042-3.187-0.030-0.131-0.006-0.167 0.149-0.232 0.256-0.101 0.62-0.53 0.786-0.923 0.077-0.179 0.161-0.328 0.179-0.328s0.066 0.107 0.107 0.244c0.149 0.5 0.691 0.84 1.322 0.84 0.566-0.006 0.959-0.328 1.060-0.864 0.077-0.441-0.024-0.864-0.34-1.388-0.095-0.161-0.191-0.363-0.214-0.459-0.036-0.143-0.024-0.161 0.113-0.161 0.214 0 0.185-0.113-0.149-0.56-0.304-0.399-0.453-0.477-0.596-0.304z"></path>
<path d="M18.353 5.531c-0.488 0.363-0.631 0.822-0.34 1.108 0.185 0.191 0.399 0.161 0.637-0.101 0.197-0.208 0.22-0.387 0.048-0.292-0.066 0.030-0.185 0.060-0.268 0.060-0.214 0-0.203-0.197 0.024-0.56 0.101-0.161 0.179-0.31 0.167-0.34s-0.131 0.024-0.268 0.125z"></path>
<path d="M7.863 5.471c-0.191 0.077-0.262 0.328-0.22 0.745 0.042 0.393 0.482 3.943 0.542 4.39 0.042 0.28 0.036 0.286-0.113 0.286-0.232 0-0.399-0.214-0.399-0.518 0-0.167-0.024-0.256-0.077-0.256-0.077 0-0.381 0.197-0.804 0.518-0.143 0.107-0.292 0.197-0.334 0.197s-0.155-0.119-0.244-0.262c-0.208-0.334-0.524-0.512-0.899-0.512-0.405 0-0.649 0.167-0.828 0.554-0.208 0.441-0.203 0.816 0.024 1.066 0.149 0.167 0.208 0.191 0.554 0.214 0.25 0.018 0.506-0.012 0.721-0.072 0.417-0.119 0.399-0.125 0.399 0.083 0 0.369-0.655 0.894-1.882 1.507-0.673 0.34-1.894 0.876-1.99 0.876-0.024 0-0.083-0.197-0.119-0.429-0.137-0.804 0.018-1.698 0.393-2.275l0.161-0.244-0.191 0.179c-0.274 0.256-0.524 0.667-0.703 1.168-0.131 0.375-0.155 0.542-0.161 1.138l-0.006 0.703-0.179 0.066c-0.095 0.036-0.423 0.137-0.727 0.226s-0.572 0.179-0.596 0.208c-0.024 0.024 0.363 0.036 0.858 0.036l0.899-0.012 0.25 0.185c0.53 0.381 1.316 0.459 2.383 0.244 1.966-0.399 3.413-1.358 3.985-2.633 0.179-0.399 0.304-0.882 0.304-1.191 0-0.101 0.072-0.328 0.155-0.5l0.155-0.316 0.179 0.203c0.238 0.274 0.494 0.322 0.846 0.149 0.149-0.072 0.34-0.208 0.417-0.304 0.179-0.208 0.304-0.733 0.25-1.031-0.042-0.226-0.203-0.435-0.274-0.351-0.066 0.077-0.179 0.596-0.149 0.685 0.060 0.161-0.203 0.345-0.494 0.345-0.25 0-0.393-0.185-0.351-0.447 0.024-0.161 0.012-0.208-0.054-0.208-0.161 0-0.31 0.113-0.518 0.387l-0.203 0.262-0.066-0.548c-0.036-0.304-0.048-0.554-0.024-0.566s0.393-0.197 0.816-0.417c0.518-0.268 0.78-0.435 0.792-0.512 0.036-0.167-0.191-0.095-1.001 0.316l-0.691 0.345-0.131-0.899c-0.072-0.494-0.149-1.007-0.173-1.138-0.036-0.214-0.030-0.232 0.060-0.161 0.25 0.208 0.292-0.173 0.077-0.774-0.137-0.381-0.357-0.768-0.441-0.756-0.024 0-0.101 0.024-0.179 0.054zM7.649 11.517c0.107 0.048 0.31 0.095 0.441 0.107l0.25 0.012-0.024 0.328c-0.030 0.453-0.244 0.858-0.667 1.287-0.81 0.81-2.18 1.364-3.735 1.507-1.048 0.101-1.048 0.101-0.185-0.322 2.121-1.031 2.919-1.739 2.961-2.633 0.012-0.286 0.030-0.334 0.274-0.548l0.262-0.232 0.113 0.203c0.066 0.107 0.203 0.238 0.31 0.292z"></path>
<path d="M15.154 5.716c-0.197 0.232-0.197 0.411 0.012 0.756 0.143 0.256 0.161 0.334 0.161 0.846-0.006 0.643-0.101 0.905-0.482 1.275-0.274 0.268-0.542 0.351-0.983 0.322-0.375-0.030-0.578-0.137-0.792-0.429-0.185-0.238-0.155-0.756 0.077-1.489 0.143-0.447 0.167-0.608 0.119-0.667-0.095-0.119-0.143-0.107-0.369 0.095-0.232 0.203-0.536 0.798-0.804 1.561-0.334 0.935-0.471 1.12-0.828 1.12-0.441-0.006-0.661-0.56-0.566-1.418 0.030-0.238 0.030-0.411 0.006-0.387-0.089 0.095-0.238 0.649-0.274 1.001-0.060 0.685 0.197 1.138 0.691 1.203 0.566 0.077 0.852-0.244 1.197-1.346 0.131-0.411 0.292-0.834 0.363-0.929l0.125-0.179-0.042 0.179c-0.244 1.060-0.256 1.263-0.095 1.608 0.137 0.298 0.256 0.405 0.631 0.572 0.566 0.25 1.34 0.083 1.727-0.375 0.191-0.226 0.447-0.721 0.447-0.864 0-0.060 0.083 0.060 0.185 0.262 0.256 0.536 0.655 0.792 1.209 0.792 0.941-0.006 1.37-0.935 0.899-1.954-0.089-0.185-0.208-0.482-0.268-0.655l-0.113-0.31h0.179c0.095 0 0.173-0.030 0.173-0.060 0-0.036-0.143-0.208-0.316-0.387-0.357-0.369-0.548-0.423-0.643-0.167s0.042 0.751 0.429 1.537c0.375 0.768 0.435 1.066 0.25 1.233-0.28 0.244-0.798 0.203-1.132-0.089-0.375-0.334-0.494-0.691-0.673-2.025-0.060-0.453-0.191-0.816-0.292-0.816-0.030 0-0.125 0.083-0.208 0.185z"></path>
<path d="M22.266 5.65c-0.066 0.066-0.119 0.173-0.119 0.244 0 0.113-0.018 0.107-0.179-0.066-0.119-0.125-0.22-0.179-0.31-0.167-0.22 0.030-0.203 0.22 0.042 0.423 0.125 0.101 0.262 0.28 0.316 0.393l0.089 0.214 0.113-0.357c0.119-0.375 0.274-0.602 0.328-0.465 0.042 0.113 0.256 0.095 0.298-0.024 0.042-0.113-0.173-0.316-0.346-0.316-0.060 0-0.167 0.054-0.232 0.119z"></path>
<path d="M0.405 5.87c-0.25 0.238-0.31 0.334-0.34 0.536-0.048 0.346 0.089 0.554 0.357 0.554 0.22 0 0.488-0.203 0.548-0.411 0.036-0.125 0.030-0.137-0.066-0.101-0.066 0.024-0.185 0.060-0.274 0.077-0.149 0.030-0.167 0.018-0.167-0.137 0-0.095 0.083-0.292 0.179-0.441 0.304-0.459 0.208-0.488-0.238-0.077z"></path>
<path d="M10.722 5.722c-0.113 0.113-0.083 0.232 0.083 0.411l0.155 0.167-0.131 0.214c-0.119 0.191-0.459 0.482-0.929 0.786-0.101 0.066-0.089 0.072 0.066 0.042 0.304-0.066 0.739-0.328 1.019-0.631 0.322-0.346 0.393-0.268 0.173 0.197-0.226 0.488-0.185 0.768 0.119 0.768 0.072 0 0.155-0.030 0.197-0.072 0.089-0.089 0.095-0.346 0.012-0.346-0.030 0-0.060 0.024-0.060 0.060 0 0.030-0.024 0.060-0.060 0.060-0.101 0-0.066-0.155 0.089-0.453 0.083-0.155 0.149-0.316 0.149-0.357 0-0.107-0.357-0.816-0.441-0.87-0.101-0.072-0.363-0.054-0.441 0.024z"></path>
<path d="M22.892 6.436c-0.703 0.244-1.567 0.608-1.662 0.703-0.107 0.107-0.107 0.119-0.012 0.262 0.060 0.095 0.155 0.155 0.244 0.155 0.155 0 0.208-0.149 0.077-0.197-0.149-0.054 0.042-0.155 0.905-0.488 0.471-0.179 0.899-0.369 0.947-0.417 0.083-0.077 0.066-0.089-0.113-0.083-0.113 0-0.286 0.030-0.387 0.066z"></path>
<path d="M14.344 6.812c-0.054 0.066-0.054 0.131 0.006 0.298 0.060 0.161 0.060 0.226 0.006 0.28-0.119 0.119-0.28-0.089-0.28-0.369 0-0.244-0.012-0.262-0.173-0.203-0.066 0.024-0.095 0.113-0.095 0.256 0 0.125-0.036 0.268-0.077 0.328-0.077 0.101-0.083 0.101-0.179 0.006-0.113-0.113-0.125-0.197-0.042-0.411 0.077-0.203-0.018-0.197-0.179 0.006-0.149 0.191-0.131 0.494 0.036 0.679 0.125 0.137 0.423 0.149 0.56 0.024 0.089-0.083 0.107-0.083 0.179 0 0.113 0.137 0.453 0.113 0.56-0.042 0.125-0.173 0.119-0.274-0.024-0.536-0.066-0.125-0.101-0.262-0.083-0.316 0.048-0.113-0.113-0.119-0.214 0z"></path>
<path d="M22.892 8.033c-0.024 0.036-0.024 0.197 0 0.357 0.042 0.316-0.006 0.369-0.173 0.203-0.054-0.054-0.095-0.191-0.095-0.328 0-0.149-0.030-0.232-0.077-0.232-0.137 0-0.22 0.137-0.22 0.363 0 0.238-0.107 0.375-0.232 0.292-0.060-0.030-0.072-0.125-0.054-0.322 0.036-0.304 0-0.334-0.161-0.155-0.143 0.155-0.143 0.471-0.012 0.679 0.077 0.113 0.155 0.155 0.304 0.155 0.107 0 0.232-0.042 0.274-0.089 0.066-0.077 0.089-0.077 0.197 0 0.405 0.286 0.798-0.125 0.548-0.566-0.048-0.083-0.083-0.208-0.089-0.286 0-0.137-0.143-0.185-0.208-0.072z"></path>
<path d="M12.736 9.611c-0.036 0.048-0.072 0.208-0.072 0.357 0 0.22 0.083 0.453 0.393 1.090 0.214 0.453 0.459 1.007 0.536 1.239l0.143 0.429-0.524 0.417c-0.733 0.59-1.269 0.947-1.763 1.185-0.477 0.226-1.036 0.322-1.185 0.197-0.072-0.060-0.012-0.119 0.375-0.399 0.768-0.554 1.376-1.090 1.531-1.352 0.214-0.363 0.197-0.715-0.060-1.346-0.113-0.274-0.208-0.506-0.208-0.518s0.042-0.018 0.089-0.018c0.048 0 0.089-0.030 0.089-0.066 0-0.107-0.53-0.822-0.661-0.894-0.381-0.203-0.393 0.542-0.030 1.406 0.125 0.292 0.256 0.637 0.292 0.768l0.072 0.226-0.399 0.375c-0.214 0.208-0.602 0.518-0.852 0.685l-0.459 0.31 0.042-0.203c0.024-0.107 0.107-0.34 0.185-0.518s0.137-0.334 0.125-0.345c-0.012-0.012-0.131 0.083-0.256 0.208-0.268 0.256-0.441 0.584-0.488 0.917l-0.030 0.232-1.138 0.56c-0.625 0.31-1.501 0.709-1.942 0.888-0.792 0.328-0.798 0.328-0.512 0.334 0.882 0.006 2.162-0.322 3.139-0.798l0.536-0.262 0.089 0.22c0.107 0.274 0.375 0.441 0.715 0.447 0.203 0.006 0.417-0.077 1.048-0.393 0.882-0.447 1.65-1.019 2.002-1.483 0.119-0.161 0.238-0.292 0.262-0.292s0.048 0.077 0.048 0.167c0 0.471 0.357 1.215 0.751 1.561 0.429 0.369 1.209 0.655 1.823 0.655 0.322 0 0.405-0.089 0.405-0.441 0-0.244-0.137-0.357-0.506-0.417-0.399-0.072-0.923-0.226-0.923-0.28 0-0.113 0.506-0.411 0.941-0.554 0.25-0.083 1.12-0.286 1.93-0.453 0.81-0.161 1.537-0.322 1.608-0.363 0.34-0.173 0.614-0.584 0.393-0.59-0.042-0.006-1.114 0-2.383 0-1.275 0-2.311-0.006-2.311-0.024 0-0.060 0.81-0.542 1.114-0.661 0.608-0.238 0.655-0.238 0.739 0 0.042 0.113 0.101 0.208 0.125 0.208 0.077 0 0.238-0.292 0.208-0.381-0.024-0.060 0.048-0.089 0.262-0.113 0.387-0.048 0.506-0.119 0.655-0.411 0.125-0.238 0.125-0.244 0.012-0.393-0.203-0.268-0.81-0.56-1.245-0.596-0.346-0.024-0.399-0.012-0.536 0.113-0.334 0.31-0.369 0.542-0.125 0.81 0.095 0.107 0.101 0.137 0.036 0.161-0.911 0.322-1.733 0.721-2.049 0.995-0.25 0.22-0.387 0.459-0.387 0.679v0.149h2.949l-0.518 0.179c-0.56 0.191-1.239 0.512-1.465 0.697-0.077 0.060-0.161 0.197-0.179 0.304l-0.042 0.197-0.274-0.179c-0.375-0.238-0.5-0.524-0.673-1.561-0.185-1.102-0.298-1.537-0.524-1.984-0.179-0.363-0.751-1.168-0.828-1.168-0.018 0-0.072 0.042-0.113 0.089z"></path>
<path d="M1.37 9.629c-0.101 0.066-0.107 0.393-0.018 0.62 0.054 0.149 0.042 0.179-0.173 0.363-0.232 0.197-0.387 0.286-0.846 0.482-0.328 0.137-0.292 0.238 0.072 0.203 0.357-0.036 1.013-0.345 1.203-0.572 0.077-0.089 0.244-0.191 0.375-0.22 0.208-0.054 0.238-0.083 0.256-0.238 0.030-0.328-0.619-0.804-0.87-0.637z"></path>
<path d="M15.386 9.796c-0.054 0.054-0.077 0.143-0.060 0.197 0.101 0.256 0.101 0.423 0.006 0.423-0.125 0-0.286-0.256-0.274-0.429 0.018-0.214 0.006-0.232-0.119-0.167-0.083 0.042-0.119 0.125-0.119 0.268 0 0.369-0.131 0.5-0.304 0.292-0.060-0.072-0.060-0.149-0.012-0.328 0.060-0.232 0.060-0.232-0.066-0.155-0.191 0.131-0.256 0.423-0.137 0.667 0.131 0.274 0.345 0.328 0.584 0.155 0.095-0.072 0.173-0.101 0.173-0.066 0 0.119 0.304 0.191 0.482 0.113 0.232-0.095 0.28-0.351 0.119-0.625-0.077-0.125-0.113-0.262-0.095-0.328 0.048-0.137-0.048-0.149-0.179-0.018z"></path>
<path d="M2.293 10.779c-0.292 0.113-1.042 0.524-1.543 0.84-0.274 0.173-0.393 0.405-0.203 0.405 0.101 0 2.162-1.001 2.21-1.066 0.042-0.072-0.024-0.226-0.107-0.262-0.042-0.018-0.203 0.024-0.357 0.083z"></path>
<path d="M10.097 11.595c-0.060 0.060-0.101 0.155-0.101 0.208 0 0.137-0.030 0.125-0.203-0.048s-0.363-0.191-0.447-0.048c-0.048 0.089 0 0.161 0.238 0.381 0.22 0.203 0.292 0.31 0.292 0.441 0 0.232 0.077 0.131 0.197-0.268 0.137-0.441 0.197-0.524 0.292-0.429 0.101 0.101 0.28 0.089 0.328-0.030s-0.179-0.316-0.369-0.316c-0.072 0-0.173 0.048-0.226 0.107z"></path>
<path d="M0.536 12.536c-0.411 0.351-0.536 0.733-0.334 1.025 0.191 0.274 0.721 0.095 0.828-0.28 0.036-0.125 0.030-0.137-0.066-0.095-0.066 0.024-0.185 0.060-0.274 0.077-0.149 0.024-0.167 0.006-0.167-0.143 0-0.095 0.083-0.292 0.179-0.441 0.286-0.429 0.22-0.477-0.167-0.143z"></path>
<path d="M13.468 14.109c-0.083 0.036-0.119 0.089-0.101 0.137 0.018 0.054-0.018 0.095-0.089 0.119-0.066 0.018-0.155 0.101-0.197 0.191-0.060 0.137-0.048 0.197 0.089 0.471 0.089 0.173 0.161 0.375 0.161 0.453 0 0.113 0.012 0.119 0.089 0.060 0.119-0.101 0.113-0.363-0.012-0.59-0.131-0.22-0.066-0.304 0.262-0.357 0.191-0.030 0.232-0.066 0.244-0.197 0.012-0.107-0.024-0.185-0.119-0.25-0.149-0.107-0.149-0.107-0.328-0.036z"></path>
<path d="M18.001 14.258c-0.173 0.173-0.149 0.274 0.054 0.226 0.113-0.030 0.107-0.012-0.060 0.137-0.179 0.161-0.22 0.25-0.203 0.417 0.012 0.101 0.286 0.203 0.566 0.203 0.214 0 0.31-0.042 0.625-0.298 0.405-0.322 0.351-0.387-0.113-0.149-0.477 0.244-0.983 0.167-0.53-0.077 0.101-0.054 0.268-0.167 0.363-0.244l0.179-0.149-0.131-0.107c-0.203-0.161-0.566-0.143-0.751 0.042z"></path>
<path d="M28.128 14.734c-0.798 0.268-1.602 0.649-1.62 0.768-0.030 0.143 0.030 0.131 1.15-0.292 1.060-0.393 1.162-0.441 1.162-0.548 0-0.113-0.214-0.095-0.691 0.072z"></path>
<path d="M24.447 24.128c-0.119 0.167-0.119 0.292-0.006 0.441 0.048 0.060 0.089 0.173 0.089 0.244v0.137l-20.521 0.006 0.191 0.173c0.107 0.095 0.375 0.232 0.596 0.31l0.405 0.137 9.668 0.018c9.394 0.012 9.662 0.018 9.662 0.125 0 0.060-0.042 0.191-0.089 0.28-0.113 0.22-0.113 0.322 0.006 0.488 0.113 0.161 0.292 0.167 0.423 0.012 0.083-0.101 0.179-0.119 0.524-0.119 0.274 0.006 0.459 0.036 0.53 0.089 0.149 0.113 0.34 0.113 0.488 0 0.072-0.054 0.262-0.083 0.554-0.089 0.399 0 0.447 0.012 0.554 0.155 0.161 0.197 0.459 0.179 0.566-0.036s0.095-0.864-0.024-1.114c-0.179-0.387-0.381-0.435-1.936-0.435-1.287 0-1.358-0.006-1.358-0.113 0-0.060 0.042-0.143 0.089-0.185 0.101-0.083 0.119-0.369 0.030-0.542-0.083-0.155-0.328-0.143-0.441 0.018zM27.276 25.665c0.072 0.042 0.113 0.125 0.113 0.238v0.179h-0.471c-0.28 0-0.494-0.030-0.518-0.066-0.024-0.042-0.131-0.048-0.286-0.024-0.131 0.018-0.441 0.054-0.679 0.066-0.488 0.036-0.667-0.048-0.667-0.316v-0.137h1.197c0.709 0 1.239 0.024 1.311 0.060z"></path>
</svg>
