<!-- Generated by IcoMoon.io -->
<svg version="1.1" xmlns="http://www.w3.org/2000/svg" width="43" height="32" viewBox="0 0 43 32">
<title>sg</title>
<path d="M18.075 0.321c-1.388 0.007-2.773 0.219-4.212 0.633-6.519 1.923-11.196 7.866-11.196 14.905 0 1.499 0.212 2.949 0.608 4.32l-0.027-0.11c1.909 6.549 7.846 11.251 14.878 11.251 1.532 0 3.013-0.223 4.41-0.639l-0.109 0.028c-6.976-1.47-12.138-7.586-12.138-14.911 0-7.273 5.089-13.355 11.893-14.862l0.101-0.019h0.018c-1.448-0.406-2.838-0.604-4.225-0.597zM26.96 2.902l-0.9 2.723-2.842 0.018 2.303 1.695-0.863 2.741 2.321-1.695 2.339 1.677-0.9-2.741 2.321-1.713h-2.879zM18.486 9.088l-0.9 2.705-2.861 0.036 2.303 1.677-0.846 2.741 2.303-1.695 2.339 1.659-0.882-2.705 2.285-1.713h-2.843zM35.272 9.088l-0.864 2.723-2.879 0.018 2.321 1.695-0.864 2.723 2.303-1.677 2.339 1.659-0.882-2.723 2.303-1.713h-2.879zM32.159 18.411l-0.9 2.705-2.861 0.036 2.303 1.677-0.846 2.723 2.303-1.677 2.339 1.677-0.882-2.741 2.285-1.695h-2.843zM21.634 18.465l-0.882 2.723-2.861 0.018 2.303 1.695-0.864 2.723 2.321-1.677 2.339 1.659-0.9-2.723 2.321-1.713h-2.879z"></path>
</svg>
