<!-- Generated by IcoMoon.io -->
<svg version="1.1" xmlns="http://www.w3.org/2000/svg" width="32" height="32" viewBox="0 0 32 32">
<title>star_common</title>
<path d="M14.365 5.104c-0.852 2.661-1.617 4.852-1.704 4.852-0.070 0-2.209-0.783-4.765-1.757-2.539-0.957-4.661-1.704-4.696-1.67-0.052 0.052 1.165 1.965 2.713 4.278 1.53 2.313 2.783 4.226 2.783 4.261s-1.948 1.217-4.348 2.643c-2.383 1.409-4.348 2.626-4.348 2.678s2.209 0.278 4.922 0.504c2.696 0.209 4.991 0.417 5.096 0.452 0.122 0.035-0.070 1.774-0.539 5.2l-0.713 5.148 0.574-0.557c0.33-0.313 1.948-2 3.583-3.739 1.652-1.757 3.043-3.165 3.113-3.13 0.052 0.017 1.67 1.67 3.565 3.67 2.539 2.678 3.461 3.548 3.496 3.304 0.017-0.174-0.261-2.47-0.626-5.078-0.452-3.2-0.609-4.783-0.487-4.817 0.104-0.035 2.4-0.244 5.113-0.452 2.696-0.226 4.904-0.452 4.904-0.504s-1.948-1.252-4.348-2.678c-2.383-1.426-4.348-2.609-4.348-2.643 0-0.017 1.252-1.948 2.783-4.261s2.748-4.243 2.713-4.278c-0.035-0.052-2.157 0.713-4.696 1.67-2.557 0.974-4.696 1.757-4.765 1.757-0.087 0-0.835-2.139-1.67-4.748-0.835-2.591-1.583-4.783-1.635-4.852-0.070-0.052-0.817 2.070-1.67 4.748z"></path>
</svg>
