<!-- Generated by IcoMoon.io -->
<svg version="1.1" xmlns="http://www.w3.org/2000/svg" width="32" height="32" viewBox="0 0 32 32">
<title>tj</title>
<path d="M15.589 3.886l-0.257 0.822-1.819 0.103 0.699 0.493c0.38 0.277 0.689 0.555 0.689 0.627s-0.113 0.463-0.247 0.863c-0.288 0.843-0.298 0.843 0.648 0.134l0.555-0.411 0.319 0.216c0.175 0.123 0.493 0.36 0.709 0.524 0.442 0.339 0.452 0.308 0.175-0.493-0.113-0.329-0.206-0.678-0.206-0.781s0.288-0.391 0.678-0.678l0.678-0.493-1.799-0.103-0.555-1.645-0.267 0.822zM7.663 6.065l-0.277 0.843-1.758 0.062 0.678 0.483c0.37 0.277 0.678 0.535 0.678 0.586s-0.093 0.401-0.216 0.781c-0.113 0.38-0.195 0.709-0.175 0.73 0.031 0.021 0.329-0.175 0.689-0.432 0.37-0.267 0.689-0.432 0.761-0.391s0.37 0.257 0.668 0.483c0.308 0.216 0.565 0.38 0.596 0.36 0.021-0.031-0.051-0.308-0.154-0.627-0.329-0.956-0.339-0.925 0.442-1.501l0.709-0.514-1.809-0.062-0.555-1.645-0.278 0.843zM23.524 6.065l-0.257 0.802-1.82 0.062 0.709 0.514c0.781 0.576 0.771 0.545 0.442 1.501-0.103 0.319-0.175 0.596-0.154 0.627 0.031 0.021 0.288-0.144 0.596-0.36 0.298-0.226 0.596-0.442 0.668-0.483s0.391 0.123 0.761 0.391c0.36 0.257 0.658 0.452 0.689 0.432 0.021-0.021-0.062-0.35-0.175-0.73-0.123-0.38-0.216-0.73-0.216-0.781s0.308-0.308 0.678-0.586l0.678-0.483-1.758-0.062-0.267-0.812c-0.154-0.452-0.288-0.822-0.298-0.822s-0.134 0.36-0.277 0.792zM14.931 11.318c-1.049 0.38-1.655 1.038-1.933 2.159-0.134 0.524-0.144 0.74-0.051 1.203 0.062 0.308 0.164 0.565 0.216 0.565s0.092-0.041 0.092-0.103c0-0.164 0.627-0.822 0.935-0.987 0.432-0.216 0.874-0.185 1.059 0.082 0.144 0.195 0.165 0.709 0.165 3.526 0 2.971-0.021 3.32-0.185 3.567-0.668 1.018-2.364 1.429-3.567 0.863-0.576-0.267-1.1-0.74-1.357-1.234l-0.165-0.319-0.123 0.524c-0.319 1.398-1.336 2.282-2.724 2.375-1.090 0.082-1.994-0.37-2.724-1.357-0.144-0.195-0.144-0.195-0.154 0.062-0.010 0.802 0.678 1.82 1.552 2.303 0.493 0.277 0.648 0.308 1.429 0.308 0.699 0 0.956-0.051 1.295-0.226 0.678-0.36 1.038-0.72 1.357-1.357l0.298-0.606 0.37 0.442c1.306 1.552 3.814 1.388 4.903-0.319l0.278-0.442 0.319 0.493c0.555 0.843 1.46 1.336 2.498 1.347 0.884 0 1.491-0.257 2.169-0.935l0.586-0.586 0.123 0.37c0.072 0.206 0.35 0.617 0.637 0.915 1.737 1.84 4.78 0.853 5.15-1.665l0.062-0.411-0.175 0.257c-0.411 0.565-0.658 0.792-1.172 1.069-1.706 0.935-3.896-0.051-4.317-1.943l-0.123-0.555-0.288 0.442c-0.298 0.483-0.946 0.977-1.521 1.172-1.018 0.349-2.364 0.021-3.094-0.74l-0.36-0.38v-3.444c0-3.331 0.010-3.454 0.206-3.608 0.257-0.185 0.843-0.123 1.234 0.134 0.164 0.103 0.421 0.391 0.576 0.627l0.278 0.452 0.123-0.535c0.226-0.925-0.082-2.056-0.75-2.745-0.781-0.822-2.076-1.131-3.125-0.761zM17.11 12.109c0.493 0.288 0.915 0.833 1.069 1.367l0.103 0.329-0.432-0.216c-0.534-0.277-1.305-0.226-1.655 0.103l-0.247 0.236-0.308-0.226c-0.442-0.329-1.192-0.38-1.686-0.123-0.463 0.236-0.504 0.134-0.195-0.473 0.267-0.514 0.822-1.028 1.306-1.213 0.586-0.216 1.48-0.123 2.046 0.216zM3.191 12.006l-0.226 0.761-1.789 0.062 0.668 0.493c0.37 0.278 0.678 0.535 0.699 0.576 0.010 0.041-0.092 0.411-0.236 0.833-0.144 0.411-0.247 0.771-0.226 0.781 0.021 0.021 0.349-0.195 0.73-0.473l0.689-0.504 0.689 0.504c0.37 0.277 0.699 0.493 0.709 0.473 0.021-0.010-0.082-0.37-0.226-0.781s-0.257-0.781-0.257-0.812c0-0.031 0.329-0.298 0.73-0.576l0.72-0.514-1.83-0.062-0.236-0.761c-0.134-0.421-0.277-0.771-0.308-0.771-0.041 0-0.175 0.349-0.298 0.771zM27.955 12.006l-0.236 0.761-1.83 0.062 0.72 0.514c0.401 0.277 0.73 0.545 0.73 0.576s-0.113 0.401-0.257 0.812-0.247 0.771-0.226 0.781c0.010 0.021 0.339-0.195 0.709-0.473l0.689-0.504 0.689 0.504c0.38 0.277 0.709 0.493 0.73 0.473 0.021-0.010-0.082-0.37-0.226-0.781-0.144-0.421-0.247-0.792-0.236-0.833 0.021-0.041 0.329-0.298 0.699-0.576l0.668-0.493-1.799-0.062-0.216-0.761c-0.123-0.421-0.257-0.771-0.298-0.771-0.031 0-0.175 0.349-0.308 0.771zM1.937 19.953l-0.257 0.791-0.853 0.031c-0.463 0.021-0.833 0.072-0.812 0.123 0.021 0.041 0.319 0.298 0.668 0.555l0.637 0.463-0.247 0.74c-0.144 0.411-0.257 0.781-0.257 0.833 0 0.072 0.586-0.319 1.285-0.853 0.062-0.041 0.411 0.144 0.802 0.432 0.38 0.277 0.709 0.504 0.73 0.504 0.031 0-0.062-0.329-0.206-0.74-0.134-0.401-0.247-0.792-0.247-0.853s0.308-0.339 0.689-0.627l0.699-0.504-1.84-0.103-0.236-0.761c-0.123-0.411-0.247-0.771-0.267-0.792-0.010-0.021-0.144 0.319-0.288 0.761zM29.281 19.922l-0.257 0.822-1.84 0.103 0.699 0.504c0.38 0.288 0.689 0.565 0.689 0.627s-0.113 0.452-0.247 0.853c-0.144 0.411-0.236 0.74-0.206 0.74 0.021 0 0.35-0.226 0.73-0.504 0.391-0.288 0.74-0.473 0.802-0.432 0.699 0.535 1.285 0.925 1.285 0.853 0-0.051-0.113-0.421-0.257-0.833l-0.247-0.74 0.637-0.463c0.349-0.257 0.648-0.514 0.668-0.555 0.021-0.051-0.35-0.103-0.812-0.123l-0.843-0.031-0.555-1.645-0.247 0.822z"></path>
<path d="M14.314 24.989c0.051 0.678 0.288 1.028 0.935 1.347 0.463 0.226 0.534 0.236 0.977 0.123 0.771-0.206 1.244-0.781 1.244-1.521v-0.391l-0.185 0.308c-0.113 0.164-0.267 0.37-0.35 0.442-0.134 0.113-0.175 0.093-0.226-0.134-0.103-0.411-0.432-0.668-0.833-0.668-0.432 0-0.771 0.298-0.771 0.668 0 0.432-0.288 0.257-0.658-0.411l-0.175-0.308 0.041 0.545zM9.688 25.061c-0.319 0.134-0.442 0.329-0.442 0.678 0 0.38-0.308 0.154-0.658-0.473l-0.175-0.308 0.041 0.545c0.031 0.339 0.123 0.658 0.247 0.822 0.925 1.234 2.919 0.617 2.899-0.894 0-0.422-0.010-0.442-0.103-0.216-0.113 0.288-0.493 0.72-0.627 0.72-0.051 0-0.072-0.031-0.041-0.082 0.021-0.041-0.021-0.216-0.092-0.391-0.175-0.421-0.607-0.586-1.049-0.401zM21.489 25.031c-0.319 0.113-0.514 0.38-0.524 0.678 0 0.339-0.206 0.247-0.514-0.226-0.288-0.442-0.38-0.329-0.267 0.308 0.154 0.802 1.12 1.378 1.974 1.162 0.761-0.195 1.408-1.172 1.172-1.768-0.072-0.175-0.093-0.185-0.093-0.051-0.010 0.103-0.144 0.329-0.308 0.514l-0.298 0.329-0.062-0.319c-0.123-0.524-0.596-0.812-1.079-0.627zM11.559 27.385c-1.439 0.082-4.112 0.36-4.544 0.473-0.206 0.041-0.236 0.123-0.236 0.565v0.514l0.391-0.062c2.971-0.452 7.638-0.648 11.636-0.473 2.364 0.093 4.924 0.308 5.828 0.473l0.339 0.062v-0.514c0-0.606 0.113-0.555-1.85-0.781-3.063-0.349-8.069-0.463-11.564-0.257z"></path>
</svg>
