<!-- Generated by IcoMoon.io -->
<svg version="1.1" xmlns="http://www.w3.org/2000/svg" width="43" height="32" viewBox="0 0 43 32">
<title>tm</title>
<path d="M15.864-0.253l-0.531 1.622-1.652 0.030 1.327 1.032-0.472 1.622 1.357-0.973 1.357 0.944-0.501-1.622 1.357-1.091h-1.681zM28.842 0.249c6.283 7.876 5.84 16.459 2.183 21.591-3.54 5.486-13.332 9.439-21.562 5.486 5.604 6.106 19.94 6.371 26.429-2.271 4.867-7.551 2.684-16.725-7.050-24.807zM23.533 5.647l-0.56 1.622-1.652 0.029 1.327 1.032-0.442 1.622 1.327-0.973 1.386 0.973-0.501-1.652 1.298-1.032-1.652-0.029zM15.893 7.8l-0.531 1.622-1.652 0.030 1.327 1.032-0.472 1.652 1.357-1.003 1.357 0.973-0.501-1.622 1.327-1.062h-1.681zM6.809 9.953l-0.531 1.622-1.652 0.059 1.327 1.003-0.472 1.652 1.357-1.003 1.357 0.973-0.501-1.622 1.327-1.062h-1.652zM15.333 15.882l-0.531 1.622-1.652 0.059 1.327 1.003-0.472 1.652 1.357-1.003 1.386 0.973-0.501-1.622 1.298-1.062h-1.652z"></path>
</svg>
