<!-- Generated by IcoMoon.io -->
<svg version="1.1" xmlns="http://www.w3.org/2000/svg" width="43" height="32" viewBox="0 0 43 32">
<title>tv</title>
<path d="M33.264 0.123l-0.733 2.13h-2.372l1.923 1.311-0.733 2.13 1.915-1.32 1.923 1.32-0.733-2.13 1.924-1.311h-2.389zM25.44 5.945l0.742 2.122-1.932 1.32h2.381l0.733 2.122 0.733-2.122h2.381l-1.932-1.32 0.742-2.122-1.924 1.311zM19.541 7.955l0.733 2.13-1.924 1.311h2.389l0.725 2.131 0.733-2.131h2.372l-1.923-1.311 0.742-2.13-1.924 1.32zM33.264 13.251l-0.733 2.131h-2.372l1.923 1.311-0.733 2.131 1.915-1.32 1.923 1.32-0.733-2.131 1.924-1.311h-2.389zM27.278 17.098l-0.733 2.13h-2.363l1.924 1.311-0.742 2.131 1.923-1.32 1.924 1.32-0.733-2.131 1.923-1.311h-2.381zM12.537 17.659l0.733 2.122-1.923 1.32h2.381l0.733 2.122 0.733-2.122h2.372l-1.924-1.32 0.742-2.122-1.923 1.311zM19.558 22.722l0.716 2.139-1.924 1.311h2.389l0.742 2.122 0.733-2.13h2.372l-1.924-1.311 0.742-2.13-1.923 1.311zM12.537 24.447l0.733 2.13-1.923 1.311h2.381l0.742 2.139 0.733-2.13h2.372l-1.932-1.328 0.742-2.122-1.923 1.311zM7.594 25.56l-0.733 2.122h-2.381l1.932 1.32-0.742 2.122 1.924-1.311 1.923 1.311-0.742-2.122 1.932-1.303h-2.381z"></path>
</svg>
