<!-- Generated by IcoMoon.io -->
<svg version="1.1" xmlns="http://www.w3.org/2000/svg" width="43" height="32" viewBox="0 0 43 32">
<title>uz</title>
<path d="M9.455 7.752c-4.238 0-7.673 3.436-7.673 7.673s3.436 7.673 7.673 7.673c-4.576-3.254-5.707-4.345-5.734-7.538s0.752-4.419 5.734-7.809zM26.31 7.787l-0.163 0.501 0.001 0.001-0.165 0.501-1.062 0.023 0.091 0.072c0.051 0.037 0.242 0.177 0.426 0.31 0.182 0.13 0.331 0.242 0.331 0.247s-0.072 0.231-0.161 0.503c-0.091 0.272-0.161 0.498-0.158 0.501 0.002 0 0.198-0.137 0.433-0.308l0.426-0.312 0.074 0.054c0.040 0.028 0.228 0.165 0.422 0.303 0.191 0.14 0.352 0.245 0.354 0.233 0.005-0.009-0.061-0.223-0.145-0.473s-0.151-0.468-0.149-0.489c0-0.019 0.191-0.172 0.424-0.338l0.421-0.303-0.536-0.007-0.536-0.005-0.166-0.508-0.163-0.505zM32.577 7.787l-0.163 0.501 0.001 0.001-0.165 0.501-1.062 0.023 0.091 0.072c0.051 0.037 0.242 0.177 0.426 0.31 0.182 0.13 0.331 0.242 0.331 0.247s-0.072 0.231-0.161 0.503c-0.091 0.272-0.161 0.498-0.158 0.501 0.002 0 0.198-0.137 0.433-0.308l0.426-0.312 0.074 0.054c0.040 0.028 0.228 0.165 0.422 0.303 0.191 0.14 0.352 0.245 0.354 0.233 0.005-0.009-0.061-0.223-0.145-0.473s-0.151-0.468-0.149-0.489c0-0.019 0.191-0.172 0.424-0.338l0.422-0.303-0.536-0.007-0.536-0.005-0.166-0.508-0.163-0.505zM38.577 7.787l-0.163 0.501 0.001 0.001-0.165 0.501-1.062 0.023 0.091 0.072c0.051 0.037 0.242 0.177 0.426 0.31 0.182 0.13 0.331 0.242 0.331 0.247s-0.072 0.231-0.161 0.503c-0.091 0.272-0.161 0.498-0.158 0.501 0.002 0 0.198-0.137 0.433-0.308l0.426-0.312 0.074 0.054c0.040 0.028 0.228 0.165 0.422 0.303 0.191 0.14 0.352 0.245 0.354 0.233 0.005-0.009-0.061-0.223-0.145-0.473s-0.151-0.468-0.149-0.489c0-0.019 0.191-0.172 0.424-0.338l0.422-0.303-0.536-0.007-0.536-0.005-0.166-0.508-0.163-0.505zM20.177 13.92l-0.163 0.501 0.001 0.001-0.165 0.501-1.062 0.023 0.091 0.072c0.051 0.037 0.242 0.177 0.426 0.31 0.182 0.13 0.331 0.242 0.331 0.247s-0.072 0.231-0.161 0.503c-0.091 0.272-0.161 0.498-0.158 0.501 0.002 0 0.198-0.137 0.433-0.308l0.426-0.312 0.074 0.054c0.040 0.028 0.228 0.165 0.422 0.303 0.191 0.14 0.352 0.245 0.354 0.233 0.005-0.009-0.061-0.224-0.145-0.473s-0.151-0.468-0.149-0.489c0-0.019 0.191-0.172 0.424-0.338l0.421-0.303-0.536-0.007-0.536-0.005-0.166-0.508-0.163-0.505zM26.31 13.92l-0.163 0.501 0.001 0.001-0.165 0.501-1.062 0.023 0.091 0.072c0.051 0.037 0.242 0.177 0.426 0.31 0.182 0.13 0.331 0.242 0.331 0.247s-0.072 0.231-0.161 0.503c-0.091 0.272-0.161 0.498-0.158 0.501 0.002 0 0.198-0.137 0.433-0.308l0.426-0.312 0.074 0.054c0.040 0.028 0.228 0.165 0.422 0.303 0.191 0.14 0.352 0.245 0.354 0.233 0.005-0.009-0.061-0.224-0.145-0.473s-0.151-0.468-0.149-0.489c0-0.019 0.191-0.172 0.424-0.338l0.421-0.303-0.536-0.007-0.536-0.005-0.166-0.508-0.163-0.505zM32.577 13.92l-0.163 0.501 0.001 0.001-0.165 0.501-1.062 0.023 0.091 0.072c0.051 0.037 0.242 0.177 0.426 0.31 0.182 0.13 0.331 0.242 0.331 0.247s-0.072 0.231-0.161 0.503c-0.091 0.272-0.161 0.498-0.158 0.501 0.002 0 0.198-0.137 0.433-0.308l0.426-0.312 0.074 0.054c0.040 0.028 0.228 0.165 0.422 0.303 0.191 0.14 0.352 0.245 0.354 0.233 0.005-0.009-0.061-0.224-0.145-0.473s-0.151-0.468-0.149-0.489c0-0.019 0.191-0.172 0.424-0.338l0.422-0.303-0.536-0.007-0.536-0.005-0.166-0.508-0.163-0.505zM38.577 13.92l-0.163 0.501 0.001 0.001-0.165 0.501-1.062 0.023 0.091 0.072c0.051 0.037 0.242 0.177 0.426 0.31 0.182 0.13 0.331 0.242 0.331 0.247s-0.072 0.231-0.161 0.503c-0.091 0.272-0.161 0.498-0.158 0.501 0.002 0 0.198-0.137 0.433-0.308l0.426-0.312 0.074 0.054c0.040 0.028 0.228 0.165 0.422 0.303 0.191 0.14 0.352 0.245 0.354 0.233 0.005-0.009-0.061-0.224-0.145-0.473s-0.151-0.468-0.149-0.489c0-0.019 0.191-0.172 0.424-0.338l0.422-0.303-0.536-0.007-0.536-0.005-0.166-0.508-0.163-0.505zM14.043 20.054l-0.163 0.501 0.001 0.001-0.165 0.501-1.062 0.024 0.091 0.072c0.051 0.037 0.242 0.177 0.426 0.31 0.182 0.13 0.331 0.242 0.331 0.247s-0.072 0.231-0.161 0.503c-0.091 0.272-0.161 0.498-0.158 0.501 0.002 0 0.198-0.137 0.433-0.308l0.426-0.312 0.074 0.054c0.040 0.028 0.228 0.165 0.422 0.303 0.191 0.14 0.352 0.245 0.354 0.233 0.005-0.009-0.061-0.224-0.145-0.473s-0.151-0.468-0.149-0.489c0-0.019 0.191-0.172 0.424-0.338l0.421-0.303-0.536-0.007-0.536-0.005-0.165-0.508-0.163-0.505zM20.177 20.054l-0.163 0.501 0.001 0.001-0.165 0.501-1.062 0.023 0.091 0.072c0.051 0.037 0.242 0.177 0.426 0.31 0.182 0.13 0.331 0.242 0.331 0.247s-0.072 0.231-0.161 0.503c-0.091 0.272-0.161 0.498-0.158 0.501 0.002 0 0.198-0.137 0.433-0.308l0.426-0.312 0.074 0.054c0.040 0.028 0.228 0.165 0.422 0.303 0.191 0.14 0.352 0.245 0.354 0.233 0.005-0.009-0.061-0.224-0.145-0.473s-0.151-0.468-0.149-0.489c0-0.019 0.191-0.172 0.424-0.338l0.421-0.303-0.536-0.007-0.536-0.005-0.166-0.508-0.163-0.505zM26.31 20.054l-0.163 0.501 0.001 0.001-0.165 0.501-1.062 0.023 0.091 0.072c0.051 0.037 0.242 0.177 0.426 0.31 0.182 0.13 0.331 0.242 0.331 0.247s-0.072 0.231-0.161 0.503c-0.091 0.272-0.161 0.498-0.158 0.501 0.002 0 0.198-0.137 0.433-0.308l0.426-0.312 0.074 0.054c0.040 0.028 0.228 0.165 0.422 0.303 0.191 0.14 0.352 0.245 0.354 0.233 0.005-0.009-0.061-0.224-0.145-0.473s-0.151-0.468-0.149-0.489c0-0.019 0.191-0.172 0.424-0.338l0.421-0.303-0.536-0.007-0.536-0.005-0.166-0.508-0.163-0.505zM32.577 20.054l-0.163 0.501 0.001 0.001-0.165 0.501-1.062 0.023 0.091 0.072c0.051 0.037 0.242 0.177 0.426 0.31 0.182 0.13 0.331 0.242 0.331 0.247s-0.072 0.231-0.161 0.503c-0.091 0.272-0.161 0.498-0.158 0.501 0.002 0 0.198-0.137 0.433-0.308l0.426-0.312 0.074 0.054c0.040 0.028 0.228 0.165 0.422 0.303 0.191 0.14 0.352 0.245 0.354 0.233 0.005-0.009-0.061-0.224-0.145-0.473s-0.151-0.468-0.149-0.489c0-0.019 0.191-0.172 0.424-0.338l0.422-0.303-0.536-0.007-0.536-0.005-0.166-0.508-0.163-0.505zM38.577 20.054l-0.163 0.501 0.001 0.001-0.165 0.501-1.062 0.023 0.091 0.072c0.051 0.037 0.242 0.177 0.426 0.31 0.182 0.13 0.331 0.242 0.331 0.247s-0.072 0.231-0.161 0.503c-0.091 0.272-0.161 0.498-0.158 0.501 0.002 0 0.198-0.137 0.433-0.308l0.426-0.312 0.074 0.054c0.040 0.028 0.228 0.165 0.422 0.303 0.191 0.14 0.352 0.245 0.354 0.233 0.005-0.009-0.061-0.224-0.145-0.473s-0.151-0.468-0.149-0.489c0-0.019 0.191-0.172 0.424-0.338l0.422-0.303-0.536-0.007-0.536-0.005-0.166-0.508-0.163-0.505z"></path>
</svg>
