<!-- Generated by IcoMoon.io -->
<svg version="1.1" xmlns="http://www.w3.org/2000/svg" width="43" height="32" viewBox="0 0 43 32">
<title>ve</title>
<path d="M18.498 9.477l-0.356 1.812-1.823 0.296 1.613 0.898-0.282 1.825 1.353-1.256 1.648 0.832-0.777-1.675 1.301-1.311-1.833 0.221-0.845-1.642zM24.305 9.477l-0.845 1.642-1.833-0.221 1.301 1.311-0.777 1.675 1.648-0.832 1.353 1.256-0.282-1.825 1.613-0.898-1.823-0.296-0.356-1.812zM12.847 11.483l0.376 1.808-1.564 0.981 1.835 0.201 0.449 1.791 0.758-1.683 1.842 0.126-1.367-1.242 0.689-1.713-1.603 0.916-1.416-1.185zM29.955 11.483l-1.416 1.185-1.603-0.916 0.689 1.713-1.367 1.242 1.842-0.126 0.758 1.683 0.449-1.791 1.835-0.201-1.564-0.981 0.376-1.808zM11.141 14.671l-1.252 1.357-1.707-0.703 0.903 1.61-1.196 1.407 1.811-0.361 0.968 1.572 0.216-1.834 1.795-0.435-1.677-0.772 0.141-1.841zM31.661 14.671l0.141 1.841-1.677 0.772 1.795 0.435 0.216 1.834 0.968-1.572 1.811 0.361-1.196-1.407 0.903-1.61-1.707 0.703-1.253-1.357zM7.788 18.729l-0.636 1.734-1.846 0.007 1.452 1.14-0.564 1.758 1.533-1.029 1.498 1.080-0.505-1.776 1.49-1.090-1.845-0.069-0.577-1.754zM35.014 18.729l-0.577 1.754-1.845 0.069 1.49 1.090-0.505 1.776 1.498-1.080 1.533 1.029-0.564-1.758 1.452-1.14-1.846-0.007-0.635-1.734z"></path>
</svg>
