<!-- Generated by IcoMoon.io -->
<svg version="1.1" xmlns="http://www.w3.org/2000/svg" width="31" height="32" viewBox="0 0 31 32">
<title>vu</title>
<path d="M12.040 0.594c-1.573 0.277-3.771 1.092-5.14 1.908-1.558 0.932-4.034 3.364-4.893 4.805-1.427 2.432-1.98 4.674-1.849 7.47 0.087 1.966 0.393 3.291 1.107 4.878 1.573 3.451 4.864 6.13 8.897 7.237 1.747 0.481 4.645 0.481 6.334 0 5.155-1.456 8.824-5.752 9.203-10.776 0.087-1.092-0.015-1.267-0.451-0.815-0.131 0.117-0.233 0.393-0.233 0.597 0 0.714-0.466 2.17-1.063 3.32-1.194 2.315-3.495 4.106-6.305 4.907-0.932 0.262-1.514 0.32-3.043 0.32-2.359-0.015-3.422-0.248-5.461-1.252-1.311-0.655-1.704-0.932-2.767-2.010-1.369-1.369-2.010-2.344-2.592-3.961-0.349-0.961-0.393-1.252-0.393-3.102 0-1.747 0.058-2.17 0.335-2.985 0.815-2.315 2.738-4.601 4.835-5.781 5.242-2.942 11.533-1.66 15.246 3.087 1.98 2.534 2.738 5.024 2.388 7.951-0.568 4.718-2.971 8.227-6.931 10.179-1.354 0.655-3.247 1.238-4.514 1.383-1.5 0.175-1.383-0.015-1.383 2.141v1.908l1.281-0.087c4.31-0.306 9.218-2.825 12.043-6.189 2.257-2.679 3.378-5.504 3.524-8.854 0.291-6.364-2.985-12.319-8.184-14.882-2.985-1.471-6.713-1.995-9.989-1.398z"></path>
<path d="M22.641 11.107c-0.073 0.102-0.087 0.306-0.029 0.451 0.044 0.16 0.015 0.32-0.073 0.379s-0.146-0.087-0.146-0.349c0-0.655-0.291-0.553-0.306 0.087-0.015 0.408-0.044 0.451-0.087 0.189-0.087-0.451-0.335-0.743-0.335-0.393 0 0.131-0.058 0.248-0.146 0.248-0.073 0-0.146-0.073-0.146-0.146 0-0.087-0.073-0.146-0.16-0.146-0.116 0-0.146 0.204-0.087 0.582 0.102 0.786-0.131 0.888-0.248 0.102-0.087-0.524-0.131-0.568-0.262-0.349-0.073 0.16-0.116 0.466-0.058 0.699 0.044 0.218 0.015 0.451-0.058 0.495-0.087 0.058-0.146-0.087-0.146-0.32 0-0.218-0.058-0.495-0.131-0.612-0.204-0.306-0.335 0.058-0.277 0.743 0.029 0.335-0.015 0.626-0.102 0.655-0.073 0.015-0.146-0.189-0.16-0.466 0-0.291-0.087-0.597-0.204-0.699-0.146-0.146-0.175-0.029-0.102 0.655 0.058 0.626 0.029 0.845-0.131 0.903s-0.204-0.073-0.204-0.568c0-0.349-0.058-0.684-0.146-0.728-0.218-0.146-0.335 0.612-0.16 1.121 0.131 0.349 0.116 0.481-0.015 0.582-0.146 0.073-0.218-0.087-0.277-0.626-0.116-0.83-0.233-1.019-0.422-0.714-0.189 0.291-0.175 0.786 0.029 1.238 0.146 0.306 0.131 0.422-0.073 0.626-0.233 0.218-0.248 0.189-0.262-0.481 0-0.408-0.058-0.859-0.131-1.019-0.102-0.277-0.131-0.262-0.277 0.117-0.087 0.233-0.16 0.495-0.175 0.582 0 0.102-0.073 0.015-0.146-0.189-0.146-0.335-0.16-0.349-0.306-0.087s-0.102 1.398 0.087 1.835c0.058 0.131-0.015 0.291-0.175 0.379-0.233 0.16-0.262 0.131-0.204-0.248 0.073-0.539-0.087-1.442-0.262-1.442-0.248 0-0.335 0.757-0.189 1.485 0.102 0.553 0.102 0.743-0.058 0.859-0.146 0.131-0.189 0.015-0.204-0.612 0-0.815-0.175-1.456-0.306-1.209-0.204 0.364-0.248 1.005-0.117 1.544 0.131 0.466 0.131 0.641-0.029 0.786-0.175 0.175-0.204 0.073-0.204-0.597 0-0.917-0.277-1.383-0.437-0.743-0.044 0.218-0.058 0.743 0 1.18 0.058 0.539 0.029 0.815-0.102 0.917-0.146 0.131-0.189-0.015-0.175-0.699 0-0.466-0.058-0.903-0.117-0.961-0.248-0.262-0.408 0.349-0.335 1.281 0.058 0.553 0.029 1.005-0.044 1.063-0.087 0.044-0.146-0.233-0.131-0.67 0-0.408-0.073-0.815-0.16-0.903-0.146-0.146-0.16-0.131-0.364 0.539-0.044 0.102 0 0.451 0.058 0.757 0.102 0.408 0.087 0.626-0.044 0.743-0.131 0.146-0.175-0.044-0.16-0.845 0-0.553-0.029-0.961-0.073-0.903s-0.175 0.116-0.262 0.131c-0.524 0.044-0.539 0.058-0.364 0.233 0.146 0.146 0.218 0.146 0.335-0.029 0.131-0.175 0.131-0.16 0.058 0.073-0.058 0.16-0.16 0.481-0.218 0.728-0.058 0.233-0.117 0.32-0.131 0.175-0.015-0.131-0.073-0.248-0.16-0.248-0.233 0-0.349 0.757-0.189 1.34 0.117 0.422 0.102 0.582-0.044 0.714-0.146 0.116-0.189 0.015-0.233-0.553-0.058-0.961-0.335-0.757-0.335 0.262 0 0.728-0.058 0.888-0.568 1.529-0.917 1.15-0.917 1.194 0 0.335 0.612-0.597 1.019-0.859 1.412-0.917 0.524-0.102 0.757-0.379 0.306-0.379-0.117 0-0.175-0.073-0.131-0.146 0.058-0.087 0.16-0.116 0.233-0.058 0.233 0.131 0.888-0.073 0.772-0.248-0.044-0.087-0.218-0.116-0.379-0.087-0.218 0.058-0.248 0.044-0.117-0.116 0.087-0.102 0.277-0.16 0.437-0.116 0.364 0.102 1.019-0.058 1.019-0.248 0-0.087-0.204-0.146-0.451-0.146s-0.408-0.058-0.349-0.146c0.044-0.073 0.175-0.102 0.291-0.044 0.131 0.044 0.451 0.029 0.728-0.015 0.612-0.116 0.524-0.437-0.087-0.349-0.32 0.058-0.379 0.029-0.262-0.116 0.102-0.116 0.32-0.16 0.582-0.102 0.568 0.102 1.281-0.073 0.99-0.262-0.102-0.073-0.393-0.131-0.612-0.131-0.248 0-0.379-0.058-0.32-0.16 0.058-0.087 0.277-0.102 0.524-0.058 0.233 0.058 0.641 0.044 0.888-0.015 0.422-0.087 0.437-0.116 0.189-0.218-0.16-0.058-0.481-0.116-0.714-0.116-0.335-0.015-0.393-0.058-0.262-0.189 0.117-0.116 0.306-0.131 0.67-0.015 0.277 0.087 0.714 0.102 0.99 0.044l0.481-0.102-0.408-0.175c-0.233-0.087-0.582-0.16-0.801-0.16-0.277 0-0.335-0.044-0.218-0.16s0.291-0.116 0.655 0.015c0.32 0.116 0.67 0.146 0.932 0.073l0.422-0.116-0.437-0.189c-0.233-0.102-0.597-0.189-0.801-0.204-0.32-0.015-0.335-0.029-0.116-0.16 0.175-0.102 0.349-0.087 0.539 0.015 0.16 0.073 0.568 0.146 0.917 0.146 0.612-0.015 0.626-0.015 0.262-0.218-0.204-0.116-0.597-0.204-0.874-0.218-0.451 0-0.481-0.029-0.277-0.218 0.204-0.204 0.277-0.204 0.757 0 0.568 0.233 1.412 0.291 1.412 0.102 0-0.204-0.699-0.466-1.209-0.466-0.408 0-0.437-0.029-0.233-0.218 0.204-0.204 0.262-0.204 0.655 0 0.451 0.233 1.369 0.306 1.369 0.102 0-0.189-0.684-0.466-1.121-0.466-0.306 0-0.335-0.029-0.189-0.218 0.16-0.189 0.233-0.189 0.612 0.015 0.233 0.117 0.67 0.204 0.961 0.175l0.539-0.044-0.466-0.262c-0.262-0.131-0.612-0.248-0.786-0.248-0.262 0-0.277-0.029-0.131-0.218 0.16-0.204 0.218-0.204 0.422-0.015 0.233 0.204 0.553 0.277 1.15 0.248 0.481-0.029 0.262-0.277-0.422-0.451-0.32-0.087-0.539-0.218-0.495-0.291s0.262-0.029 0.481 0.087c0.539 0.277 1.107 0.277 0.99-0.015-0.058-0.16 0.029-0.218 0.32-0.218 0.306 0 0.349-0.029 0.175-0.146-0.175-0.102-0.116-0.146 0.218-0.146s0.393-0.044 0.218-0.146c-0.189-0.117-0.175-0.146 0.058-0.146 0.204 0 0.233-0.044 0.102-0.204s-0.087-0.175 0.204-0.117c0.481 0.087 0.466-0.204-0.015-0.32-0.218-0.058-0.349-0.131-0.32-0.175 0.044-0.029 0.262 0 0.481 0.087 0.291 0.102 0.451 0.117 0.568 0 0.102-0.102 0.087-0.146-0.058-0.146-0.189 0-0.189-0.029 0-0.146 0.175-0.117 0.16-0.146-0.102-0.146-0.233 0-0.291-0.073-0.233-0.291 0.116-0.437-0.087-0.349-0.277 0.102l-0.16 0.408-0.087-0.51c-0.058-0.335-0.131-0.451-0.204-0.32z"></path>
<path d="M5.706 11.85c0.044 0.073-0.058 0.175-0.248 0.233-0.306 0.087-0.291 0.102 0.131 0.262 0.248 0.102 0.422 0.262 0.393 0.364-0.058 0.131 0.029 0.146 0.349 0.015 0.32-0.117 0.379-0.117 0.233 0.029-0.335 0.335-0.204 0.466 0.189 0.204 0.422-0.262 0.626-0.218 0.277 0.073-0.364 0.291-0.248 0.495 0.146 0.233 0.524-0.349 0.582-0.277 0.117 0.146-0.393 0.349-0.393 0.364-0.058 0.262 0.233-0.058 0.306-0.044 0.248 0.073-0.073 0.102 0.015 0.16 0.204 0.16 0.175 0 0.262 0.058 0.218 0.146-0.058 0.087 0.087 0.146 0.349 0.146 0.233 0 0.481-0.073 0.524-0.146 0.044-0.087 0.189-0.146 0.306-0.146s0.204 0.058 0.204 0.146c0 0.073-0.131 0.146-0.277 0.146s-0.422 0.131-0.612 0.291l-0.349 0.277 0.451 0.015c0.248 0 0.626-0.131 0.83-0.291 0.32-0.248 0.379-0.262 0.539-0.073 0.146 0.175 0.131 0.218-0.117 0.218-0.16 0-0.437 0.131-0.626 0.291l-0.349 0.277 0.437 0.015c0.248 0 0.597-0.102 0.772-0.233 0.218-0.16 0.393-0.175 0.568-0.073 0.218 0.117 0.204 0.146-0.175 0.248-0.786 0.175-1.107 0.641-0.451 0.641 0.189 0 0.51-0.131 0.699-0.291 0.32-0.248 0.393-0.262 0.641-0.073 0.262 0.204 0.262 0.204-0.102 0.218-0.218 0-0.539 0.131-0.728 0.291l-0.349 0.277 0.495 0.015c0.277 0 0.612-0.102 0.757-0.233s0.364-0.204 0.495-0.16c0.335 0.131 0.262 0.393-0.102 0.393-0.437 0.015-0.917 0.364-0.699 0.51 0.218 0.131 0.801-0.029 1.063-0.291 0.189-0.175 0.248-0.175 0.481 0 0.262 0.204 0.262 0.204-0.102 0.218-0.204 0-0.495 0.102-0.655 0.218-0.277 0.204-0.277 0.204 0.015 0.233 0.539 0.058 0.83-0.015 1.223-0.291 0.364-0.262 0.379-0.32 0.306-1.369s-0.189-1.427-0.379-1.223c-0.044 0.044-0.087 0.451-0.073 0.903 0 0.481-0.058 0.772-0.131 0.728-0.087-0.058-0.146-0.437-0.146-0.874 0-0.845-0.102-1.238-0.32-1.238-0.087 0-0.117 0.364-0.087 0.859 0.029 0.582-0.015 0.83-0.117 0.786-0.102-0.029-0.16-0.408-0.146-0.917 0.015-0.466-0.044-0.903-0.102-0.961-0.218-0.233-0.408 0.306-0.32 0.947 0.058 0.539 0.044 0.612-0.146 0.451-0.146-0.117-0.189-0.349-0.131-0.772 0.073-0.612-0.117-1.136-0.335-0.932-0.058 0.073-0.117 0.364-0.117 0.67 0 0.349-0.058 0.539-0.146 0.495-0.087-0.029-0.16-0.349-0.16-0.699 0.015-0.364-0.044-0.626-0.131-0.612-0.073 0.015-0.146 0.248-0.146 0.51 0 0.539-0.291 0.553-0.306 0.015-0.015-0.714-0.058-0.874-0.204-0.786-0.073 0.044-0.146 0.248-0.146 0.451 0 0.189-0.058 0.349-0.131 0.349s-0.131-0.204-0.131-0.437c0.015-0.248-0.058-0.524-0.146-0.612-0.131-0.131-0.175-0.058-0.175 0.306 0 0.277-0.058 0.437-0.146 0.379s-0.146-0.175-0.131-0.262c0.044-0.393-0.029-0.684-0.16-0.684-0.073 0-0.146 0.175-0.146 0.379 0 0.218-0.058 0.335-0.146 0.277s-0.117-0.204-0.087-0.335c0.044-0.146 0.015-0.349-0.058-0.466-0.117-0.175-0.146-0.175-0.218 0.029-0.058 0.146-0.058 0.32 0 0.408 0.044 0.073 0.015 0.146-0.058 0.146-0.087 0-0.16-0.16-0.16-0.349 0-0.51-0.291-0.626-0.306-0.131-0.029 0.393-0.029 0.393-0.087 0.044-0.102-0.539-0.335-0.714-0.335-0.248 0 0.218-0.073 0.393-0.16 0.393s-0.117-0.117-0.058-0.277c0.044-0.16 0.015-0.32-0.073-0.379-0.087-0.044-0.146 0.044-0.146 0.204v0.306l-0.291-0.291c-0.291-0.291-0.67-0.408-0.524-0.16z"></path>
<path d="M17.108 18.14c-0.058 0.189-0.102 0.568-0.102 0.83 0 0.291-0.058 0.451-0.146 0.393s-0.102-0.335-0.058-0.67c0.087-0.524 0.073-0.568-0.233-0.568-0.262 0-0.306 0.058-0.262 0.335 0.058 0.291 0.015 0.335-0.277 0.277-0.393-0.073-0.422 0.058-0.087 0.437 0.218 0.248 0.204 0.262-0.291 0.262-0.306 0-0.539 0.058-0.539 0.131 0 0.189 0.641 0.277 1.019 0.131 0.248-0.087 0.408-0.058 0.568 0.102 0.204 0.204 0.204 0.233 0.015 0.218-0.466-0.073-0.743 0-0.641 0.16 0.058 0.102 0.306 0.131 0.582 0.087s0.524-0.015 0.568 0.058c0.058 0.073-0.044 0.131-0.204 0.131-0.175 0-0.306 0.058-0.306 0.146 0 0.146 0.291 0.218 0.786 0.16 0.16-0.015 0.451 0.131 0.655 0.32 0.772 0.684 0.947 0.743 0.408 0.116-0.451-0.553-0.539-0.757-0.539-1.34 0-0.772-0.102-1.15-0.32-1.15-0.087 0-0.116 0.306-0.087 0.714 0.029 0.539 0 0.684-0.131 0.582-0.102-0.102-0.146-0.422-0.087-0.917 0.087-0.859-0.131-1.558-0.291-0.947z"></path>
</svg>
